<svg
   xmlns:dc="http://purl.org/dc/elements/1.1/"
   xmlns:cc="http://creativecommons.org/ns#"
   xmlns:rdf="http://www.w3.org/1999/02/22-rdf-syntax-ns#"
   xmlns:svg="http://www.w3.org/2000/svg"
   xmlns="http://www.w3.org/2000/svg"
   id="svg137"
   width="40"
   version="1.1"
   height="40">
  <metadata
     id="metadata143">
    <rdf:RDF>
      <cc:Work
         rdf:about="">
        <dc:format>image/svg+xml</dc:format>
        <dc:type
           rdf:resource="http://purl.org/dc/dcmitype/StillImage" />
        <dc:title></dc:title>
      </cc:Work>
    </rdf:RDF>
  </metadata>
  <defs
     id="defs141" />
  <g
     id="RenderLayer_LineSet">
    <g
       style="display:inline"
       id="strokes">
      <path
         style="fill:none;stroke:#000000;stroke-width:4.9000001;stroke-linecap:butt;stroke-miterlimit:4;stroke-dasharray:none;stroke-opacity:1"
         id="path9"
         stroke-linejoin="mitter"
         d="m 296.16117,266.56298 0.067,0.661 1.326,2.57 2.333,0.61 1.993,0.48 0.251,-0.188" />
      <path
         style="fill:none;stroke:#000000;stroke-width:4.9000001;stroke-linecap:butt;stroke-miterlimit:4;stroke-dasharray:none;stroke-opacity:1"
         id="path11"
         stroke-linejoin="mitter"
         d="m 300.69517,268.51598 -1.126,-2.211 -0.305,-3.081" />
      <path
         style="fill:none;stroke:#000000;stroke-width:4.9000001;stroke-linecap:butt;stroke-miterlimit:4;stroke-dasharray:none;stroke-opacity:1"
         id="path13"
         stroke-linejoin="mitter"
         d="m 298.22217,264.34598 0.348,3.488 1.317,2.57" />
      <path
         style="fill:none;stroke:#000000;stroke-width:4.9000001;stroke-linecap:butt;stroke-miterlimit:4;stroke-dasharray:none;stroke-opacity:1"
         id="path15"
         stroke-linejoin="mitter"
         d="m 300.84517,261.52398 -0.269,2.653 0.42,4.29 0.072,0.141 0.003,0.006 0.197,0.387 0.863,1.695 0.173,0.341 2.342,0.613 1.974,0.474 2.453,-1.634 2.238,-3.553 2.014,-4.844 1.378,-5.489 0.55,-5.242 -0.361,-4.221 -0.227,-0.485" />
      <path
         style="fill:none;stroke:#000000;stroke-width:4.9000001;stroke-linecap:butt;stroke-miterlimit:4;stroke-dasharray:none;stroke-opacity:1"
         id="path17"
         stroke-linejoin="mitter"
         d="m 303.74217,258.40698 -0.262,1.026 -0.545,5.355 0.336,3.492 0.077,0.8 0.258,0.51 1.04,2.06" />
      <path
         style="fill:none;stroke:#000000;stroke-width:4.9000001;stroke-linecap:butt;stroke-miterlimit:4;stroke-dasharray:none;stroke-opacity:1"
         id="path19"
         stroke-linejoin="mitter"
         d="m 300.69517,268.51598 0.376,0.098" />
      <path
         style="fill:none;stroke:#000000;stroke-width:4.9000001;stroke-linecap:butt;stroke-miterlimit:4;stroke-dasharray:none;stroke-opacity:1"
         id="path21"
         stroke-linejoin="mitter"
         d="m 306.30817,255.64598 0.996,0.76 1.587,1.21 0.47,0.359 1.367,1.043 0.104,0.079 0.735,0.188 0.57,0.146 1.025,-1.122 0.185,-9.998 0.004,-0.242" />
      <path
         style="fill:none;stroke:#000000;stroke-width:4.9000001;stroke-linecap:butt;stroke-miterlimit:4;stroke-dasharray:none;stroke-opacity:1"
         id="path23"
         stroke-linejoin="mitter"
         d="m 312.13717,259.43098 -2.634,-2.014 -0.47,-0.36 -2.359,-1.804" />
      <path
         style="fill:none;stroke:#000000;stroke-width:4.9000001;stroke-linecap:butt;stroke-miterlimit:4;stroke-dasharray:none;stroke-opacity:1"
         id="path25"
         stroke-linejoin="mitter"
         d="m -3.3678333,83.345983 1.891,9.819 1.891,9.819997 1.891,9.819 1.891,9.82 1.891,9.82 1.891,9.819 1.891,9.82 1.8900003,9.819 1.890999,9.82 1.891,9.82 1.891,9.819 1.891,9.82 1.891,9.819 1.891,9.82 1.89,9.82 1.891,9.819 1.891,9.82 0.85,4.412 2.897,2.638 0.247,0.225 1.603,0.647 1.996,0.806 2.678,1.082 1.978,0.572 2.137,0.619 0.737,0.213 0.239,0.069 0.391,0.113 0.177,0.051 0.369,0.107 0.302,0.087 1.061,0.307 1.084,0.314 7.722,2.234 0.356,0.103 0.833,0.241 0.184,0.053 1.086,0.314 0.785,0.227 1.382,0.4 2.112,0.611 9.606,2.779 9.606,2.779 9.606,2.779 9.606004,2.779 9.606,2.779 9.607,2.779 9.606,2.779 0.956,0.277 9.606,2.779 9.606,2.779 9.606,2.779 9.606,2.779 9.606,2.779 9.606,2.779 9.606,2.779 9.606,2.779 9.606,2.779 9.421,2.726 1.917,0.554 1.631,0.472 4.738,1.205 0.842,0.214 1.4,0.355 0.343,0.088 1.128,0.286 1.147,0.292 0.403,0.102 0.774,0.197" />
      <path
         style="fill:none;stroke:#000000;stroke-width:4.9000001;stroke-linecap:butt;stroke-miterlimit:4;stroke-dasharray:none;stroke-opacity:1"
         id="path27"
         stroke-linejoin="mitter"
         d="m -23.799833,77.543983 -0.559,0.723 2.381,0.805 4,1.218 9.7879997,2.047 4.822,1.009 9.417,1.969 9.7889993,2.047 9.788,2.048 2.768,0.579 5.305,1.109 0.367,0.077 0.279,0.059 0.582,0.121 1.022,0.214 0.063,0.013 0.555,0.116 5.157,1.079 0.014,0.003 0.319,0.067 0.907,0.189 5.356,1.121 5.847,1.222 0.259,0.055 0.303,0.063 0.966,0.202 0.651,0.136 5.013,1.049 9.788,2.047 9.789,2.046997 9.788,2.048 9.788004,2.047 5.268,1.102 9.788,2.047 0.985,0.206 9.788,2.047 9.789,2.048 9.788,2.047 9.788,2.047 9.788,2.048 9.788,2.047 9.789,2.047 9.788,2.047 9.788,2.048 9.788,2.047 9.788,2.047 9.789,2.048 5.019,1.049 6.511,1.362 6.271,0.879 4.001,0.487 4.639,-1.47 7.826,-6.225 7.826,-6.225 7.826,-6.224 7.827,-6.225 7.826,-6.225 7.826,-6.224997 7.827,-6.225 7.452,-5.927 7.294,-5.802" />
      <path
         style="fill:none;stroke:#000000;stroke-width:4.9000001;stroke-linecap:butt;stroke-miterlimit:4;stroke-dasharray:none;stroke-opacity:1"
         id="path29"
         stroke-linejoin="mitter"
         d="m 330.90517,72.132983 -7.877,6.16 -0.182,0.142 -7.877,6.16 -7.877,6.161 -7.877,6.16 -7.878,6.159997 -7.877,6.16 -7.877,6.161 -7.877,6.16 -7.31,5.716 -3.183,0.933 -5.489,0.038 -1.51,-0.209 -4.784,-0.659 -9.795,-2.015 -9.795,-2.014 -9.795,-2.015 -9.795,-2.014 -9.795,-2.015 -9.795,-2.015 -9.795,-2.014 -9.795,-2.015 -9.795,-2.015 -9.795,-2.014 -9.795,-2.015 -9.795,-2.014 -9.795,-2.015 -9.795,-2.014997 -3.115,-0.641 -9.795004,-2.014 -9.795,-2.015 -9.795,-2.014 -9.795,-2.015 -3.833,-0.788 -0.871,-0.18 -6.645,-1.366 -0.372,-0.077 -9.795,-2.014 -5.238,-1.078 -0.311,-0.064 -7.384,-1.518 -0.172,-0.036 -9.795,-2.015 -9.794999,-2.014 -6.6450003,-1.367 -9.795,-2.014 -9.7949997,-2.015 -4.507,-0.927 -4.01,-1.201 -1.809,-1.395 0.855,-1.215 9.062,-4.23 9.0619997,-4.229 9.061,-4.229 9.0619993,-4.23 9.061,-4.229 9.062,-4.229 9.062,-4.23 9.061,-4.229 6.917,-3.228" />
      <path
         style="fill:none;stroke:#000000;stroke-width:4.9000001;stroke-linecap:butt;stroke-miterlimit:4;stroke-dasharray:none;stroke-opacity:1"
         id="path31"
         stroke-linejoin="mitter"
         d="m 292.76517,77.713983 -8.039,5.947 -8.04,5.947 -8.039,5.947 -8.04,5.946997 -8.04,5.947 -8.039,5.947 -5.775,4.271 -9.802,-1.98 -9.802,-1.98 -9.802,-1.981 -9.802,-1.98 -9.802,-1.981 -9.802,-1.98 -9.802,-1.981 -9.802,-1.98 -9.802,-1.980997 -9.802,-1.98 -9.802,-1.981 -9.801,-1.98 -5.721,-1.156 -0.245,-0.049 -9.802,-1.981 -9.802004,-1.98 -9.802,-1.981 -9.802,-1.98 -8.04,-1.625 -2.164,-0.437 -9.802,-1.98 -9.802,-1.981 -6.225,-1.257 -2.225,-0.45 -9.801,-1.98 -9.802,-1.981 -9.8019993,-1.98 -3.387,-0.685 -0.697,-0.14" />
      <path
         style="fill:none;stroke:#000000;stroke-width:4.9000001;stroke-linecap:butt;stroke-miterlimit:4;stroke-dasharray:none;stroke-opacity:1"
         id="path33"
         stroke-linejoin="mitter"
         d="m -24.766833,70.402983 0.967,7.141 0.016,0.113" />
      <path
         style="fill:none;stroke:#000000;stroke-width:4.9000001;stroke-linecap:butt;stroke-miterlimit:4;stroke-dasharray:none;stroke-opacity:1"
         id="path35"
         stroke-linejoin="mitter"
         d="m 240.71617,318.04198 0.816,-0.137 0.966,-0.162 3.144,-0.527 0.676,-0.114 0.78,-0.293 1.009,-0.38 0.534,-0.201 0.491,-0.185 0.917,-0.345 0.41,-0.154 0.267,-0.101 1.648,-1.773 6.808,-7.324 6.808,-7.324 6.809,-7.325 6.808,-7.324 6.808,-7.325 6.808,-7.324 2.938,-3.161 2.061,-2.217 1.042,-1.122 1.581,-1.7 0.702,-0.755 2.195,-2.362 2.566,-2.761 0.366,-0.393 1.111,-1.195 1.993,-2.144 0.671,-0.723 1.298,-1.396 0.263,-0.283 0.744,-0.8 0.597,-0.643 1.314,-1.413 4.054,-4.362 0.847,-9.964 0.846,-9.964 0.847,-9.964 0.847,-9.964 0.846,-9.964 0.847,-9.964 0.846,-9.964 0.847,-9.964 0.846,-9.964 0.847,-9.965 0.534,-6.28" />
      <path
         style="fill:none;stroke:#000000;stroke-width:4.9000001;stroke-linecap:butt;stroke-miterlimit:4;stroke-dasharray:none;stroke-opacity:1"
         id="path37"
         stroke-linejoin="mitter"
         d="m 238.56617,317.01898 -1.989,-0.4 -2.132,-0.429 -4.84,-0.973" />
      <path
         style="fill:none;stroke:#000000;stroke-width:4.9000001;stroke-linecap:butt;stroke-miterlimit:4;stroke-dasharray:none;stroke-opacity:1"
         id="path39"
         stroke-linejoin="mitter"
         d="m 260.45317,135.30298 -3.172,0.945 -5.468,0.038" />
      <path
         style="fill:none;stroke:#000000;stroke-width:4.9000001;stroke-linecap:butt;stroke-miterlimit:4;stroke-dasharray:none;stroke-opacity:1"
         id="path41"
         stroke-linejoin="mitter"
         d="m 312.20117,160.84798 5.414,-8.407 3.774,-5.861 4.386,-6.81 1.944,-3.397 4.967,-8.679 4.967,-8.679 4.968,-8.679 4.967,-8.679 3.105,-5.425997 1.348,-3.306 1.478,-9.89 0.727,-4.868 0.201,-1.639 1.22,-9.925 0.486,-3.959 6.865,-1.632 -2.139,-9.279 -3.896,-9.209 -2.499,-5.908 -6.058,-7.956 -2.45,-3.217 -8.493,-5.279 -1.986,-1.234 -2.854,-0.436 -9.886,-1.509 -9.885,-1.508 -9.886,-1.509 -9.885,-1.509 -9.886,-1.508 -9.885,-1.509 -9.886,-1.509 -9.885,-1.509 -9.886,-1.508 -9.885,-1.509 -9.886,-1.509 -9.885,-1.50800003 -9.886,-1.50899997 -9.886,-1.509 -3.697,-0.564 -9.885,-1.509 -9.886,-1.507998 -9.885,-1.509 -9.886,-1.509 -9.886,-1.509 -9.885,-1.508 -9.886,-1.509 -9.885,-1.509 -9.886,-1.508 -9.885004,-1.509 -9.886,-1.509 -9.885,-1.508 -7.51,-1.147 -2.244,-0.342 -9.93,-1.189 -7.559,-0.904 -9.87,1.605 -8.722,1.419 -9.146,4.044 -9.1449993,4.045 -0.649,0.287 -8.025,5.967 -8.024,5.966998 -2.3589997,1.75399997 -6.725,7.40100003 -4.658,5.128 -0.168,5.36 2.377,0.426 9.844,1.763 6.5009997,1.164 2.341,0.419 9.844,1.763 9.8429993,1.763 1.034,0.186 2.296,0.411 9.843,1.763 9.844,1.763 9.843,1.763 4.7,0.842 9.843,1.763 0.329,0.059 0.544,0.097 1.654,0.296 7.815,1.4 0.66,0.118 9.844,1.763 9.488,1.7 2.132,0.382 9.843004,1.763 4.069,0.728 2.342,0.42 9.843,1.763 9.843,1.763 9.844,1.763 9.843,1.763 9.844,1.763 9.843,1.763 9.843,1.763 9.844,1.763 9.843,1.763 9.843,1.763 9.844,1.763 9.843,1.763 9.843,1.763 9.844,1.763 9.843,1.763 5.878,1.053 3.106,0.556 9.78,-2.087 0.886,-0.19 3.171,-0.676" />
      <path
         style="fill:none;stroke:#000000;stroke-width:4.9000001;stroke-linecap:butt;stroke-miterlimit:4;stroke-dasharray:none;stroke-opacity:1"
         id="path43"
         stroke-linejoin="mitter"
         d="m -22.643833,12.738983 2.38,0.42 9.848,1.738 9.8479997,1.738 9.848,1.737 9.8479993,1.738 9.848,1.738 9.848,1.738 3.276,0.578 9.848,1.738 9.848,1.737 2.403,0.424 1.763,0.311 9.848,1.738 9.848,1.738 9.848,1.738 2.877,0.507 9.848004,1.738 6.196,1.093 9.848,1.738 9.848,1.738 9.848,1.737 9.848,1.738 9.847,1.738 9.848,1.738 9.848,1.737 9.848,1.738 9.848,1.738 9.848,1.738 9.848,1.737 9.847,1.738 9.848,1.738 9.848,1.737 9.848,1.738 6.061,1.07 3.112,0.549" />
      <path
         style="fill:none;stroke:#000000;stroke-width:4.9000001;stroke-linecap:butt;stroke-miterlimit:4;stroke-dasharray:none;stroke-opacity:1"
         id="path45"
         stroke-linejoin="mitter"
         d="m -4.0898333,21.451983 -0.221,6.158 2.338,0.426" />
      <path
         style="fill:none;stroke:#000000;stroke-width:4.9000001;stroke-linecap:butt;stroke-miterlimit:4;stroke-dasharray:none;stroke-opacity:1"
         id="path47"
         stroke-linejoin="mitter"
         d="m -1.7488333,21.870983 -0.201,5.533 -0.023,0.632 9.961,-0.876 9.9619993,-0.875 3.318,-0.291" />
      <path
         style="fill:none;stroke:#000000;stroke-width:4.9000001;stroke-linecap:butt;stroke-miterlimit:4;stroke-dasharray:none;stroke-opacity:1"
         id="path49"
         stroke-linejoin="mitter"
         d="m 270.69517,70.667983 0.545,-5.303 0.078,-0.754 5.34,-8.455 4.102,-6.494 1.9,-2.173 3.801,-4.345 6.583,-7.527 2.307,-2.637 8.034,-5.955 6.358,-4.711 9.47,-3.211 4.082,-1.383 9.951,0.986 2.251,0.224" />
      <path
         style="fill:none;stroke:#000000;stroke-width:4.9000001;stroke-linecap:butt;stroke-miterlimit:4;stroke-dasharray:none;stroke-opacity:1"
         id="path51"
         stroke-linejoin="mitter"
         d="m 280.20017,79.426983 3.031,0.553 9.534,-2.266 9.729,-2.311 9.73,-2.312 9.729,-2.311 1.062,-0.253 5.293,-1.257 3.017,-0.717 2.2,-0.523 0.729,-0.173" />
      <path
         style="fill:none;stroke:#000000;stroke-width:4.9000001;stroke-linecap:butt;stroke-miterlimit:4;stroke-dasharray:none;stroke-opacity:1"
         id="path53"
         stroke-linejoin="mitter"
         d="m 283.23117,79.979983 0.138,-1.298 1.054,-9.944 0.109,-1.023" />
      <path
         style="fill:none;stroke:#000000;stroke-width:4.9000001;stroke-linecap:butt;stroke-miterlimit:4;stroke-dasharray:none;stroke-opacity:1"
         id="path55"
         stroke-linejoin="mitter"
         d="m 280.20017,79.426983 1.046,-9.945 0.115,-1.091" />
      <path
         style="fill:none;stroke:#000000;stroke-width:4.9000001;stroke-linecap:butt;stroke-miterlimit:4;stroke-dasharray:none;stroke-opacity:1"
         id="path57"
         stroke-linejoin="mitter"
         d="m 331.32517,68.552983 -0.42,3.58 -0.922,7.867 -1.164,9.932 -0.512,4.369 -0.757,3.255 -1.233,2.775997 -4.071,6.17 -5.507,8.346 -5.507,8.347 -5.376,8.148 -0.474,0.718 -0.548,0.83 -0.235,0.357" />
      <path
         style="fill:none;stroke:#000000;stroke-width:4.9000001;stroke-linecap:butt;stroke-miterlimit:4;stroke-dasharray:none;stroke-opacity:1"
         id="path59"
         stroke-linejoin="mitter"
         d="m 334.25417,67.856983 -1.138,9.651 -1.17,9.931 -0.248,2.102 -0.622,5.272 -0.757,3.258 -1.231,2.779997 -5.489,8.359 -1.458,2.219 -5.489,8.359 -5.49,8.359 -2.474,3.768" />
      <path
         style="fill:none;stroke:#000000;stroke-width:4.9000001;stroke-linecap:butt;stroke-miterlimit:4;stroke-dasharray:none;stroke-opacity:1"
         id="path61"
         stroke-linejoin="mitter"
         d="m 303.43817,139.90998 -2.848,-0.587" />
      <path
         style="fill:none;stroke:#000000;stroke-width:4.9000001;stroke-linecap:butt;stroke-miterlimit:4;stroke-dasharray:none;stroke-opacity:1"
         id="path63"
         stroke-linejoin="mitter"
         d="m 305.85617,131.34298 -1.108,-0.224 -1.211,-0.151 -1.616,-0.201 -3.177,2.458 -0.117,0.191 -2.917,4.739 -2.408,6.592 -1.395,7.317 -0.163,6.877 0.81,3.914 0.277,1.338 1.954,2.625 0.195,0.261 8.188,1.787 2.821,0.109 3.1,-2.633 2.916,-4.942 0.196,-0.552 2.112,-5.95 0.6,-3.121 0.768,-3.989 0.227,-6.683 -0.956,-5.273 -2.013,-3.058" />
      <path
         style="fill:none;stroke:#000000;stroke-width:4.9000001;stroke-linecap:butt;stroke-miterlimit:4;stroke-dasharray:none;stroke-opacity:1"
         id="path65"
         stroke-linejoin="mitter"
         d="m 303.16817,168.86598 -2.106,-2.885 -1.05,-5.261 0.188,-6.896 1.405,-7.343 0.283,-0.78 2.116,-5.838 3.01,-4.954 3.14,-2.477 2.785,0.342" />
      <path
         style="fill:none;stroke:#000000;stroke-width:4.9000001;stroke-linecap:butt;stroke-miterlimit:4;stroke-dasharray:none;stroke-opacity:1"
         id="path67"
         stroke-linejoin="mitter"
         d="m 303.53717,130.96798 -0.046,-0.069 -7.137,-1.442 -2.866,-0.361 -3.207,2.436 -3.053,4.895" />
      <path
         style="fill:none;stroke:#000000;stroke-width:4.9000001;stroke-linecap:butt;stroke-miterlimit:4;stroke-dasharray:none;stroke-opacity:1"
         id="path69"
         stroke-linejoin="mitter"
         d="m 283.29717,157.10298 1.122,5.231 2.188,2.882 7.134,1.557 1.044,0.045" />
      <path
         style="fill:none;stroke:#000000;stroke-width:4.9000001;stroke-linecap:butt;stroke-miterlimit:4;stroke-dasharray:none;stroke-opacity:1"
         id="path71"
         stroke-linejoin="mitter"
         d="m 306.82917,160.50998 -1,0.037 -0.931,-1.17 -0.561,-2.793 0.164,-4.23 0.922,-4.463 1.37,-3.639 1.39,-2.282 1.119,-0.947 0.994,0.007" />
      <path
         style="fill:none;stroke:#000000;stroke-width:4.9000001;stroke-linecap:butt;stroke-miterlimit:4;stroke-dasharray:none;stroke-opacity:1"
         id="path73"
         stroke-linejoin="mitter"
         d="m 306.82917,160.50998 0.687,-0.297 0.199,-0.086 1.05,-0.922 1.273,-2.122 1.283,-3.461 0.868,-4.197 0.163,-3.877 -0.506,-2.645 -0.86,-1.143 -0.69,-0.73" />
      <path
         style="fill:none;stroke:#000000;stroke-width:4.9000001;stroke-linecap:butt;stroke-miterlimit:4;stroke-dasharray:none;stroke-opacity:1"
         id="path75"
         stroke-linejoin="mitter"
         d="m 293.74117,166.77298 -2.151,-2.881 -1.09,-5.24 0.159,-6.861 1.391,-7.3 2.405,-6.576 3.032,-4.916 3.176,-2.452 2.828,0.352" />
      <path
         style="fill:none;stroke:#000000;stroke-width:4.9000001;stroke-linecap:butt;stroke-miterlimit:4;stroke-dasharray:none;stroke-opacity:1"
         id="path77"
         stroke-linejoin="mitter"
         d="m 287.22817,136.42698 -2.411,6.552 -1.384,7.279 -0.136,6.845" />
      <path
         style="fill:none;stroke:#000000;stroke-width:4.9000001;stroke-linecap:butt;stroke-miterlimit:4;stroke-dasharray:none;stroke-opacity:1"
         id="path79"
         stroke-linejoin="mitter"
         d="m 310.98617,141.75998 -0.142,-0.001 -0.794,-0.005 -1.053,0.894 -1.309,2.153 -1.289,3.43 -0.869,4.205 -0.157,3.988 0.526,2.633 0.876,1.103 0.472,-0.017 0.468,-0.016" />
      <path
         style="fill:none;stroke:#000000;stroke-width:4.9000001;stroke-linecap:butt;stroke-miterlimit:4;stroke-dasharray:none;stroke-opacity:1"
         id="path81"
         stroke-linejoin="mitter"
         d="m 236.57517,317.87998 -1.654,3.76 -0.685,2.645 -0.93,3.595 -0.488,5.842 0.712,4.527 1.786,2.518 2.155,0.125" />
      <path
         style="fill:none;stroke:#000000;stroke-width:4.9000001;stroke-linecap:butt;stroke-miterlimit:4;stroke-dasharray:none;stroke-opacity:1"
         id="path83"
         stroke-linejoin="mitter"
         d="m 236.05517,338.35698 -1.335,-1.894 -0.606,-3.885 0.419,-5.007 0.77,-2.974 0.613,-2.372 0.739,-1.681 1.03,-2.343" />
      <path
         style="fill:none;stroke:#000000;stroke-width:4.9000001;stroke-linecap:butt;stroke-miterlimit:4;stroke-dasharray:none;stroke-opacity:1"
         id="path85"
         stroke-linejoin="mitter"
         d="m 234.02617,317.14098 -1.657,3.755 -0.525,2.024 -0.06,0.233 -1.03,3.976 -0.482,5.837 0.719,4.525 1.798,2.518 2.527,0.758" />
      <path
         style="fill:none;stroke:#000000;stroke-width:4.9000001;stroke-linecap:butt;stroke-miterlimit:4;stroke-dasharray:none;stroke-opacity:1"
         id="path87"
         stroke-linejoin="mitter"
         d="m 239.21817,318.64498 -1.652,3.766 -1.616,6.247 -0.492,5.848 0.597,3.851 0.105,0.678 0.231,0.327 1.08,1.53 0.465,0.66 2.539,0.761 2.55,0.142 3.059,-2.182 2.755,-4.248 2.396,-5.559 1.558,-6.135 0.509,-5.719 -0.62,-4.462 -0.308,-0.48" />
      <path
         style="fill:none;stroke:#000000;stroke-width:4.9000001;stroke-linecap:butt;stroke-miterlimit:4;stroke-dasharray:none;stroke-opacity:1"
         id="path89"
         stroke-linejoin="mitter"
         d="m 239.99717,323.66998 -1.484,5.743 -0.497,5.853 0.525,3.431 0.169,1.1 0.212,0.302 1.553,2.214" />
      <path
         style="fill:none;stroke:#000000;stroke-width:4.9000001;stroke-linecap:butt;stroke-miterlimit:4;stroke-dasharray:none;stroke-opacity:1"
         id="path91"
         stroke-linejoin="mitter"
         d="m 226.05717,314.19098 0.29,6.361 5.437,2.601" />
      <path
         style="fill:none;stroke:#000000;stroke-width:4.9000001;stroke-linecap:butt;stroke-miterlimit:4;stroke-dasharray:none;stroke-opacity:1"
         id="path93"
         stroke-linejoin="mitter"
         d="m 227.48917,315.24798 6.136,1.777 0.401,0.116 1.177,0.341 1.372,0.398 0.027,0.008 1.083,0.313 1.533,0.444 0.577,0.167 0.016,0.391 0.186,4.467 0.037,0.88 4.055,1.963 1.751,0.848 0.635,0.308 1.036,0.501 0.486,0.142 0.928,0.272 0.13,-0.142 1.143,-1.25 -0.04,-3.087 -0.109,-8.407" />
      <path
         style="fill:none;stroke:#000000;stroke-width:4.9000001;stroke-linecap:butt;stroke-miterlimit:4;stroke-dasharray:none;stroke-opacity:1"
         id="path95"
         stroke-linejoin="mitter"
         d="m 227.76517,320.96698 -0.276,-5.719" />
      <path
         style="fill:none;stroke:#000000;stroke-width:4.9000001;stroke-linecap:butt;stroke-miterlimit:4;stroke-dasharray:none;stroke-opacity:1"
         id="path97"
         stroke-linejoin="mitter"
         d="m 226.34717,320.55198 1.418,0.415 4.079,1.953" />
      <path
         style="fill:none;stroke:#000000;stroke-width:4.9000001;stroke-linecap:butt;stroke-miterlimit:4;stroke-dasharray:none;stroke-opacity:1"
         id="path99"
         stroke-linejoin="mitter"
         d="m 241.21717,318.23898 -0.861,-0.249 -0.755,-0.218 -0.398,-0.115" />
      <path
         style="fill:none;stroke:#000000;stroke-width:4.9000001;stroke-linecap:butt;stroke-miterlimit:4;stroke-dasharray:none;stroke-opacity:1"
         id="path101"
         stroke-linejoin="mitter"
         d="m 241.46917,324.96898 -0.252,-6.73 0.315,-0.334" />
      <path
         style="fill:none;stroke:#000000;stroke-width:4.9000001;stroke-linecap:butt;stroke-miterlimit:4;stroke-dasharray:none;stroke-opacity:1"
         id="path103"
         stroke-linejoin="mitter"
         d="m 248.92517,328.58398 -2.387,-1.158 -0.636,-0.308 -4.433,-2.149 -1.435,-0.419" />
      <path
         style="fill:none;stroke:#000000;stroke-width:4.9000001;stroke-linecap:butt;stroke-miterlimit:4;stroke-dasharray:none;stroke-opacity:1"
         id="path105"
         stroke-linejoin="mitter"
         d="m 42.887166,261.79098 -1.815,3.355 -0.578,2.112 -0.98,3.576 -0.143,5.438 1.287,4.335 2.505,2.566 1.779,0.228" />
      <path
         style="fill:none;stroke:#000000;stroke-width:4.9000001;stroke-linecap:butt;stroke-miterlimit:4;stroke-dasharray:none;stroke-opacity:1"
         id="path107"
         stroke-linejoin="mitter"
         d="m 42.313166,279.40098 -0.358,-0.369 -1.1,-3.719 0.125,-4.661 0.783,-2.859 0.552,-2.014 1.419,-2.629" />
      <path
         style="fill:none;stroke:#000000;stroke-width:4.9000001;stroke-linecap:butt;stroke-miterlimit:4;stroke-dasharray:none;stroke-opacity:1"
         id="path109"
         stroke-linejoin="mitter"
         d="m 40.749166,261.17198 -1.815,3.351 -0.473,1.725 -0.038,0.137 -1.047,3.82 -0.14,5.433 1.293,4.332 2.512,2.567 2.122,0.636" />
      <path
         style="fill:none;stroke:#000000;stroke-width:4.9000001;stroke-linecap:butt;stroke-miterlimit:4;stroke-dasharray:none;stroke-opacity:1"
         id="path111"
         stroke-linejoin="mitter"
         d="m 43.943166,264.57898 -0.654,1.213 -0.612,2.235 -0.037,0.136 -0.91,3.324 -0.148,5.442 0.731,2.472 0.551,1.865 1.605,1.649 0.473,0.486 0.419,0.431 2.131,0.638 3.306,0.42 3.712,-1.727 3.266,-3.676 2.632,-4.971 1.503,-5.606 0.072,-2.186" />
      <path
         style="fill:none;stroke:#000000;stroke-width:4.9000001;stroke-linecap:butt;stroke-miterlimit:4;stroke-dasharray:none;stroke-opacity:1"
         id="path113"
         stroke-linejoin="mitter"
         d="m 45.083166,267.70998 -0.094,0.341 -1.113,4.068 -0.15,5.447 0.801,2.724 0.307,1.046 0.04,0.136 0.127,0.433 1.591,1.639 0.9,0.926" />
      <path
         style="fill:none;stroke:#000000;stroke-width:4.9000001;stroke-linecap:butt;stroke-miterlimit:4;stroke-dasharray:none;stroke-opacity:1"
         id="path115"
         stroke-linejoin="mitter"
         d="m 32.524166,257.32898 -0.559,0.405 0.933,6.321 5.525,2.33" />
      <path
         style="fill:none;stroke:#000000;stroke-width:4.9000001;stroke-linecap:butt;stroke-miterlimit:4;stroke-dasharray:none;stroke-opacity:1"
         id="path117"
         stroke-linejoin="mitter"
         d="m 33.267166,259.00498 5.136,1.488 2.346,0.679 2.138,0.619 0.677,0.196 0.17,1.163 0.209,1.429 0.266,1.815 0.134,0.92 0.013,0.088 0.727,0.308 0.231,0.098 8.984,3.809 0.034,0.015 1.109,0.324 0.078,0.023 1.196,-0.913 0.336,-0.256 -0.076,-0.702 -0.397,-3.662 -0.144,-1.327" />
      <path
         style="fill:none;stroke:#000000;stroke-width:4.9000001;stroke-linecap:butt;stroke-miterlimit:4;stroke-dasharray:none;stroke-opacity:1"
         id="path119"
         stroke-linejoin="mitter"
         d="m 34.085166,264.40198 -0.818,-5.397" />
      <path
         style="fill:none;stroke:#000000;stroke-width:4.9000001;stroke-linecap:butt;stroke-miterlimit:4;stroke-dasharray:none;stroke-opacity:1"
         id="path121"
         stroke-linejoin="mitter"
         d="m 32.898166,264.05498 1.187,0.347 4.376,1.846" />
      <path
         style="fill:none;stroke:#000000;stroke-width:4.9000001;stroke-linecap:butt;stroke-miterlimit:4;stroke-dasharray:none;stroke-opacity:1"
         id="path123"
         stroke-linejoin="mitter"
         d="m 45.557166,267.75298 -0.016,-0.115 -0.419,-2.967 -0.254,-1.805 -0.161,-1.14" />
      <path
         style="fill:none;stroke:#000000;stroke-width:4.9000001;stroke-linecap:butt;stroke-miterlimit:4;stroke-dasharray:none;stroke-opacity:1"
         id="path125"
         stroke-linejoin="mitter"
         d="m 55.519166,271.97898 -0.075,-0.032 -9.206,-3.905 -0.681,-0.289 -0.122,-0.036 -1.079,-0.315" />
      <path
         style="fill:none;stroke:#000000;stroke-width:4.9000001;stroke-linecap:butt;stroke-miterlimit:4;stroke-dasharray:none;stroke-opacity:1"
         id="path127"
         stroke-linejoin="mitter"
         d="m 36.370166,259.00698 -2.222,-0.642 -2.183,-0.631" />
      <path
         style="fill:none;stroke:#000000;stroke-width:4.9000001;stroke-linecap:butt;stroke-miterlimit:4;stroke-dasharray:none;stroke-opacity:1"
         id="path129"
         stroke-linejoin="mitter"
         d="m -1.9498333,27.403983 9.962,-0.867 9.9619993,-0.867 0.998,-0.087" />
      <path
         style="fill:none;stroke:#000000;stroke-width:4.9000001;stroke-linecap:butt;stroke-miterlimit:4;stroke-dasharray:none;stroke-opacity:1"
         id="path131"
         stroke-linejoin="mitter"
         d="m 75.683166,35.739983 -9.004,4.351 -1.366,0.66 -9.004,4.351 -9.004,4.351 -9.004,4.351 -9.003,4.351 -9.004,4.351 -9.003999,4.351 -7.0810003,3.422" />
      <path
         style="fill:none;stroke:#000000;stroke-width:4.9000001;stroke-linecap:butt;stroke-miterlimit:4;stroke-dasharray:none;stroke-opacity:1"
         id="path133"
         stroke-linejoin="mitter"
         d="m 115.40917,92.745983 -0.728,-9.973 -0.728,-9.974 -0.728,-9.973 -0.728,-9.974 -0.728,-9.973 -0.05,-0.685" />
    </g>
  </g>
</svg>
