<?xml version="1.0" encoding="UTF-8" standalone="no"?>
<svg
   xmlns:dc="http://purl.org/dc/elements/1.1/"
   xmlns:cc="http://creativecommons.org/ns#"
   xmlns:rdf="http://www.w3.org/1999/02/22-rdf-syntax-ns#"
   xmlns:svg="http://www.w3.org/2000/svg"
   xmlns="http://www.w3.org/2000/svg"
   id="svg181"
   width="400"
   version="1.1"
   height="400">
  <metadata
     id="metadata187">
    <rdf:RDF>
      <cc:Work
         rdf:about="">
        <dc:format>image/svg+xml</dc:format>
        <dc:type
           rdf:resource="http://purl.org/dc/dcmitype/StillImage" />
        <dc:title></dc:title>
      </cc:Work>
    </rdf:RDF>
  </metadata>
  <defs
     id="defs185" />
  <g
     id="RenderLayer_LineSet">
    <g
       style="display:inline"
       id="fills">
      <path
         style="fill:#cccccc;fill-opacity:1;stroke:none"
         id="path2"
         fill_rule="evenodd"
         d="m 90.376,334.486 v -4.261 z" />
      <path
         style="fill:#cccccc;fill-opacity:1;stroke:none"
         id="path4"
         fill_rule="evenodd"
         d="m 80.811,332.399 -0.881,-0.044 -1.087,0.586 z" />
      <path
         style="fill:#cccccc;fill-opacity:1;stroke:none"
         id="path6"
         fill_rule="evenodd"
         d="m 314.941,175.622 -1.78,4.29 -1.013,5.867 -0.084,6.532 z" />
      <path
         style="fill:#cccccc;fill-opacity:1;stroke:none"
         id="path8"
         fill_rule="evenodd"
         d="m 372.08,150.471 -3.211,-2.507 z" />
      <path
         style="fill:#cccccc;fill-opacity:1;stroke:none"
         id="path10"
         fill_rule="evenodd"
         d="m 349.497,132.842 -37.649,-29.409 0.889,-9.873 -132.056,4.827 -72.144,2.637 -48.442,1.771 -1.157,9.027 43.845,23.607 z" />
      <path
         style="fill:#ff2a2a;fill-opacity:1;stroke:none"
         id="path12"
         fill_rule="evenodd"
         d="m 98.651,338.075 47.157,2.286 -0.374,3.907 0.492,4.968 1.397,4.02 2.082,2.456 2.342,0.522 2.04,0.11 0.457,-0.265 1.855,0.39 2.046,0.111 2.312,-1.475 2.032,-3.227 1.346,-4.535 0.474,-5.073 -0.098,-1.017 15.26,0.739 90.441,4.384 0.098,7.062 3.981,7.824 -0.41,5.165 0.476,5.757 1.354,4.624 2.015,2.778 2.24,0.516 2.479,0.149 0.462,-0.336 2.347,0.505 2.488,0.149 2.2,-1.802 1.955,-3.818 1.292,-5.307 0.455,-5.9 -0.448,-5.617 -1.299,-4.602 -0.072,-0.105 v -8.195 l 31.782,-6.994 0.041,3.184 3.631,7.852 -0.296,4.049 0.401,5.291 1.139,4.268 1.697,2.59 1.876,0.522 2.317,0.126 0.529,-0.404 0.008,0.012 2.089,0.534 2.324,0.126 1.844,-1.606 1.648,-3.466 1.089,-4.849 0.384,-5.41 -0.377,-5.168 -0.832,-3.226 v -8.904 l -0.648,-0.028 6.073,-2.695 7.076,-128.419 18.544,-20.599 0.993,-2.07 1.354,-12.541 0.114,-1.423 0.613,-7.597 3.417,-0.057 2.399,-0.04 -2.009,-10.768 -5.51,-19.63 -6.901,-17.178 -8.117,-14.067 -9.107,-10.331 -9.817,-6.037 -10.185,-1.285 -2.587,0.114 -130.8,5.77 -119.57,5.274 -2.158,0.095 -13.303,3.616 -8.525,5.581 -0.57,4.372 12.6,6.918 -1.159,9.019 43.924,23.586 -54.268,1.298 -3.888,0.131 -2.054,0.152 v 6.644 l -0.291,0.01 0.61,0.177 15.943,1.032 10.59,180.305 4.748,3.003 z m 233.258,-0.019 -1.468,1.115 v -2.512 l 3.464,-0.762 1.82,0.079 0.039,2.667 -1.538,-0.483 z m -52.123,11.624 -1.506,1.078 v -3.432 l 4.97,0.242 0.039,2.512 -1.024,-0.277 z m -198.335,-0.118 -0.198,0.593 -0.578,5.582 0.578,5.376 1.641,4.334 2.446,2.626 2.76,0.522 2.159,0.129 0.402,-0.221 2.044,0.368 2.166,0.13 2.725,-1.641 2.384,-3.531 1.579,-4.933 0.556,-5.501 -0.549,-5.251 -1.586,-4.315 -1.329,-1.493 z m -1.101,-13.48 -2.912,0.447 0.128,7.105 3.885,5.928 z m 6.768,4.709 v -2.768 l 1.924,0.094 0.044,2.132 z" />
      <g
         id="RenderLayer_LineSet-3"
         transform="translate(1.4617813,-3.4380262)">
        <g
           id="strokes-4">
          <path
             id="path2-8"
             stroke-linejoin="mitter"
             d="m 218.653,225.702 -0.588,-0.021 -1.218,0.048 -1.138,0.164 -1.052,0.277 -0.963,0.386 -0.867,0.491 -0.768,0.594 -0.663,0.693 -0.553,0.788 -0.439,0.881 -0.32,0.969 -0.196,1.055 -0.066,1.137 0.23,1.767 0.634,1.571 0.959,1.399 1.204,1.252 1.367,1.129 1.449,1.029 1.451,0.954 1.371,0.902 1.209,0.875 0.966,0.871 0.639,0.892 0.232,0.934 -0.035,0.478 -0.099,0.437 -0.16,0.398 -0.216,0.358 -0.268,0.318 -0.314,0.278 -0.356,0.239 -0.393,0.199 -0.425,0.16 -0.454,0.12 -0.476,0.081 -0.495,0.041 -0.522,-0.034 -0.559,-0.084 -0.594,-0.134 -0.626,-0.186 -0.656,-0.237 -0.683,-0.289 -0.708,-0.34 -0.732,-0.393 -0.752,-0.446 -0.77,-0.499 -0.785,-0.552 -0.8,-0.606 v 5.947 l 0.789,0.455 0.76,0.408 0.736,0.361 0.717,0.318 0.704,0.275 0.695,0.235 0.692,0.196 0.694,0.159 0.702,0.123 0.714,0.091 0.731,0.059 0.755,0.029 1.161,-0.045 1.103,-0.178 1.036,-0.305 0.961,-0.426 0.879,-0.543 0.788,-0.653 0.689,-0.757 0.582,-0.857 0.467,-0.95 0.343,-1.037 0.212,-1.119 0.073,-1.195 -0.033,-0.699 -0.099,-0.668 -0.17,-0.645 -0.246,-0.628 -0.324,-0.619 -0.406,-0.617 -0.493,-0.621 -0.584,-0.634 -0.677,-0.653 -0.775,-0.68 -0.876,-0.713 -0.982,-0.753 -1.049,-0.702 -0.937,-0.646 -0.83,-0.596 -0.727,-0.548 -0.627,-0.506 -0.531,-0.467 -0.44,-0.431 -0.351,-0.401 -0.266,-0.374 -0.186,-0.35 -0.109,-0.332 -0.035,-0.317 0.026,-0.362 0.078,-0.342 0.127,-0.319 0.175,-0.294 0.221,-0.266 0.265,-0.238 0.306,-0.205 0.347,-0.173 0.384,-0.136 0.421,-0.099 0.455,-0.058 0.487,-0.016 0.477,0.023 0.507,0.061 0.536,0.1 0.563,0.14 0.587,0.181 0.609,0.222 0.629,0.266 0.647,0.31 0.663,0.355 0.677,0.402 0.688,0.449 0.698,0.497 v -5.482 l -0.655,-0.378 -0.646,-0.346 -0.638,-0.311 -0.629,-0.279 -0.623,-0.245 -0.615,-0.213 -0.61,-0.18 -0.604,-0.147 -0.599,-0.116 -0.595,-0.084 -0.591,-0.052"
             style="fill:none;stroke:#000000;stroke-width:3;stroke-linecap:butt;stroke-opacity:1" />
          <path
             id="path4-2"
             stroke-linejoin="mitter"
             d="m 196.383,225.587 -1.585,-0.118 -1.657,0.101 -1.559,0.327 -1.453,0.544 -1.337,0.749 -1.213,0.944 -1.08,1.129 -0.938,1.304 -0.787,1.468 -0.628,1.623 -0.459,1.767 -0.283,1.903 -0.096,2.027 0.088,1.888 0.262,1.846 0.434,1.78 0.601,1.693 0.767,1.583 0.93,1.451 1.09,1.296 1.247,1.119 1.402,0.918 1.554,0.695 1.704,0.449 1.851,0.18 1.014,-0.002 0.96,-0.048 0.91,-0.093 0.868,-0.139 0.83,-0.185 0.8,-0.231 0.775,-0.279 0.756,-0.326 0.743,-0.373 0.737,-0.422 0.736,-0.47 0.743,-0.518 v -5.319 l -0.719,0.496 -0.716,0.458 -0.715,0.419 -0.715,0.379 -0.715,0.337 -0.717,0.295 -0.718,0.251 -0.721,0.206 -0.725,0.16 -0.729,0.111 -0.733,0.063 -0.74,0.013 -1.142,-0.079 -1.06,-0.195 -0.979,-0.311 -0.898,-0.424 -0.815,-0.538 -0.733,-0.652 -0.65,-0.764 -0.567,-0.875 -0.485,-0.987 -0.401,-1.097 -0.318,-1.206 -0.233,-1.316 9.999,0.145 7.388,0.108 -0.087,-2.459 -0.256,-2.242 -0.418,-2.027 -0.574,-1.812 -0.723,-1.597 -0.867,-1.383 -1.003,-1.17 -1.132,-0.958 -1.256,-0.747 -1.372,-0.536 -1.482,-0.327"
             style="fill:none;stroke:#000000;stroke-width:3;stroke-linecap:butt;stroke-opacity:1" />
          <path
             id="path6-7"
             stroke-linejoin="mitter"
             d="m 194.005,230.256 0.903,-0.042 0.838,0.064 0.781,0.17 0.721,0.272 0.661,0.37 0.596,0.465 0.53,0.555 0.461,0.643 0.39,0.725 0.317,0.805 0.241,0.879 0.163,0.951 0.082,1.018 -9.999,-0.133 -2.415,-0.032 0.197,-1.048 0.263,-0.967 0.328,-0.883 0.394,-0.797 0.458,-0.709 0.522,-0.62 0.587,-0.528 0.65,-0.434 0.714,-0.34 0.777,-0.242 0.84,-0.142"
             style="fill:none;stroke:#000000;stroke-width:3;stroke-linecap:butt;stroke-opacity:1" />
          <path
             id="path8-4"
             stroke-linejoin="mitter"
             d="m 172.272,225.278 -0.684,-0.021 -1.778,0.102 -1.657,0.333 -1.53,0.556 -1.396,0.771 -1.255,0.975 -1.109,1.173 -0.956,1.361 -0.797,1.541 -0.631,1.713 -0.459,1.877 -0.28,2.032 -0.095,2.18 0.104,1.958 0.303,1.851 0.493,1.733 0.673,1.604 0.843,1.462 1.003,1.31 1.155,1.147 1.295,0.971 1.427,0.783 1.549,0.585 1.66,0.374 1.762,0.15 0.646,-0.002 0.661,-0.031 0.67,-0.056 0.672,-0.081 0.667,-0.103 0.656,-0.124 0.636,-0.142 0.61,-0.158 0.578,-0.172 0.538,-0.184 0.49,-0.195 0.437,-0.204 v -5.392 l -0.601,0.284 -0.583,0.258 -0.566,0.232 -0.552,0.208 -0.539,0.182 -0.53,0.156 -0.521,0.131 -0.515,0.106 -0.512,0.08 -0.509,0.055 -0.51,0.029 -0.512,0.004 -1.206,-0.092 -1.128,-0.229 -1.045,-0.361 -0.956,-0.491 -0.863,-0.614 -0.764,-0.735 -0.661,-0.851 -0.552,-0.962 -0.438,-1.071 -0.32,-1.175 -0.195,-1.274 -0.067,-1.371 0.062,-1.346 0.182,-1.262 0.295,-1.172 0.403,-1.075 0.506,-0.971 0.603,-0.861 0.694,-0.745 0.78,-0.622 0.859,-0.493 0.934,-0.357 1.002,-0.214 1.064,-0.065 0.523,0.019 0.515,0.047 0.512,0.079 0.514,0.113 0.519,0.151 0.528,0.191 0.543,0.235 0.56,0.281 0.583,0.331 0.608,0.384 0.639,0.439 0.674,0.499 v -5.82 l -0.575,-0.287 -0.562,-0.269 -0.553,-0.248 -0.549,-0.227 -0.549,-0.204 -0.555,-0.182 -0.564,-0.157 -0.579,-0.133 -0.598,-0.106 -0.623,-0.078 -0.651,-0.051"
             style="fill:none;stroke:#000000;stroke-width:3;stroke-linecap:butt;stroke-opacity:1" />
          <path
             id="path10-0"
             stroke-linejoin="mitter"
             d="m 152.014,214.187 -0.38,-0.032 -0.38,0.028 -0.365,0.084 -0.347,0.137 -0.325,0.186 -0.3,0.231 -0.272,0.271 -0.239,0.308 -0.203,0.341 -0.165,0.369 -0.122,0.395 -0.075,0.415 -0.026,0.432 0.026,0.433 0.075,0.416 0.122,0.396 0.164,0.372 0.204,0.343 0.239,0.311 0.272,0.275 0.3,0.234 0.325,0.19 0.347,0.142 0.365,0.089 0.38,0.032 0.38,-0.026 0.366,-0.084 0.347,-0.136 0.326,-0.186 0.301,-0.23 0.272,-0.271 0.24,-0.308 0.204,-0.341 0.165,-0.371 0.122,-0.395 0.076,-0.416 0.027,-0.433 -0.027,-0.433 -0.076,-0.417 -0.122,-0.397 -0.165,-0.372 -0.204,-0.344 -0.24,-0.311 -0.272,-0.275 -0.301,-0.234 -0.326,-0.189 -0.347,-0.141 -0.366,-0.088"
             style="fill:none;stroke:#000000;stroke-width:3;stroke-linecap:butt;stroke-opacity:1" />
          <path
             id="path12-8"
             stroke-linejoin="mitter"
             d="m 153.979,225.643 -4.739,-0.045 v 10 10 7.215 l 4.739,0.091 v -10 -10 -7.261"
             style="fill:none;stroke:#000000;stroke-width:3;stroke-linecap:butt;stroke-opacity:1" />
          <path
             id="path14"
             stroke-linejoin="mitter"
             d="m 127.982,225.4 -5.067,-0.047 3.582,9.336 3.581,9.337 3.464,9.027 1.577,0.031 3.552,-9.348 3.553,-9.348 3.353,-8.824 -5.028,-0.047 -3.512,9.363 -2.707,7.217 -3.553,-9.347 -2.795,-7.35"
             style="fill:none;stroke:#000000;stroke-width:3;stroke-linecap:butt;stroke-opacity:1" />
          <path
             id="path16"
             stroke-linejoin="mitter"
             d="m 112.414,224.818 -1.492,-0.115 -1.559,0.099 -1.467,0.318 -1.366,0.527 -1.258,0.727 -1.141,0.917 -1.017,1.095 -0.882,1.265 -0.741,1.425 -0.591,1.574 -0.432,1.715 -0.266,1.845 -0.09,1.966 0.082,1.832 0.247,1.79 0.408,1.727 0.566,1.642 0.722,1.536 0.875,1.407 1.025,1.256 1.174,1.084 1.319,0.89 1.462,0.674 1.603,0.434 1.741,0.173 0.954,-0.002 0.903,-0.047 0.857,-0.09 0.816,-0.135 0.781,-0.18 0.752,-0.226 0.729,-0.27 0.711,-0.317 0.699,-0.362 0.693,-0.41 0.693,-0.456 0.698,-0.503 v -5.158 l -0.675,0.481 -0.674,0.444 -0.673,0.407 -0.672,0.368 -0.673,0.328 -0.674,0.286 -0.676,0.244 -0.678,0.2 -0.682,0.155 -0.685,0.109 -0.691,0.061 -0.695,0.013 -1.074,-0.076 -0.998,-0.189 -0.921,-0.3 -0.844,-0.412 -0.767,-0.522 -0.69,-0.631 -0.612,-0.741 -0.534,-0.848 -0.455,-0.957 -0.378,-1.064 -0.299,-1.17 -0.219,-1.277 9.999,0.146 6.357,0.093 -0.082,-2.385 -0.24,-2.175 -0.393,-1.965 -0.54,-1.757 -0.681,-1.549 -0.815,-1.341 -0.943,-1.135 -1.065,-0.928 -1.182,-0.724 -1.29,-0.52 -1.394,-0.316"
             style="fill:none;stroke:#000000;stroke-width:3;stroke-linecap:butt;stroke-opacity:1" />
          <path
             id="path18"
             stroke-linejoin="mitter"
             d="m 110.176,229.346 0.85,-0.04 0.788,0.062 0.735,0.164 0.679,0.263 0.621,0.359 0.561,0.451 0.498,0.539 0.434,0.623 0.367,0.703 0.298,0.78 0.226,0.853 0.154,0.922 0.077,0.987 -9.999,-0.132 -1.679,-0.023 0.185,-1.017 0.247,-0.938 0.309,-0.856 0.37,-0.773 0.431,-0.688 0.492,-0.601 0.551,-0.513 0.612,-0.422 0.672,-0.329 0.731,-0.235 0.79,-0.139"
             style="fill:none;stroke:#000000;stroke-width:3;stroke-linecap:butt;stroke-opacity:1" />
          <path
             id="path20"
             stroke-linejoin="mitter"
             d="m 94.994,211.249 -4.538,-0.019 v 10 4.354 l -0.45,-0.187 -0.435,-0.168 -0.421,-0.15 -0.409,-0.131 -0.399,-0.113 -0.391,-0.097 -0.385,-0.081 -0.38,-0.065 -0.376,-0.051 -0.376,-0.036 -0.377,-0.023 -0.378,-0.009 -1.619,0.098 -1.527,0.316 -1.425,0.523 -1.316,0.718 -1.195,0.901 -1.067,1.073 -0.928,1.234 -0.78,1.383 -0.624,1.52 -0.457,1.647 -0.281,1.763 -0.096,1.868 0.087,2.057 0.257,1.922 0.422,1.78 0.58,1.629 0.733,1.471 0.879,1.305 1.022,1.131 1.157,0.95 1.287,0.76 1.412,0.563 1.53,0.356 1.644,0.143 9.62,0.185 v -10 -10 -10 -10 -0.52"
             style="fill:none;stroke:#000000;stroke-width:3;stroke-linecap:butt;stroke-opacity:1" />
          <path
             id="path22"
             stroke-linejoin="mitter"
             d="m 89.366,229.8 0.353,0.14 0.362,0.156 0.375,0.174 v 10 6.963 l -4.574,-0.08 -1.234,-0.098 -1.094,-0.242 -0.959,-0.378 -0.831,-0.504 -0.711,-0.623 -0.595,-0.733 -0.487,-0.833 -0.384,-0.927 -0.288,-1.011 -0.199,-1.087 -0.114,-1.154 -0.037,-1.214 0.06,-1.347 0.177,-1.26 0.288,-1.168 0.395,-1.069 0.496,-0.966 0.592,-0.855 0.683,-0.738 0.768,-0.616 0.849,-0.487 0.925,-0.353 0.995,-0.211 1.06,-0.064 0.374,0.011 0.361,0.023 0.352,0.036 0.344,0.049 0.339,0.063 0.338,0.078 0.337,0.093 0.339,0.108 0.345,0.124"
             style="fill:none;stroke:#000000;stroke-width:3;stroke-linecap:butt;stroke-opacity:1" />
          <path
             id="path24"
             stroke-linejoin="mitter"
             d="m 282.967,162.724 -0.74,-0.006 -1.924,0.148 -1.792,0.386 -1.654,0.614 -1.509,0.834 -1.358,1.044 -1.199,1.245 -1.034,1.438 -0.861,1.621 -0.683,1.796 -0.496,1.962 -0.303,2.12 -0.102,2.269 0.111,2.034 0.328,1.917 0.533,1.791 0.728,1.651 0.911,1.502 1.086,1.339 1.248,1.165 1.401,0.98 1.543,0.782 1.674,0.572 1.796,0.35 1.906,0.116 0.698,-0.017 0.715,-0.047 0.725,-0.074 0.727,-0.1 0.722,-0.123 0.709,-0.143 0.688,-0.162 0.66,-0.179 0.625,-0.192 0.582,-0.205 0.531,-0.214 0.472,-0.221 v -5.609 l -0.65,0.309 -0.631,0.282 -0.612,0.255 -0.597,0.228 -0.584,0.202 -0.572,0.175 -0.564,0.149 -0.558,0.122 -0.553,0.095 -0.551,0.069 -0.551,0.042 -0.554,0.016 -1.304,-0.068 -1.22,-0.212 -1.13,-0.352 -1.034,-0.487 -0.933,-0.62 -0.827,-0.746 -0.715,-0.869 -0.597,-0.989 -0.474,-1.103 -0.345,-1.214 -0.212,-1.321 -0.071,-1.423 0.066,-1.402 0.197,-1.317 0.319,-1.225 0.436,-1.127 0.548,-1.022 0.651,-0.91 0.751,-0.791 0.843,-0.665 0.929,-0.532 1.01,-0.393 1.084,-0.246 1.151,-0.093 0.565,0.008 0.557,0.037 0.554,0.07 0.556,0.105 0.561,0.145 0.572,0.186 0.587,0.232 0.606,0.279 0.63,0.331 0.658,0.385 0.692,0.442 0.729,0.503 v -6.053 l -0.623,-0.286 -0.608,-0.266 -0.598,-0.245 -0.593,-0.223 -0.594,-0.2 -0.6,-0.176 -0.611,-0.15 -0.626,-0.124 -0.647,-0.096 -0.673,-0.068 -0.704,-0.037"
             style="fill:none;stroke:#000000;stroke-width:3;stroke-linecap:butt;stroke-opacity:1" />
          <path
             id="path26"
             stroke-linejoin="mitter"
             d="m 261.062,151.668 -0.411,-0.023 -0.411,0.037 -0.394,0.097 -0.375,0.151 -0.352,0.2 -0.324,0.247 -0.294,0.289 -0.258,0.326 -0.22,0.359 -0.178,0.388 -0.132,0.413 -0.082,0.433 -0.028,0.45 0.028,0.449 0.082,0.431 0.132,0.409 0.178,0.383 0.22,0.352 0.258,0.318 0.294,0.279 0.324,0.237 0.352,0.189 0.375,0.139 0.394,0.084 0.411,0.025 0.411,-0.037 0.395,-0.095 0.375,-0.15 0.353,-0.201 0.325,-0.246 0.294,-0.288 0.259,-0.327 0.221,-0.359 0.179,-0.389 0.132,-0.413 0.082,-0.435 0.028,-0.451 -0.028,-0.45 -0.082,-0.432 -0.132,-0.409 -0.179,-0.383 -0.221,-0.353 -0.259,-0.318 -0.294,-0.279 -0.325,-0.236 -0.353,-0.189 -0.375,-0.138 -0.395,-0.084"
             style="fill:none;stroke:#000000;stroke-width:3;stroke-linecap:butt;stroke-opacity:1" />
          <path
             id="path28"
             stroke-linejoin="mitter"
             d="m 263.186,163.533 -5.123,0.065 v 10 10 8.294 l 5.123,-0.015 v -10 -10 -8.344"
             style="fill:none;stroke:#000000;stroke-width:3;stroke-linecap:butt;stroke-opacity:1" />
          <path
             id="path30"
             stroke-linejoin="mitter"
             d="m 243.307,163.298 -1.186,-0.06 -0.709,0.041 -0.706,0.105 -0.7,0.168 -0.689,0.227 -0.677,0.287 -0.661,0.344 -0.641,0.399 -0.619,0.454 -0.594,0.506 -0.565,0.557 -0.533,0.606 -0.499,0.654 -0.113,10e-4 V 163.9 l -5.021,0.064 v 10 10 8.009 l 5.021,-0.014 v -10 -10.122 l 0.581,-0.703 0.559,-0.63 0.541,-0.559 0.527,-0.491 0.515,-0.425 0.509,-0.361 0.505,-0.3 0.505,-0.241 0.51,-0.185 0.518,-0.13 0.529,-0.08 0.544,-0.03 0.743,0.047 0.692,0.156 0.64,0.259 0.585,0.36 0.527,0.456 0.465,0.546 0.402,0.634 0.334,0.717 0.266,0.795 0.193,0.869 0.117,0.939 0.04,1.004 v 10 7.443 l 5.079,-0.014 v -10 -7.411 l -0.079,-1.848 -0.231,-1.677 -0.373,-1.507 -0.504,-1.341 -0.625,-1.174 -0.737,-1.011 -0.836,-0.847 -0.928,-0.687 -1.007,-0.527 -1.077,-0.37 -1.137,-0.215"
             style="fill:none;stroke:#000000;stroke-width:3;stroke-linecap:butt;stroke-opacity:1" />
          <path
             id="path32"
             stroke-linejoin="mitter"
             d="m 212.29,163.746 -1.913,-0.097 -1.821,0.15 -1.734,0.391 -1.633,0.617 -1.518,0.827 -1.389,1.02 -1.248,1.2 -1.093,1.362 -0.925,1.51 -0.742,1.643 -0.547,1.76 -0.339,1.863 -0.116,1.95 0.112,2.076 0.327,1.963 0.532,1.839 0.724,1.701 0.907,1.55 1.077,1.386 1.237,1.209 1.385,1.019 1.523,0.814 1.649,0.598 1.764,0.366 1.868,0.122 1.948,-0.127 1.835,-0.365 1.713,-0.591 1.578,-0.808 1.433,-1.014 1.277,-1.209 1.111,-1.393 0.933,-1.567 0.744,-1.729 0.545,-1.881 0.335,-2.02 0.114,-2.15 -0.118,-2.019 -0.343,-1.908 -0.557,-1.784 -0.758,-1.647 -0.946,-1.497 -1.123,-1.335 -1.285,-1.159 -1.437,-0.972 -1.574,-0.771 -1.7,-0.559 -1.812,-0.334"
             style="fill:none;stroke:#000000;stroke-width:3;stroke-linecap:butt;stroke-opacity:1" />
          <path
             id="path34"
             stroke-linejoin="mitter"
             d="m 209.184,168.699 1.138,-0.092 1.206,0.066 1.142,0.222 1.07,0.368 0.99,0.508 0.902,0.638 0.807,0.76 0.704,0.875 0.593,0.98 0.475,1.078 0.348,1.166 0.215,1.247 0.073,1.318 -0.068,1.459 -0.2,1.359 -0.329,1.254 -0.452,1.144 -0.57,1.028 -0.684,0.908 -0.793,0.783 -0.897,0.652 -0.997,0.517 -1.09,0.377 -1.18,0.232 -1.265,0.082 -1.162,-0.075 -1.092,-0.231 -1.016,-0.38 -0.936,-0.523 -0.847,-0.659 -0.754,-0.788 -0.655,-0.91 -0.549,-1.027 -0.438,-1.135 -0.32,-1.239 -0.196,-1.334 -0.067,-1.425 0.069,-1.298 0.202,-1.231 0.328,-1.156 0.447,-1.073 0.558,-0.981 0.662,-0.88 0.76,-0.77 0.85,-0.652 0.932,-0.526 1.009,-0.39 1.077,-0.246"
             style="fill:none;stroke:#000000;stroke-width:3;stroke-linecap:butt;stroke-opacity:1" />
          <path
             id="path36"
             stroke-linejoin="mitter"
             d="m 189.969,163.935 -0.49,-0.015 -0.576,0.05 -0.578,0.137 -0.58,0.228 -0.583,0.32 -0.586,0.416 -0.589,0.514 -0.592,0.615 -0.595,0.718 -0.599,0.825 -0.602,0.934 -0.606,1.045 -0.611,1.16 -0.109,0.001 v -6.318 l -4.837,0.062 v 10 10 7.494 l 4.837,-0.014 v -10 -4.415 l 0.054,-1.159 0.155,-1.11 0.251,-1.05 0.341,-0.982 0.423,-0.904 0.499,-0.816 0.569,-0.719 0.631,-0.611 0.688,-0.495 0.738,-0.368 0.781,-0.231 0.818,-0.086 0.302,0.02 0.33,0.063 0.354,0.104 0.373,0.144 0.389,0.182 0.4,0.217 0.406,0.25 0.41,0.282 0.408,0.311 0.402,0.337 0.393,0.363 0.379,0.386 2.58,-4.772 -0.505,-0.51 -0.499,-0.464 -0.493,-0.418 -0.49,-0.372 -0.486,-0.327 -0.484,-0.282 -0.483,-0.237 -0.483,-0.192 -0.483,-0.148 -0.484,-0.104 -0.488,-0.059"
             style="fill:none;stroke:#000000;stroke-width:3;stroke-linecap:butt;stroke-opacity:1" />
          <path
             id="path38"
             stroke-linejoin="mitter"
             d="m 164.743,164.789 v -5.669 l -6.655,7.464 -2.294,2.572 v 0.607 l 4.173,-0.045 v 10 4.421 l 0.055,1.204 0.163,1.142 0.273,1.071 0.382,0.994 0.491,0.907 0.6,0.813 0.708,0.71 0.817,0.599 0.925,0.479 1.035,0.352 1.143,0.216 1.252,0.072 0.411,-0.018 0.447,-0.048 0.477,-0.078 0.499,-0.105 0.514,-0.131 0.525,-0.155 0.526,-0.176 0.522,-0.196 0.512,-0.214 0.493,-0.23 0.469,-0.243 0.437,-0.256 v -5.076 l -0.484,0.325 -0.477,0.297 -0.471,0.268 -0.465,0.24 -0.459,0.213 -0.455,0.184 -0.45,0.156 -0.446,0.128 -0.442,0.1 -0.438,0.071 -0.435,0.044 -0.432,0.016 -0.363,-0.018 -0.379,-0.061 -0.388,-0.109 -0.387,-0.162 -0.376,-0.219 -0.356,-0.282 -0.327,-0.349 -0.288,-0.422 -0.24,-0.499 -0.184,-0.581 -0.117,-0.667 -0.041,-0.76 v -10 -4.019 l 7.656,-0.085 v -4.89 l -7.656,0.098"
             style="fill:none;stroke:#000000;stroke-width:3;stroke-linecap:butt;stroke-opacity:1" />
          <path
             id="path40"
             stroke-linejoin="mitter"
             d="m 147.15,164.483 -0.672,-0.006 -1.746,0.14 -1.627,0.366 -1.502,0.585 -1.371,0.793 -1.232,0.994 -1.089,1.187 -0.939,1.369 -0.783,1.545 -0.619,1.711 -0.451,1.87 -0.275,2.02 -0.093,2.162 0.101,1.938 0.298,1.828 0.484,1.707 0.661,1.574 0.828,1.431 0.985,1.276 1.134,1.111 1.272,0.934 1.401,0.745 1.521,0.545 1.63,0.334 1.731,0.111 0.633,-0.016 0.649,-0.045 0.658,-0.071 0.66,-0.095 0.656,-0.116 0.643,-0.137 0.625,-0.154 0.599,-0.17 0.567,-0.184 0.528,-0.194 0.482,-0.204 0.429,-0.211 v -5.343 l -0.59,0.294 -0.572,0.268 -0.556,0.243 -0.542,0.218 -0.53,0.192 -0.52,0.166 -0.512,0.142 -0.506,0.116 -0.502,0.09 -0.5,0.066 -0.5,0.04 -0.503,0.015 -1.185,-0.065 -1.107,-0.202 -1.026,-0.336 -0.939,-0.464 -0.847,-0.591 -0.751,-0.711 -0.649,-0.829 -0.542,-0.942 -0.43,-1.051 -0.314,-1.157 -0.192,-1.259 -0.065,-1.356 0.061,-1.336 0.178,-1.255 0.29,-1.167 0.396,-1.074 0.497,-0.973 0.592,-0.867 0.681,-0.754 0.766,-0.633 0.844,-0.507 0.916,-0.374 0.984,-0.234 1.046,-0.088 0.512,0.008 0.506,0.036 0.503,0.066 0.505,0.101 0.509,0.138 0.519,0.178 0.533,0.221 0.55,0.267 0.572,0.315 0.598,0.367 0.627,0.422 0.662,0.479 v -5.767 l -0.565,-0.272 -0.552,-0.254 -0.543,-0.234 -0.539,-0.213 -0.539,-0.191 -0.544,-0.167 -0.555,-0.144 -0.568,-0.118 -0.588,-0.092 -0.611,-0.065 -0.639,-0.036"
             style="fill:none;stroke:#000000;stroke-width:3;stroke-linecap:butt;stroke-opacity:1" />
          <path
             id="path42"
             stroke-linejoin="mitter"
             d="m 122.176,164.893 -1.502,-0.082 -1.57,0.134 -1.477,0.352 -1.377,0.56 -1.267,0.757 -1.149,0.945 -1.024,1.122 -0.889,1.289 -0.746,1.446 -0.595,1.593 -0.436,1.731 -0.267,1.858 -0.091,1.975 0.083,1.837 0.249,1.791 0.41,1.724 0.57,1.635 0.727,1.525 0.882,1.393 1.033,1.238 1.181,1.062 1.329,0.864 1.473,0.643 1.614,0.401 1.754,0.135 0.961,-0.024 0.91,-0.066 0.862,-0.11 0.822,-0.154 0.787,-0.198 0.758,-0.243 0.734,-0.287 0.716,-0.334 0.704,-0.379 0.699,-0.426 0.697,-0.473 0.703,-0.521 v -5.177 l -0.68,0.498 -0.679,0.461 -0.677,0.423 -0.678,0.384 -0.677,0.344 -0.679,0.303 -0.681,0.259 -0.683,0.216 -0.687,0.171 -0.69,0.124 -0.695,0.077 -0.701,0.028 -1.082,-0.053 -1.005,-0.167 -0.928,-0.281 -0.85,-0.394 -0.772,-0.507 -0.695,-0.618 -0.616,-0.73 -0.538,-0.84 -0.459,-0.95 -0.38,-1.059 -0.301,-1.168 -0.221,-1.276 9.999,-0.075 6.475,-0.049 -0.082,-2.391 -0.242,-2.178 -0.396,-1.964 -0.544,-1.751 -0.686,-1.539 -0.82,-1.328 -0.951,-1.118 -1.073,-0.908 -1.189,-0.7 -1.3,-0.493 -1.405,-0.287"
             style="fill:none;stroke:#000000;stroke-width:3;stroke-linecap:butt;stroke-opacity:1" />
          <path
             id="path44"
             stroke-linejoin="mitter"
             d="m 119.923,169.488 0.855,-0.059 0.794,0.044 0.74,0.148 0.684,0.25 0.626,0.346 0.565,0.44 0.502,0.53 0.437,0.615 0.37,0.698 0.3,0.776 0.228,0.851 0.154,0.922 0.078,0.989 -9.999,0.089 -1.764,0.015 0.187,-1.025 0.249,-0.946 0.311,-0.867 0.373,-0.784 0.434,-0.7 0.495,-0.614 0.556,-0.527 0.616,-0.437 0.677,-0.346 0.736,-0.252 0.796,-0.156"
             style="fill:none;stroke:#000000;stroke-width:3;stroke-linecap:butt;stroke-opacity:1" />
          <path
             id="path46"
             stroke-linejoin="mitter"
             d="m 104.323,151.668 -4.57,0.082 v 10 10 10 10 0.592 l 4.57,-0.013 v -10 -10 -10 -10 -0.661"
             style="fill:none;stroke:#000000;stroke-width:3;stroke-linecap:butt;stroke-opacity:1" />
          <path
             id="path48"
             stroke-linejoin="mitter"
             d="m 86.279,165.357 -1.462,-0.081 -1.529,0.131 -1.439,0.347 -1.341,0.553 -1.234,0.747 -1.119,0.932 -0.996,1.107 -0.866,1.272 -0.727,1.427 -0.579,1.572 -0.425,1.708 -0.26,1.833 -0.089,1.95 0.081,1.812 0.242,1.768 0.4,1.701 0.556,1.614 0.708,1.505 0.858,1.374 1.006,1.222 1.151,1.049 1.293,0.852 1.434,0.635 1.573,0.395 1.707,0.134 0.937,-0.024 0.885,-0.065 0.84,-0.109 0.8,-0.151 0.767,-0.196 0.737,-0.239 0.715,-0.284 0.698,-0.329 0.685,-0.375 0.68,-0.42 0.679,-0.467 0.685,-0.513 v -5.109 l -0.662,0.491 -0.661,0.455 -0.66,0.418 -0.66,0.379 -0.66,0.339 -0.661,0.299 -0.662,0.256 -0.666,0.213 -0.668,0.168 -0.672,0.123 -0.677,0.076 -0.683,0.027 -1.053,-0.052 -0.979,-0.165 -0.903,-0.277 -0.828,-0.389 -0.752,-0.5 -0.677,-0.61 -0.6,-0.721 -0.523,-0.829 -0.448,-0.937 -0.37,-1.046 -0.293,-1.152 -0.215,-1.26 10,-0.075 6.042,-0.045 -0.08,-2.36 -0.236,-2.148 -0.386,-1.938 -0.529,-1.728 -0.668,-1.519 -0.799,-1.311 -0.925,-1.103 -1.045,-0.896 -1.158,-0.691 -1.266,-0.487 -1.368,-0.283"
             style="fill:none;stroke:#000000;stroke-width:3;stroke-linecap:butt;stroke-opacity:1" />
          <path
             id="path50"
             stroke-linejoin="mitter"
             d="m 84.085,169.891 0.833,-0.059 0.773,0.044 0.721,0.147 0.666,0.246 0.609,0.342 0.55,0.434 0.489,0.523 0.425,0.607 0.36,0.689 0.292,0.766 0.223,0.84 0.15,0.909 0.076,0.976 -10,0.089 -1.454,0.012 0.182,-1.011 0.242,-0.934 0.303,-0.855 0.363,-0.774 0.423,-0.691 0.482,-0.606 0.541,-0.519 0.6,-0.432 0.659,-0.34 0.717,-0.249 0.775,-0.154"
             style="fill:none;stroke:#000000;stroke-width:3;stroke-linecap:butt;stroke-opacity:1" />
        </g>
      </g>
    </g>
    <g
       style="display:inline"
       id="strokes">
      <path
         style="fill:none;stroke:#000000;stroke-width:3;stroke-linecap:butt;stroke-opacity:1"
         id="path15"
         stroke-linejoin="mitter"
         d="m 327.489,330.793 -1.538,-0.483 -1.983,1.512 -1.691,3.431 -0.111,0.471 -1.025,4.364 -0.306,4.199 -0.094,1.294 0.4,5.294 1.136,4.272 1.691,2.592 1.87,0.522 0.529,-0.404" />
      <path
         style="fill:none;stroke:#000000;stroke-width:3;stroke-linecap:butt;stroke-opacity:1"
         id="path17"
         stroke-linejoin="mitter"
         d="m 325.199,356.061 -0.785,-0.224 -1.449,-2.228 -0.973,-3.665 -0.342,-4.539 0.088,-1.203 0.254,-3.507 0.174,-0.74 0.799,-3.407 1.449,-2.948 1.701,-1.303" />
      <path
         style="fill:none;stroke:#000000;stroke-width:3;stroke-linecap:butt;stroke-opacity:1"
         id="path19"
         stroke-linejoin="mitter"
         d="m 325.951,330.31 -2.317,-0.104 -1.468,1.115 -0.521,0.396 -0.762,1.54 -0.935,1.888 -0.974,4.13 -0.165,0.701 -0.105,1.439 -0.296,4.049 0.401,5.291 1.139,4.268 1.697,2.59 1.876,0.522 2.317,0.126" />
      <path
         style="fill:none;stroke:#000000;stroke-width:3;stroke-linecap:butt;stroke-opacity:1"
         id="path21"
         stroke-linejoin="mitter"
         d="m 327.493,331.074 -1.118,0.856 -0.03,0.06 -0.152,0.311 -0.009,0.018 -1.495,3.046 -1.132,4.839 -0.399,5.498 0.399,5.298 1.132,4.275 0.51,0.786 0.348,0.534 0.82,1.262 0.008,0.012 2.089,0.534 2.324,0.126 1.844,-1.606 1.648,-3.466 1.089,-4.849 0.384,-5.41 -0.377,-5.168 -0.832,-3.226" />
      <path
         style="fill:none;stroke:#000000;stroke-width:3;stroke-linecap:butt;stroke-opacity:1"
         id="path23"
         stroke-linejoin="mitter"
         d="m 327.606,334.286 -0.581,1.187 -1.128,4.844 -0.397,5.501 0.397,5.303 1.128,4.278 0.052,0.08 0.481,0.743 0.101,0.156 0.213,0.329 0.833,1.288 2.083,0.534" />
      <path
         style="fill:none;stroke:#000000;stroke-width:3;stroke-linecap:butt;stroke-opacity:1"
         id="path25"
         stroke-linejoin="mitter"
         d="m 315.032,330.379 0.041,3.184 3.631,7.852" />
      <path
         style="fill:none;stroke:#000000;stroke-width:3;stroke-linecap:butt;stroke-opacity:1"
         id="path27"
         stroke-linejoin="mitter"
         d="m 316.366,333.622 -0.052,-3.525" />
      <path
         style="fill:none;stroke:#000000;stroke-width:3;stroke-linecap:butt;stroke-opacity:1"
         id="path29"
         stroke-linejoin="mitter"
         d="m 315.073,333.563 1.293,0.059 2.608,5.653" />
      <path
         style="fill:none;stroke:#000000;stroke-width:3;stroke-linecap:butt;stroke-opacity:1"
         id="path31"
         stroke-linejoin="mitter"
         d="m 325.63,328.047 1.82,0.079 0.039,2.667 0.004,0.281 0.019,1.287 0.005,0.373 0.002,0.17 0.018,1.231 0.069,0.151 2.688,5.937 0.688,1.517 1.412,3.119 0.056,0.003 0.865,0.043 0.375,0.018 0.854,-0.215 v -9.904 -8.904 l -0.648,-0.028" />
      <path
         style="fill:none;stroke:#000000;stroke-width:3;stroke-linecap:butt;stroke-opacity:1"
         id="path33"
         stroke-linejoin="mitter"
         d="m 334.544,325.9 -1.436,0.316 -4.353,0.956 0.002,0.186 0.038,3.079 0.024,1.921 0.023,1.837" />
      <path
         style="fill:none;stroke:#000000;stroke-width:3;stroke-linecap:butt;stroke-opacity:1"
         id="path35"
         stroke-linejoin="mitter"
         d="m 333.69,344.923 -2.966,-6.563 -1.882,-4.165 -0.177,-0.008 -1.128,-0.052" />
      <path
         style="fill:none;stroke:#000000;stroke-width:3;stroke-linecap:butt;stroke-opacity:1"
         id="path37"
         stroke-linejoin="mitter"
         d="m 143.701,346.2 -0.035,-0.008 -1.781,-2.112 -1.195,-3.452 -0.42,-4.262 0.096,-1.006 0.257,-2.7" />
      <path
         style="fill:none;stroke:#000000;stroke-width:3;stroke-linecap:butt;stroke-opacity:1"
         id="path39"
         stroke-linejoin="mitter"
         d="m 139.584,332.61 -0.131,1.377 -0.242,2.534 0.491,4.971 1.395,4.023 2.078,2.458 2.337,0.521 0.457,-0.265" />
      <path
         style="fill:none;stroke:#000000;stroke-width:3;stroke-linecap:butt;stroke-opacity:1"
         id="path41"
         stroke-linejoin="mitter"
         d="m 137.533,332.511 -0.374,3.907 0.492,4.968 1.397,4.02 2.082,2.456 2.342,0.522 2.04,0.11" />
      <path
         style="fill:none;stroke:#000000;stroke-width:3;stroke-linecap:butt;stroke-opacity:1"
         id="path43"
         stroke-linejoin="mitter"
         d="m 141.709,332.713 -0.234,2.461 -0.022,0.229 -0.116,1.224 0.49,4.975 1.392,4.026 0.482,0.572 1.163,1.379 0.428,0.508 0.677,0.142 1.855,0.39 2.046,0.111 2.312,-1.475 2.032,-3.227 1.346,-4.535 0.474,-5.073 -0.098,-1.017" />
      <path
         style="fill:none;stroke:#000000;stroke-width:3;stroke-linecap:butt;stroke-opacity:1"
         id="path45"
         stroke-linejoin="mitter"
         d="m 143.767,332.813 -0.372,3.917 0.489,4.978 1.39,4.029 0.517,0.616 0.122,0.144 0.141,0.168 0.856,1.018 0.433,0.515 2.527,0.532" />
      <path
         style="fill:none;stroke:#000000;stroke-width:3;stroke-linecap:butt;stroke-opacity:1"
         id="path47"
         stroke-linejoin="mitter"
         d="m 149.515,333.091 0.321,0.543 1.212,2.05 0.125,0.211 0.579,0.029 0.561,0.027 0.53,-0.095 0.524,-0.094 v -2.484" />
      <path
         style="fill:none;stroke:#000000;stroke-width:3;stroke-linecap:butt;stroke-opacity:1"
         id="path49"
         stroke-linejoin="mitter"
         d="m 152.313,335.951 -0.486,-0.823 -0.701,-1.186 -0.469,-0.795" />
      <path
         style="fill:none;stroke:#000000;stroke-width:3;stroke-linecap:butt;stroke-opacity:1"
         id="path51"
         stroke-linejoin="mitter"
         d="m 70.916,325.701 6.479,0.416 9.988,0.472 9.989,0.471 9.989,0.471 9.989,0.471 9.989,0.471 9.064,0.428 1.955,0.092 4.112,0.194 0.061,0.003 0.856,0.04 3.955,0.187 3.191,0.151 0.922,0.043 1.912,0.09 2.223,0.105 9.988,0.471 2.762,0.131 9.989,0.471 9.988,0.471 9.989,0.471 9.989,0.471 9.989,0.472 9.989,0.471 9.989,0.471 9.989,0.471 9.989,0.471 7.45,0.352 8.571,0.285" />
      <path
         style="fill:none;stroke:#000000;stroke-width:3;stroke-linecap:butt;stroke-opacity:1"
         id="path53"
         stroke-linejoin="mitter"
         d="m 348.489,144.87 -8.419,-0.83 -9.952,-0.982 -9.952,-0.981 -9.951,-0.981 -9.952,-0.982 -4.452,-0.439 -5.19,-0.512 -4.045,-0.134 -7.378,-0.006 -8.692,0.125 -9.998,0.213 -9.997,0.212 -9.998,0.212 -9.998,0.212 -9.998,0.212 -9.997,0.213 -9.998,0.212 -9.998,0.212 -9.997,0.212 -9.998,0.213 -5.796,0.123 -9.997,0.212 -9.998,0.212 -9.998,0.212 -2.239,0.048 -9.998,0.212 -6.708,0.142 -9.997,0.213 -0.22,0.004 -9.998,0.213 -9.997,0.212 -9.998,0.212 -9.097,0.193 -0.926,0.028 -5.476,0.163 -3.409,0.221" />
      <path
         style="fill:none;stroke:#000000;stroke-width:3;stroke-linecap:butt;stroke-opacity:1"
         id="path55"
         stroke-linejoin="mitter"
         d="m 42.529,143.637 3.888,-0.117 9.998,-0.213 9.147,-0.196 9.998,-0.214 9.997,-0.213 9.998,-0.214 10.071,-0.215 9.463,-0.202 9.998,-0.214 3.28,-0.07 9.997,-0.214 9.998,-0.214 9.998,-0.213 2.364,-0.051 9.998,-0.213 9.998,-0.214 9.997,-0.214 9.998,-0.213 9.998,-0.214 9.997,-0.214 9.998,-0.214 9.998,-0.213 9.998,-0.214 9.997,-0.214 9.998,-0.213 9.998,-0.214 4.67,-0.1 5.412,-0.078" />
      <path
         style="fill:none;stroke:#000000;stroke-width:3;stroke-linecap:butt;stroke-opacity:1"
         id="path57"
         stroke-linejoin="mitter"
         d="m 349.159,136.872 -9.936,-1.123 -9.937,-1.124 -9.937,-1.123 -9.936,-1.124 -9.937,-1.123 -1.622,-0.183 -2.499,-0.095 -4.576,-0.004 -5.412,0.088 -9.997,0.239 -9.997,0.24 -9.997,0.239 -9.997,0.239 -9.997,0.239 -9.997,0.239 -9.998,0.239 -9.997,0.24 -9.997,0.239 -9.997,0.239 -9.997,0.239 -9.997,0.239 -4.678,0.112 -9.997,0.239 -9.997,0.24 -9.997,0.239 -1.422,0.034 -9.997,0.239 -9.997,0.239 -6.534,0.156 -2.098,0.051 -9.997,0.239 -9.997,0.239 -9.997,0.239 -9.997,0.239 -9.998,0.239 -4.282,0.103 -3.888,0.131 -2.054,0.152 v 6.644" />
      <path
         style="fill:none;stroke:#000000;stroke-width:3;stroke-linecap:butt;stroke-opacity:1"
         id="path59"
         stroke-linejoin="mitter"
         d="m 40.475,143.773 2.054,-0.136 -2.054,0.068 -0.291,0.01 0.61,0.177 9.979,0.646 5.964,0.386" />
      <path
         style="fill:none;stroke:#000000;stroke-width:3;stroke-linecap:butt;stroke-opacity:1"
         id="path61"
         stroke-linejoin="mitter"
         d="m 56.677,143.891 0.06,1.033 0.587,9.983 0.586,9.983 0.586,9.983 0.587,9.982 0.586,9.983 0.586,9.983 0.586,9.983 0.587,9.983 0.586,9.982 0.586,9.983 0.587,9.983 0.586,9.983 0.586,9.983 0.586,9.982 0.587,9.983 0.586,9.983 0.586,9.983 0.623,10.597 4.748,3.003 1.005,0.636" />
      <path
         style="fill:none;stroke:#000000;stroke-width:3;stroke-linecap:butt;stroke-opacity:1"
         id="path63"
         stroke-linejoin="mitter"
         d="m 40.475,143.773 0.319,0.119" />
      <path
         style="fill:none;stroke:#000000;stroke-width:3;stroke-linecap:butt;stroke-opacity:1"
         id="path65"
         stroke-linejoin="mitter"
         d="m 333.202,326.18 0.694,-0.308 6.073,-2.695 0.55,-9.985 0.551,-9.985 0.55,-9.984 0.55,-9.985 0.55,-9.985 0.55,-9.985 0.551,-9.985 0.55,-9.985 0.55,-9.985 0.55,-9.984 0.55,-9.985 0.551,-9.985 0.473,-8.601" />
      <path
         style="fill:none;stroke:#000000;stroke-width:3;stroke-linecap:butt;stroke-opacity:1"
         id="path67"
         stroke-linejoin="mitter"
         d="m 339.969,323.177 -9.772,2.121 -1.597,0.347 -6.434,1.396 -3.272,0.71 -3.885,0.844 -9.772,2.121 -9.772,2.121 -9.773,2.121 -0.358,0.078 -3.868,0.262" />
      <path
         style="fill:none;stroke:#000000;stroke-width:3;stroke-linecap:butt;stroke-opacity:1"
         id="path69"
         stroke-linejoin="mitter"
         d="m 81.991,329.818 1.242,0.06 5.937,0.288 1.206,0.059 9.988,0.484 9.988,0.484 9.989,0.484 9.988,0.484 7.204,0.35 1.065,0.051 0.986,0.048 0.147,0.007 0.892,0.043 0.717,0.035 0.369,0.018 0.746,0.036 0.015,10e-4 1.297,0.063 5.748,0.278 0.268,0.013 0.874,0.043 0.392,0.019 0.762,0.037 0.417,0.02 0.627,0.03 0.512,0.025 0.535,0.026 2.034,0.099 9.988,0.484 5.272,0.255 9.989,0.485 9.988,0.484 9.988,0.484 9.988,0.484 9.989,0.484 9.988,0.484 9.988,0.485 9.989,0.484 10.534,0.51" />
      <path
         style="fill:none;stroke:#000000;stroke-width:3;stroke-linecap:butt;stroke-opacity:1"
         id="path71"
         stroke-linejoin="mitter"
         d="m 297.854,138.423 9.928,1.002 9.949,1.005 9.95,1.005 9.949,1.005 2.44,0.247 8.529,0.861" />
      <path
         style="fill:none;stroke:#000000;stroke-width:3;stroke-linecap:butt;stroke-opacity:1"
         id="path73"
         stroke-linejoin="mitter"
         d="m 294.215,138.291 -3.436,0.044 4.576,0.003 2.499,0.085 -3.639,-0.132" />
      <path
         style="fill:none;stroke:#000000;stroke-width:3;stroke-linecap:butt;stroke-opacity:1"
         id="path75"
         stroke-linejoin="mitter"
         d="m 349.497,132.842 -7.88,-6.156 -7.881,-6.156 -7.881,-6.156 -7.88,-6.155 -6.127,-4.786 0.889,-9.873 -9.993,0.365 -9.994,0.366 -9.993,0.365 -9.993,0.365 -9.994,0.365 -9.993,0.366 -9.993,0.365 -9.994,0.365 -9.993,0.366 -9.993,0.365 -9.994,0.365 -9.993,0.366 -9.993,0.365 -2.143,0.078 -9.993,0.366 -9.994,0.365 -9.993,0.365 -9.993,0.365 -9.994,0.366 -9.993,0.365 -9.993,0.365 -2.191,0.08 -9.993,0.366 -9.993,0.365 -9.994,0.365 -9.993,0.366 -8.469,0.309 -1.157,9.027 8.805,4.741 8.805,4.74 8.805,4.741 8.805,4.741 8.625,4.644" />
      <path
         style="fill:none;stroke:#000000;stroke-width:3;stroke-linecap:butt;stroke-opacity:1"
         id="path77"
         stroke-linejoin="mitter"
         d="m 45.32,95.957 2.196,-0.087 9.992,-0.393 9.993,-0.393 9.992,-0.393 9.992,-0.393 9.992,-0.394 9.993,-0.393 9.992,-0.393 9.992,-0.393 9.992,-0.393 9.993,-0.393 9.992,-0.394 9.992,-0.393 1.972,-0.077 9.992,-0.394 9.993,-0.393 9.992,-0.393 9.992,-0.393 9.992,-0.393 9.993,-0.393 9.992,-0.394 9.992,-0.393 9.992,-0.393 9.993,-0.393 9.992,-0.393 9.992,-0.393 9.992,-0.394 3.761,-0.148 2.646,-0.104" />
      <path
         style="fill:none;stroke:#000000;stroke-width:3;stroke-linecap:butt;stroke-opacity:1"
         id="path79"
         stroke-linejoin="mitter"
         d="m 372.08,150.471 2.399,-0.04 -1.834,-9.83 -0.175,-0.938 -2.702,-9.628 -2.703,-9.628 -0.105,-0.374 -3.728,-9.279 -3.173,-7.899 -4.998,-8.661 -3.119,-5.406 -6.613,-7.501 -2.494,-2.83 -8.519,-5.239 -1.298,-0.798 -9.921,-1.252 -0.264,-0.033 -2.587,0.114 -9.99,0.441 -9.99,0.441 -9.99,0.44 -9.991,0.441 -9.99,0.441 -9.99,0.44 -9.991,0.441 -9.99,0.441 -9.99,0.44 -9.99,0.441 -9.991,0.441 -9.99,0.44 -10.917,0.482 -9.99,0.441 -9.99,0.44 -9.99,0.441 -9.991,0.441 -9.99,0.44 -9.99,0.441 -9.991,0.441 -9.99,0.44 -9.99,0.441 -9.99,0.441 -9.991,0.44 -9.677,0.427 -2.158,0.095 -9.65,2.623 -3.653,0.993 -8.366,5.477 -0.159,0.104 -0.57,4.372 8.765,4.812 3.835,2.106 -1.159,9.019 8.811,4.731 8.81,4.731 8.81,4.73 8.81,4.731 8.683,4.663" />
      <path
         style="fill:none;stroke:#000000;stroke-width:3;stroke-linecap:butt;stroke-opacity:1"
         id="path81"
         stroke-linejoin="mitter"
         d="m 129.311,134.795 -3.366,-8.266 -5.041,-8.637 -4.116,-7.051 -6.434,-7.655 -1.817,-2.162" />
      <path
         style="fill:none;stroke:#000000;stroke-width:3;stroke-linecap:butt;stroke-opacity:1"
         id="path83"
         stroke-linejoin="mitter"
         d="m 45.89,91.585 2.196,-0.09 9.991,-0.41 9.992,-0.409 9.991,-0.41 9.992,-0.41 9.992,-0.409 9.991,-0.41 9.992,-0.409 9.992,-0.41 9.991,-0.41 9.992,-0.409 9.991,-0.41 9.992,-0.41 1.921,-0.078 9.992,-0.41 9.992,-0.409 9.991,-0.41 9.992,-0.41 9.991,-0.409 9.992,-0.41 9.992,-0.409 9.991,-0.41 9.992,-0.41 9.992,-0.409 9.991,-0.41 9.992,-0.409 9.991,-0.41 3.697,-0.152 2.645,-0.108" />
      <path
         style="fill:none;stroke:#000000;stroke-width:3;stroke-linecap:butt;stroke-opacity:1"
         id="path85"
         stroke-linejoin="mitter"
         d="m 58.938,111.822 -2.177,0.072" />
      <path
         style="fill:none;stroke:#000000;stroke-width:3;stroke-linecap:butt;stroke-opacity:1"
         id="path87"
         stroke-linejoin="mitter"
         d="m 57.92,102.875 2.175,-0.08" />
      <path
         style="fill:none;stroke:#000000;stroke-width:3;stroke-linecap:butt;stroke-opacity:1"
         id="path89"
         stroke-linejoin="mitter"
         d="m 335.822,204.367 4.248,-3.611 6.709,-5.702 0.266,-0.296 6.691,-7.432 6.691,-7.433 5.162,-5.734 0.993,-2.07 1.073,-9.943 0.281,-2.598 0.114,-1.423 0.613,-7.597 0.206,-2.564 0.147,-1.819 5.463,4.286" />
      <path
         style="fill:none;stroke:#000000;stroke-width:3;stroke-linecap:butt;stroke-opacity:1"
         id="path91"
         stroke-linejoin="mitter"
         d="m 368.663,150.528 3.417,-0.057 -3.211,-2.507" />
      <path
         style="fill:none;stroke:#000000;stroke-width:3;stroke-linecap:butt;stroke-opacity:1"
         id="path93"
         stroke-linejoin="mitter"
         d="m 315.349,93.464 -7.795,-6.264 -1.853,-1.489 0.438,-4.795 6.53,-6.009 9.375,-3.479 0.789,-0.293" />
      <path
         style="fill:none;stroke:#000000;stroke-width:3;stroke-linecap:butt;stroke-opacity:1"
         id="path95"
         stroke-linejoin="mitter"
         d="m 351.979,132.786 -7.867,-6.174 -7.867,-6.173 -7.867,-6.174 -7.866,-6.173 -6.049,-4.746" />
      <path
         style="fill:none;stroke:#000000;stroke-width:3;stroke-linecap:butt;stroke-opacity:1"
         id="path97"
         stroke-linejoin="mitter"
         d="m 311.848,103.433 2.615,-0.087 0.886,-9.882 -2.612,0.096" />
      <path
         style="fill:none;stroke:#000000;stroke-width:3;stroke-linecap:butt;stroke-opacity:1"
         id="path99"
         stroke-linejoin="mitter"
         d="m 332.191,173.292 7.741,-6.329 0.138,-0.113 7.742,-6.329 0.826,-0.676 0.368,-0.662 0.533,-0.961 0.524,-2.486 0.41,-4.905 0.432,-5.181 0.71,-8.5 0.208,-2.493 0.156,-1.871 -2.482,0.056 -0.338,4.03 -0.195,2.33 -0.365,4.346 -0.11,1.322 -0.03,0.351 -0.04,0.475 -0.434,5.176 -0.411,4.901 -0.526,2.485 -0.904,1.621 -6.074,4.945 -7.756,6.313 -2.676,2.179" />
      <path
         style="fill:none;stroke:#000000;stroke-width:3;stroke-linecap:butt;stroke-opacity:1"
         id="path101"
         stroke-linejoin="mitter"
         d="m 329.584,175.423 -2.155,0.018 -0.23,0.002 -0.177,0.002 0.109,-0.088 0.141,-0.116 0.711,-0.578" />
      <path
         style="fill:none;stroke:#000000;stroke-width:3;stroke-linecap:butt;stroke-opacity:1"
         id="path103"
         stroke-linejoin="mitter"
         d="m 319.744,192.114 -0.001,0.181 0.852,6.101 1.371,3.94 0.279,0.804 2.186,2.662 1.302,0.107 1.08,0.089 7.426,0.015 1.583,-1.646 0.608,-0.633 1.173,-3.027 0.525,-1.357 0.958,-5.822 0.079,-6.39 -0.812,-6.016 -1.584,-4.745 -2.127,-2.757 -2.354,-0.328 h -0.097 l -2.553,0.024 -4.796,0.043 -0.178,0.172 -2.068,2 -0.633,1.545 -1.132,2.765 -1.005,5.893 -0.005,0.278" />
      <path
         style="fill:none;stroke:#000000;stroke-width:3;stroke-linecap:butt;stroke-opacity:1"
         id="path105"
         stroke-linejoin="mitter"
         d="m 334.239,206.013 -0.322,-0.027 -2.035,-0.169 -0.662,-0.817 -1.502,-1.852 -1.633,-4.756 -0.843,-6.116 0.082,-6.578 0.626,-3.72 0.368,-2.189 1.747,-4.32 2.223,-2.177" />
      <path
         style="fill:none;stroke:#000000;stroke-width:3;stroke-linecap:butt;stroke-opacity:1"
         id="path107"
         stroke-linejoin="mitter"
         d="m 319.826,185.734 -0.003,0.266 -0.078,6.127 -0.002,0.168" />
      <path
         style="fill:none;stroke:#000000;stroke-width:3;stroke-linecap:butt;stroke-opacity:1"
         id="path109"
         stroke-linejoin="mitter"
         d="m 319.821,186.012 -0.077,6.102" />
      <path
         style="fill:none;stroke:#000000;stroke-width:3;stroke-linecap:butt;stroke-opacity:1"
         id="path111"
         stroke-linejoin="mitter"
         d="m 324.664,173.531 -0.956,-0.131 -6.502,0.059 -2.265,2.163" />
      <path
         style="fill:none;stroke:#000000;stroke-width:3;stroke-linecap:butt;stroke-opacity:1"
         id="path113"
         stroke-linejoin="mitter"
         d="m 312.064,192.311 0.86,6.073 1.664,4.722 2.205,2.651 2.402,0.195 6.484,0.013 0.054,-0.056" />
      <path
         style="fill:none;stroke:#000000;stroke-width:3;stroke-linecap:butt;stroke-opacity:1"
         id="path115"
         stroke-linejoin="mitter"
         d="m 333.276,198.201 -0.844,-0.034 -0.765,-0.863 -0.724,-1.989 -0.457,-3.251 0.082,-4.005 0.654,-3.549 1.001,-2.345 1.032,-1.003 0.842,0.06" />
      <path
         style="fill:none;stroke:#000000;stroke-width:3;stroke-linecap:butt;stroke-opacity:1"
         id="path117"
         stroke-linejoin="mitter"
         d="m 333.276,198.201 0.741,-0.49 0.952,-0.954 0.943,-2.27 0.613,-3.365 0.074,-3.669 -0.422,-3.043 -0.673,-1.878 -0.714,-0.83 -0.693,-0.48" />
      <path
         style="fill:none;stroke:#000000;stroke-width:3;stroke-linecap:butt;stroke-opacity:1"
         id="path119"
         stroke-linejoin="mitter"
         d="m 334.017,197.711 -0.241,-0.011 -0.554,-0.023 -0.72,-0.813 -0.681,-1.876 -0.43,-3.064 0.077,-3.775 0.615,-3.345 0.943,-2.211 0.971,-0.946 0.496,0.035 0.297,0.02" />
      <path
         style="fill:none;stroke:#000000;stroke-width:3;stroke-linecap:butt;stroke-opacity:1"
         id="path121"
         stroke-linejoin="mitter"
         d="m 325.679,205.965 -2.381,-0.195 -2.186,-2.657 -1.649,-4.733 -0.852,-6.086 0.083,-6.547 1.004,-5.88 1.765,-4.3 2.245,-2.167" />
      <path
         style="fill:none;stroke:#000000;stroke-width:3;stroke-linecap:butt;stroke-opacity:1"
         id="path123"
         stroke-linejoin="mitter"
         d="m 314.941,175.622 -1.78,4.29 -1.013,5.867 -0.084,6.532" />
      <path
         style="fill:none;stroke:#000000;stroke-width:3;stroke-linecap:butt;stroke-opacity:1"
         id="path125"
         stroke-linejoin="mitter"
         d="m 275.014,342.23 -1.024,-0.277 -2.353,1.691 -1.632,3.067 -0.377,0.71 -1.35,5.297 -0.349,4.416 -0.126,1.582 0.475,5.762 1.35,4.627 2.009,2.78 2.233,0.516 0.462,-0.336" />
      <path
         style="fill:none;stroke:#000000;stroke-width:3;stroke-linecap:butt;stroke-opacity:1"
         id="path127"
         stroke-linejoin="mitter"
         d="m 272.698,369.936 -0.551,-0.13 -1.721,-2.39 -1.155,-3.97 -0.407,-4.94 0.104,-1.315 0.303,-3.827 0.734,-2.889 0.421,-1.654 1.721,-3.245 1.797,-1.297" />
      <path
         style="fill:none;stroke:#000000;stroke-width:3;stroke-linecap:butt;stroke-opacity:1"
         id="path129"
         stroke-linejoin="mitter"
         d="m 273.99,341.953 -2.479,-0.123 -1.506,1.078 -0.854,0.611 -0.518,0.97 -1.497,2.804 -1.068,4.173 -0.286,1.119 -0.066,0.827 -0.41,5.165 0.476,5.757 1.354,4.624 2.015,2.778 2.24,0.516 2.479,0.149" />
      <path
         style="fill:none;stroke:#000000;stroke-width:3;stroke-linecap:butt;stroke-opacity:1"
         id="path131"
         stroke-linejoin="mitter"
         d="m 275.03,343.183 -0.448,0.323 -0.37,0.267 -0.268,0.506 -1.734,3.275 -1.345,5.302 -0.474,6.003 0.474,5.767 1.345,4.631 0.488,0.679 0.649,0.902 0.865,1.202 0.12,0.025 2.347,0.505 2.488,0.149 2.2,-1.802 1.955,-3.818 1.292,-5.307 0.455,-5.9 -0.448,-5.617 -1.299,-4.602 -0.072,-0.105" />
      <path
         style="fill:none;stroke:#000000;stroke-width:3;stroke-linecap:butt;stroke-opacity:1"
         id="path133"
         stroke-linejoin="mitter"
         d="m 275.262,346.637 -0.551,1.046 -1.341,5.306 -0.473,6.009 0.473,5.772 1.341,4.635 0.176,0.246 0.339,0.472 0.151,0.21 0.459,0.641 0.871,1.215 2.46,0.53" />
      <path
         style="fill:none;stroke:#000000;stroke-width:3;stroke-linecap:butt;stroke-opacity:1"
         id="path135"
         stroke-linejoin="mitter"
         d="m 276.372,338.683 -6.367,-0.307 -1.023,-0.05 -1.813,-0.087 -5.539,-0.268 0.007,0.555 0.098,7.062 3.981,7.824" />
      <path
         style="fill:none;stroke:#000000;stroke-width:3;stroke-linecap:butt;stroke-opacity:1"
         id="path137"
         stroke-linejoin="mitter"
         d="m 263.014,339.136 5.619,0.273 0.349,0.017 1.023,0.05 4.97,0.242 0.039,2.512 0.016,0.953 0.015,0.98 v 0.008 l 0.003,0.183 0.013,0.834 0.017,1.08 0.184,0.369 1.929,3.867 2.104,4.22 0.727,1.459 0.827,1.66 0.578,0.031 0.81,0.045 0.2,-0.051 0.813,-0.205 v -10 -2.095 -8.195 -0.201" />
      <path
         style="fill:none;stroke:#000000;stroke-width:3;stroke-linecap:butt;stroke-opacity:1"
         id="path139"
         stroke-linejoin="mitter"
         d="m 263.119,345.659 -0.105,-6.523" />
      <path
         style="fill:none;stroke:#000000;stroke-width:3;stroke-linecap:butt;stroke-opacity:1"
         id="path141"
         stroke-linejoin="mitter"
         d="m 261.735,345.588 1.384,0.071 2.949,5.807" />
      <path
         style="fill:none;stroke:#000000;stroke-width:3;stroke-linecap:butt;stroke-opacity:1"
         id="path143"
         stroke-linejoin="mitter"
         d="m 283.25,337.172 -6.878,1.511 0.003,0.203 0.044,3.294 0.008,0.549 0.031,2.337 0.017,1.273" />
      <path
         style="fill:none;stroke:#000000;stroke-width:3;stroke-linecap:butt;stroke-opacity:1"
         id="path145"
         stroke-linejoin="mitter"
         d="m 282.237,357.919 -2.377,-4.776 -0.837,-1.684 -2.548,-5.12 -1.397,-0.071" />
      <path
         style="fill:none;stroke:#000000;stroke-width:3;stroke-linecap:butt;stroke-opacity:1"
         id="path147"
         stroke-linejoin="mitter"
         d="m 80.827,333.143 -1.599,0.863 -0.385,0.553 -2.055,2.942 -1.639,4.92 -0.206,1.988 -0.371,3.598 0.577,5.381 1.639,4.337 2.44,2.628 2.756,0.521 0.402,-0.221" />
      <path
         style="fill:none;stroke:#000000;stroke-width:3;stroke-linecap:butt;stroke-opacity:1"
         id="path149"
         stroke-linejoin="mitter"
         d="m 78.872,357.429 -1.176,-1.269 -1.403,-3.722 -0.494,-4.613 0.188,-1.824 0.306,-2.965 1.403,-4.221 1.147,-1.645 0.945,-1.356 0.806,-0.437" />
      <path
         style="fill:none;stroke:#000000;stroke-width:3;stroke-linecap:butt;stroke-opacity:1"
         id="path151"
         stroke-linejoin="mitter"
         d="m 80.811,332.399 -0.881,-0.044 -1.087,0.586 -1.196,0.643 -0.582,0.314 -2.446,3.492 -1.052,3.15 -0.391,1.172 -0.198,0.593 -0.578,5.582 0.578,5.376 1.641,4.334 2.446,2.626 2.76,0.522 2.159,0.129" />
      <path
         style="fill:none;stroke:#000000;stroke-width:3;stroke-linecap:butt;stroke-opacity:1"
         id="path153"
         stroke-linejoin="mitter"
         d="m 80.865,334.987 -0.271,0.39 -1.56,2.24 -0.191,0.574 -1.196,3.6 -0.249,0.75 -0.343,3.328 -0.067,0.652 -0.014,0.136 -0.152,1.475 0.576,5.385 1.474,3.912 0.162,0.429 2.039,2.201 0.397,0.428 0.916,0.166 2.044,0.368 2.166,0.13 2.725,-1.641 2.384,-3.531 1.579,-4.933 0.556,-5.501 -0.549,-5.251 -1.586,-4.315 -1.329,-1.493" />
      <path
         style="fill:none;stroke:#000000;stroke-width:3;stroke-linecap:butt;stroke-opacity:1"
         id="path155"
         stroke-linejoin="mitter"
         d="m 81.499,337.311 -0.29,0.418 -1.633,4.928 -0.575,5.596 0.575,5.389 1.627,4.33 0.006,0.014 2.029,2.196 0.403,0.435 2.955,0.534" />
      <path
         style="fill:none;stroke:#000000;stroke-width:3;stroke-linecap:butt;stroke-opacity:1"
         id="path157"
         stroke-linejoin="mitter"
         d="m 82.108,336.437 -0.013,-0.728 -0.034,-1.911 -0.023,-1.339 -0.047,-2.641 -0.009,-0.52 -3.139,-0.152 -3.286,-0.158 -0.154,-0.008 -2.323,-0.112 -3.917,-0.189" />
      <path
         style="fill:none;stroke:#000000;stroke-width:3;stroke-linecap:butt;stroke-opacity:1"
         id="path159"
         stroke-linejoin="mitter"
         d="m 72.075,328.232 -2.912,0.447 0.128,7.105 3.885,5.928" />
      <path
         style="fill:none;stroke:#000000;stroke-width:3;stroke-linecap:butt;stroke-opacity:1"
         id="path161"
         stroke-linejoin="mitter"
         d="m 70.367,329.761 5.19,0.252 2.09,0.102 1.196,0.058 1.924,0.094 0.044,2.132 0.003,0.149 0.013,0.595 0.038,1.844 0.005,0.24 0.024,1.148 0.243,0.377 0.362,0.559 5.43,8.398 0.304,0.469 0.698,1.08 0.48,0.027 0.727,0.04 0.138,-0.025 1.071,-0.193 0.029,-0.005 v -0.279 -2.394 -6.315 -3.628 -4.261" />
      <path
         style="fill:none;stroke:#000000;stroke-width:3;stroke-linecap:butt;stroke-opacity:1"
         id="path163"
         stroke-linejoin="mitter"
         d="m 70.495,335.846 -0.128,-6.085" />
      <path
         style="fill:none;stroke:#000000;stroke-width:3;stroke-linecap:butt;stroke-opacity:1"
         id="path165"
         stroke-linejoin="mitter"
         d="m 69.291,335.784 1.204,0.062 3.072,4.694" />
      <path
         style="fill:none;stroke:#000000;stroke-width:3;stroke-linecap:butt;stroke-opacity:1"
         id="path167"
         stroke-linejoin="mitter"
         d="m 89.138,347.325 -0.631,-0.978 -5.425,-8.401 -0.974,-1.509 -0.726,-0.037 -0.488,-0.025" />
      <path
         style="fill:none;stroke:#000000;stroke-width:3;stroke-linecap:butt;stroke-opacity:1"
         id="path169"
         stroke-linejoin="mitter"
         d="m 78.843,332.941 v -2.768" />
      <path
         style="fill:none;stroke:#000000;stroke-width:3;stroke-linecap:butt;stroke-opacity:1"
         id="path171"
         stroke-linejoin="mitter"
         d="m 270.005,342.908 v -3.432" />
      <path
         style="fill:none;stroke:#000000;stroke-width:3;stroke-linecap:butt;stroke-opacity:1"
         id="path173"
         stroke-linejoin="mitter"
         d="m 322.166,331.321 v -2.512" />
      <path
         style="fill:none;stroke:#000000;stroke-width:3;stroke-linecap:butt;stroke-opacity:1"
         id="path175"
         stroke-linejoin="mitter"
         d="m 326.193,332.301 -0.078,-0.004" />
      <path
         style="fill:none;stroke:#000000;stroke-width:3;stroke-linecap:butt;stroke-opacity:1"
         id="path177"
         stroke-linejoin="mitter"
         d="m 283.25,337.373 9.766,-2.149 9.767,-2.15 9.766,-2.149 2.483,-0.546 1.282,-0.282 4.569,-1.006 1.283,-0.282 3.464,-0.762" />
    </g>
  </g>
</svg>
