<?xml version="1.0" encoding="UTF-8" standalone="no"?>
<svg
   xmlns:dc="http://purl.org/dc/elements/1.1/"
   xmlns:cc="http://creativecommons.org/ns#"
   xmlns:rdf="http://www.w3.org/1999/02/22-rdf-syntax-ns#"
   xmlns:svg="http://www.w3.org/2000/svg"
   xmlns="http://www.w3.org/2000/svg"
   id="svg181"
   width="400"
   version="1.1"
   height="400">
  <metadata
     id="metadata187">
    <rdf:RDF>
      <cc:Work
         rdf:about="">
        <dc:format>image/svg+xml</dc:format>
        <dc:type
           rdf:resource="http://purl.org/dc/dcmitype/StillImage" />
        <dc:title></dc:title>
      </cc:Work>
    </rdf:RDF>
  </metadata>
  <defs
     id="defs185" />
  <g
     id="RenderLayer_LineSet">
    <g
       id="fills">
      <path
         style="fill:#cccccc;fill-opacity:1;stroke:none"
         id="path2"
         fill_rule="evenodd"
         d="m 90.376,334.486 v -4.261 z" />
      <path
         style="fill:#cccccc;fill-opacity:1;stroke:none"
         id="path4"
         fill_rule="evenodd"
         d="m 80.811,332.399 -0.881,-0.044 -1.087,0.586 z" />
      <path
         style="fill:#cccccc;fill-opacity:1;stroke:none"
         id="path6"
         fill_rule="evenodd"
         d="m 314.941,175.622 -1.78,4.29 -1.013,5.867 -0.084,6.532 z" />
      <path
         style="fill:#cccccc;fill-opacity:1;stroke:none"
         id="path8"
         fill_rule="evenodd"
         d="m 372.08,150.471 -3.211,-2.507 z" />
      <path
         style="fill:#cccccc;fill-opacity:1;stroke:none"
         id="path10"
         fill_rule="evenodd"
         d="m 349.497,132.842 -37.649,-29.409 0.889,-9.873 -132.056,4.827 -72.144,2.637 -48.442,1.771 -1.157,9.027 43.845,23.607 z" />
      <path
         style="fill:#ff2a2a;fill-opacity:1;stroke:none"
         id="path12"
         fill_rule="evenodd"
         d="m 98.651,338.075 47.157,2.286 -0.374,3.907 0.492,4.968 1.397,4.02 2.082,2.456 2.342,0.522 2.04,0.11 0.457,-0.265 1.855,0.39 2.046,0.111 2.312,-1.475 2.032,-3.227 1.346,-4.535 0.474,-5.073 -0.098,-1.017 15.26,0.739 90.441,4.384 0.098,7.062 3.981,7.824 -0.41,5.165 0.476,5.757 1.354,4.624 2.015,2.778 2.24,0.516 2.479,0.149 0.462,-0.336 2.347,0.505 2.488,0.149 2.2,-1.802 1.955,-3.818 1.292,-5.307 0.455,-5.9 -0.448,-5.617 -1.299,-4.602 -0.072,-0.105 v -8.195 l 31.782,-6.994 0.041,3.184 3.631,7.852 -0.296,4.049 0.401,5.291 1.139,4.268 1.697,2.59 1.876,0.522 2.317,0.126 0.529,-0.404 0.008,0.012 2.089,0.534 2.324,0.126 1.844,-1.606 1.648,-3.466 1.089,-4.849 0.384,-5.41 -0.377,-5.168 -0.832,-3.226 v -8.904 l -0.648,-0.028 6.073,-2.695 7.076,-128.419 18.544,-20.599 0.993,-2.07 1.354,-12.541 0.114,-1.423 0.613,-7.597 3.417,-0.057 2.399,-0.04 -2.009,-10.768 -5.51,-19.63 -6.901,-17.178 -8.117,-14.067 -9.107,-10.331 -9.817,-6.037 -10.185,-1.285 -2.587,0.114 -130.8,5.77 -119.57,5.274 -2.158,0.095 -13.303,3.616 -8.525,5.581 -0.57,4.372 12.6,6.918 -1.159,9.019 43.924,23.586 -54.268,1.298 -3.888,0.131 -2.054,0.152 v 6.644 l -0.291,0.01 0.61,0.177 15.943,1.032 10.59,180.305 4.748,3.003 z m 233.258,-0.019 -1.468,1.115 v -2.512 l 3.464,-0.762 1.82,0.079 0.039,2.667 -1.538,-0.483 z m -52.123,11.624 -1.506,1.078 v -3.432 l 4.97,0.242 0.039,2.512 -1.024,-0.277 z m -198.335,-0.118 -0.198,0.593 -0.578,5.582 0.578,5.376 1.641,4.334 2.446,2.626 2.76,0.522 2.159,0.129 0.402,-0.221 2.044,0.368 2.166,0.13 2.725,-1.641 2.384,-3.531 1.579,-4.933 0.556,-5.501 -0.549,-5.251 -1.586,-4.315 -1.329,-1.493 z m -1.101,-13.48 -2.912,0.447 0.128,7.105 3.885,5.928 z m 6.768,4.709 v -2.768 l 1.924,0.094 0.044,2.132 z" />
      <g
         id="RenderLayer_LineSet-0"
         transform="translate(0.91220414,-2.2457545)">
        <g
           id="strokes-8">
          <path
             id="path2-6"
             stroke-linejoin="mitter"
             d="m 251.92,241.721 -0.73,-0.029 -1.512,0.05 -1.412,0.193 -1.306,0.332 -1.195,0.467 -1.076,0.597 -0.952,0.723 -0.822,0.844 -0.686,0.963 -0.545,1.077 -0.396,1.186 -0.243,1.292 -0.082,1.393 0.285,2.169 0.787,1.932 1.189,1.723 1.493,1.546 1.695,1.395 1.799,1.275 1.801,1.183 1.702,1.119 1.501,1.084 1.199,1.078 0.795,1.099 0.287,1.15 -0.042,0.586 -0.124,0.536 -0.199,0.486 -0.269,0.438 -0.332,0.387 -0.39,0.339 -0.442,0.29 -0.488,0.24 -0.528,0.192 -0.563,0.143 -0.592,0.095 -0.614,0.047 -0.648,-0.047 -0.694,-0.108 -0.737,-0.171 -0.777,-0.234 -0.813,-0.297 -0.848,-0.36 -0.879,-0.425 -0.908,-0.488 -0.932,-0.554 -0.955,-0.618 -0.974,-0.684 -0.991,-0.75 v 7.292 l 0.978,0.565 0.942,0.507 0.913,0.451 0.889,0.396 0.873,0.344 0.862,0.295 0.859,0.247 0.861,0.202 0.871,0.159 0.886,0.118 0.909,0.079 0.937,0.044 1.441,-0.044 1.369,-0.208 1.287,-0.364 1.195,-0.514 1.092,-0.657 0.979,-0.794 0.856,-0.924 0.723,-1.046 0.581,-1.162 0.426,-1.27 0.264,-1.372 0.09,-1.467 -0.04,-0.858 -0.124,-0.821 -0.212,-0.793 -0.304,-0.774 -0.403,-0.763 -0.506,-0.76 -0.612,-0.768 -0.725,-0.783 -0.842,-0.808 -0.963,-0.84 -1.089,-0.883 -1.219,-0.933 -1.303,-0.87 -1.164,-0.801 -1.03,-0.737 -0.902,-0.679 -0.779,-0.625 -0.659,-0.577 -0.545,-0.533 -0.436,-0.494 -0.331,-0.461 -0.23,-0.431 -0.135,-0.408 -0.044,-0.389 0.032,-0.444 0.097,-0.419 0.158,-0.39 0.217,-0.359 0.274,-0.326 0.328,-0.289 0.381,-0.25 0.43,-0.209 0.477,-0.164 0.522,-0.118 0.565,-0.068 0.605,-0.017 0.592,0.033 0.63,0.079 0.666,0.126 0.698,0.176 0.729,0.226 0.756,0.278 0.782,0.331 0.804,0.385 0.824,0.441 0.841,0.498 0.855,0.557 0.867,0.616 v -6.73 l -0.814,-0.47 -0.803,-0.428 -0.792,-0.388 -0.782,-0.346 -0.773,-0.305 -0.765,-0.265 -0.757,-0.226 -0.751,-0.185 -0.744,-0.146 -0.738,-0.107 -0.734,-0.069"
             style="fill:none;stroke:#000000;stroke-width:3;stroke-linecap:butt;stroke-opacity:1" />
          <path
             id="path4-8"
             stroke-linejoin="mitter"
             d="m 224.319,241.426 -1.96,-0.157 -2.05,0.113 -1.927,0.39 -1.796,0.655 -1.652,0.908 -1.499,1.147 -1.333,1.374 -1.159,1.589 -0.972,1.791 -0.775,1.981 -0.568,2.159 -0.348,2.325 -0.119,2.479 0.109,2.312 0.323,2.26 0.535,2.183 0.743,2.077 0.947,1.944 1.149,1.784 1.346,1.597 1.541,1.381 1.732,1.137 1.921,0.866 2.106,0.567 2.289,0.238 1.256,0.007 1.187,-0.048 1.126,-0.105 1.074,-0.162 1.028,-0.219 0.99,-0.276 0.959,-0.334 0.936,-0.392 0.921,-0.45 0.912,-0.51 0.913,-0.568 0.919,-0.629 v -6.519 l -0.89,0.601 -0.887,0.554 -0.886,0.508 -0.885,0.458 -0.886,0.407 -0.887,0.355 -0.889,0.301 -0.893,0.245 -0.897,0.189 -0.902,0.13 -0.907,0.07 -0.915,0.008 -1.413,-0.107 -1.312,-0.248 -1.21,-0.389 -1.11,-0.529 -1.007,-0.666 -0.906,-0.804 -0.804,-0.941 -0.701,-1.077 -0.599,-1.212 -0.496,-1.346 -0.392,-1.48 -0.288,-1.613 9.997,0.212 9.998,0.213 1.516,0.032 -0.108,-3.015 -0.316,-2.751 -0.518,-2.487 -0.711,-2.225 -0.896,-1.963 -1.074,-1.702 -1.241,-1.441 -1.403,-1.182 -1.554,-0.923 -1.698,-0.667 -1.834,-0.41"
             style="fill:none;stroke:#000000;stroke-width:3;stroke-linecap:butt;stroke-opacity:1" />
          <path
             id="path6-6"
             stroke-linejoin="mitter"
             d="m 221.378,247.126 1.117,-0.044 1.036,0.084 0.966,0.214 0.893,0.338 0.817,0.459 0.738,0.574 0.656,0.685 0.57,0.79 0.483,0.892 0.392,0.988 0.299,1.08 0.201,1.166 0.102,1.248 -9.998,-0.197 -5.354,-0.105 0.243,-1.282 0.325,-1.181 0.405,-1.078 0.486,-0.973 0.566,-0.865 0.646,-0.754 0.725,-0.642 0.804,-0.528 0.882,-0.41 0.961,-0.291 1.039,-0.168"
             style="fill:none;stroke:#000000;stroke-width:3;stroke-linecap:butt;stroke-opacity:1" />
          <path
             id="path8-6"
             stroke-linejoin="mitter"
             d="m 194.549,240.88 -0.843,-0.03 -2.191,0.112 -2.041,0.396 -1.884,0.669 -1.718,0.931 -1.545,1.183 -1.365,1.425 -1.176,1.656 -0.98,1.876 -0.776,2.088 -0.565,2.288 -0.344,2.48 -0.117,2.662 0.127,2.392 0.373,2.263 0.606,2.121 0.828,1.964 1.037,1.794 1.235,1.61 1.421,1.411 1.594,1.199 1.757,0.971 1.907,0.729 2.045,0.473 2.172,0.201 0.795,0.003 0.815,-0.031 0.826,-0.062 0.828,-0.093 0.823,-0.12 0.808,-0.144 0.784,-0.167 0.753,-0.188 0.713,-0.205 0.663,-0.22 0.605,-0.234 0.539,-0.245 v -6.595 l -0.742,0.341 -0.718,0.31 -0.699,0.28 -0.68,0.248 -0.666,0.218 -0.653,0.187 -0.642,0.155 -0.636,0.125 -0.63,0.093 -0.628,0.062 -0.628,0.032 -0.631,-0.001 -1.487,-0.123 -1.389,-0.29 -1.287,-0.452 -1.178,-0.608 -1.063,-0.758 -0.941,-0.905 -0.813,-1.046 -0.68,-1.181 -0.54,-1.312 -0.393,-1.438 -0.24,-1.558 -0.082,-1.675 0.076,-1.645 0.223,-1.541 0.364,-1.429 0.496,-1.309 0.623,-1.183 0.743,-1.048 0.854,-0.905 0.96,-0.755 1.058,-0.596 1.15,-0.429 1.235,-0.254 1.312,-0.072 0.643,0.027 0.635,0.062 0.631,0.1 0.633,0.142 0.64,0.188 0.652,0.238 0.669,0.291 0.691,0.348 0.718,0.41 0.751,0.474 0.788,0.542 0.831,0.615 V 243.3 l -0.71,-0.356 -0.693,-0.332 -0.682,-0.308 -0.676,-0.281 -0.678,-0.254 -0.683,-0.226 -0.696,-0.196 -0.714,-0.166 -0.738,-0.134 -0.767,-0.1 -0.802,-0.067"
             style="fill:none;stroke:#000000;stroke-width:3;stroke-linecap:butt;stroke-opacity:1" />
          <path
             id="path10-7"
             stroke-linejoin="mitter"
             d="m 169.625,227.204 -0.467,-0.041 -0.467,0.031 -0.448,0.101 -0.426,0.166 -0.4,0.225 -0.368,0.279 -0.334,0.33 -0.293,0.374 -0.25,0.415 -0.202,0.45 -0.15,0.48 -0.092,0.507 -0.032,0.527 0.032,0.528 0.092,0.508 0.15,0.484 0.202,0.455 0.25,0.42 0.293,0.381 0.334,0.337 0.368,0.288 0.4,0.234 0.426,0.175 0.448,0.111 0.467,0.042 0.467,-0.03 0.449,-0.1 0.427,-0.164 0.4,-0.224 0.369,-0.28 0.335,-0.329 0.295,-0.374 0.251,-0.416 0.202,-0.45 0.151,-0.482 0.093,-0.507 0.032,-0.529 -0.032,-0.529 -0.093,-0.51 -0.151,-0.485 -0.202,-0.455 -0.251,-0.421 -0.295,-0.381 -0.335,-0.337 -0.369,-0.287 -0.4,-0.234 -0.427,-0.174 -0.449,-0.109"
             style="fill:none;stroke:#000000;stroke-width:3;stroke-linecap:butt;stroke-opacity:1" />
          <path
             id="path12-9"
             stroke-linejoin="mitter"
             d="m 172.039,241.199 -5.821,-0.086 v 10 10 10 3.208 l 5.821,0.157 v -10 -10 -10 -3.279"
             style="fill:none;stroke:#000000;stroke-width:3;stroke-linecap:butt;stroke-opacity:1" />
          <path
             id="path14"
             stroke-linejoin="mitter"
             d="m 140.162,240.725 -6.198,-0.093 3.588,9.335 3.588,9.334 3.587,9.334 2.241,5.829 1.932,0.052 3.577,-9.338 3.577,-9.338 3.578,-9.339 2.089,-5.455 -6.166,-0.092 -3.536,9.354 -3.535,9.354 -0.55,1.456 -3.561,-9.344 -3.561,-9.345 -0.65,-1.704"
             style="fill:none;stroke:#000000;stroke-width:3;stroke-linecap:butt;stroke-opacity:1" />
          <path
             id="path16"
             stroke-linejoin="mitter"
             d="m 121.136,239.91 -1.82,-0.15 -1.902,0.109 -1.79,0.377 -1.666,0.633 -1.534,0.875 -1.391,1.106 -1.239,1.325 -1.075,1.531 -0.903,1.726 -0.72,1.91 -0.527,2.081 -0.323,2.241 -0.111,2.389 0.101,2.227 0.301,2.178 0.497,2.103 0.689,2 0.88,1.873 1.066,1.718 1.25,1.538 1.43,1.329 1.609,1.094 1.783,0.833 1.955,0.543 2.125,0.228 1.165,0.005 1.102,-0.048 1.045,-0.102 0.997,-0.156 0.954,-0.212 0.918,-0.267 0.89,-0.322 0.869,-0.379 0.854,-0.435 0.847,-0.491 0.847,-0.549 0.853,-0.606 v -6.28 l -0.826,0.579 -0.823,0.535 -0.822,0.49 -0.822,0.442 -0.822,0.393 -0.823,0.342 -0.825,0.291 -0.829,0.237 -0.832,0.183 -0.837,0.126 -0.842,0.068 -0.85,0.009 -1.311,-0.102 -1.217,-0.238 -1.124,-0.374 -1.03,-0.508 -0.935,-0.641 -0.841,-0.774 -0.746,-0.906 -0.651,-1.037 -0.556,-1.167 -0.46,-1.297 -0.364,-1.426 -0.268,-1.554 9.998,0.213 9.967,0.212 -0.1,-2.904 -0.293,-2.65 -0.481,-2.396 -0.66,-2.143 -0.831,-1.89 -0.996,-1.638 -1.153,-1.388 -1.301,-1.138 -1.442,-0.889 -1.576,-0.641 -1.702,-0.394"
             style="fill:none;stroke:#000000;stroke-width:3;stroke-linecap:butt;stroke-opacity:1" />
          <path
             id="path18"
             stroke-linejoin="mitter"
             d="m 118.406,245.403 1.036,-0.043 0.962,0.081 0.897,0.205 0.829,0.326 0.758,0.441 0.685,0.552 0.608,0.66 0.53,0.761 0.448,0.859 0.364,0.951 0.277,1.04 0.187,1.123 0.094,1.203 -9.998,-0.197 -4.252,-0.084 0.226,-1.235 0.302,-1.139 0.376,-1.038 0.451,-0.938 0.526,-0.833 0.599,-0.728 0.673,-0.619 0.746,-0.509 0.82,-0.396 0.892,-0.28 0.964,-0.163"
             style="fill:none;stroke:#000000;stroke-width:3;stroke-linecap:butt;stroke-opacity:1" />
          <path
             id="path20"
             stroke-linejoin="mitter"
             d="m 99.904,223.306 -5.522,-0.048 v 10 7.433 l -0.547,-0.23 -0.529,-0.207 -0.512,-0.184 -0.498,-0.162 -0.485,-0.141 -0.475,-0.12 -0.468,-0.101 -0.461,-0.082 -0.459,-0.063 -0.456,-0.047 -0.458,-0.03 -0.46,-0.014 -1.967,0.108 -1.855,0.373 -1.731,0.625 -1.598,0.863 -1.451,1.085 -1.295,1.295 -1.126,1.49 -0.948,1.671 -0.756,1.84 -0.555,1.995 -0.341,2.136 -0.116,2.265 0.106,2.496 0.312,2.334 0.511,2.162 0.704,1.981 0.889,1.791 1.068,1.591 1.239,1.382 1.405,1.163 1.563,0.934 1.715,0.696 1.859,0.447 1.998,0.188 9.997,0.269 1.703,0.046 v -10 -10 -10 -10 -9.23"
             style="fill:none;stroke:#000000;stroke-width:3;stroke-linecap:butt;stroke-opacity:1" />
          <path
             id="path22"
             stroke-linejoin="mitter"
             d="m 93.057,245.804 0.428,0.172 0.441,0.193 0.456,0.213 v 10 10 0.603 l -5.561,-0.139 -1.5,-0.13 -1.328,-0.303 -1.166,-0.467 -1.01,-0.62 -0.863,-0.762 -0.723,-0.894 -0.591,-1.016 -0.466,-1.127 -0.35,-1.23 -0.241,-1.32 -0.139,-1.402 -0.045,-1.473 0.073,-1.633 0.215,-1.528 0.35,-1.415 0.479,-1.295 0.603,-1.168 0.718,-1.033 0.83,-0.891 0.933,-0.742 1.032,-0.585 1.123,-0.421 1.209,-0.25 1.288,-0.069 0.455,0.015 0.439,0.03 0.427,0.046 0.419,0.063 0.413,0.079 0.41,0.097 0.41,0.115 0.413,0.134 0.419,0.153"
             style="fill:none;stroke:#000000;stroke-width:3;stroke-linecap:butt;stroke-opacity:1" />
          <path
             id="path24"
             stroke-linejoin="mitter"
             d="m 257.003,165.403 -0.881,-0.008 -2.29,0.175 -2.133,0.462 -1.969,0.736 -1.796,0.999 -1.615,1.253 -1.426,1.494 -1.229,1.725 -1.024,1.945 -0.812,2.155 -0.589,2.355 -0.36,2.545 -0.122,2.724 0.132,2.442 0.39,2.303 0.633,2.152 0.865,1.985 1.085,1.806 1.29,1.611 1.485,1.404 1.666,1.182 1.836,0.944 1.993,0.694 2.138,0.427 2.27,0.146 0.831,-0.018 0.852,-0.054 0.863,-0.087 0.866,-0.117 0.86,-0.145 0.845,-0.17 0.82,-0.192 0.787,-0.212 0.745,-0.23 0.693,-0.243 0.633,-0.256 0.563,-0.265 v -6.743 l -0.775,0.369 -0.752,0.337 -0.73,0.305 -0.711,0.273 -0.696,0.24 -0.682,0.209 -0.672,0.177 -0.664,0.145 -0.659,0.112 -0.657,0.081 -0.656,0.049 -0.66,0.017 -1.553,-0.085 -1.453,-0.258 -1.345,-0.427 -1.231,-0.589 -1.111,-0.747 -0.983,-0.899 -0.851,-1.046 -0.71,-1.189 -0.564,-1.327 -0.411,-1.459 -0.252,-1.587 -0.085,-1.709 0.08,-1.684 0.233,-1.581 0.38,-1.471 0.519,-1.353 0.651,-1.226 0.776,-1.092 0.893,-0.949 1.003,-0.798 1.106,-0.638 1.202,-0.471 1.29,-0.294 1.372,-0.109 0.672,0.01 0.664,0.045 0.66,0.085 0.662,0.128 0.669,0.175 0.681,0.225 0.699,0.279 0.722,0.337 0.751,0.398 0.785,0.464 0.824,0.533 0.869,0.606 v -7.278 l -0.742,-0.344 -0.725,-0.321 -0.713,-0.295 -0.707,-0.269 -0.708,-0.241 -0.715,-0.212 -0.727,-0.182 -0.746,-0.149 -0.771,-0.117 -0.802,-0.081 -0.839,-0.046"
             style="fill:none;stroke:#000000;stroke-width:3;stroke-linecap:butt;stroke-opacity:1" />
          <path
             id="path26"
             stroke-linejoin="mitter"
             d="m 230.956,152.112 -0.488,-0.029 -0.488,0.046 -0.468,0.115 -0.445,0.181 -0.418,0.241 -0.385,0.296 -0.348,0.346 -0.307,0.391 -0.261,0.431 -0.211,0.466 -0.156,0.495 -0.097,0.52 -0.033,0.54 0.033,0.539 0.097,0.517 0.156,0.49 0.211,0.459 0.261,0.423 0.307,0.381 0.348,0.336 0.385,0.284 0.418,0.228 0.445,0.167 0.469,0.101 0.487,0.03 0.488,-0.044 0.469,-0.114 0.446,-0.18 0.418,-0.241 0.386,-0.295 0.35,-0.346 0.308,-0.391 0.262,-0.431 0.212,-0.467 0.157,-0.496 0.097,-0.522 0.034,-0.541 -0.034,-0.54 -0.097,-0.518 -0.157,-0.492 -0.212,-0.46 -0.262,-0.423 -0.308,-0.381 -0.35,-0.335 -0.386,-0.284 -0.418,-0.227 -0.446,-0.166 -0.469,-0.1"
             style="fill:none;stroke:#000000;stroke-width:3;stroke-linecap:butt;stroke-opacity:1" />
          <path
             id="path28"
             stroke-linejoin="mitter"
             d="m 233.478,166.352 -6.082,0.072 v 10 10 10 3.944 l 6.082,0.001 v -10 -10 -10 -4.017"
             style="fill:none;stroke:#000000;stroke-width:3;stroke-linecap:butt;stroke-opacity:1" />
          <path
             id="path30"
             stroke-linejoin="mitter"
             d="m 216.389,165.904 -0.606,-0.02 -0.712,0.061 -0.714,0.168 -0.717,0.278 -0.72,0.392 -0.723,0.508 -0.728,0.628 -0.731,0.752 -0.735,0.879 -0.739,1.008 -0.744,1.142 -0.749,1.279 -0.753,1.418 -0.135,0.001 v -7.73 l -5.968,0.071 v 10 10 10 3.626 h 5.968 v -10 -7.636 l 0.066,-1.419 0.192,-1.357 0.311,-1.285 0.42,-1.201 0.522,-1.105 0.616,-0.998 0.703,-0.878 0.779,-0.747 0.85,-0.604 0.911,-0.45 0.965,-0.282 1.01,-0.104 0.374,0.024 0.408,0.078 0.437,0.129 0.461,0.177 0.48,0.223 0.494,0.266 0.503,0.307 0.506,0.345 0.505,0.381 0.497,0.415 0.486,0.444 0.468,0.473 3.191,-5.84 -0.624,-0.625 -0.617,-0.569 -0.611,-0.512 -0.605,-0.457 -0.602,-0.401 -0.599,-0.346 -0.596,-0.29 -0.597,-0.236 -0.597,-0.181 -0.599,-0.127 -0.602,-0.073"
             style="fill:none;stroke:#000000;stroke-width:3;stroke-linecap:butt;stroke-opacity:1" />
          <path
             id="path32"
             stroke-linejoin="mitter"
             d="m 185.277,166.925 v -6.926 l -6.684,7.438 -4.324,4.811 v 0.742 l 5.131,-0.05 v 10 7.612 l 0.067,1.471 0.201,1.395 0.336,1.31 0.47,1.215 0.603,1.109 0.738,0.995 0.871,0.87 1.006,0.734 1.139,0.589 1.273,0.434 1.408,0.268 1.542,0.092 0.506,-0.019 0.55,-0.058 0.587,-0.094 0.614,-0.126 0.635,-0.159 0.645,-0.186 0.649,-0.214 0.644,-0.238 0.63,-0.259 0.608,-0.279 0.577,-0.297 0.539,-0.311 v -6.206 l -0.596,0.396 -0.588,0.361 -0.58,0.327 -0.573,0.292 -0.566,0.258 -0.561,0.224 -0.554,0.189 -0.549,0.155 -0.544,0.121 -0.54,0.086 -0.536,0.053 -0.533,0.018 -0.446,-0.024 -0.467,-0.076 -0.478,-0.134 -0.476,-0.199 -0.463,-0.269 -0.438,-0.346 -0.403,-0.428 -0.355,-0.516 -0.296,-0.61 -0.225,-0.71 -0.144,-0.816 -0.05,-0.929 -10e-4,-10 v -7.128 l 9.429,-0.092 v -5.978 l -9.428,0.112"
             style="fill:none;stroke:#000000;stroke-width:3;stroke-linecap:butt;stroke-opacity:1" />
          <path
             id="path34"
             stroke-linejoin="mitter"
             d="m 163.652,166.535 -0.824,-0.008 -2.143,0.169 -1.996,0.446 -1.842,0.711 -1.681,0.966 -1.511,1.211 -1.335,1.445 -1.15,1.668 -0.959,1.882 -0.759,2.085 -0.552,2.278 -0.337,2.462 -0.114,2.635 0.124,2.362 0.365,2.229 0.593,2.081 0.809,1.921 1.015,1.747 1.208,1.559 1.389,1.358 1.56,1.143 1.718,0.914 1.865,0.671 2,0.413 2.124,0.142 0.777,-0.018 0.797,-0.052 0.808,-0.084 0.81,-0.114 0.805,-0.14 0.79,-0.164 0.767,-0.186 0.736,-0.205 0.697,-0.222 0.649,-0.236 0.592,-0.247 0.526,-0.256 v -6.522 l -0.725,0.357 -0.703,0.326 -0.683,0.294 -0.665,0.264 -0.651,0.233 -0.638,0.202 -0.629,0.171 -0.621,0.14 -0.617,0.109 -0.614,0.078 -0.614,0.047 -0.617,0.017 -1.454,-0.083 -1.359,-0.25 -1.259,-0.412 -1.151,-0.57 -1.04,-0.723 -0.92,-0.87 -0.796,-1.012 -0.665,-1.15 -0.527,-1.283 -0.385,-1.412 -0.235,-1.535 -0.08,-1.654 0.074,-1.629 0.219,-1.529 0.355,-1.423 0.486,-1.309 0.609,-1.186 0.726,-1.056 0.836,-0.918 0.939,-0.771 1.035,-0.617 1.124,-0.455 1.207,-0.284 1.284,-0.105 0.629,0.009 0.621,0.045 0.617,0.082 0.619,0.124 0.626,0.169 0.638,0.218 0.654,0.27 0.675,0.326 0.703,0.386 0.734,0.449 0.77,0.515 0.813,0.586 v -7.039 l -0.694,-0.333 -0.678,-0.31 -0.666,-0.286 -0.662,-0.26 -0.662,-0.234 -0.669,-0.205 -0.681,-0.176 -0.698,-0.145 -0.721,-0.113 -0.75,-0.079 -0.785,-0.045"
             style="fill:none;stroke:#000000;stroke-width:3;stroke-linecap:butt;stroke-opacity:1" />
          <path
             id="path36"
             stroke-linejoin="mitter"
             d="m 133.061,167.012 -1.836,-0.101 -1.918,0.161 -1.806,0.427 -1.681,0.68 -1.547,0.92 -1.404,1.149 -1.249,1.364 -1.085,1.567 -0.911,1.758 -0.726,1.937 -0.531,2.104 -0.327,2.259 -0.111,2.403 0.102,2.234 0.303,2.18 0.501,2.098 0.696,1.991 0.887,1.857 1.076,1.697 1.261,1.511 1.443,1.296 1.622,1.056 1.799,0.788 1.972,0.494 2.144,0.171 1.175,-0.026 1.111,-0.077 1.055,-0.131 1.005,-0.184 0.963,-0.239 0.927,-0.292 0.897,-0.348 0.877,-0.404 0.862,-0.46 0.854,-0.516 0.854,-0.574 0.861,-0.632 v -6.308 l -0.833,0.605 -0.831,0.56 -0.829,0.513 -0.829,0.466 -0.829,0.417 -0.831,0.366 -0.832,0.314 -0.836,0.261 -0.839,0.206 -0.845,0.149 -0.85,0.091 -0.856,0.032 -1.323,-0.067 -1.228,-0.207 -1.134,-0.345 -1.039,-0.482 -0.943,-0.619 -0.849,-0.755 -0.752,-0.89 -0.657,-1.024 -0.561,-1.157 -0.464,-1.29 -0.367,-1.423 -0.271,-1.553 10,-0.055 10.141,-0.056 -0.1,-2.914 -0.297,-2.654 -0.484,-2.393 -0.666,-2.135 -0.839,-1.876 -1.005,-1.619 -1.162,-1.362 -1.313,-1.108 -1.455,-0.854 -1.59,-0.602 -1.717,-0.35"
             style="fill:none;stroke:#000000;stroke-width:3;stroke-linecap:butt;stroke-opacity:1" />
          <path
             id="path38"
             stroke-linejoin="mitter"
             d="m 130.307,172.603 1.046,-0.071 0.97,0.055 0.905,0.182 0.836,0.305 0.765,0.423 0.69,0.536 0.614,0.646 0.535,0.75 0.452,0.851 0.367,0.946 0.279,1.037 0.189,1.123 0.095,1.205 -9.999,0.071 -4.376,0.031 0.228,-1.247 0.304,-1.151 0.38,-1.054 0.455,-0.954 0.53,-0.851 0.605,-0.747 0.678,-0.64 0.753,-0.531 0.827,-0.42 0.899,-0.305 0.973,-0.19"
             style="fill:none;stroke:#000000;stroke-width:3;stroke-linecap:butt;stroke-opacity:1" />
          <path
             id="path40"
             stroke-linejoin="mitter"
             d="m 111.267,150.915 -5.569,0.101 v 10 10 10 10 9.336 l 5.569,0.001 v -10 -10 -10 -10 -9.438"
             style="fill:none;stroke:#000000;stroke-width:3;stroke-linecap:butt;stroke-opacity:1" />
          <path
             id="path42"
             stroke-linejoin="mitter"
             d="m 89.304,167.541 -1.778,-0.1 -1.858,0.158 -1.747,0.42 -1.628,0.669 -1.499,0.905 -1.358,1.13 -1.21,1.342 -1.051,1.542 -0.882,1.73 -0.703,1.906 -0.514,2.07 -0.316,2.224 -0.108,2.364 0.098,2.199 0.294,2.144 0.485,2.065 0.674,1.96 0.859,1.827 1.042,1.67 1.22,1.486 1.398,1.276 1.571,1.039 1.741,0.776 1.91,0.485 2.075,0.169 1.138,-0.025 1.076,-0.077 1.022,-0.129 0.973,-0.181 0.932,-0.234 0.897,-0.288 0.869,-0.343 0.848,-0.397 0.835,-0.452 0.827,-0.508 0.826,-0.565 0.834,-0.622 v -6.206 l -0.807,0.595 -0.804,0.55 -0.803,0.506 -0.802,0.458 -0.803,0.41 -0.804,0.361 -0.806,0.309 -0.809,0.256 -0.813,0.203 -0.817,0.146 -0.823,0.09 -0.829,0.031 -1.281,-0.066 -1.189,-0.203 -1.098,-0.34 -1.005,-0.474 -0.914,-0.61 -0.821,-0.742 -0.729,-0.876 -0.636,-1.008 -0.543,-1.139 -0.45,-1.269 -0.355,-1.399 -0.262,-1.529 10,-0.055 9.5,-0.053 -0.097,-2.867 -0.287,-2.611 -0.47,-2.355 -0.644,-2.1 -0.812,-1.846 -0.973,-1.593 -1.125,-1.341 -1.271,-1.09 -1.409,-0.841 -1.539,-0.592 -1.662,-0.345"
             style="fill:none;stroke:#000000;stroke-width:3;stroke-linecap:butt;stroke-opacity:1" />
          <path
             id="path44"
             stroke-linejoin="mitter"
             d="m 86.637,173.042 1.013,-0.069 0.939,0.054 0.876,0.179 0.809,0.3 0.741,0.416 0.669,0.528 0.594,0.635 0.518,0.739 0.437,0.837 0.356,0.93 0.27,1.021 0.183,1.105 0.092,1.186 -10,0.071 -3.918,0.027 0.22,-1.227 0.295,-1.132 0.368,-1.037 0.44,-0.938 0.513,-0.838 0.586,-0.735 0.657,-0.63 0.729,-0.522 0.8,-0.413 0.872,-0.3 0.941,-0.187"
             style="fill:none;stroke:#000000;stroke-width:3;stroke-linecap:butt;stroke-opacity:1" />
        </g>
      </g>
    </g>
    <g
       style="display:inline"
       id="strokes">
      <path
         style="fill:none;stroke:#000000;stroke-width:3;stroke-linecap:butt;stroke-opacity:1"
         id="path15"
         stroke-linejoin="mitter"
         d="m 327.489,330.793 -1.538,-0.483 -1.983,1.512 -1.691,3.431 -0.111,0.471 -1.025,4.364 -0.306,4.199 -0.094,1.294 0.4,5.294 1.136,4.272 1.691,2.592 1.87,0.522 0.529,-0.404" />
      <path
         style="fill:none;stroke:#000000;stroke-width:3;stroke-linecap:butt;stroke-opacity:1"
         id="path17"
         stroke-linejoin="mitter"
         d="m 325.199,356.061 -0.785,-0.224 -1.449,-2.228 -0.973,-3.665 -0.342,-4.539 0.088,-1.203 0.254,-3.507 0.174,-0.74 0.799,-3.407 1.449,-2.948 1.701,-1.303" />
      <path
         style="fill:none;stroke:#000000;stroke-width:3;stroke-linecap:butt;stroke-opacity:1"
         id="path19"
         stroke-linejoin="mitter"
         d="m 325.951,330.31 -2.317,-0.104 -1.468,1.115 -0.521,0.396 -0.762,1.54 -0.935,1.888 -0.974,4.13 -0.165,0.701 -0.105,1.439 -0.296,4.049 0.401,5.291 1.139,4.268 1.697,2.59 1.876,0.522 2.317,0.126" />
      <path
         style="fill:none;stroke:#000000;stroke-width:3;stroke-linecap:butt;stroke-opacity:1"
         id="path21"
         stroke-linejoin="mitter"
         d="m 327.493,331.074 -1.118,0.856 -0.03,0.06 -0.152,0.311 -0.009,0.018 -1.495,3.046 -1.132,4.839 -0.399,5.498 0.399,5.298 1.132,4.275 0.51,0.786 0.348,0.534 0.82,1.262 0.008,0.012 2.089,0.534 2.324,0.126 1.844,-1.606 1.648,-3.466 1.089,-4.849 0.384,-5.41 -0.377,-5.168 -0.832,-3.226" />
      <path
         style="fill:none;stroke:#000000;stroke-width:3;stroke-linecap:butt;stroke-opacity:1"
         id="path23"
         stroke-linejoin="mitter"
         d="m 327.606,334.286 -0.581,1.187 -1.128,4.844 -0.397,5.501 0.397,5.303 1.128,4.278 0.052,0.08 0.481,0.743 0.101,0.156 0.213,0.329 0.833,1.288 2.083,0.534" />
      <path
         style="fill:none;stroke:#000000;stroke-width:3;stroke-linecap:butt;stroke-opacity:1"
         id="path25"
         stroke-linejoin="mitter"
         d="m 315.032,330.379 0.041,3.184 3.631,7.852" />
      <path
         style="fill:none;stroke:#000000;stroke-width:3;stroke-linecap:butt;stroke-opacity:1"
         id="path27"
         stroke-linejoin="mitter"
         d="m 316.366,333.622 -0.052,-3.525" />
      <path
         style="fill:none;stroke:#000000;stroke-width:3;stroke-linecap:butt;stroke-opacity:1"
         id="path29"
         stroke-linejoin="mitter"
         d="m 315.073,333.563 1.293,0.059 2.608,5.653" />
      <path
         style="fill:none;stroke:#000000;stroke-width:3;stroke-linecap:butt;stroke-opacity:1"
         id="path31"
         stroke-linejoin="mitter"
         d="m 325.63,328.047 1.82,0.079 0.039,2.667 0.004,0.281 0.019,1.287 0.005,0.373 0.002,0.17 0.018,1.231 0.069,0.151 2.688,5.937 0.688,1.517 1.412,3.119 0.056,0.003 0.865,0.043 0.375,0.018 0.854,-0.215 v -9.904 -8.904 l -0.648,-0.028" />
      <path
         style="fill:none;stroke:#000000;stroke-width:3;stroke-linecap:butt;stroke-opacity:1"
         id="path33"
         stroke-linejoin="mitter"
         d="m 334.544,325.9 -1.436,0.316 -4.353,0.956 0.002,0.186 0.038,3.079 0.024,1.921 0.023,1.837" />
      <path
         style="fill:none;stroke:#000000;stroke-width:3;stroke-linecap:butt;stroke-opacity:1"
         id="path35"
         stroke-linejoin="mitter"
         d="m 333.69,344.923 -2.966,-6.563 -1.882,-4.165 -0.177,-0.008 -1.128,-0.052" />
      <path
         style="fill:none;stroke:#000000;stroke-width:3;stroke-linecap:butt;stroke-opacity:1"
         id="path37"
         stroke-linejoin="mitter"
         d="m 143.701,346.2 -0.035,-0.008 -1.781,-2.112 -1.195,-3.452 -0.42,-4.262 0.096,-1.006 0.257,-2.7" />
      <path
         style="fill:none;stroke:#000000;stroke-width:3;stroke-linecap:butt;stroke-opacity:1"
         id="path39"
         stroke-linejoin="mitter"
         d="m 139.584,332.61 -0.131,1.377 -0.242,2.534 0.491,4.971 1.395,4.023 2.078,2.458 2.337,0.521 0.457,-0.265" />
      <path
         style="fill:none;stroke:#000000;stroke-width:3;stroke-linecap:butt;stroke-opacity:1"
         id="path41"
         stroke-linejoin="mitter"
         d="m 137.533,332.511 -0.374,3.907 0.492,4.968 1.397,4.02 2.082,2.456 2.342,0.522 2.04,0.11" />
      <path
         style="fill:none;stroke:#000000;stroke-width:3;stroke-linecap:butt;stroke-opacity:1"
         id="path43"
         stroke-linejoin="mitter"
         d="m 141.709,332.713 -0.234,2.461 -0.022,0.229 -0.116,1.224 0.49,4.975 1.392,4.026 0.482,0.572 1.163,1.379 0.428,0.508 0.677,0.142 1.855,0.39 2.046,0.111 2.312,-1.475 2.032,-3.227 1.346,-4.535 0.474,-5.073 -0.098,-1.017" />
      <path
         style="fill:none;stroke:#000000;stroke-width:3;stroke-linecap:butt;stroke-opacity:1"
         id="path45"
         stroke-linejoin="mitter"
         d="m 143.767,332.813 -0.372,3.917 0.489,4.978 1.39,4.029 0.517,0.616 0.122,0.144 0.141,0.168 0.856,1.018 0.433,0.515 2.527,0.532" />
      <path
         style="fill:none;stroke:#000000;stroke-width:3;stroke-linecap:butt;stroke-opacity:1"
         id="path47"
         stroke-linejoin="mitter"
         d="m 149.515,333.091 0.321,0.543 1.212,2.05 0.125,0.211 0.579,0.029 0.561,0.027 0.53,-0.095 0.524,-0.094 v -2.484" />
      <path
         style="fill:none;stroke:#000000;stroke-width:3;stroke-linecap:butt;stroke-opacity:1"
         id="path49"
         stroke-linejoin="mitter"
         d="m 152.313,335.951 -0.486,-0.823 -0.701,-1.186 -0.469,-0.795" />
      <path
         style="fill:none;stroke:#000000;stroke-width:3;stroke-linecap:butt;stroke-opacity:1"
         id="path51"
         stroke-linejoin="mitter"
         d="m 70.916,325.701 6.479,0.416 9.988,0.472 9.989,0.471 9.989,0.471 9.989,0.471 9.989,0.471 9.064,0.428 1.955,0.092 4.112,0.194 0.061,0.003 0.856,0.04 3.955,0.187 3.191,0.151 0.922,0.043 1.912,0.09 2.223,0.105 9.988,0.471 2.762,0.131 9.989,0.471 9.988,0.471 9.989,0.471 9.989,0.471 9.989,0.472 9.989,0.471 9.989,0.471 9.989,0.471 9.989,0.471 7.45,0.352 8.571,0.285" />
      <path
         style="fill:none;stroke:#000000;stroke-width:3;stroke-linecap:butt;stroke-opacity:1"
         id="path53"
         stroke-linejoin="mitter"
         d="m 348.489,144.87 -8.419,-0.83 -9.952,-0.982 -9.952,-0.981 -9.951,-0.981 -9.952,-0.982 -4.452,-0.439 -5.19,-0.512 -4.045,-0.134 -7.378,-0.006 -8.692,0.125 -9.998,0.213 -9.997,0.212 -9.998,0.212 -9.998,0.212 -9.998,0.212 -9.997,0.213 -9.998,0.212 -9.998,0.212 -9.997,0.212 -9.998,0.213 -5.796,0.123 -9.997,0.212 -9.998,0.212 -9.998,0.212 -2.239,0.048 -9.998,0.212 -6.708,0.142 -9.997,0.213 -0.22,0.004 -9.998,0.213 -9.997,0.212 -9.998,0.212 -9.097,0.193 -0.926,0.028 -5.476,0.163 -3.409,0.221" />
      <path
         style="fill:none;stroke:#000000;stroke-width:3;stroke-linecap:butt;stroke-opacity:1"
         id="path55"
         stroke-linejoin="mitter"
         d="m 42.529,143.637 3.888,-0.117 9.998,-0.213 9.147,-0.196 9.998,-0.214 9.997,-0.213 9.998,-0.214 10.071,-0.215 9.463,-0.202 9.998,-0.214 3.28,-0.07 9.997,-0.214 9.998,-0.214 9.998,-0.213 2.364,-0.051 9.998,-0.213 9.998,-0.214 9.997,-0.214 9.998,-0.213 9.998,-0.214 9.997,-0.214 9.998,-0.214 9.998,-0.213 9.998,-0.214 9.997,-0.214 9.998,-0.213 9.998,-0.214 4.67,-0.1 5.412,-0.078" />
      <path
         style="fill:none;stroke:#000000;stroke-width:3;stroke-linecap:butt;stroke-opacity:1"
         id="path57"
         stroke-linejoin="mitter"
         d="m 349.159,136.872 -9.936,-1.123 -9.937,-1.124 -9.937,-1.123 -9.936,-1.124 -9.937,-1.123 -1.622,-0.183 -2.499,-0.095 -4.576,-0.004 -5.412,0.088 -9.997,0.239 -9.997,0.24 -9.997,0.239 -9.997,0.239 -9.997,0.239 -9.997,0.239 -9.998,0.239 -9.997,0.24 -9.997,0.239 -9.997,0.239 -9.997,0.239 -9.997,0.239 -4.678,0.112 -9.997,0.239 -9.997,0.24 -9.997,0.239 -1.422,0.034 -9.997,0.239 -9.997,0.239 -6.534,0.156 -2.098,0.051 -9.997,0.239 -9.997,0.239 -9.997,0.239 -9.997,0.239 -9.998,0.239 -4.282,0.103 -3.888,0.131 -2.054,0.152 v 6.644" />
      <path
         style="fill:none;stroke:#000000;stroke-width:3;stroke-linecap:butt;stroke-opacity:1"
         id="path59"
         stroke-linejoin="mitter"
         d="m 40.475,143.773 2.054,-0.136 -2.054,0.068 -0.291,0.01 0.61,0.177 9.979,0.646 5.964,0.386" />
      <path
         style="fill:none;stroke:#000000;stroke-width:3;stroke-linecap:butt;stroke-opacity:1"
         id="path61"
         stroke-linejoin="mitter"
         d="m 56.677,143.891 0.06,1.033 0.587,9.983 0.586,9.983 0.586,9.983 0.587,9.982 0.586,9.983 0.586,9.983 0.586,9.983 0.587,9.983 0.586,9.982 0.586,9.983 0.587,9.983 0.586,9.983 0.586,9.983 0.586,9.982 0.587,9.983 0.586,9.983 0.586,9.983 0.623,10.597 4.748,3.003 1.005,0.636" />
      <path
         style="fill:none;stroke:#000000;stroke-width:3;stroke-linecap:butt;stroke-opacity:1"
         id="path63"
         stroke-linejoin="mitter"
         d="m 40.475,143.773 0.319,0.119" />
      <path
         style="fill:none;stroke:#000000;stroke-width:3;stroke-linecap:butt;stroke-opacity:1"
         id="path65"
         stroke-linejoin="mitter"
         d="m 333.202,326.18 0.694,-0.308 6.073,-2.695 0.55,-9.985 0.551,-9.985 0.55,-9.984 0.55,-9.985 0.55,-9.985 0.55,-9.985 0.551,-9.985 0.55,-9.985 0.55,-9.985 0.55,-9.984 0.55,-9.985 0.551,-9.985 0.473,-8.601" />
      <path
         style="fill:none;stroke:#000000;stroke-width:3;stroke-linecap:butt;stroke-opacity:1"
         id="path67"
         stroke-linejoin="mitter"
         d="m 339.969,323.177 -9.772,2.121 -1.597,0.347 -6.434,1.396 -3.272,0.71 -3.885,0.844 -9.772,2.121 -9.772,2.121 -9.773,2.121 -0.358,0.078 -3.868,0.262" />
      <path
         style="fill:none;stroke:#000000;stroke-width:3;stroke-linecap:butt;stroke-opacity:1"
         id="path69"
         stroke-linejoin="mitter"
         d="m 81.991,329.818 1.242,0.06 5.937,0.288 1.206,0.059 9.988,0.484 9.988,0.484 9.989,0.484 9.988,0.484 7.204,0.35 1.065,0.051 0.986,0.048 0.147,0.007 0.892,0.043 0.717,0.035 0.369,0.018 0.746,0.036 0.015,10e-4 1.297,0.063 5.748,0.278 0.268,0.013 0.874,0.043 0.392,0.019 0.762,0.037 0.417,0.02 0.627,0.03 0.512,0.025 0.535,0.026 2.034,0.099 9.988,0.484 5.272,0.255 9.989,0.485 9.988,0.484 9.988,0.484 9.988,0.484 9.989,0.484 9.988,0.484 9.988,0.485 9.989,0.484 10.534,0.51" />
      <path
         style="fill:none;stroke:#000000;stroke-width:3;stroke-linecap:butt;stroke-opacity:1"
         id="path71"
         stroke-linejoin="mitter"
         d="m 297.854,138.423 9.928,1.002 9.949,1.005 9.95,1.005 9.949,1.005 2.44,0.247 8.529,0.861" />
      <path
         style="fill:none;stroke:#000000;stroke-width:3;stroke-linecap:butt;stroke-opacity:1"
         id="path73"
         stroke-linejoin="mitter"
         d="m 294.215,138.291 -3.436,0.044 4.576,0.003 2.499,0.085 -3.639,-0.132" />
      <path
         style="fill:none;stroke:#000000;stroke-width:3;stroke-linecap:butt;stroke-opacity:1"
         id="path75"
         stroke-linejoin="mitter"
         d="m 349.497,132.842 -7.88,-6.156 -7.881,-6.156 -7.881,-6.156 -7.88,-6.155 -6.127,-4.786 0.889,-9.873 -9.993,0.365 -9.994,0.366 -9.993,0.365 -9.993,0.365 -9.994,0.365 -9.993,0.366 -9.993,0.365 -9.994,0.365 -9.993,0.366 -9.993,0.365 -9.994,0.365 -9.993,0.366 -9.993,0.365 -2.143,0.078 -9.993,0.366 -9.994,0.365 -9.993,0.365 -9.993,0.365 -9.994,0.366 -9.993,0.365 -9.993,0.365 -2.191,0.08 -9.993,0.366 -9.993,0.365 -9.994,0.365 -9.993,0.366 -8.469,0.309 -1.157,9.027 8.805,4.741 8.805,4.74 8.805,4.741 8.805,4.741 8.625,4.644" />
      <path
         style="fill:none;stroke:#000000;stroke-width:3;stroke-linecap:butt;stroke-opacity:1"
         id="path77"
         stroke-linejoin="mitter"
         d="m 45.32,95.957 2.196,-0.087 9.992,-0.393 9.993,-0.393 9.992,-0.393 9.992,-0.393 9.992,-0.394 9.993,-0.393 9.992,-0.393 9.992,-0.393 9.992,-0.393 9.993,-0.393 9.992,-0.394 9.992,-0.393 1.972,-0.077 9.992,-0.394 9.993,-0.393 9.992,-0.393 9.992,-0.393 9.992,-0.393 9.993,-0.393 9.992,-0.394 9.992,-0.393 9.992,-0.393 9.993,-0.393 9.992,-0.393 9.992,-0.393 9.992,-0.394 3.761,-0.148 2.646,-0.104" />
      <path
         style="fill:none;stroke:#000000;stroke-width:3;stroke-linecap:butt;stroke-opacity:1"
         id="path79"
         stroke-linejoin="mitter"
         d="m 372.08,150.471 2.399,-0.04 -1.834,-9.83 -0.175,-0.938 -2.702,-9.628 -2.703,-9.628 -0.105,-0.374 -3.728,-9.279 -3.173,-7.899 -4.998,-8.661 -3.119,-5.406 -6.613,-7.501 -2.494,-2.83 -8.519,-5.239 -1.298,-0.798 -9.921,-1.252 -0.264,-0.033 -2.587,0.114 -9.99,0.441 -9.99,0.441 -9.99,0.44 -9.991,0.441 -9.99,0.441 -9.99,0.44 -9.991,0.441 -9.99,0.441 -9.99,0.44 -9.99,0.441 -9.991,0.441 -9.99,0.44 -10.917,0.482 -9.99,0.441 -9.99,0.44 -9.99,0.441 -9.991,0.441 -9.99,0.44 -9.99,0.441 -9.991,0.441 -9.99,0.44 -9.99,0.441 -9.99,0.441 -9.991,0.44 -9.677,0.427 -2.158,0.095 -9.65,2.623 -3.653,0.993 -8.366,5.477 -0.159,0.104 -0.57,4.372 8.765,4.812 3.835,2.106 -1.159,9.019 8.811,4.731 8.81,4.731 8.81,4.73 8.81,4.731 8.683,4.663" />
      <path
         style="fill:none;stroke:#000000;stroke-width:3;stroke-linecap:butt;stroke-opacity:1"
         id="path81"
         stroke-linejoin="mitter"
         d="m 129.311,134.795 -3.366,-8.266 -5.041,-8.637 -4.116,-7.051 -6.434,-7.655 -1.817,-2.162" />
      <path
         style="fill:none;stroke:#000000;stroke-width:3;stroke-linecap:butt;stroke-opacity:1"
         id="path83"
         stroke-linejoin="mitter"
         d="m 45.89,91.585 2.196,-0.09 9.991,-0.41 9.992,-0.409 9.991,-0.41 9.992,-0.41 9.992,-0.409 9.991,-0.41 9.992,-0.409 9.992,-0.41 9.991,-0.41 9.992,-0.409 9.991,-0.41 9.992,-0.41 1.921,-0.078 9.992,-0.41 9.992,-0.409 9.991,-0.41 9.992,-0.41 9.991,-0.409 9.992,-0.41 9.992,-0.409 9.991,-0.41 9.992,-0.41 9.992,-0.409 9.991,-0.41 9.992,-0.409 9.991,-0.41 3.697,-0.152 2.645,-0.108" />
      <path
         style="fill:none;stroke:#000000;stroke-width:3;stroke-linecap:butt;stroke-opacity:1"
         id="path85"
         stroke-linejoin="mitter"
         d="m 58.938,111.822 -2.177,0.072" />
      <path
         style="fill:none;stroke:#000000;stroke-width:3;stroke-linecap:butt;stroke-opacity:1"
         id="path87"
         stroke-linejoin="mitter"
         d="m 57.92,102.875 2.175,-0.08" />
      <path
         style="fill:none;stroke:#000000;stroke-width:3;stroke-linecap:butt;stroke-opacity:1"
         id="path89"
         stroke-linejoin="mitter"
         d="m 335.822,204.367 4.248,-3.611 6.709,-5.702 0.266,-0.296 6.691,-7.432 6.691,-7.433 5.162,-5.734 0.993,-2.07 1.073,-9.943 0.281,-2.598 0.114,-1.423 0.613,-7.597 0.206,-2.564 0.147,-1.819 5.463,4.286" />
      <path
         style="fill:none;stroke:#000000;stroke-width:3;stroke-linecap:butt;stroke-opacity:1"
         id="path91"
         stroke-linejoin="mitter"
         d="m 368.663,150.528 3.417,-0.057 -3.211,-2.507" />
      <path
         style="fill:none;stroke:#000000;stroke-width:3;stroke-linecap:butt;stroke-opacity:1"
         id="path93"
         stroke-linejoin="mitter"
         d="m 315.349,93.464 -7.795,-6.264 -1.853,-1.489 0.438,-4.795 6.53,-6.009 9.375,-3.479 0.789,-0.293" />
      <path
         style="fill:none;stroke:#000000;stroke-width:3;stroke-linecap:butt;stroke-opacity:1"
         id="path95"
         stroke-linejoin="mitter"
         d="m 351.979,132.786 -7.867,-6.174 -7.867,-6.173 -7.867,-6.174 -7.866,-6.173 -6.049,-4.746" />
      <path
         style="fill:none;stroke:#000000;stroke-width:3;stroke-linecap:butt;stroke-opacity:1"
         id="path97"
         stroke-linejoin="mitter"
         d="m 311.848,103.433 2.615,-0.087 0.886,-9.882 -2.612,0.096" />
      <path
         style="fill:none;stroke:#000000;stroke-width:3;stroke-linecap:butt;stroke-opacity:1"
         id="path99"
         stroke-linejoin="mitter"
         d="m 332.191,173.292 7.741,-6.329 0.138,-0.113 7.742,-6.329 0.826,-0.676 0.368,-0.662 0.533,-0.961 0.524,-2.486 0.41,-4.905 0.432,-5.181 0.71,-8.5 0.208,-2.493 0.156,-1.871 -2.482,0.056 -0.338,4.03 -0.195,2.33 -0.365,4.346 -0.11,1.322 -0.03,0.351 -0.04,0.475 -0.434,5.176 -0.411,4.901 -0.526,2.485 -0.904,1.621 -6.074,4.945 -7.756,6.313 -2.676,2.179" />
      <path
         style="fill:none;stroke:#000000;stroke-width:3;stroke-linecap:butt;stroke-opacity:1"
         id="path101"
         stroke-linejoin="mitter"
         d="m 329.584,175.423 -2.155,0.018 -0.23,0.002 -0.177,0.002 0.109,-0.088 0.141,-0.116 0.711,-0.578" />
      <path
         style="fill:none;stroke:#000000;stroke-width:3;stroke-linecap:butt;stroke-opacity:1"
         id="path103"
         stroke-linejoin="mitter"
         d="m 319.744,192.114 -0.001,0.181 0.852,6.101 1.371,3.94 0.279,0.804 2.186,2.662 1.302,0.107 1.08,0.089 7.426,0.015 1.583,-1.646 0.608,-0.633 1.173,-3.027 0.525,-1.357 0.958,-5.822 0.079,-6.39 -0.812,-6.016 -1.584,-4.745 -2.127,-2.757 -2.354,-0.328 h -0.097 l -2.553,0.024 -4.796,0.043 -0.178,0.172 -2.068,2 -0.633,1.545 -1.132,2.765 -1.005,5.893 -0.005,0.278" />
      <path
         style="fill:none;stroke:#000000;stroke-width:3;stroke-linecap:butt;stroke-opacity:1"
         id="path105"
         stroke-linejoin="mitter"
         d="m 334.239,206.013 -0.322,-0.027 -2.035,-0.169 -0.662,-0.817 -1.502,-1.852 -1.633,-4.756 -0.843,-6.116 0.082,-6.578 0.626,-3.72 0.368,-2.189 1.747,-4.32 2.223,-2.177" />
      <path
         style="fill:none;stroke:#000000;stroke-width:3;stroke-linecap:butt;stroke-opacity:1"
         id="path107"
         stroke-linejoin="mitter"
         d="m 319.826,185.734 -0.003,0.266 -0.078,6.127 -0.002,0.168" />
      <path
         style="fill:none;stroke:#000000;stroke-width:3;stroke-linecap:butt;stroke-opacity:1"
         id="path109"
         stroke-linejoin="mitter"
         d="m 319.821,186.012 -0.077,6.102" />
      <path
         style="fill:none;stroke:#000000;stroke-width:3;stroke-linecap:butt;stroke-opacity:1"
         id="path111"
         stroke-linejoin="mitter"
         d="m 324.664,173.531 -0.956,-0.131 -6.502,0.059 -2.265,2.163" />
      <path
         style="fill:none;stroke:#000000;stroke-width:3;stroke-linecap:butt;stroke-opacity:1"
         id="path113"
         stroke-linejoin="mitter"
         d="m 312.064,192.311 0.86,6.073 1.664,4.722 2.205,2.651 2.402,0.195 6.484,0.013 0.054,-0.056" />
      <path
         style="fill:none;stroke:#000000;stroke-width:3;stroke-linecap:butt;stroke-opacity:1"
         id="path115"
         stroke-linejoin="mitter"
         d="m 333.276,198.201 -0.844,-0.034 -0.765,-0.863 -0.724,-1.989 -0.457,-3.251 0.082,-4.005 0.654,-3.549 1.001,-2.345 1.032,-1.003 0.842,0.06" />
      <path
         style="fill:none;stroke:#000000;stroke-width:3;stroke-linecap:butt;stroke-opacity:1"
         id="path117"
         stroke-linejoin="mitter"
         d="m 333.276,198.201 0.741,-0.49 0.952,-0.954 0.943,-2.27 0.613,-3.365 0.074,-3.669 -0.422,-3.043 -0.673,-1.878 -0.714,-0.83 -0.693,-0.48" />
      <path
         style="fill:none;stroke:#000000;stroke-width:3;stroke-linecap:butt;stroke-opacity:1"
         id="path119"
         stroke-linejoin="mitter"
         d="m 334.017,197.711 -0.241,-0.011 -0.554,-0.023 -0.72,-0.813 -0.681,-1.876 -0.43,-3.064 0.077,-3.775 0.615,-3.345 0.943,-2.211 0.971,-0.946 0.496,0.035 0.297,0.02" />
      <path
         style="fill:none;stroke:#000000;stroke-width:3;stroke-linecap:butt;stroke-opacity:1"
         id="path121"
         stroke-linejoin="mitter"
         d="m 325.679,205.965 -2.381,-0.195 -2.186,-2.657 -1.649,-4.733 -0.852,-6.086 0.083,-6.547 1.004,-5.88 1.765,-4.3 2.245,-2.167" />
      <path
         style="fill:none;stroke:#000000;stroke-width:3;stroke-linecap:butt;stroke-opacity:1"
         id="path123"
         stroke-linejoin="mitter"
         d="m 314.941,175.622 -1.78,4.29 -1.013,5.867 -0.084,6.532" />
      <path
         style="fill:none;stroke:#000000;stroke-width:3;stroke-linecap:butt;stroke-opacity:1"
         id="path125"
         stroke-linejoin="mitter"
         d="m 275.014,342.23 -1.024,-0.277 -2.353,1.691 -1.632,3.067 -0.377,0.71 -1.35,5.297 -0.349,4.416 -0.126,1.582 0.475,5.762 1.35,4.627 2.009,2.78 2.233,0.516 0.462,-0.336" />
      <path
         style="fill:none;stroke:#000000;stroke-width:3;stroke-linecap:butt;stroke-opacity:1"
         id="path127"
         stroke-linejoin="mitter"
         d="m 272.698,369.936 -0.551,-0.13 -1.721,-2.39 -1.155,-3.97 -0.407,-4.94 0.104,-1.315 0.303,-3.827 0.734,-2.889 0.421,-1.654 1.721,-3.245 1.797,-1.297" />
      <path
         style="fill:none;stroke:#000000;stroke-width:3;stroke-linecap:butt;stroke-opacity:1"
         id="path129"
         stroke-linejoin="mitter"
         d="m 273.99,341.953 -2.479,-0.123 -1.506,1.078 -0.854,0.611 -0.518,0.97 -1.497,2.804 -1.068,4.173 -0.286,1.119 -0.066,0.827 -0.41,5.165 0.476,5.757 1.354,4.624 2.015,2.778 2.24,0.516 2.479,0.149" />
      <path
         style="fill:none;stroke:#000000;stroke-width:3;stroke-linecap:butt;stroke-opacity:1"
         id="path131"
         stroke-linejoin="mitter"
         d="m 275.03,343.183 -0.448,0.323 -0.37,0.267 -0.268,0.506 -1.734,3.275 -1.345,5.302 -0.474,6.003 0.474,5.767 1.345,4.631 0.488,0.679 0.649,0.902 0.865,1.202 0.12,0.025 2.347,0.505 2.488,0.149 2.2,-1.802 1.955,-3.818 1.292,-5.307 0.455,-5.9 -0.448,-5.617 -1.299,-4.602 -0.072,-0.105" />
      <path
         style="fill:none;stroke:#000000;stroke-width:3;stroke-linecap:butt;stroke-opacity:1"
         id="path133"
         stroke-linejoin="mitter"
         d="m 275.262,346.637 -0.551,1.046 -1.341,5.306 -0.473,6.009 0.473,5.772 1.341,4.635 0.176,0.246 0.339,0.472 0.151,0.21 0.459,0.641 0.871,1.215 2.46,0.53" />
      <path
         style="fill:none;stroke:#000000;stroke-width:3;stroke-linecap:butt;stroke-opacity:1"
         id="path135"
         stroke-linejoin="mitter"
         d="m 276.372,338.683 -6.367,-0.307 -1.023,-0.05 -1.813,-0.087 -5.539,-0.268 0.007,0.555 0.098,7.062 3.981,7.824" />
      <path
         style="fill:none;stroke:#000000;stroke-width:3;stroke-linecap:butt;stroke-opacity:1"
         id="path137"
         stroke-linejoin="mitter"
         d="m 263.014,339.136 5.619,0.273 0.349,0.017 1.023,0.05 4.97,0.242 0.039,2.512 0.016,0.953 0.015,0.98 v 0.008 l 0.003,0.183 0.013,0.834 0.017,1.08 0.184,0.369 1.929,3.867 2.104,4.22 0.727,1.459 0.827,1.66 0.578,0.031 0.81,0.045 0.2,-0.051 0.813,-0.205 v -10 -2.095 -8.195 -0.201" />
      <path
         style="fill:none;stroke:#000000;stroke-width:3;stroke-linecap:butt;stroke-opacity:1"
         id="path139"
         stroke-linejoin="mitter"
         d="m 263.119,345.659 -0.105,-6.523" />
      <path
         style="fill:none;stroke:#000000;stroke-width:3;stroke-linecap:butt;stroke-opacity:1"
         id="path141"
         stroke-linejoin="mitter"
         d="m 261.735,345.588 1.384,0.071 2.949,5.807" />
      <path
         style="fill:none;stroke:#000000;stroke-width:3;stroke-linecap:butt;stroke-opacity:1"
         id="path143"
         stroke-linejoin="mitter"
         d="m 283.25,337.172 -6.878,1.511 0.003,0.203 0.044,3.294 0.008,0.549 0.031,2.337 0.017,1.273" />
      <path
         style="fill:none;stroke:#000000;stroke-width:3;stroke-linecap:butt;stroke-opacity:1"
         id="path145"
         stroke-linejoin="mitter"
         d="m 282.237,357.919 -2.377,-4.776 -0.837,-1.684 -2.548,-5.12 -1.397,-0.071" />
      <path
         style="fill:none;stroke:#000000;stroke-width:3;stroke-linecap:butt;stroke-opacity:1"
         id="path147"
         stroke-linejoin="mitter"
         d="m 80.827,333.143 -1.599,0.863 -0.385,0.553 -2.055,2.942 -1.639,4.92 -0.206,1.988 -0.371,3.598 0.577,5.381 1.639,4.337 2.44,2.628 2.756,0.521 0.402,-0.221" />
      <path
         style="fill:none;stroke:#000000;stroke-width:3;stroke-linecap:butt;stroke-opacity:1"
         id="path149"
         stroke-linejoin="mitter"
         d="m 78.872,357.429 -1.176,-1.269 -1.403,-3.722 -0.494,-4.613 0.188,-1.824 0.306,-2.965 1.403,-4.221 1.147,-1.645 0.945,-1.356 0.806,-0.437" />
      <path
         style="fill:none;stroke:#000000;stroke-width:3;stroke-linecap:butt;stroke-opacity:1"
         id="path151"
         stroke-linejoin="mitter"
         d="m 80.811,332.399 -0.881,-0.044 -1.087,0.586 -1.196,0.643 -0.582,0.314 -2.446,3.492 -1.052,3.15 -0.391,1.172 -0.198,0.593 -0.578,5.582 0.578,5.376 1.641,4.334 2.446,2.626 2.76,0.522 2.159,0.129" />
      <path
         style="fill:none;stroke:#000000;stroke-width:3;stroke-linecap:butt;stroke-opacity:1"
         id="path153"
         stroke-linejoin="mitter"
         d="m 80.865,334.987 -0.271,0.39 -1.56,2.24 -0.191,0.574 -1.196,3.6 -0.249,0.75 -0.343,3.328 -0.067,0.652 -0.014,0.136 -0.152,1.475 0.576,5.385 1.474,3.912 0.162,0.429 2.039,2.201 0.397,0.428 0.916,0.166 2.044,0.368 2.166,0.13 2.725,-1.641 2.384,-3.531 1.579,-4.933 0.556,-5.501 -0.549,-5.251 -1.586,-4.315 -1.329,-1.493" />
      <path
         style="fill:none;stroke:#000000;stroke-width:3;stroke-linecap:butt;stroke-opacity:1"
         id="path155"
         stroke-linejoin="mitter"
         d="m 81.499,337.311 -0.29,0.418 -1.633,4.928 -0.575,5.596 0.575,5.389 1.627,4.33 0.006,0.014 2.029,2.196 0.403,0.435 2.955,0.534" />
      <path
         style="fill:none;stroke:#000000;stroke-width:3;stroke-linecap:butt;stroke-opacity:1"
         id="path157"
         stroke-linejoin="mitter"
         d="m 82.108,336.437 -0.013,-0.728 -0.034,-1.911 -0.023,-1.339 -0.047,-2.641 -0.009,-0.52 -3.139,-0.152 -3.286,-0.158 -0.154,-0.008 -2.323,-0.112 -3.917,-0.189" />
      <path
         style="fill:none;stroke:#000000;stroke-width:3;stroke-linecap:butt;stroke-opacity:1"
         id="path159"
         stroke-linejoin="mitter"
         d="m 72.075,328.232 -2.912,0.447 0.128,7.105 3.885,5.928" />
      <path
         style="fill:none;stroke:#000000;stroke-width:3;stroke-linecap:butt;stroke-opacity:1"
         id="path161"
         stroke-linejoin="mitter"
         d="m 70.367,329.761 5.19,0.252 2.09,0.102 1.196,0.058 1.924,0.094 0.044,2.132 0.003,0.149 0.013,0.595 0.038,1.844 0.005,0.24 0.024,1.148 0.243,0.377 0.362,0.559 5.43,8.398 0.304,0.469 0.698,1.08 0.48,0.027 0.727,0.04 0.138,-0.025 1.071,-0.193 0.029,-0.005 v -0.279 -2.394 -6.315 -3.628 -4.261" />
      <path
         style="fill:none;stroke:#000000;stroke-width:3;stroke-linecap:butt;stroke-opacity:1"
         id="path163"
         stroke-linejoin="mitter"
         d="m 70.495,335.846 -0.128,-6.085" />
      <path
         style="fill:none;stroke:#000000;stroke-width:3;stroke-linecap:butt;stroke-opacity:1"
         id="path165"
         stroke-linejoin="mitter"
         d="m 69.291,335.784 1.204,0.062 3.072,4.694" />
      <path
         style="fill:none;stroke:#000000;stroke-width:3;stroke-linecap:butt;stroke-opacity:1"
         id="path167"
         stroke-linejoin="mitter"
         d="m 89.138,347.325 -0.631,-0.978 -5.425,-8.401 -0.974,-1.509 -0.726,-0.037 -0.488,-0.025" />
      <path
         style="fill:none;stroke:#000000;stroke-width:3;stroke-linecap:butt;stroke-opacity:1"
         id="path169"
         stroke-linejoin="mitter"
         d="m 78.843,332.941 v -2.768" />
      <path
         style="fill:none;stroke:#000000;stroke-width:3;stroke-linecap:butt;stroke-opacity:1"
         id="path171"
         stroke-linejoin="mitter"
         d="m 270.005,342.908 v -3.432" />
      <path
         style="fill:none;stroke:#000000;stroke-width:3;stroke-linecap:butt;stroke-opacity:1"
         id="path173"
         stroke-linejoin="mitter"
         d="m 322.166,331.321 v -2.512" />
      <path
         style="fill:none;stroke:#000000;stroke-width:3;stroke-linecap:butt;stroke-opacity:1"
         id="path175"
         stroke-linejoin="mitter"
         d="m 326.193,332.301 -0.078,-0.004" />
      <path
         style="fill:none;stroke:#000000;stroke-width:3;stroke-linecap:butt;stroke-opacity:1"
         id="path177"
         stroke-linejoin="mitter"
         d="m 283.25,337.373 9.766,-2.149 9.767,-2.15 9.766,-2.149 2.483,-0.546 1.282,-0.282 4.569,-1.006 1.283,-0.282 3.464,-0.762" />
    </g>
  </g>
</svg>
