<?xml version="1.0" encoding="UTF-8" standalone="no"?>
<svg
   xmlns:dc="http://purl.org/dc/elements/1.1/"
   xmlns:cc="http://creativecommons.org/ns#"
   xmlns:rdf="http://www.w3.org/1999/02/22-rdf-syntax-ns#"
   xmlns:svg="http://www.w3.org/2000/svg"
   xmlns="http://www.w3.org/2000/svg"
   id="svg209"
   width="400"
   version="1.1"
   height="400">
  <metadata
     id="metadata215">
    <rdf:RDF>
      <cc:Work
         rdf:about="">
        <dc:format>image/svg+xml</dc:format>
        <dc:type
           rdf:resource="http://purl.org/dc/dcmitype/StillImage" />
        <dc:title></dc:title>
      </cc:Work>
    </rdf:RDF>
  </metadata>
  <defs
     id="defs213" />
  <g
     id="RenderLayer_LineSet">
    <g
       id="fills">
      <path
         style="fill:#37abc8;fill-opacity:1;stroke:none"
         id="path12"
         fill_rule="evenodd"
         d="m 100.376,338.225 47.157,2.286 -0.374,3.907 0.492,4.968 1.397,4.02 2.082,2.456 2.342,0.522 2.04,0.11 0.457,-0.265 1.855,0.39 2.046,0.111 2.312,-1.475 2.032,-3.227 1.346,-4.535 0.474,-5.073 -0.098,-1.017 15.26,0.739 90.441,4.384 0.098,7.062 3.981,7.824 -0.41,5.165 0.476,5.757 1.354,4.624 2.015,2.778 2.24,0.516 2.479,0.149 0.462,-0.336 2.347,0.505 2.488,0.149 2.2,-1.802 1.955,-3.818 1.292,-5.307 0.455,-5.9 -0.448,-5.617 -1.299,-4.602 -0.072,-0.105 v -8.195 l 31.782,-6.994 0.041,3.184 3.631,7.852 -0.296,4.049 0.401,5.291 1.139,4.268 1.697,2.59 1.876,0.522 2.317,0.126 0.529,-0.404 0.008,0.012 2.089,0.534 2.324,0.126 1.844,-1.606 1.648,-3.466 1.089,-4.849 0.384,-5.41 -0.377,-5.168 -0.832,-3.226 V 333.9 l -0.648,-0.028 6.073,-2.695 7.076,-128.419 18.544,-20.599 0.993,-2.07 1.354,-12.541 0.114,-1.423 0.613,-7.597 3.417,-0.057 2.399,-0.04 -2.009,-10.768 -5.51,-19.63 -6.901,-17.178 -8.117,-14.067 -9.107,-10.331 -9.817,-6.037 -10.185,-1.285 -2.587,0.114 -130.8,5.77 -119.57,5.274 -2.158,0.095 -13.303,3.616 -8.525,5.581 -0.57,4.372 12.6,6.918 -1.159,9.019 43.924,23.586 -54.268,1.298 -3.888,0.131 -2.054,0.152 v 6.644 l -0.291,0.01 0.61,0.177 15.943,1.032 10.59,180.305 4.748,3.003 z m 233.258,-0.019 -1.468,1.115 v -2.512 l 3.464,-0.762 1.82,0.079 0.039,2.667 -1.538,-0.483 z m -52.123,11.624 -1.506,1.078 v -3.432 l 4.97,0.242 0.039,2.512 -1.024,-0.277 z m -198.335,-0.118 -0.198,0.593 -0.578,5.582 0.578,5.376 1.641,4.334 2.446,2.626 2.76,0.522 2.159,0.129 0.402,-0.221 2.044,0.368 2.166,0.13 2.725,-1.641 2.384,-3.531 1.579,-4.933 0.556,-5.501 -0.549,-5.251 -1.586,-4.315 -1.329,-1.493 z m -1.101,-13.48 -2.912,0.447 0.128,7.105 3.885,5.928 z m 6.768,4.709 v -2.768 l 1.924,0.094 0.044,2.132 z" />
      <path
         style="fill:#37abc8"
         id="path2"
         stroke="none"
         fill_rule="evenodd"
         fill-opacity="1.0"
         fill="rgb(204, 204, 204)"
         d=" M 90.376, 334.486 90.376, 330.225  z" />
      <path
         style="fill:#37abc8"
         id="path4"
         stroke="none"
         fill_rule="evenodd"
         fill-opacity="1.0"
         fill="rgb(204, 204, 204)"
         d=" M 80.811, 332.399 79.930, 332.355 78.843, 332.941  z" />
      <path
         style="fill:#37abc8"
         id="path6"
         stroke="none"
         fill_rule="evenodd"
         fill-opacity="1.0"
         fill="rgb(204, 204, 204)"
         d=" M 314.941, 175.622 313.161, 179.912 312.148, 185.779 312.064, 192.311  z" />
      <path
         style="fill:#37abc8"
         id="path8"
         stroke="none"
         fill_rule="evenodd"
         fill-opacity="1.0"
         fill="rgb(204, 204, 204)"
         d=" M 372.080, 150.471 368.869, 147.964  z" />
      <path
         style="fill:#37abc8"
         id="path10"
         stroke="none"
         fill_rule="evenodd"
         fill-opacity="1.0"
         fill="rgb(204, 204, 204)"
         d=" M 349.497, 132.842 311.848, 103.433 312.737, 93.560 180.681, 98.387 108.537, 101.024 60.095, 102.795 58.938, 111.822 102.783, 135.429  z" />
      <path
         style="fill:#37abc8"
         id="path14"
         stroke="none"
         fill_rule="evenodd"
         fill-opacity="1.0"
         fill="rgb(204, 204, 204)"
         d=" M 90.396, 178.077 90.396, 178.133 90.396, 200.669 90.396, 201.922 90.396, 203.067 90.396, 203.911 90.396, 204.253 90.396, 204.577 90.396, 205.476 90.397, 225.671 95.761, 225.722 95.761, 208.796 96.266, 209.032 96.756, 209.245 97.232, 209.435 97.695, 209.604 98.150, 209.751 98.595, 209.877 99.035, 209.983 99.471, 210.069 99.904, 210.135 100.337, 210.182 100.771, 210.211 101.208, 210.221 103.176, 210.092 105.038, 209.696 106.783, 209.047 108.397, 208.158 109.868, 207.042 111.183, 205.712 112.330, 204.182 113.297, 202.465 114.070, 200.575 114.638, 198.525 114.987, 196.331 115.106, 194.004 114.993, 191.488 114.656, 189.176 114.098, 187.072 113.633, 185.940 113.322, 185.179 113.082, 184.773 112.331, 183.501 111.130, 182.040 109.721, 180.800 108.108, 179.783 106.295, 178.992 104.285, 178.430 102.084, 178.099 99.693, 178.001 97.630, 178.018 92.144, 178.063 91.223, 178.071 90.396, 178.077  z" />
      <path
         style="fill:#37abc8"
         id="path16"
         stroke="none"
         fill_rule="evenodd"
         fill-opacity="1.0"
         fill="rgb(204, 204, 204)"
         d=" M 130.035, 177.182 128.653, 177.125 127.669, 177.163 126.725, 177.260 125.823, 177.416 124.961, 177.632 124.139, 177.908 123.876, 178.020 123.357, 178.243 122.614, 178.638 121.909, 179.094 121.242, 179.610 120.612, 180.187 120.019, 180.825 119.654, 181.285 119.464, 181.524 119.464, 188.397 120.133, 187.532 120.819, 186.747 121.520, 186.043 122.235, 185.417 122.960, 184.868 123.696, 184.396 124.440, 183.999 125.190, 183.676 125.945, 183.426 126.702, 183.247 127.461, 183.139 128.220, 183.100 129.021, 183.129 129.752, 183.230 130.414, 183.404 131.007, 183.654 131.530, 183.983 131.984, 184.393 132.368, 184.887 132.682, 185.466 132.926, 186.134 133.101, 186.894 133.206, 187.746 133.240, 188.694 133.240, 190.403 128.344, 192.411 127.222, 192.880 126.098, 193.367 124.990, 193.886 123.917, 194.452 122.899, 195.082 121.955, 195.788 121.104, 196.588 120.365, 197.494 119.757, 198.523 119.300, 199.690 119.011, 201.009 118.910, 202.496 118.966, 203.513 119.129, 204.500 119.396, 205.448 119.762, 206.344 120.221, 207.178 120.770, 207.939 121.404, 208.614 122.118, 209.192 122.908, 209.663 123.769, 210.014 124.697, 210.235 125.686, 210.314 126.319, 210.294 126.952, 210.230 127.584, 210.120 128.216, 209.966 128.845, 209.766 129.473, 209.520 130.099, 209.228 130.722, 208.889 131.342, 208.504 131.958, 208.072 132.571, 207.593 133.178, 207.067 133.320, 207.610 133.495, 208.102 133.707, 208.542 133.956, 208.931 134.243, 209.272 134.568, 209.564 134.934, 209.809 135.342, 210.008 135.792, 210.161 136.285, 210.270 136.823, 210.335 137.407, 210.359 137.830, 210.348 138.232, 210.311 138.621, 210.244 139.004, 210.145 139.389, 210.012 139.784, 209.841 140.195, 209.630 140.631, 209.376 141.099, 209.077 141.608, 208.729 142.163, 208.330 142.774, 207.878 142.774, 204.019 142.464, 204.277 142.161, 204.517 141.867, 204.738 141.582, 204.938 141.308, 205.117 141.048, 205.275 140.801, 205.411 140.571, 205.523 140.358, 205.612 140.164, 205.676 139.990, 205.715 139.838, 205.728 139.673, 205.718 139.521, 205.690 139.383, 205.641 139.258, 205.571 139.148, 205.478 139.051, 205.360 138.968, 205.218 138.900, 205.049 138.847, 204.853 138.809, 204.627 138.786, 204.372 138.778, 204.084 138.778, 187.601 138.686, 185.865 138.419, 184.294 137.988, 182.885 137.405, 181.637 136.681, 180.548 135.828, 179.613 134.857, 178.832 133.781, 178.201 132.611, 177.717 131.359, 177.379 130.035, 177.182  z" />
      <path
         style="fill:#37abc8"
         id="path18"
         stroke="none"
         fill_rule="evenodd"
         fill-opacity="1.0"
         fill="rgb(204, 204, 204)"
         d=" M 147.346, 177.612 147.346, 226.215 152.941, 226.269 152.941, 208.983 153.468, 209.224 153.978, 209.441 154.474, 209.636 154.958, 209.808 155.432, 209.959 155.897, 210.088 156.356, 210.196 156.810, 210.283 157.262, 210.351 157.713, 210.399 158.166, 210.428 158.622, 210.439 160.675, 210.307 162.617, 209.903 164.437, 209.240 166.121, 208.332 167.655, 207.192 169.027, 205.834 170.224, 204.271 171.232, 202.518 172.039, 200.587 172.631, 198.494 172.996, 196.252 173.120, 193.876 173.002, 191.306 172.650, 188.944 172.068, 186.795 171.258, 184.862 170.225, 183.148 168.971, 181.656 167.502, 180.390 165.819, 179.351 163.928, 178.544 161.832, 177.970 159.535, 177.632 157.042, 177.533 147.346, 177.612  z" />
      <path
         style="fill:#37abc8"
         id="path20"
         stroke="none"
         fill_rule="evenodd"
         fill-opacity="1.0"
         fill="rgb(204, 204, 204)"
         d=" M 193.457, 176.704 191.588, 176.597 189.634, 176.750 187.796, 177.169 186.085, 177.841 184.509, 178.752 183.080, 179.891 181.809, 181.245 180.704, 182.802 179.777, 184.550 179.037, 186.477 178.496, 188.571 178.164, 190.820 178.051, 193.213 178.154, 195.439 178.463, 197.611 178.973, 199.703 179.682, 201.688 180.585, 203.542 181.680, 205.236 182.964, 206.744 184.433, 208.041 186.085, 209.098 187.916, 209.890 189.924, 210.388 192.106, 210.566 193.303, 210.545 194.434, 210.471 195.508, 210.344 196.532, 210.164 197.512, 209.930 198.455, 209.642 199.369, 209.299 200.261, 208.900 201.139, 208.445 202.009, 207.933 202.878, 207.365 203.754, 206.738 203.754, 200.456 202.906, 201.055 202.061, 201.609 201.216, 202.118 200.373, 202.579 199.528, 202.992 198.683, 203.354 197.835, 203.664 196.985, 203.920 196.130, 204.122 195.270, 204.268 194.405, 204.356 193.533, 204.385 192.186, 204.313 190.936, 204.103 189.781, 203.755 188.724, 203.271 187.763, 202.651 186.900, 201.896 186.133, 201.007 185.464, 199.985 184.894, 198.830 184.421, 197.544 184.047, 196.126 183.772, 194.577 204.277, 194.537 204.175, 191.635 203.873, 188.991 203.380, 186.605 202.702, 184.477 201.848, 182.605 200.825, 180.989 199.641, 179.628 198.305, 178.520 196.824, 177.664 195.205, 177.059 193.457, 176.704  z" />
      <path
         style="fill:#37abc8"
         id="path22"
         stroke="none"
         fill_rule="evenodd"
         fill-opacity="1.0"
         fill="rgb(204, 204, 204)"
         d=" M 226.147, 176.333 225.552, 176.311 224.854, 176.368 224.153, 176.530 223.449, 176.799 222.743, 177.180 222.033, 177.674 221.319, 178.286 220.602, 179.018 219.880, 179.875 219.155, 180.859 218.425, 181.972 217.690, 183.220 216.950, 184.604 216.818, 184.605 216.818, 177.045 210.961, 177.093 210.961, 209.978 216.818, 209.999 216.818, 192.752 216.883, 191.365 217.072, 190.038 217.376, 188.783 217.789, 187.610 218.301, 186.531 218.906, 185.557 219.595, 184.701 220.360, 183.973 221.194, 183.385 222.088, 182.949 223.035, 182.676 224.026, 182.579 224.393, 182.604 224.793, 182.681 225.222, 182.808 225.675, 182.983 226.146, 183.203 226.631, 183.465 227.124, 183.767 227.620, 184.106 228.115, 184.481 228.604, 184.888 229.080, 185.324 229.539, 185.789 232.671, 180.090 232.058, 179.476 231.452, 178.917 230.853, 178.414 230.259, 177.965 229.669, 177.571 229.082, 177.231 228.496, 176.945 227.911, 176.712 227.325, 176.533 226.737, 176.406 226.147, 176.333 190.653, 182.263 191.718, 182.196 192.705, 182.255 193.626, 182.439 194.478, 182.745 195.256, 183.169 195.960, 183.706 196.585, 184.351 197.129, 185.101 197.589, 185.949 197.963, 186.893 198.247, 187.927 198.439, 189.046 198.536, 190.247 183.901, 190.298 184.133, 189.057 184.442, 187.911 184.829, 186.863 185.292, 185.914 185.832, 185.068 186.448, 184.326 187.139, 183.691 187.905, 183.165 188.747, 182.750 189.663, 182.449 190.653, 182.263 152.941, 183.305 158.053, 183.274 159.524, 183.345 160.869, 183.575 162.089, 183.961 163.182, 184.499 164.148, 185.184 164.986, 186.014 165.696, 186.985 166.278, 188.093 166.732, 189.334 167.056, 190.704 167.250, 192.200 167.315, 193.816 167.237, 195.349 167.008, 196.801 166.636, 198.164 166.130, 199.427 165.498, 200.580 164.748, 201.611 163.888, 202.511 162.928, 203.270 161.875, 203.877 160.737, 204.323 159.524, 204.596 158.243, 204.688 157.799, 204.677 157.353, 204.645 156.907, 204.593 156.459, 204.520 156.012, 204.428 155.566, 204.316 155.121, 204.184 154.678, 204.034 154.238, 203.864 153.801, 203.676 153.369, 203.469 152.941, 203.245 152.941, 183.305 132.076, 194.359 133.240, 193.893 133.240, 203.222 132.865, 203.617 132.485, 203.984 132.100, 204.322 131.710, 204.630 131.314, 204.906 130.914, 205.149 130.508, 205.358 130.098, 205.531 129.682, 205.668 129.262, 205.767 128.836, 205.826 128.406, 205.846 127.847, 205.807 127.318, 205.695 126.822, 205.513 126.363, 205.266 125.945, 204.956 125.570, 204.588 125.244, 204.166 124.968, 203.693 124.748, 203.173 124.586, 202.609 124.486, 202.005 124.452, 201.366 124.534, 200.464 124.775, 199.635 125.161, 198.873 125.681, 198.171 126.324, 197.521 127.076, 196.917 127.927, 196.353 128.864, 195.822 129.876, 195.317 130.951, 194.832 132.076, 194.359 95.761, 183.652 100.200, 183.625 100.663, 183.623 102.073, 183.693 103.363, 183.918 104.532, 184.296 105.579, 184.822 106.505, 185.494 107.309, 186.307 107.990, 187.257 108.521, 188.290 108.548, 188.342 108.977, 189.540 108.983, 189.557 109.293, 190.898 109.480, 192.363 109.542, 193.946 109.467, 195.446 109.248, 196.868 108.891, 198.203 108.406, 199.439 107.800, 200.567 107.081, 201.577 106.257, 202.459 105.336, 203.202 104.326, 203.796 103.236, 204.232 102.073, 204.501 100.844, 204.591 100.419, 204.580 99.992, 204.548 99.563, 204.497 99.134, 204.426 98.706, 204.336 98.278, 204.226 97.851, 204.097 97.427, 203.950 97.005, 203.784 96.994, 203.779 96.586, 203.599 96.171, 203.397 95.761, 203.177 95.761, 198.748 95.761, 197.503 95.761, 183.652  z" />
    </g>
    <g
       style="display:inline"
       id="strokes">
      <path
         style="fill:none;stroke:#000000;stroke-width:3;stroke-linecap:butt;stroke-opacity:1"
         id="path25"
         stroke-linejoin="mitter"
         d="m 226.147,176.333 -0.595,-0.022 -0.698,0.057 -0.701,0.162 -0.704,0.269 -0.706,0.381 -0.71,0.494 -0.714,0.612 -0.717,0.732 -0.722,0.857 -0.725,0.984 -0.73,1.113 -0.735,1.248 -0.74,1.384 -0.132,10e-4 v -7.56 l -5.857,0.048 v 10 10 10 2.885 l 5.857,0.021 v -10 -7.247 l 0.065,-1.387 0.189,-1.327 0.304,-1.255 0.413,-1.173 0.512,-1.079 0.605,-0.974 0.689,-0.856 0.765,-0.728 0.834,-0.588 0.894,-0.436 0.947,-0.273 0.991,-0.097 0.367,0.025 0.4,0.077 0.429,0.127 0.453,0.175 0.471,0.22 0.485,0.262 0.493,0.302 0.496,0.339 0.495,0.375 0.489,0.407 0.476,0.436 0.459,0.465 3.132,-5.699 -0.613,-0.614 -0.606,-0.559 -0.599,-0.503 -0.594,-0.449 -0.59,-0.394 -0.587,-0.34 -0.586,-0.286 -0.585,-0.233 -0.586,-0.179 -0.588,-0.127 -0.59,-0.073" />
      <path
         style="fill:none;stroke:#000000;stroke-width:3;stroke-linecap:butt;stroke-opacity:1"
         id="path27"
         stroke-linejoin="mitter"
         d="m 193.457,176.704 -1.869,-0.107 -1.954,0.153 -1.838,0.419 -1.711,0.672 -1.576,0.911 -1.429,1.139 -1.271,1.354 -1.105,1.557 -0.927,1.748 -0.74,1.927 -0.541,2.094 -0.332,2.249 -0.113,2.393 0.103,2.226 0.309,2.172 0.51,2.092 0.709,1.985 0.903,1.854 1.095,1.694 1.284,1.508 1.469,1.297 1.652,1.057 1.831,0.792 2.008,0.498 2.182,0.178 1.197,-0.021 1.131,-0.074 1.074,-0.127 1.024,-0.18 0.98,-0.234 0.943,-0.288 0.914,-0.343 0.892,-0.399 0.878,-0.455 0.87,-0.512 0.869,-0.568 0.876,-0.627 v -6.282 l -0.848,0.599 -0.845,0.554 -0.845,0.509 -0.843,0.461 -0.845,0.413 -0.845,0.362 -0.848,0.31 -0.85,0.256 -0.855,0.202 -0.86,0.146 -0.865,0.088 -0.872,0.029 -1.347,-0.072 -1.25,-0.21 -1.155,-0.348 -1.057,-0.484 -0.961,-0.62 -0.863,-0.755 -0.767,-0.889 -0.669,-1.022 -0.57,-1.155 -0.473,-1.286 -0.374,-1.418 -0.275,-1.549 10,-0.019 10,-0.02 0.505,-0.001 -0.102,-2.902 -0.302,-2.644 -0.493,-2.386 -0.678,-2.128 -0.854,-1.872 -1.023,-1.616 -1.184,-1.361 -1.336,-1.108 -1.481,-0.856 -1.619,-0.605 -1.748,-0.355" />
      <path
         style="fill:none;stroke:#000000;stroke-width:3;stroke-linecap:butt;stroke-opacity:1"
         id="path29"
         stroke-linejoin="mitter"
         d="m 190.653,182.263 1.065,-0.067 0.987,0.059 0.921,0.184 0.852,0.306 0.778,0.424 0.704,0.537 0.625,0.645 0.544,0.75 0.46,0.848 0.374,0.944 0.284,1.034 0.192,1.119 0.097,1.201 -9.999,0.035 -4.636,0.016 0.232,-1.241 0.309,-1.146 0.387,-1.048 0.463,-0.949 0.54,-0.846 0.616,-0.742 0.691,-0.635 0.766,-0.526 0.842,-0.415 0.916,-0.301 0.99,-0.186" />
      <path
         style="fill:none;stroke:#000000;stroke-width:3;stroke-linecap:butt;stroke-opacity:1"
         id="path31"
         stroke-linejoin="mitter"
         d="m 147.346,177.612 v 10 10 10 10 8.603 l 5.595,0.054 v -10 -7.286 l 0.527,0.241 0.51,0.217 0.496,0.195 0.484,0.172 0.474,0.151 0.465,0.129 0.459,0.108 0.454,0.087 0.452,0.068 0.451,0.048 0.453,0.029 0.456,0.011 2.053,-0.132 1.942,-0.404 1.82,-0.663 1.684,-0.908 1.534,-1.14 1.372,-1.358 1.197,-1.563 1.008,-1.753 0.807,-1.931 0.592,-2.093 0.365,-2.242 0.124,-2.376 -0.118,-2.57 -0.352,-2.362 -0.582,-2.149 -0.81,-1.933 -1.033,-1.714 -1.254,-1.492 -1.469,-1.266 -1.683,-1.039 -1.891,-0.807 -2.096,-0.574 -2.297,-0.338 -2.493,-0.099 -9.696,0.079" />
      <path
         style="fill:none;stroke:#000000;stroke-width:3;stroke-linecap:butt;stroke-opacity:1"
         id="path33"
         stroke-linejoin="mitter"
         d="m 152.941,183.305 5.112,-0.031 1.471,0.071 1.345,0.23 1.22,0.386 1.093,0.538 0.966,0.685 0.838,0.83 0.71,0.971 0.582,1.108 0.454,1.241 0.324,1.37 0.194,1.496 0.065,1.616 -0.078,1.533 -0.229,1.452 -0.372,1.363 -0.506,1.263 -0.632,1.153 -0.75,1.031 -0.86,0.9 -0.96,0.759 -1.053,0.607 -1.138,0.446 -1.213,0.273 -1.281,0.092 -0.444,-0.011 -0.446,-0.032 -0.446,-0.052 -0.448,-0.073 -0.447,-0.092 -0.446,-0.112 -0.445,-0.132 -0.443,-0.15 -0.44,-0.17 -0.437,-0.188 -0.432,-0.207 -0.428,-0.224 v -10 -9.94" />
      <path
         style="fill:none;stroke:#000000;stroke-width:3;stroke-linecap:butt;stroke-opacity:1"
         id="path35"
         stroke-linejoin="mitter"
         d="m 130.035,177.182 -1.382,-0.057 -0.984,0.038 -0.944,0.097 -0.902,0.156 -0.862,0.216 -0.822,0.276 -0.263,0.112 -0.519,0.223 -0.743,0.395 -0.705,0.456 -0.667,0.516 -0.63,0.577 -0.593,0.638 -0.365,0.46 -0.19,0.239 v 6.873 l 0.669,-0.865 0.686,-0.785 0.701,-0.704 0.715,-0.626 0.725,-0.549 0.736,-0.472 0.744,-0.397 0.75,-0.323 0.755,-0.25 0.757,-0.179 0.759,-0.108 0.759,-0.039 0.801,0.029 0.731,0.101 0.662,0.174 0.593,0.25 0.523,0.329 0.454,0.41 0.384,0.494 0.314,0.579 0.244,0.668 0.175,0.76 0.105,0.852 0.034,0.948 v 1.709 l -4.896,2.008 -1.122,0.469 -1.124,0.487 -1.108,0.519 -1.073,0.566 -1.018,0.63 -0.944,0.706 -0.851,0.8 -0.739,0.906 -0.608,1.029 -0.457,1.167 -0.289,1.319 -0.101,1.487 0.056,1.017 0.163,0.987 0.267,0.948 0.366,0.896 0.459,0.834 0.549,0.761 0.634,0.675 0.714,0.578 0.79,0.471 0.861,0.351 0.928,0.221 0.989,0.079 0.633,-0.02 0.633,-0.064 0.632,-0.11 0.632,-0.154 0.629,-0.2 0.628,-0.246 0.626,-0.292 0.623,-0.339 0.62,-0.385 0.616,-0.432 0.613,-0.479 0.607,-0.526 0.142,0.543 0.175,0.492 0.212,0.44 0.249,0.389 0.287,0.341 0.325,0.292 0.366,0.245 0.408,0.199 0.45,0.153 0.493,0.109 0.538,0.065 0.584,0.024 0.423,-0.011 0.402,-0.037 0.389,-0.067 0.383,-0.099 0.385,-0.133 0.395,-0.171 0.411,-0.211 0.436,-0.254 0.468,-0.299 0.509,-0.348 0.555,-0.399 0.611,-0.452 v -3.859 l -0.31,0.258 -0.303,0.24 -0.294,0.221 -0.285,0.2 -0.274,0.179 -0.26,0.158 -0.247,0.136 -0.23,0.112 -0.213,0.089 -0.194,0.064 -0.174,0.039 -0.152,0.013 -0.165,-0.01 -0.152,-0.028 -0.138,-0.049 -0.125,-0.07 -0.11,-0.093 -0.097,-0.118 -0.083,-0.142 -0.068,-0.169 -0.053,-0.196 -0.038,-0.226 -0.023,-0.255 -0.008,-0.288 v -10 -6.483 l -0.092,-1.736 -0.267,-1.571 -0.431,-1.409 -0.583,-1.248 -0.724,-1.089 -0.853,-0.935 -0.971,-0.781 -1.076,-0.631 -1.17,-0.484 -1.252,-0.338 -1.324,-0.197" />
      <path
         style="fill:none;stroke:#000000;stroke-width:3;stroke-linecap:butt;stroke-opacity:1"
         id="path37"
         stroke-linejoin="mitter"
         d="m 132.076,194.359 1.164,-0.466 v 9.329 l -0.375,0.395 -0.38,0.367 -0.385,0.338 -0.39,0.308 -0.396,0.276 -0.4,0.243 -0.406,0.209 -0.41,0.173 -0.416,0.137 -0.42,0.099 -0.426,0.059 -0.43,0.02 -0.559,-0.039 -0.529,-0.112 -0.496,-0.182 -0.459,-0.247 -0.418,-0.31 -0.375,-0.368 -0.326,-0.422 -0.276,-0.473 -0.22,-0.52 -0.162,-0.564 -0.1,-0.604 -0.034,-0.639 0.082,-0.902 0.241,-0.829 0.386,-0.762 0.52,-0.702 0.643,-0.65 0.752,-0.604 0.851,-0.564 0.937,-0.531 1.012,-0.505 1.075,-0.485 1.125,-0.473" />
      <path
         style="fill:none;stroke:#000000;stroke-width:3;stroke-linecap:butt;stroke-opacity:1"
         id="path39"
         stroke-linejoin="mitter"
         d="m 90.396,178.077 v 0.056 10 10 2.536 1.253 1.145 0.844 0.342 0.324 0.899 10 l 0.001,10.195 5.364,0.051 v -10 -6.926 l 0.505,0.236 0.49,0.213 0.476,0.19 0.463,0.169 0.455,0.147 0.445,0.126 0.44,0.106 0.436,0.086 0.433,0.066 0.433,0.047 0.434,0.029 0.437,0.01 1.968,-0.129 1.862,-0.396 1.745,-0.649 1.614,-0.889 1.471,-1.116 1.315,-1.33 1.147,-1.53 0.967,-1.717 0.773,-1.89 0.568,-2.05 0.349,-2.194 0.119,-2.327 -0.113,-2.516 -0.337,-2.312 -0.558,-2.104 -0.465,-1.132 -0.311,-0.761 -0.24,-0.406 -0.751,-1.272 -1.201,-1.461 -1.409,-1.24 -1.613,-1.017 -1.813,-0.791 -2.01,-0.562 -2.201,-0.331 -2.391,-0.098 -2.063,0.017 -5.486,0.045 -0.921,0.008 -0.827,0.006" />
      <path
         style="fill:none;stroke:#000000;stroke-width:3;stroke-linecap:butt;stroke-opacity:1"
         id="path41"
         stroke-linejoin="mitter"
         d="m 95.761,183.652 4.439,-0.027 0.463,-0.002 1.41,0.07 1.29,0.225 1.169,0.378 1.047,0.526 0.926,0.672 0.804,0.813 0.681,0.95 0.531,1.033 0.027,0.052 0.429,1.198 0.006,0.017 0.31,1.341 0.187,1.465 0.062,1.583 -0.075,1.5 -0.219,1.422 -0.357,1.335 -0.485,1.236 -0.606,1.128 -0.719,1.01 -0.824,0.882 -0.921,0.743 -1.01,0.594 -1.09,0.436 -1.163,0.269 -1.229,0.09 -0.425,-0.011 -0.427,-0.032 -0.429,-0.051 -0.429,-0.071 -0.428,-0.09 -0.428,-0.11 -0.427,-0.129 -0.424,-0.147 -0.422,-0.166 -0.011,-0.005 -0.408,-0.18 -0.415,-0.202 -0.41,-0.22 v -4.429 -1.245 -10 -3.851" />
      <path
         style="fill:none;stroke:#000000;stroke-width:3;stroke-linecap:butt;stroke-opacity:1"
         id="path43"
         stroke-linejoin="mitter"
         d="m 327.489,330.793 -1.538,-0.483 -1.983,1.512 -1.691,3.431 -0.111,0.471 -1.025,4.364 -0.306,4.199 -0.094,1.294 0.4,5.294 1.136,4.272 1.691,2.592 1.87,0.522 0.529,-0.404" />
      <path
         style="fill:none;stroke:#000000;stroke-width:3;stroke-linecap:butt;stroke-opacity:1"
         id="path45"
         stroke-linejoin="mitter"
         d="m 325.199,356.061 -0.785,-0.224 -1.449,-2.228 -0.973,-3.665 -0.342,-4.539 0.088,-1.203 0.254,-3.507 0.174,-0.74 0.799,-3.407 1.449,-2.948 1.701,-1.303" />
      <path
         style="fill:none;stroke:#000000;stroke-width:3;stroke-linecap:butt;stroke-opacity:1"
         id="path47"
         stroke-linejoin="mitter"
         d="m 325.951,330.31 -2.317,-0.104 -1.468,1.115 -0.521,0.396 -0.762,1.54 -0.935,1.888 -0.974,4.13 -0.165,0.701 -0.105,1.439 -0.296,4.049 0.401,5.291 1.139,4.268 1.697,2.59 1.876,0.522 2.317,0.126" />
      <path
         style="fill:none;stroke:#000000;stroke-width:3;stroke-linecap:butt;stroke-opacity:1"
         id="path49"
         stroke-linejoin="mitter"
         d="m 327.493,331.074 -1.118,0.856 -0.03,0.06 -0.152,0.311 -0.009,0.018 -1.495,3.046 -1.132,4.839 -0.399,5.498 0.399,5.298 1.132,4.275 0.51,0.786 0.348,0.534 0.82,1.262 0.008,0.012 2.089,0.534 2.324,0.126 1.844,-1.606 1.648,-3.466 1.089,-4.849 0.384,-5.41 -0.377,-5.168 -0.832,-3.226" />
      <path
         style="fill:none;stroke:#000000;stroke-width:3;stroke-linecap:butt;stroke-opacity:1"
         id="path51"
         stroke-linejoin="mitter"
         d="m 327.606,334.286 -0.581,1.187 -1.128,4.844 -0.397,5.501 0.397,5.303 1.128,4.278 0.052,0.08 0.481,0.743 0.101,0.156 0.213,0.329 0.833,1.288 2.083,0.534" />
      <path
         style="fill:none;stroke:#000000;stroke-width:3;stroke-linecap:butt;stroke-opacity:1"
         id="path53"
         stroke-linejoin="mitter"
         d="m 315.032,330.379 0.041,3.184 3.631,7.852" />
      <path
         style="fill:none;stroke:#000000;stroke-width:3;stroke-linecap:butt;stroke-opacity:1"
         id="path55"
         stroke-linejoin="mitter"
         d="m 316.366,333.622 -0.052,-3.525" />
      <path
         style="fill:none;stroke:#000000;stroke-width:3;stroke-linecap:butt;stroke-opacity:1"
         id="path57"
         stroke-linejoin="mitter"
         d="m 315.073,333.563 1.293,0.059 2.608,5.653" />
      <path
         style="fill:none;stroke:#000000;stroke-width:3;stroke-linecap:butt;stroke-opacity:1"
         id="path59"
         stroke-linejoin="mitter"
         d="m 325.63,328.047 1.82,0.079 0.039,2.667 0.004,0.281 0.019,1.287 0.005,0.373 0.002,0.17 0.018,1.231 0.069,0.151 2.688,5.937 0.688,1.517 1.412,3.119 0.056,0.003 0.865,0.043 0.375,0.018 0.854,-0.215 v -9.904 -8.904 l -0.648,-0.028" />
      <path
         style="fill:none;stroke:#000000;stroke-width:3;stroke-linecap:butt;stroke-opacity:1"
         id="path61"
         stroke-linejoin="mitter"
         d="m 334.544,325.9 -1.436,0.316 -4.353,0.956 0.002,0.186 0.038,3.079 0.024,1.921 0.023,1.837" />
      <path
         style="fill:none;stroke:#000000;stroke-width:3;stroke-linecap:butt;stroke-opacity:1"
         id="path63"
         stroke-linejoin="mitter"
         d="m 333.69,344.923 -2.966,-6.563 -1.882,-4.165 -0.177,-0.008 -1.128,-0.052" />
      <path
         style="fill:none;stroke:#000000;stroke-width:3;stroke-linecap:butt;stroke-opacity:1"
         id="path65"
         stroke-linejoin="mitter"
         d="m 143.701,346.2 -0.035,-0.008 -1.781,-2.112 -1.195,-3.452 -0.42,-4.262 0.096,-1.006 0.257,-2.7" />
      <path
         style="fill:none;stroke:#000000;stroke-width:3;stroke-linecap:butt;stroke-opacity:1"
         id="path67"
         stroke-linejoin="mitter"
         d="m 139.584,332.61 -0.131,1.377 -0.242,2.534 0.491,4.971 1.395,4.023 2.078,2.458 2.337,0.521 0.457,-0.265" />
      <path
         style="fill:none;stroke:#000000;stroke-width:3;stroke-linecap:butt;stroke-opacity:1"
         id="path69"
         stroke-linejoin="mitter"
         d="m 137.533,332.511 -0.374,3.907 0.492,4.968 1.397,4.02 2.082,2.456 2.342,0.522 2.04,0.11" />
      <path
         style="fill:none;stroke:#000000;stroke-width:3;stroke-linecap:butt;stroke-opacity:1"
         id="path71"
         stroke-linejoin="mitter"
         d="m 141.709,332.713 -0.234,2.461 -0.022,0.229 -0.116,1.224 0.49,4.975 1.392,4.026 0.482,0.572 1.163,1.379 0.428,0.508 0.677,0.142 1.855,0.39 2.046,0.111 2.312,-1.475 2.032,-3.227 1.346,-4.535 0.474,-5.073 -0.098,-1.017" />
      <path
         style="fill:none;stroke:#000000;stroke-width:3;stroke-linecap:butt;stroke-opacity:1"
         id="path73"
         stroke-linejoin="mitter"
         d="m 143.767,332.813 -0.372,3.917 0.489,4.978 1.39,4.029 0.517,0.616 0.122,0.144 0.141,0.168 0.856,1.018 0.433,0.515 2.527,0.532" />
      <path
         style="fill:none;stroke:#000000;stroke-width:3;stroke-linecap:butt;stroke-opacity:1"
         id="path75"
         stroke-linejoin="mitter"
         d="m 149.515,333.091 0.321,0.543 1.212,2.05 0.125,0.211 0.579,0.029 0.561,0.027 0.53,-0.095 0.524,-0.094 v -2.484" />
      <path
         style="fill:none;stroke:#000000;stroke-width:3;stroke-linecap:butt;stroke-opacity:1"
         id="path77"
         stroke-linejoin="mitter"
         d="m 152.313,335.951 -0.486,-0.823 -0.701,-1.186 -0.469,-0.795" />
      <path
         style="fill:none;stroke:#000000;stroke-width:3;stroke-linecap:butt;stroke-opacity:1"
         id="path79"
         stroke-linejoin="mitter"
         d="m 70.916,325.701 6.479,0.416 9.988,0.472 9.989,0.471 9.989,0.471 9.989,0.471 9.989,0.471 9.064,0.428 1.955,0.092 4.112,0.194 0.061,0.003 0.856,0.04 3.955,0.187 3.191,0.151 0.922,0.043 1.912,0.09 2.223,0.105 9.988,0.471 2.762,0.131 9.989,0.471 9.988,0.471 9.989,0.471 9.989,0.471 9.989,0.472 9.989,0.471 9.989,0.471 9.989,0.471 9.989,0.471 7.45,0.352 8.571,0.285" />
      <path
         style="fill:none;stroke:#000000;stroke-width:3;stroke-linecap:butt;stroke-opacity:1"
         id="path81"
         stroke-linejoin="mitter"
         d="m 348.489,144.87 -8.419,-0.83 -9.952,-0.982 -9.952,-0.981 -9.951,-0.981 -9.952,-0.982 -4.452,-0.439 -5.19,-0.512 -4.045,-0.134 -7.378,-0.006 -8.692,0.125 -9.998,0.213 -9.997,0.212 -9.998,0.212 -9.998,0.212 -9.998,0.212 -9.997,0.213 -9.998,0.212 -9.998,0.212 -9.997,0.212 -9.998,0.213 -5.796,0.123 -9.997,0.212 -9.998,0.212 -9.998,0.212 -2.239,0.048 -9.998,0.212 -6.708,0.142 -9.997,0.213 -0.22,0.004 -9.998,0.213 -9.997,0.212 -9.998,0.212 -9.097,0.193 -0.926,0.028 -5.476,0.163 -3.409,0.221" />
      <path
         style="fill:none;stroke:#000000;stroke-width:3;stroke-linecap:butt;stroke-opacity:1"
         id="path83"
         stroke-linejoin="mitter"
         d="m 42.529,143.637 3.888,-0.117 9.998,-0.213 9.147,-0.196 9.998,-0.214 9.997,-0.213 9.998,-0.214 10.071,-0.215 9.463,-0.202 9.998,-0.214 3.28,-0.07 9.997,-0.214 9.998,-0.214 9.998,-0.213 2.364,-0.051 9.998,-0.213 9.998,-0.214 9.997,-0.214 9.998,-0.213 9.998,-0.214 9.997,-0.214 9.998,-0.214 9.998,-0.213 9.998,-0.214 9.997,-0.214 9.998,-0.213 9.998,-0.214 4.67,-0.1 5.412,-0.078" />
      <path
         style="fill:none;stroke:#000000;stroke-width:3;stroke-linecap:butt;stroke-opacity:1"
         id="path85"
         stroke-linejoin="mitter"
         d="m 349.159,136.872 -9.936,-1.123 -9.937,-1.124 -9.937,-1.123 -9.936,-1.124 -9.937,-1.123 -1.622,-0.183 -2.499,-0.095 -4.576,-0.004 -5.412,0.088 -9.997,0.239 -9.997,0.24 -9.997,0.239 -9.997,0.239 -9.997,0.239 -9.997,0.239 -9.998,0.239 -9.997,0.24 -9.997,0.239 -9.997,0.239 -9.997,0.239 -9.997,0.239 -4.678,0.112 -9.997,0.239 -9.997,0.24 -9.997,0.239 -1.422,0.034 -9.997,0.239 -9.997,0.239 -6.534,0.156 -2.098,0.051 -9.997,0.239 -9.997,0.239 -9.997,0.239 -9.997,0.239 -9.998,0.239 -4.282,0.103 -3.888,0.131 -2.054,0.152 v 6.644" />
      <path
         style="fill:none;stroke:#000000;stroke-width:3;stroke-linecap:butt;stroke-opacity:1"
         id="path87"
         stroke-linejoin="mitter"
         d="m 40.475,143.773 2.054,-0.136 -2.054,0.068 -0.291,0.01 0.61,0.177 9.979,0.646 5.964,0.386" />
      <path
         style="fill:none;stroke:#000000;stroke-width:3;stroke-linecap:butt;stroke-opacity:1"
         id="path89"
         stroke-linejoin="mitter"
         d="m 56.677,143.891 0.06,1.033 0.587,9.983 0.586,9.983 0.586,9.983 0.587,9.982 0.586,9.983 0.586,9.983 0.586,9.983 0.587,9.983 0.586,9.982 0.586,9.983 0.587,9.983 0.586,9.983 0.586,9.983 0.586,9.982 0.587,9.983 0.586,9.983 0.586,9.983 0.623,10.597 4.748,3.003 1.005,0.636" />
      <path
         style="fill:none;stroke:#000000;stroke-width:3;stroke-linecap:butt;stroke-opacity:1"
         id="path91"
         stroke-linejoin="mitter"
         d="m 40.475,143.773 0.319,0.119" />
      <path
         style="fill:none;stroke:#000000;stroke-width:3;stroke-linecap:butt;stroke-opacity:1"
         id="path93"
         stroke-linejoin="mitter"
         d="m 333.202,326.18 0.694,-0.308 6.073,-2.695 0.55,-9.985 0.551,-9.985 0.55,-9.984 0.55,-9.985 0.55,-9.985 0.55,-9.985 0.551,-9.985 0.55,-9.985 0.55,-9.985 0.55,-9.984 0.55,-9.985 0.551,-9.985 0.473,-8.601" />
      <path
         style="fill:none;stroke:#000000;stroke-width:3;stroke-linecap:butt;stroke-opacity:1"
         id="path95"
         stroke-linejoin="mitter"
         d="m 339.969,323.177 -9.772,2.121 -1.597,0.347 -6.434,1.396 -3.272,0.71 -3.885,0.844 -9.772,2.121 -9.772,2.121 -9.773,2.121 -0.358,0.078 -3.868,0.262" />
      <path
         style="fill:none;stroke:#000000;stroke-width:3;stroke-linecap:butt;stroke-opacity:1"
         id="path97"
         stroke-linejoin="mitter"
         d="m 81.991,329.818 1.242,0.06 5.937,0.288 1.206,0.059 9.988,0.484 9.988,0.484 9.989,0.484 9.988,0.484 7.204,0.35 1.065,0.051 0.986,0.048 0.147,0.007 0.892,0.043 0.717,0.035 0.369,0.018 0.746,0.036 0.015,10e-4 1.297,0.063 5.748,0.278 0.268,0.013 0.874,0.043 0.392,0.019 0.762,0.037 0.417,0.02 0.627,0.03 0.512,0.025 0.535,0.026 2.034,0.099 9.988,0.484 5.272,0.255 9.989,0.485 9.988,0.484 9.988,0.484 9.988,0.484 9.989,0.484 9.988,0.484 9.988,0.485 9.989,0.484 10.534,0.51" />
      <path
         style="fill:none;stroke:#000000;stroke-width:3;stroke-linecap:butt;stroke-opacity:1"
         id="path99"
         stroke-linejoin="mitter"
         d="m 297.854,138.423 9.928,1.002 9.949,1.005 9.95,1.005 9.949,1.005 2.44,0.247 8.529,0.861" />
      <path
         style="fill:none;stroke:#000000;stroke-width:3;stroke-linecap:butt;stroke-opacity:1"
         id="path101"
         stroke-linejoin="mitter"
         d="m 294.215,138.291 -3.436,0.044 4.576,0.003 2.499,0.085 -3.639,-0.132" />
      <path
         style="fill:none;stroke:#000000;stroke-width:3;stroke-linecap:butt;stroke-opacity:1"
         id="path103"
         stroke-linejoin="mitter"
         d="m 349.497,132.842 -7.88,-6.156 -7.881,-6.156 -7.881,-6.156 -7.88,-6.155 -6.127,-4.786 0.889,-9.873 -9.993,0.365 -9.994,0.366 -9.993,0.365 -9.993,0.365 -9.994,0.365 -9.993,0.366 -9.993,0.365 -9.994,0.365 -9.993,0.366 -9.993,0.365 -9.994,0.365 -9.993,0.366 -9.993,0.365 -2.143,0.078 -9.993,0.366 -9.994,0.365 -9.993,0.365 -9.993,0.365 -9.994,0.366 -9.993,0.365 -9.993,0.365 -2.191,0.08 -9.993,0.366 -9.993,0.365 -9.994,0.365 -9.993,0.366 -8.469,0.309 -1.157,9.027 8.805,4.741 8.805,4.74 8.805,4.741 8.805,4.741 8.625,4.644" />
      <path
         style="fill:none;stroke:#000000;stroke-width:3;stroke-linecap:butt;stroke-opacity:1"
         id="path105"
         stroke-linejoin="mitter"
         d="m 45.32,95.957 2.196,-0.087 9.992,-0.393 9.993,-0.393 9.992,-0.393 9.992,-0.393 9.992,-0.394 9.993,-0.393 9.992,-0.393 9.992,-0.393 9.992,-0.393 9.993,-0.393 9.992,-0.394 9.992,-0.393 1.972,-0.077 9.992,-0.394 9.993,-0.393 9.992,-0.393 9.992,-0.393 9.992,-0.393 9.993,-0.393 9.992,-0.394 9.992,-0.393 9.992,-0.393 9.993,-0.393 9.992,-0.393 9.992,-0.393 9.992,-0.394 3.761,-0.148 2.646,-0.104" />
      <path
         style="fill:none;stroke:#000000;stroke-width:3;stroke-linecap:butt;stroke-opacity:1"
         id="path107"
         stroke-linejoin="mitter"
         d="m 372.08,150.471 2.399,-0.04 -1.834,-9.83 -0.175,-0.938 -2.702,-9.628 -2.703,-9.628 -0.105,-0.374 -3.728,-9.279 -3.173,-7.899 -4.998,-8.661 -3.119,-5.406 -6.613,-7.501 -2.494,-2.83 -8.519,-5.239 -1.298,-0.798 -9.921,-1.252 -0.264,-0.033 -2.587,0.114 -9.99,0.441 -9.99,0.441 -9.99,0.44 -9.991,0.441 -9.99,0.441 -9.99,0.44 -9.991,0.441 -9.99,0.441 -9.99,0.44 -9.99,0.441 -9.991,0.441 -9.99,0.44 -10.917,0.482 -9.99,0.441 -9.99,0.44 -9.99,0.441 -9.991,0.441 -9.99,0.44 -9.99,0.441 -9.991,0.441 -9.99,0.44 -9.99,0.441 -9.99,0.441 -9.991,0.44 -9.677,0.427 -2.158,0.095 -9.65,2.623 -3.653,0.993 -8.366,5.477 -0.159,0.104 -0.57,4.372 8.765,4.812 3.835,2.106 -1.159,9.019 8.811,4.731 8.81,4.731 8.81,4.73 8.81,4.731 8.683,4.663" />
      <path
         style="fill:none;stroke:#000000;stroke-width:3;stroke-linecap:butt;stroke-opacity:1"
         id="path109"
         stroke-linejoin="mitter"
         d="m 129.311,134.795 -3.366,-8.266 -5.041,-8.637 -4.116,-7.051 -6.434,-7.655 -1.817,-2.162" />
      <path
         style="fill:none;stroke:#000000;stroke-width:3;stroke-linecap:butt;stroke-opacity:1"
         id="path111"
         stroke-linejoin="mitter"
         d="m 45.89,91.585 2.196,-0.09 9.991,-0.41 9.992,-0.409 9.991,-0.41 9.992,-0.41 9.992,-0.409 9.991,-0.41 9.992,-0.409 9.992,-0.41 9.991,-0.41 9.992,-0.409 9.991,-0.41 9.992,-0.41 1.921,-0.078 9.992,-0.41 9.992,-0.409 9.991,-0.41 9.992,-0.41 9.991,-0.409 9.992,-0.41 9.992,-0.409 9.991,-0.41 9.992,-0.41 9.992,-0.409 9.991,-0.41 9.992,-0.409 9.991,-0.41 3.697,-0.152 2.645,-0.108" />
      <path
         style="fill:none;stroke:#000000;stroke-width:3;stroke-linecap:butt;stroke-opacity:1"
         id="path113"
         stroke-linejoin="mitter"
         d="m 58.938,111.822 -2.177,0.072" />
      <path
         style="fill:none;stroke:#000000;stroke-width:3;stroke-linecap:butt;stroke-opacity:1"
         id="path115"
         stroke-linejoin="mitter"
         d="m 57.92,102.875 2.175,-0.08" />
      <path
         style="fill:none;stroke:#000000;stroke-width:3;stroke-linecap:butt;stroke-opacity:1"
         id="path117"
         stroke-linejoin="mitter"
         d="m 335.822,204.367 4.248,-3.611 6.709,-5.702 0.266,-0.296 6.691,-7.432 6.691,-7.433 5.162,-5.734 0.993,-2.07 1.073,-9.943 0.281,-2.598 0.114,-1.423 0.613,-7.597 0.206,-2.564 0.147,-1.819 5.463,4.286" />
      <path
         style="fill:none;stroke:#000000;stroke-width:3;stroke-linecap:butt;stroke-opacity:1"
         id="path119"
         stroke-linejoin="mitter"
         d="m 368.663,150.528 3.417,-0.057 -3.211,-2.507" />
      <path
         style="fill:none;stroke:#000000;stroke-width:3;stroke-linecap:butt;stroke-opacity:1"
         id="path121"
         stroke-linejoin="mitter"
         d="m 315.349,93.464 -7.795,-6.264 -1.853,-1.489 0.438,-4.795 6.53,-6.009 9.375,-3.479 0.789,-0.293" />
      <path
         style="fill:none;stroke:#000000;stroke-width:3;stroke-linecap:butt;stroke-opacity:1"
         id="path123"
         stroke-linejoin="mitter"
         d="m 351.979,132.786 -7.867,-6.174 -7.867,-6.173 -7.867,-6.174 -7.866,-6.173 -6.049,-4.746" />
      <path
         style="fill:none;stroke:#000000;stroke-width:3;stroke-linecap:butt;stroke-opacity:1"
         id="path125"
         stroke-linejoin="mitter"
         d="m 311.848,103.433 2.615,-0.087 0.886,-9.882 -2.612,0.096" />
      <path
         style="fill:none;stroke:#000000;stroke-width:3;stroke-linecap:butt;stroke-opacity:1"
         id="path127"
         stroke-linejoin="mitter"
         d="m 332.191,173.292 7.741,-6.329 0.138,-0.113 7.742,-6.329 0.826,-0.676 0.368,-0.662 0.533,-0.961 0.524,-2.486 0.41,-4.905 0.432,-5.181 0.71,-8.5 0.208,-2.493 0.156,-1.871 -2.482,0.056 -0.338,4.03 -0.195,2.33 -0.365,4.346 -0.11,1.322 -0.03,0.351 -0.04,0.475 -0.434,5.176 -0.411,4.901 -0.526,2.485 -0.904,1.621 -6.074,4.945 -7.756,6.313 -2.676,2.179" />
      <path
         style="fill:none;stroke:#000000;stroke-width:3;stroke-linecap:butt;stroke-opacity:1"
         id="path129"
         stroke-linejoin="mitter"
         d="m 329.584,175.423 -2.155,0.018 -0.23,0.002 -0.177,0.002 0.109,-0.088 0.141,-0.116 0.711,-0.578" />
      <path
         style="fill:none;stroke:#000000;stroke-width:3;stroke-linecap:butt;stroke-opacity:1"
         id="path131"
         stroke-linejoin="mitter"
         d="m 319.744,192.114 -0.001,0.181 0.852,6.101 1.371,3.94 0.279,0.804 2.186,2.662 1.302,0.107 1.08,0.089 7.426,0.015 1.583,-1.646 0.608,-0.633 1.173,-3.027 0.525,-1.357 0.958,-5.822 0.079,-6.39 -0.812,-6.016 -1.584,-4.745 -2.127,-2.757 -2.354,-0.328 h -0.097 l -2.553,0.024 -4.796,0.043 -0.178,0.172 -2.068,2 -0.633,1.545 -1.132,2.765 -1.005,5.893 -0.005,0.278" />
      <path
         style="fill:none;stroke:#000000;stroke-width:3;stroke-linecap:butt;stroke-opacity:1"
         id="path133"
         stroke-linejoin="mitter"
         d="m 334.239,206.013 -0.322,-0.027 -2.035,-0.169 -0.662,-0.817 -1.502,-1.852 -1.633,-4.756 -0.843,-6.116 0.082,-6.578 0.626,-3.72 0.368,-2.189 1.747,-4.32 2.223,-2.177" />
      <path
         style="fill:none;stroke:#000000;stroke-width:3;stroke-linecap:butt;stroke-opacity:1"
         id="path135"
         stroke-linejoin="mitter"
         d="m 319.826,185.734 -0.003,0.266 -0.078,6.127 -0.002,0.168" />
      <path
         style="fill:none;stroke:#000000;stroke-width:3;stroke-linecap:butt;stroke-opacity:1"
         id="path137"
         stroke-linejoin="mitter"
         d="m 319.821,186.012 -0.077,6.102" />
      <path
         style="fill:none;stroke:#000000;stroke-width:3;stroke-linecap:butt;stroke-opacity:1"
         id="path139"
         stroke-linejoin="mitter"
         d="m 324.664,173.531 -0.956,-0.131 -6.502,0.059 -2.265,2.163" />
      <path
         style="fill:none;stroke:#000000;stroke-width:3;stroke-linecap:butt;stroke-opacity:1"
         id="path141"
         stroke-linejoin="mitter"
         d="m 312.064,192.311 0.86,6.073 1.664,4.722 2.205,2.651 2.402,0.195 6.484,0.013 0.054,-0.056" />
      <path
         style="fill:none;stroke:#000000;stroke-width:3;stroke-linecap:butt;stroke-opacity:1"
         id="path143"
         stroke-linejoin="mitter"
         d="m 333.276,198.201 -0.844,-0.034 -0.765,-0.863 -0.724,-1.989 -0.457,-3.251 0.082,-4.005 0.654,-3.549 1.001,-2.345 1.032,-1.003 0.842,0.06" />
      <path
         style="fill:none;stroke:#000000;stroke-width:3;stroke-linecap:butt;stroke-opacity:1"
         id="path145"
         stroke-linejoin="mitter"
         d="m 333.276,198.201 0.741,-0.49 0.952,-0.954 0.943,-2.27 0.613,-3.365 0.074,-3.669 -0.422,-3.043 -0.673,-1.878 -0.714,-0.83 -0.693,-0.48" />
      <path
         style="fill:none;stroke:#000000;stroke-width:3;stroke-linecap:butt;stroke-opacity:1"
         id="path147"
         stroke-linejoin="mitter"
         d="m 334.017,197.711 -0.241,-0.011 -0.554,-0.023 -0.72,-0.813 -0.681,-1.876 -0.43,-3.064 0.077,-3.775 0.615,-3.345 0.943,-2.211 0.971,-0.946 0.496,0.035 0.297,0.02" />
      <path
         style="fill:none;stroke:#000000;stroke-width:3;stroke-linecap:butt;stroke-opacity:1"
         id="path149"
         stroke-linejoin="mitter"
         d="m 325.679,205.965 -2.381,-0.195 -2.186,-2.657 -1.649,-4.733 -0.852,-6.086 0.083,-6.547 1.004,-5.88 1.765,-4.3 2.245,-2.167" />
      <path
         style="fill:none;stroke:#000000;stroke-width:3;stroke-linecap:butt;stroke-opacity:1"
         id="path151"
         stroke-linejoin="mitter"
         d="m 314.941,175.622 -1.78,4.29 -1.013,5.867 -0.084,6.532" />
      <path
         style="fill:none;stroke:#000000;stroke-width:3;stroke-linecap:butt;stroke-opacity:1"
         id="path153"
         stroke-linejoin="mitter"
         d="m 275.014,342.23 -1.024,-0.277 -2.353,1.691 -1.632,3.067 -0.377,0.71 -1.35,5.297 -0.349,4.416 -0.126,1.582 0.475,5.762 1.35,4.627 2.009,2.78 2.233,0.516 0.462,-0.336" />
      <path
         style="fill:none;stroke:#000000;stroke-width:3;stroke-linecap:butt;stroke-opacity:1"
         id="path155"
         stroke-linejoin="mitter"
         d="m 272.698,369.936 -0.551,-0.13 -1.721,-2.39 -1.155,-3.97 -0.407,-4.94 0.104,-1.315 0.303,-3.827 0.734,-2.889 0.421,-1.654 1.721,-3.245 1.797,-1.297" />
      <path
         style="fill:none;stroke:#000000;stroke-width:3;stroke-linecap:butt;stroke-opacity:1"
         id="path157"
         stroke-linejoin="mitter"
         d="m 273.99,341.953 -2.479,-0.123 -1.506,1.078 -0.854,0.611 -0.518,0.97 -1.497,2.804 -1.068,4.173 -0.286,1.119 -0.066,0.827 -0.41,5.165 0.476,5.757 1.354,4.624 2.015,2.778 2.24,0.516 2.479,0.149" />
      <path
         style="fill:none;stroke:#000000;stroke-width:3;stroke-linecap:butt;stroke-opacity:1"
         id="path159"
         stroke-linejoin="mitter"
         d="m 275.03,343.183 -0.448,0.323 -0.37,0.267 -0.268,0.506 -1.734,3.275 -1.345,5.302 -0.474,6.003 0.474,5.767 1.345,4.631 0.488,0.679 0.649,0.902 0.865,1.202 0.12,0.025 2.347,0.505 2.488,0.149 2.2,-1.802 1.955,-3.818 1.292,-5.307 0.455,-5.9 -0.448,-5.617 -1.299,-4.602 -0.072,-0.105" />
      <path
         style="fill:none;stroke:#000000;stroke-width:3;stroke-linecap:butt;stroke-opacity:1"
         id="path161"
         stroke-linejoin="mitter"
         d="m 275.262,346.637 -0.551,1.046 -1.341,5.306 -0.473,6.009 0.473,5.772 1.341,4.635 0.176,0.246 0.339,0.472 0.151,0.21 0.459,0.641 0.871,1.215 2.46,0.53" />
      <path
         style="fill:none;stroke:#000000;stroke-width:3;stroke-linecap:butt;stroke-opacity:1"
         id="path163"
         stroke-linejoin="mitter"
         d="m 276.372,338.683 -6.367,-0.307 -1.023,-0.05 -1.813,-0.087 -5.539,-0.268 0.007,0.555 0.098,7.062 3.981,7.824" />
      <path
         style="fill:none;stroke:#000000;stroke-width:3;stroke-linecap:butt;stroke-opacity:1"
         id="path165"
         stroke-linejoin="mitter"
         d="m 263.014,339.136 5.619,0.273 0.349,0.017 1.023,0.05 4.97,0.242 0.039,2.512 0.016,0.953 0.015,0.98 v 0.008 l 0.003,0.183 0.013,0.834 0.017,1.08 0.184,0.369 1.929,3.867 2.104,4.22 0.727,1.459 0.827,1.66 0.578,0.031 0.81,0.045 0.2,-0.051 0.813,-0.205 v -10 -2.095 -8.195 -0.201" />
      <path
         style="fill:none;stroke:#000000;stroke-width:3;stroke-linecap:butt;stroke-opacity:1"
         id="path167"
         stroke-linejoin="mitter"
         d="m 263.119,345.659 -0.105,-6.523" />
      <path
         style="fill:none;stroke:#000000;stroke-width:3;stroke-linecap:butt;stroke-opacity:1"
         id="path169"
         stroke-linejoin="mitter"
         d="m 261.735,345.588 1.384,0.071 2.949,5.807" />
      <path
         style="fill:none;stroke:#000000;stroke-width:3;stroke-linecap:butt;stroke-opacity:1"
         id="path171"
         stroke-linejoin="mitter"
         d="m 283.25,337.172 -6.878,1.511 0.003,0.203 0.044,3.294 0.008,0.549 0.031,2.337 0.017,1.273" />
      <path
         style="fill:none;stroke:#000000;stroke-width:3;stroke-linecap:butt;stroke-opacity:1"
         id="path173"
         stroke-linejoin="mitter"
         d="m 282.237,357.919 -2.377,-4.776 -0.837,-1.684 -2.548,-5.12 -1.397,-0.071" />
      <path
         style="fill:none;stroke:#000000;stroke-width:3;stroke-linecap:butt;stroke-opacity:1"
         id="path175"
         stroke-linejoin="mitter"
         d="m 80.827,333.143 -1.599,0.863 -0.385,0.553 -2.055,2.942 -1.639,4.92 -0.206,1.988 -0.371,3.598 0.577,5.381 1.639,4.337 2.44,2.628 2.756,0.521 0.402,-0.221" />
      <path
         style="fill:none;stroke:#000000;stroke-width:3;stroke-linecap:butt;stroke-opacity:1"
         id="path177"
         stroke-linejoin="mitter"
         d="m 78.872,357.429 -1.176,-1.269 -1.403,-3.722 -0.494,-4.613 0.188,-1.824 0.306,-2.965 1.403,-4.221 1.147,-1.645 0.945,-1.356 0.806,-0.437" />
      <path
         style="fill:none;stroke:#000000;stroke-width:3;stroke-linecap:butt;stroke-opacity:1"
         id="path179"
         stroke-linejoin="mitter"
         d="m 80.811,332.399 -0.881,-0.044 -1.087,0.586 -1.196,0.643 -0.582,0.314 -2.446,3.492 -1.052,3.15 -0.391,1.172 -0.198,0.593 -0.578,5.582 0.578,5.376 1.641,4.334 2.446,2.626 2.76,0.522 2.159,0.129" />
      <path
         style="fill:none;stroke:#000000;stroke-width:3;stroke-linecap:butt;stroke-opacity:1"
         id="path181"
         stroke-linejoin="mitter"
         d="m 80.865,334.987 -0.271,0.39 -1.56,2.24 -0.191,0.574 -1.196,3.6 -0.249,0.75 -0.343,3.328 -0.067,0.652 -0.014,0.136 -0.152,1.475 0.576,5.385 1.474,3.912 0.162,0.429 2.039,2.201 0.397,0.428 0.916,0.166 2.044,0.368 2.166,0.13 2.725,-1.641 2.384,-3.531 1.579,-4.933 0.556,-5.501 -0.549,-5.251 -1.586,-4.315 -1.329,-1.493" />
      <path
         style="fill:none;stroke:#000000;stroke-width:3;stroke-linecap:butt;stroke-opacity:1"
         id="path183"
         stroke-linejoin="mitter"
         d="m 81.499,337.311 -0.29,0.418 -1.633,4.928 -0.575,5.596 0.575,5.389 1.627,4.33 0.006,0.014 2.029,2.196 0.403,0.435 2.955,0.534" />
      <path
         style="fill:none;stroke:#000000;stroke-width:3;stroke-linecap:butt;stroke-opacity:1"
         id="path185"
         stroke-linejoin="mitter"
         d="m 82.108,336.437 -0.013,-0.728 -0.034,-1.911 -0.023,-1.339 -0.047,-2.641 -0.009,-0.52 -3.139,-0.152 -3.286,-0.158 -0.154,-0.008 -2.323,-0.112 -3.917,-0.189" />
      <path
         style="fill:none;stroke:#000000;stroke-width:3;stroke-linecap:butt;stroke-opacity:1"
         id="path187"
         stroke-linejoin="mitter"
         d="m 72.075,328.232 -2.912,0.447 0.128,7.105 3.885,5.928" />
      <path
         style="fill:none;stroke:#000000;stroke-width:3;stroke-linecap:butt;stroke-opacity:1"
         id="path189"
         stroke-linejoin="mitter"
         d="m 70.367,329.761 5.19,0.252 2.09,0.102 1.196,0.058 1.924,0.094 0.044,2.132 0.003,0.149 0.013,0.595 0.038,1.844 0.005,0.24 0.024,1.148 0.243,0.377 0.362,0.559 5.43,8.398 0.304,0.469 0.698,1.08 0.48,0.027 0.727,0.04 0.138,-0.025 1.071,-0.193 0.029,-0.005 v -0.279 -2.394 -6.315 -3.628 -4.261" />
      <path
         style="fill:none;stroke:#000000;stroke-width:3;stroke-linecap:butt;stroke-opacity:1"
         id="path191"
         stroke-linejoin="mitter"
         d="m 70.495,335.846 -0.128,-6.085" />
      <path
         style="fill:none;stroke:#000000;stroke-width:3;stroke-linecap:butt;stroke-opacity:1"
         id="path193"
         stroke-linejoin="mitter"
         d="m 69.291,335.784 1.204,0.062 3.072,4.694" />
      <path
         style="fill:none;stroke:#000000;stroke-width:3;stroke-linecap:butt;stroke-opacity:1"
         id="path195"
         stroke-linejoin="mitter"
         d="m 89.138,347.325 -0.631,-0.978 -5.425,-8.401 -0.974,-1.509 -0.726,-0.037 -0.488,-0.025" />
      <path
         style="fill:none;stroke:#000000;stroke-width:3;stroke-linecap:butt;stroke-opacity:1"
         id="path197"
         stroke-linejoin="mitter"
         d="m 78.843,332.941 v -2.768" />
      <path
         style="fill:none;stroke:#000000;stroke-width:3;stroke-linecap:butt;stroke-opacity:1"
         id="path199"
         stroke-linejoin="mitter"
         d="m 270.005,342.908 v -3.432" />
      <path
         style="fill:none;stroke:#000000;stroke-width:3;stroke-linecap:butt;stroke-opacity:1"
         id="path201"
         stroke-linejoin="mitter"
         d="m 322.166,331.321 v -2.512" />
      <path
         style="fill:none;stroke:#000000;stroke-width:3;stroke-linecap:butt;stroke-opacity:1"
         id="path203"
         stroke-linejoin="mitter"
         d="m 326.193,332.301 -0.078,-0.004" />
      <path
         style="fill:none;stroke:#000000;stroke-width:3;stroke-linecap:butt;stroke-opacity:1"
         id="path205"
         stroke-linejoin="mitter"
         d="m 283.25,337.373 9.766,-2.149 9.767,-2.15 9.766,-2.149 2.483,-0.546 1.282,-0.282 4.569,-1.006 1.283,-0.282 3.464,-0.762" />
    </g>
  </g>
</svg>
