<?xml version="1.0" encoding="UTF-8" standalone="no"?>
<svg
   xmlns:dc="http://purl.org/dc/elements/1.1/"
   xmlns:cc="http://creativecommons.org/ns#"
   xmlns:rdf="http://www.w3.org/1999/02/22-rdf-syntax-ns#"
   xmlns:svg="http://www.w3.org/2000/svg"
   xmlns="http://www.w3.org/2000/svg"
   id="svg217"
   width="400"
   version="1.1"
   height="400">
  <metadata
     id="metadata223">
    <rdf:RDF>
      <cc:Work
         rdf:about="">
        <dc:format>image/svg+xml</dc:format>
        <dc:type
           rdf:resource="http://purl.org/dc/dcmitype/StillImage" />
        <dc:title></dc:title>
      </cc:Work>
    </rdf:RDF>
  </metadata>
  <defs
     id="defs221" />
  <g
     id="RenderLayer_LineSet">
    <g
       id="fills">
      <path
         style="fill:#ffd42a"
         id="path2"
         stroke="none"
         fill_rule="evenodd"
         fill-opacity="1.0"
         fill="rgb(204, 204, 204)"
         d=" M 90.376, 334.486 90.376, 330.225  z" />
      <path
         style="fill:#ffd42a"
         id="path4"
         stroke="none"
         fill_rule="evenodd"
         fill-opacity="1.0"
         fill="rgb(204, 204, 204)"
         d=" M 80.811, 332.399 79.930, 332.355 78.843, 332.941  z" />
      <path
         style="fill:#ffd42a"
         id="path6"
         stroke="none"
         fill_rule="evenodd"
         fill-opacity="1.0"
         fill="rgb(204, 204, 204)"
         d=" M 314.941, 175.622 313.161, 179.912 312.148, 185.779 312.064, 192.311  z" />
      <path
         style="fill:#ffd42a"
         id="path8"
         stroke="none"
         fill_rule="evenodd"
         fill-opacity="1.0"
         fill="rgb(204, 204, 204)"
         d=" M 372.080, 150.471 368.869, 147.964  z" />
      <path
         style="fill:#ffd42a"
         id="path10"
         stroke="none"
         fill_rule="evenodd"
         fill-opacity="1.0"
         fill="rgb(204, 204, 204)"
         d=" M 349.497, 132.842 311.848, 103.433 312.737, 93.560 180.681, 98.387 108.537, 101.024 60.095, 102.795 58.938, 111.822 102.783, 135.429  z" />
      <path
         style="fill:#ffd42a;fill-opacity:1;stroke:none"
         id="path12"
         fill_rule="evenodd"
         d="m 100.376,338.225 47.157,2.286 -0.374,3.907 0.492,4.968 1.397,4.02 2.082,2.456 2.342,0.522 2.04,0.11 0.457,-0.265 1.855,0.39 2.046,0.111 2.312,-1.475 2.032,-3.227 1.346,-4.535 0.474,-5.073 -0.098,-1.017 15.26,0.739 90.441,4.384 0.098,7.062 3.981,7.824 -0.41,5.165 0.476,5.757 1.354,4.624 2.015,2.778 2.24,0.516 2.479,0.149 0.462,-0.336 2.347,0.505 2.488,0.149 2.2,-1.802 1.955,-3.818 1.292,-5.307 0.455,-5.9 -0.448,-5.617 -1.299,-4.602 -0.072,-0.105 v -8.195 l 31.782,-6.994 0.041,3.184 3.631,7.852 -0.296,4.049 0.401,5.291 1.139,4.268 1.697,2.59 1.876,0.522 2.317,0.126 0.529,-0.404 0.008,0.012 2.089,0.534 2.324,0.126 1.844,-1.606 1.648,-3.466 1.089,-4.849 0.384,-5.41 -0.377,-5.168 -0.832,-3.226 V 333.9 l -0.648,-0.028 6.073,-2.695 7.076,-128.419 18.544,-20.599 0.993,-2.07 1.354,-12.541 0.114,-1.423 0.613,-7.597 3.417,-0.057 2.399,-0.04 -2.009,-10.768 -5.51,-19.63 -6.901,-17.178 -8.117,-14.067 -9.107,-10.331 -9.817,-6.037 -10.185,-1.285 -2.587,0.114 -130.8,5.77 -119.57,5.274 -2.158,0.095 -13.303,3.616 -8.525,5.581 -0.57,4.372 12.6,6.918 -1.159,9.019 43.924,23.586 -54.268,1.298 -3.888,0.131 -2.054,0.152 v 6.644 l -0.291,0.01 0.61,0.177 15.943,1.032 10.59,180.305 4.748,3.003 z m 233.258,-0.019 -1.468,1.115 v -2.512 l 3.464,-0.762 1.82,0.079 0.039,2.667 -1.538,-0.483 z m -52.123,11.624 -1.506,1.078 v -3.432 l 4.97,0.242 0.039,2.512 -1.024,-0.277 z m -198.335,-0.118 -0.198,0.593 -0.578,5.582 0.578,5.376 1.641,4.334 2.446,2.626 2.76,0.522 2.159,0.129 0.402,-0.221 2.044,0.368 2.166,0.13 2.725,-1.641 2.384,-3.531 1.579,-4.933 0.556,-5.501 -0.549,-5.251 -1.586,-4.315 -1.329,-1.493 z m -1.101,-13.48 -2.912,0.447 0.128,7.105 3.885,5.928 z m 6.768,4.709 v -2.768 l 1.924,0.094 0.044,2.132 z" />
      <path
         style="fill:#ffd42a"
         id="path14"
         stroke="none"
         fill_rule="evenodd"
         fill-opacity="1.0"
         fill="rgb(204, 204, 204)"
         d=" M 90.396, 178.077 90.396, 178.133 90.396, 200.669 90.396, 201.922 90.396, 203.067 90.396, 203.911 90.396, 204.253 90.396, 204.577 90.396, 205.476 90.397, 225.671 95.761, 225.722 95.761, 208.796 96.266, 209.032 96.756, 209.245 97.232, 209.435 97.695, 209.604 98.150, 209.751 98.595, 209.877 99.035, 209.983 99.471, 210.069 99.904, 210.135 100.337, 210.182 100.771, 210.211 101.208, 210.221 103.176, 210.092 105.038, 209.696 106.783, 209.047 108.397, 208.158 109.868, 207.042 111.183, 205.712 112.330, 204.182 113.297, 202.465 114.070, 200.575 114.638, 198.525 114.987, 196.331 115.106, 194.004 114.993, 191.488 114.656, 189.176 114.098, 187.072 113.633, 185.940 113.322, 185.179 113.082, 184.773 112.331, 183.501 111.130, 182.040 109.721, 180.800 108.108, 179.783 106.295, 178.992 104.285, 178.430 102.084, 178.099 99.693, 178.001 97.630, 178.018 92.144, 178.063 91.223, 178.071 90.396, 178.077  z" />
      <path
         style="fill:#ffd42a"
         id="path16"
         stroke="none"
         fill_rule="evenodd"
         fill-opacity="1.0"
         fill="rgb(204, 204, 204)"
         d=" M 126.798, 161.227 121.309, 161.305 121.309, 178.429 121.309, 180.005 121.309, 209.659 126.798, 209.679 126.798, 175.344 126.798, 165.671 126.798, 161.227  z" />
      <path
         style="fill:#ffd42a"
         id="path18"
         stroke="none"
         fill_rule="evenodd"
         fill-opacity="1.0"
         fill="rgb(204, 204, 204)"
         d=" M 143.670, 177.068 143.001, 177.041 142.274, 177.011 141.279, 177.049 140.327, 177.147 139.415, 177.304 138.545, 177.520 137.715, 177.797 136.924, 178.134 136.174, 178.532 135.462, 178.990 134.788, 179.509 134.152, 180.088 133.554, 180.730 132.992, 181.432 132.992, 188.339 133.668, 187.470 134.361, 186.681 135.070, 185.973 135.791, 185.344 136.524, 184.793 137.267, 184.318 138.018, 183.919 138.776, 183.594 139.538, 183.343 140.303, 183.163 141.070, 183.054 141.836, 183.015 142.645, 183.045 143.001, 183.094 143.384, 183.146 144.052, 183.321 144.651, 183.572 145.179, 183.903 145.638, 184.315 146.025, 184.811 146.343, 185.394 146.590, 186.065 146.766, 186.828 146.872, 187.685 146.907, 188.638 146.907, 190.355 143.001, 191.949 141.961, 192.373 140.828, 192.844 139.693, 193.333 138.573, 193.855 137.490, 194.425 136.462, 195.057 135.509, 195.767 134.649, 196.571 133.903, 197.482 133.289, 198.516 132.827, 199.688 132.535, 201.014 132.433, 202.509 132.490, 203.530 132.655, 204.523 132.924, 205.475 133.293, 206.376 133.757, 207.214 134.312, 207.978 134.952, 208.657 135.673, 209.238 136.471, 209.711 137.341, 210.064 138.277, 210.286 139.277, 210.366 139.916, 210.346 140.555, 210.281 141.194, 210.171 141.832, 210.016 142.468, 209.814 143.001, 209.607 143.102, 209.567 143.734, 209.274 144.364, 208.934 144.990, 208.547 145.612, 208.113 146.230, 207.631 146.844, 207.102 146.987, 207.649 147.165, 208.142 147.378, 208.584 147.630, 208.976 147.919, 209.318 148.248, 209.612 148.618, 209.858 149.029, 210.058 149.484, 210.212 149.982, 210.321 150.526, 210.387 151.115, 210.411 151.543, 210.400 151.949, 210.362 152.342, 210.295 152.729, 210.196 153.118, 210.062 153.516, 209.891 153.932, 209.679 154.372, 209.424 154.845, 209.123 155.358, 208.773 155.919, 208.372 156.536, 207.917 156.536, 204.039 156.224, 204.299 155.918, 204.540 155.620, 204.761 155.332, 204.963 155.056, 205.143 154.793, 205.302 154.544, 205.438 154.311, 205.551 154.096, 205.640 153.900, 205.704 153.725, 205.744 153.571, 205.757 153.404, 205.747 153.251, 205.718 153.111, 205.669 152.985, 205.599 152.873, 205.505 152.776, 205.387 152.692, 205.244 152.624, 205.075 152.570, 204.877 152.531, 204.650 152.508, 204.393 152.500, 204.105 152.500, 187.539 152.408, 185.794 152.138, 184.215 151.702, 182.799 151.113, 181.545 150.382, 180.450 149.520, 179.511 148.540, 178.726 147.453, 178.091 146.271, 177.606 145.006, 177.265 143.670, 177.068  z" />
      <path
         style="fill:#ffd42a"
         id="path20"
         stroke="none"
         fill_rule="evenodd"
         fill-opacity="1.0"
         fill="rgb(204, 204, 204)"
         d=" M 170.407, 176.793 169.736, 176.780 168.346, 176.860 167.047, 177.074 165.846, 177.416 164.748, 177.884 163.758, 178.472 162.883, 179.177 162.126, 179.995 161.495, 180.921 160.994, 181.952 160.630, 183.084 160.407, 184.312 160.331, 185.633 160.593, 187.681 161.317, 189.492 162.411, 191.098 163.784, 192.528 165.343, 193.812 166.997, 194.980 168.653, 196.060 170.218, 197.082 171.599, 198.075 172.701, 199.069 173.431, 200.092 173.695, 201.174 173.656, 201.729 173.543, 202.239 173.360, 202.704 173.113, 203.124 172.808, 203.499 172.449, 203.828 172.043, 204.112 171.594, 204.350 171.108, 204.543 170.590, 204.691 170.046, 204.794 169.481, 204.852 168.885, 204.822 168.247, 204.735 167.570, 204.589 166.856, 204.385 166.107, 204.122 165.328, 203.800 164.519, 203.417 163.685, 202.975 162.827, 202.471 161.949, 201.907 161.053, 201.281 160.141, 200.592 160.141, 207.496 161.041, 208.010 161.907, 208.469 162.747, 208.876 163.565, 209.231 164.368, 209.538 165.161, 209.797 165.950, 210.012 166.743, 210.184 167.543, 210.315 168.358, 210.407 169.193, 210.462 170.055, 210.482 171.380, 210.409 172.639, 210.182 173.822, 209.809 174.920, 209.296 175.924, 208.649 176.824, 207.876 177.612, 206.983 178.277, 205.977 178.810, 204.865 179.202, 203.653 179.444, 202.349 179.527, 200.959 179.490, 200.147 179.377, 199.373 179.182, 198.627 178.902, 197.902 178.531, 197.189 178.067, 196.480 177.504, 195.767 176.837, 195.041 176.064, 194.295 175.178, 193.521 174.177, 192.709 173.056, 191.853 171.859, 191.058 170.789, 190.325 169.841, 189.650 169.011, 189.027 168.296, 188.452 167.689, 187.921 167.188, 187.428 166.787, 186.969 166.483, 186.541 166.271, 186.137 166.147, 185.754 166.106, 185.387 166.137, 184.965 166.225, 184.567 166.371, 184.194 166.571, 183.849 166.822, 183.536 167.124, 183.255 167.474, 183.010 167.869, 182.803 168.308, 182.637 168.788, 182.514 169.308, 182.437 169.864, 182.408 170.408, 182.426 170.988, 182.487 171.600, 182.592 172.242, 182.744 172.912, 182.942 173.608, 183.188 174.326, 183.485 175.065, 183.832 175.822, 184.232 176.595, 184.685 177.382, 185.193 178.179, 185.757 178.179, 179.388 177.431, 178.960 176.693, 178.572 175.964, 178.223 175.245, 177.912 174.534, 177.640 173.831, 177.405 173.135, 177.208 172.445, 177.049 171.761, 176.927 171.082, 176.841 170.407, 176.793  z" />
      <path
         style="fill:#ffd42a"
         id="path22"
         stroke="none"
         fill_rule="evenodd"
         fill-opacity="1.0"
         fill="rgb(204, 204, 204)"
         d=" M 192.884, 177.241 192.884, 170.473 182.098, 182.403 182.098, 183.128 187.126, 183.097 187.125, 200.308 187.191, 201.745 187.389, 203.109 187.718, 204.390 188.178, 205.579 188.770, 206.665 189.492, 207.640 190.346, 208.492 191.331, 209.213 192.448, 209.793 193.695, 210.221 195.074, 210.488 196.585, 210.583 197.081, 210.565 197.620, 210.511 198.195, 210.422 198.797, 210.300 199.418, 210.147 200.051, 209.967 200.686, 209.760 201.317, 209.530 201.934, 209.279 202.530, 209.008 203.096, 208.720 203.624, 208.418 203.624, 202.355 203.040, 202.739 202.464, 203.090 201.895, 203.408 201.334, 203.691 200.779, 203.941 200.230, 204.158 199.687, 204.341 199.149, 204.491 198.616, 204.607 198.087, 204.689 197.562, 204.739 197.040, 204.754 196.603, 204.730 196.145, 204.654 195.677, 204.521 195.211, 204.325 194.757, 204.061 194.328, 203.721 193.933, 203.302 193.586, 202.797 193.296, 202.200 193.074, 201.505 192.934, 200.707 192.884, 199.799 192.884, 183.063 202.122, 183.006 202.122, 177.165 192.884, 177.241  z" />
      <path
         style="fill:#ffd42a"
         id="path24"
         stroke="none"
         fill_rule="evenodd"
         fill-opacity="1.0"
         fill="rgb(204, 204, 204)"
         d=" M 213.788, 177.070 207.943, 177.118 207.943, 209.967 213.788, 209.988 213.788, 177.070  z" />
      <path
         style="fill:#ffd42a"
         id="path26"
         stroke="none"
         fill_rule="evenodd"
         fill-opacity="1.0"
         fill="rgb(204, 204, 204)"
         d=" M 211.364, 163.281 210.895, 163.252 210.426, 163.294 209.976, 163.404 209.548, 163.577 209.147, 163.808 208.777, 164.094 208.442, 164.427 208.147, 164.804 207.896, 165.220 207.694, 165.670 207.544, 166.149 207.450, 166.652 207.418, 167.174 207.450, 167.695 207.544, 168.196 207.694, 168.672 207.896, 169.117 208.147, 169.527 208.442, 169.897 208.777, 170.223 209.147, 170.499 209.548, 170.721 209.976, 170.884 210.426, 170.984 210.895, 171.015 211.364, 170.974 211.814, 170.865 212.243, 170.693 212.645, 170.462 213.016, 170.178 213.352, 169.844 213.648, 169.467 213.900, 169.050 214.104, 168.600 214.254, 168.120 214.348, 167.616 214.380, 167.092 214.348, 166.570 214.254, 166.068 214.104, 165.591 213.900, 165.146 213.648, 164.735 213.352, 164.365 213.016, 164.039 212.645, 163.763 212.243, 163.542 211.814, 163.380 211.364, 163.281  z" />
      <path
         style="fill:#ffd42a"
         id="path28"
         stroke="none"
         fill_rule="evenodd"
         fill-opacity="1.0"
         fill="rgb(204, 204, 204)"
         d=" M 236.388, 176.239 235.542, 176.228 233.342, 176.389 231.293, 176.827 229.402, 177.532 227.677, 178.493 226.126, 179.699 224.756, 181.139 223.575, 182.804 222.590, 184.682 221.811, 186.765 221.244, 189.042 220.899, 191.502 220.781, 194.138 220.909, 196.501 221.283, 198.731 221.892, 200.815 222.723, 202.739 223.764, 204.490 225.004, 206.053 226.431, 207.417 228.032, 208.565 229.795, 209.485 231.710, 210.163 233.763, 210.583 235.943, 210.732 236.741, 210.717 237.559, 210.668 238.388, 210.587 239.220, 210.476 240.046, 210.339 240.857, 210.177 241.645, 209.994 242.401, 209.791 243.116, 209.572 243.781, 209.338 244.389, 209.093 244.930, 208.839 244.930, 202.316 244.186, 202.670 243.464, 202.994 242.763, 203.286 242.080, 203.548 241.412, 203.778 240.756, 203.978 240.111, 204.146 239.473, 204.284 238.841, 204.391 238.210, 204.467 237.579, 204.512 236.946, 204.527 235.454, 204.439 234.059, 204.184 232.767, 203.767 231.584, 203.193 230.517, 202.467 229.573, 201.594 228.756, 200.578 228.073, 199.425 227.532, 198.140 227.137, 196.727 226.895, 195.191 226.813, 193.536 226.890, 191.908 227.114, 190.378 227.479, 188.956 227.977, 187.649 228.603, 186.465 229.348, 185.412 230.206, 184.497 231.170, 183.729 232.232, 183.115 233.386, 182.664 234.626, 182.384 235.943, 182.283 236.589, 182.295 237.226, 182.342 237.860, 182.426 238.496, 182.552 239.138, 182.724 239.792, 182.944 240.464, 183.216 241.157, 183.545 241.878, 183.933 242.632, 184.385 243.423, 184.903 244.257, 185.492 244.257, 178.452 243.545, 178.116 242.849, 177.804 242.165, 177.515 241.485, 177.253 240.806, 177.017 240.119, 176.809 239.421, 176.631 238.704, 176.483 237.964, 176.368 237.194, 176.286 236.388, 176.239 145.731, 194.331 146.907, 193.862 146.907, 203.238 146.528, 203.635 146.144, 204.004 145.755, 204.344 145.361, 204.653 144.962, 204.930 144.557, 205.175 144.148, 205.384 143.733, 205.559 143.313, 205.696 143.001, 205.769 142.889, 205.795 142.459, 205.856 142.024, 205.875 141.459, 205.836 140.925, 205.723 140.424, 205.540 139.961, 205.292 139.538, 204.981 139.160, 204.611 138.830, 204.187 138.552, 203.711 138.329, 203.189 138.165, 202.622 138.064, 202.015 138.030, 201.372 138.114, 200.466 138.357, 199.634 138.747, 198.868 139.272, 198.161 139.921, 197.508 140.681, 196.902 141.540, 196.335 142.487, 195.801 143.001, 195.546 143.509, 195.294 144.594, 194.806 145.731, 194.331 95.761, 183.652 100.200, 183.625 100.663, 183.623 102.073, 183.693 103.363, 183.918 104.532, 184.296 105.579, 184.822 106.505, 185.494 107.309, 186.307 107.990, 187.257 108.521, 188.290 108.548, 188.342 108.977, 189.540 108.983, 189.557 109.293, 190.898 109.480, 192.363 109.542, 193.946 109.467, 195.446 109.248, 196.868 108.891, 198.203 108.406, 199.439 107.800, 200.567 107.081, 201.577 106.257, 202.459 105.336, 203.202 104.326, 203.796 103.236, 204.232 102.073, 204.501 100.844, 204.591 100.419, 204.580 99.992, 204.548 99.563, 204.497 99.134, 204.426 98.706, 204.336 98.278, 204.226 97.851, 204.097 97.427, 203.950 97.005, 203.784 96.994, 203.779 96.586, 203.599 96.171, 203.397 95.761, 203.177 95.761, 198.748 95.761, 197.503 95.761, 183.652  z" />
    </g>
    <g
       style="display:inline"
       id="strokes">
      <path
         style="fill:none;stroke:#000000;stroke-width:3;stroke-linecap:butt;stroke-opacity:1"
         id="path31"
         stroke-linejoin="mitter"
         d="m 236.388,176.239 -0.846,-0.011 -2.2,0.161 -2.049,0.438 -1.891,0.705 -1.725,0.961 -1.551,1.206 -1.37,1.44 -1.181,1.665 -0.985,1.878 -0.779,2.083 -0.567,2.277 -0.345,2.46 -0.118,2.636 0.128,2.363 0.374,2.23 0.609,2.084 0.831,1.924 1.041,1.751 1.24,1.563 1.427,1.364 1.601,1.148 1.763,0.92 1.915,0.678 2.053,0.42 2.18,0.149 0.798,-0.015 0.818,-0.049 0.829,-0.081 0.832,-0.111 0.826,-0.137 0.811,-0.162 0.788,-0.183 0.756,-0.203 0.715,-0.219 0.665,-0.234 0.608,-0.245 0.541,-0.254 v -6.523 l -0.744,0.354 -0.722,0.324 -0.701,0.292 -0.683,0.262 -0.668,0.23 -0.656,0.2 -0.645,0.168 -0.638,0.138 -0.632,0.107 -0.631,0.076 -0.631,0.045 -0.633,0.015 -1.492,-0.088 -1.395,-0.255 -1.292,-0.417 -1.183,-0.574 -1.067,-0.726 -0.944,-0.873 -0.817,-1.016 -0.683,-1.153 -0.541,-1.285 -0.395,-1.413 -0.242,-1.536 -0.082,-1.655 0.077,-1.628 0.224,-1.53 0.365,-1.422 0.498,-1.307 0.626,-1.184 0.745,-1.053 0.858,-0.915 0.964,-0.768 1.062,-0.614 1.154,-0.451 1.24,-0.28 1.317,-0.101 0.646,0.012 0.637,0.047 0.634,0.084 0.636,0.126 0.642,0.172 0.654,0.22 0.672,0.272 0.693,0.329 0.721,0.388 0.754,0.452 0.791,0.518 0.834,0.589 v -7.04 l -0.712,-0.336 -0.696,-0.312 -0.684,-0.289 -0.68,-0.262 -0.679,-0.236 -0.687,-0.208 -0.698,-0.178 -0.717,-0.148 -0.74,-0.115 -0.77,-0.082 -0.806,-0.047" />
      <path
         style="fill:none;stroke:#000000;stroke-width:3;stroke-linecap:butt;stroke-opacity:1"
         id="path33"
         stroke-linejoin="mitter"
         d="m 211.364,163.281 -0.469,-0.029 -0.469,0.042 -0.45,0.11 -0.428,0.173 -0.401,0.231 -0.37,0.286 -0.335,0.333 -0.295,0.377 -0.251,0.416 -0.202,0.45 -0.15,0.479 -0.094,0.503 -0.032,0.522 0.032,0.521 0.094,0.501 0.15,0.476 0.202,0.445 0.251,0.41 0.295,0.37 0.335,0.326 0.37,0.276 0.401,0.222 0.428,0.163 0.45,0.1 0.469,0.031 0.469,-0.041 0.45,-0.109 0.429,-0.172 0.402,-0.231 0.371,-0.284 0.336,-0.334 0.296,-0.377 0.252,-0.417 0.204,-0.45 0.15,-0.48 0.094,-0.504 0.032,-0.524 -0.032,-0.522 -0.094,-0.502 -0.15,-0.477 -0.204,-0.445 -0.252,-0.411 -0.296,-0.37 -0.336,-0.326 -0.371,-0.276 -0.402,-0.221 -0.429,-0.162 -0.45,-0.099" />
      <path
         style="fill:none;stroke:#000000;stroke-width:3;stroke-linecap:butt;stroke-opacity:1"
         id="path35"
         stroke-linejoin="mitter"
         d="m 213.788,177.07 -5.845,0.048 v 10 10 10 2.849 l 5.845,0.021 v -10 -10 -10 -2.918" />
      <path
         style="fill:none;stroke:#000000;stroke-width:3;stroke-linecap:butt;stroke-opacity:1"
         id="path37"
         stroke-linejoin="mitter"
         d="m 192.884,177.241 v -6.768 l -6.706,7.418 -4.08,4.512 v 0.725 l 5.028,-0.031 v 10 l -0.001,7.211 0.066,1.437 0.198,1.364 0.329,1.281 0.46,1.189 0.592,1.086 0.722,0.975 0.854,0.852 0.985,0.721 1.117,0.58 1.247,0.428 1.379,0.267 1.511,0.095 0.496,-0.018 0.539,-0.054 0.575,-0.089 0.602,-0.122 0.621,-0.153 0.633,-0.18 0.635,-0.207 0.631,-0.23 0.617,-0.251 0.596,-0.271 0.566,-0.288 0.528,-0.302 v -6.063 l -0.584,0.384 -0.576,0.351 -0.569,0.318 -0.561,0.283 -0.555,0.25 -0.549,0.217 -0.543,0.183 -0.538,0.15 -0.533,0.116 -0.529,0.082 -0.525,0.05 -0.522,0.015 -0.437,-0.024 -0.458,-0.076 -0.468,-0.133 -0.466,-0.196 -0.454,-0.264 -0.429,-0.34 -0.395,-0.419 -0.347,-0.505 -0.29,-0.597 -0.222,-0.695 -0.14,-0.798 -0.05,-0.908 v -10 -6.736 l 9.238,-0.057 v -5.841 l -9.238,0.076" />
      <path
         style="fill:none;stroke:#000000;stroke-width:3;stroke-linecap:butt;stroke-opacity:1"
         id="path39"
         stroke-linejoin="mitter"
         d="m 170.407,176.793 -0.671,-0.013 -1.39,0.08 -1.299,0.214 -1.201,0.342 -1.098,0.468 -0.99,0.588 -0.875,0.705 -0.757,0.818 -0.631,0.926 -0.501,1.031 -0.364,1.132 -0.223,1.228 -0.076,1.321 0.262,2.048 0.724,1.811 1.094,1.606 1.373,1.43 1.559,1.284 1.654,1.168 1.656,1.08 1.565,1.022 1.381,0.993 1.102,0.994 0.73,1.023 0.264,1.082 -0.039,0.555 -0.113,0.51 -0.183,0.465 -0.247,0.42 -0.305,0.375 -0.359,0.329 -0.406,0.284 -0.449,0.238 -0.486,0.193 -0.518,0.148 -0.544,0.103 -0.565,0.058 -0.596,-0.03 -0.638,-0.087 -0.677,-0.146 -0.714,-0.204 -0.749,-0.263 -0.779,-0.322 -0.809,-0.383 -0.834,-0.442 -0.858,-0.504 -0.878,-0.564 -0.896,-0.626 -0.912,-0.689 v 6.904 l 0.9,0.514 0.866,0.459 0.84,0.407 0.818,0.355 0.803,0.307 0.793,0.259 0.789,0.215 0.793,0.172 0.8,0.131 0.815,0.092 0.835,0.055 0.862,0.02 1.325,-0.073 1.259,-0.227 1.183,-0.373 1.098,-0.513 1.004,-0.647 0.9,-0.773 0.788,-0.893 0.665,-1.006 0.533,-1.112 0.392,-1.212 0.242,-1.304 0.083,-1.39 -0.037,-0.812 -0.113,-0.774 -0.195,-0.746 -0.28,-0.725 -0.371,-0.713 -0.464,-0.709 -0.563,-0.713 -0.667,-0.726 -0.773,-0.746 -0.886,-0.774 -1.001,-0.812 -1.121,-0.856 -1.197,-0.795 -1.07,-0.733 -0.948,-0.675 -0.83,-0.623 -0.715,-0.575 -0.607,-0.531 -0.501,-0.493 -0.401,-0.459 -0.304,-0.428 -0.212,-0.404 -0.124,-0.383 -0.041,-0.367 0.031,-0.422 0.088,-0.398 0.146,-0.373 0.2,-0.345 0.251,-0.313 0.302,-0.281 0.35,-0.245 0.395,-0.207 0.439,-0.166 0.48,-0.123 0.52,-0.077 0.556,-0.029 0.544,0.018 0.58,0.061 0.612,0.105 0.642,0.152 0.67,0.198 0.696,0.246 0.718,0.297 0.739,0.347 0.757,0.4 0.773,0.453 0.787,0.508 0.797,0.564 v -6.369 l -0.748,-0.428 -0.738,-0.388 -0.729,-0.349 -0.719,-0.311 -0.711,-0.272 -0.703,-0.235 -0.696,-0.197 -0.69,-0.159 -0.684,-0.122 -0.679,-0.086 -0.675,-0.048" />
      <path
         style="fill:none;stroke:#000000;stroke-width:3;stroke-linecap:butt;stroke-opacity:1"
         id="path41"
         stroke-linejoin="mitter"
         d="m 143.67,177.068 -0.669,-0.027 -0.727,-0.03 -0.995,0.038 -0.952,0.098 -0.912,0.157 -0.87,0.216 -0.83,0.277 -0.791,0.337 -0.75,0.398 -0.712,0.458 -0.674,0.519 -0.636,0.579 -0.598,0.642 -0.562,0.702 v 6.907 l 0.676,-0.869 0.693,-0.789 0.709,-0.708 0.721,-0.629 0.733,-0.551 0.743,-0.475 0.751,-0.399 0.758,-0.325 0.762,-0.251 0.765,-0.18 0.767,-0.109 0.766,-0.039 0.809,0.03 0.356,0.049 0.383,0.052 0.668,0.175 0.599,0.251 0.528,0.331 0.459,0.412 0.387,0.496 0.318,0.583 0.247,0.671 0.176,0.763 0.106,0.857 0.035,0.953 v 1.717 l -3.906,1.594 -1.04,0.424 -1.133,0.471 -1.135,0.489 -1.12,0.522 -1.083,0.57 -1.028,0.632 -0.953,0.71 -0.86,0.804 -0.746,0.911 -0.614,1.034 -0.462,1.172 -0.292,1.326 -0.102,1.495 0.057,1.021 0.165,0.993 0.269,0.952 0.369,0.901 0.464,0.838 0.555,0.764 0.64,0.679 0.721,0.581 0.798,0.473 0.87,0.353 0.936,0.222 1,0.08 0.639,-0.02 0.639,-0.065 0.639,-0.11 0.638,-0.155 0.636,-0.202 0.533,-0.207 0.101,-0.04 0.632,-0.293 0.63,-0.34 0.626,-0.387 0.622,-0.434 0.618,-0.482 0.614,-0.529 0.143,0.547 0.178,0.493 0.213,0.442 0.252,0.392 0.289,0.342 0.329,0.294 0.37,0.246 0.411,0.2 0.455,0.154 0.498,0.109 0.544,0.066 0.589,0.024 0.428,-0.011 0.406,-0.038 0.393,-0.067 0.387,-0.099 0.389,-0.134 0.398,-0.171 0.416,-0.212 0.44,-0.255 0.473,-0.301 0.513,-0.35 0.561,-0.401 0.617,-0.455 v -3.878 l -0.312,0.26 -0.306,0.241 -0.298,0.221 -0.288,0.202 -0.276,0.18 -0.263,0.159 -0.249,0.136 -0.233,0.113 -0.215,0.089 -0.196,0.064 -0.175,0.04 -0.154,0.013 -0.167,-0.01 -0.153,-0.029 -0.14,-0.049 -0.126,-0.07 -0.112,-0.094 -0.097,-0.118 -0.084,-0.143 -0.068,-0.169 -0.054,-0.198 -0.039,-0.227 -0.023,-0.257 -0.008,-0.288 v -10 -6.566 l -0.092,-1.745 -0.27,-1.579 -0.436,-1.416 -0.589,-1.254 -0.731,-1.095 -0.862,-0.939 -0.98,-0.785 -1.087,-0.635 -1.182,-0.485 -1.265,-0.341 -1.336,-0.197" />
      <path
         style="fill:none;stroke:#000000;stroke-width:3;stroke-linecap:butt;stroke-opacity:1"
         id="path43"
         stroke-linejoin="mitter"
         d="m 145.731,194.331 1.176,-0.469 v 9.376 l -0.379,0.397 -0.384,0.369 -0.389,0.34 -0.394,0.309 -0.399,0.277 -0.405,0.245 -0.409,0.209 -0.415,0.175 -0.42,0.137 -0.312,0.073 -0.112,0.026 -0.43,0.061 -0.435,0.019 -0.565,-0.039 -0.534,-0.113 -0.501,-0.183 -0.463,-0.248 -0.423,-0.311 -0.378,-0.37 -0.33,-0.424 -0.278,-0.476 -0.223,-0.522 -0.164,-0.567 -0.101,-0.607 -0.034,-0.643 0.084,-0.906 0.243,-0.832 0.39,-0.766 0.525,-0.707 0.649,-0.653 0.76,-0.606 0.859,-0.567 0.947,-0.534 0.514,-0.255 0.508,-0.252 1.085,-0.488 1.137,-0.475" />
      <path
         style="fill:none;stroke:#000000;stroke-width:3;stroke-linecap:butt;stroke-opacity:1"
         id="path45"
         stroke-linejoin="mitter"
         d="m 126.798,161.227 -5.489,0.078 v 10 7.124 1.576 10 10 9.654 l 5.489,0.02 v -10 -10 -10 -4.335 -9.673 -4.444" />
      <path
         style="fill:none;stroke:#000000;stroke-width:3;stroke-linecap:butt;stroke-opacity:1"
         id="path47"
         stroke-linejoin="mitter"
         d="m 90.396,178.077 v 0.056 10 10 2.536 1.253 1.145 0.844 0.342 0.324 0.899 10 l 0.001,10.195 5.364,0.051 v -10 -6.926 l 0.505,0.236 0.49,0.213 0.476,0.19 0.463,0.169 0.455,0.147 0.445,0.126 0.44,0.106 0.436,0.086 0.433,0.066 0.433,0.047 0.434,0.029 0.437,0.01 1.968,-0.129 1.862,-0.396 1.745,-0.649 1.614,-0.889 1.471,-1.116 1.315,-1.33 1.147,-1.53 0.967,-1.717 0.773,-1.89 0.568,-2.05 0.349,-2.194 0.119,-2.327 -0.113,-2.516 -0.337,-2.312 -0.558,-2.104 -0.465,-1.132 -0.311,-0.761 -0.24,-0.406 -0.751,-1.272 -1.201,-1.461 -1.409,-1.24 -1.613,-1.017 -1.813,-0.791 -2.01,-0.562 -2.201,-0.331 -2.391,-0.098 -2.063,0.017 -5.486,0.045 -0.921,0.008 -0.827,0.006" />
      <path
         style="fill:none;stroke:#000000;stroke-width:3;stroke-linecap:butt;stroke-opacity:1"
         id="path49"
         stroke-linejoin="mitter"
         d="m 95.761,183.652 4.439,-0.027 0.463,-0.002 1.41,0.07 1.29,0.225 1.169,0.378 1.047,0.526 0.926,0.672 0.804,0.813 0.681,0.95 0.531,1.033 0.027,0.052 0.429,1.198 0.006,0.017 0.31,1.341 0.187,1.465 0.062,1.583 -0.075,1.5 -0.219,1.422 -0.357,1.335 -0.485,1.236 -0.606,1.128 -0.719,1.01 -0.824,0.882 -0.921,0.743 -1.01,0.594 -1.09,0.436 -1.163,0.269 -1.229,0.09 -0.425,-0.011 -0.427,-0.032 -0.429,-0.051 -0.429,-0.071 -0.428,-0.09 -0.428,-0.11 -0.427,-0.129 -0.424,-0.147 -0.422,-0.166 -0.011,-0.005 -0.408,-0.18 -0.415,-0.202 -0.41,-0.22 v -4.429 -1.245 -10 -3.851" />
      <path
         style="fill:none;stroke:#000000;stroke-width:3;stroke-linecap:butt;stroke-opacity:1"
         id="path51"
         stroke-linejoin="mitter"
         d="m 327.489,330.793 -1.538,-0.483 -1.983,1.512 -1.691,3.431 -0.111,0.471 -1.025,4.364 -0.306,4.199 -0.094,1.294 0.4,5.294 1.136,4.272 1.691,2.592 1.87,0.522 0.529,-0.404" />
      <path
         style="fill:none;stroke:#000000;stroke-width:3;stroke-linecap:butt;stroke-opacity:1"
         id="path53"
         stroke-linejoin="mitter"
         d="m 325.199,356.061 -0.785,-0.224 -1.449,-2.228 -0.973,-3.665 -0.342,-4.539 0.088,-1.203 0.254,-3.507 0.174,-0.74 0.799,-3.407 1.449,-2.948 1.701,-1.303" />
      <path
         style="fill:none;stroke:#000000;stroke-width:3;stroke-linecap:butt;stroke-opacity:1"
         id="path55"
         stroke-linejoin="mitter"
         d="m 325.951,330.31 -2.317,-0.104 -1.468,1.115 -0.521,0.396 -0.762,1.54 -0.935,1.888 -0.974,4.13 -0.165,0.701 -0.105,1.439 -0.296,4.049 0.401,5.291 1.139,4.268 1.697,2.59 1.876,0.522 2.317,0.126" />
      <path
         style="fill:none;stroke:#000000;stroke-width:3;stroke-linecap:butt;stroke-opacity:1"
         id="path57"
         stroke-linejoin="mitter"
         d="m 327.493,331.074 -1.118,0.856 -0.03,0.06 -0.152,0.311 -0.009,0.018 -1.495,3.046 -1.132,4.839 -0.399,5.498 0.399,5.298 1.132,4.275 0.51,0.786 0.348,0.534 0.82,1.262 0.008,0.012 2.089,0.534 2.324,0.126 1.844,-1.606 1.648,-3.466 1.089,-4.849 0.384,-5.41 -0.377,-5.168 -0.832,-3.226" />
      <path
         style="fill:none;stroke:#000000;stroke-width:3;stroke-linecap:butt;stroke-opacity:1"
         id="path59"
         stroke-linejoin="mitter"
         d="m 327.606,334.286 -0.581,1.187 -1.128,4.844 -0.397,5.501 0.397,5.303 1.128,4.278 0.052,0.08 0.481,0.743 0.101,0.156 0.213,0.329 0.833,1.288 2.083,0.534" />
      <path
         style="fill:none;stroke:#000000;stroke-width:3;stroke-linecap:butt;stroke-opacity:1"
         id="path61"
         stroke-linejoin="mitter"
         d="m 315.032,330.379 0.041,3.184 3.631,7.852" />
      <path
         style="fill:none;stroke:#000000;stroke-width:3;stroke-linecap:butt;stroke-opacity:1"
         id="path63"
         stroke-linejoin="mitter"
         d="m 316.366,333.622 -0.052,-3.525" />
      <path
         style="fill:none;stroke:#000000;stroke-width:3;stroke-linecap:butt;stroke-opacity:1"
         id="path65"
         stroke-linejoin="mitter"
         d="m 315.073,333.563 1.293,0.059 2.608,5.653" />
      <path
         style="fill:none;stroke:#000000;stroke-width:3;stroke-linecap:butt;stroke-opacity:1"
         id="path67"
         stroke-linejoin="mitter"
         d="m 325.63,328.047 1.82,0.079 0.039,2.667 0.004,0.281 0.019,1.287 0.005,0.373 0.002,0.17 0.018,1.231 0.069,0.151 2.688,5.937 0.688,1.517 1.412,3.119 0.056,0.003 0.865,0.043 0.375,0.018 0.854,-0.215 v -9.904 -8.904 l -0.648,-0.028" />
      <path
         style="fill:none;stroke:#000000;stroke-width:3;stroke-linecap:butt;stroke-opacity:1"
         id="path69"
         stroke-linejoin="mitter"
         d="m 334.544,325.9 -1.436,0.316 -4.353,0.956 0.002,0.186 0.038,3.079 0.024,1.921 0.023,1.837" />
      <path
         style="fill:none;stroke:#000000;stroke-width:3;stroke-linecap:butt;stroke-opacity:1"
         id="path71"
         stroke-linejoin="mitter"
         d="m 333.69,344.923 -2.966,-6.563 -1.882,-4.165 -0.177,-0.008 -1.128,-0.052" />
      <path
         style="fill:none;stroke:#000000;stroke-width:3;stroke-linecap:butt;stroke-opacity:1"
         id="path73"
         stroke-linejoin="mitter"
         d="m 143.701,346.2 -0.035,-0.008 -1.781,-2.112 -1.195,-3.452 -0.42,-4.262 0.096,-1.006 0.257,-2.7" />
      <path
         style="fill:none;stroke:#000000;stroke-width:3;stroke-linecap:butt;stroke-opacity:1"
         id="path75"
         stroke-linejoin="mitter"
         d="m 139.584,332.61 -0.131,1.377 -0.242,2.534 0.491,4.971 1.395,4.023 2.078,2.458 2.337,0.521 0.457,-0.265" />
      <path
         style="fill:none;stroke:#000000;stroke-width:3;stroke-linecap:butt;stroke-opacity:1"
         id="path77"
         stroke-linejoin="mitter"
         d="m 137.533,332.511 -0.374,3.907 0.492,4.968 1.397,4.02 2.082,2.456 2.342,0.522 2.04,0.11" />
      <path
         style="fill:none;stroke:#000000;stroke-width:3;stroke-linecap:butt;stroke-opacity:1"
         id="path79"
         stroke-linejoin="mitter"
         d="m 141.709,332.713 -0.234,2.461 -0.022,0.229 -0.116,1.224 0.49,4.975 1.392,4.026 0.482,0.572 1.163,1.379 0.428,0.508 0.677,0.142 1.855,0.39 2.046,0.111 2.312,-1.475 2.032,-3.227 1.346,-4.535 0.474,-5.073 -0.098,-1.017" />
      <path
         style="fill:none;stroke:#000000;stroke-width:3;stroke-linecap:butt;stroke-opacity:1"
         id="path81"
         stroke-linejoin="mitter"
         d="m 143.767,332.813 -0.372,3.917 0.489,4.978 1.39,4.029 0.517,0.616 0.122,0.144 0.141,0.168 0.856,1.018 0.433,0.515 2.527,0.532" />
      <path
         style="fill:none;stroke:#000000;stroke-width:3;stroke-linecap:butt;stroke-opacity:1"
         id="path83"
         stroke-linejoin="mitter"
         d="m 149.515,333.091 0.321,0.543 1.212,2.05 0.125,0.211 0.579,0.029 0.561,0.027 0.53,-0.095 0.524,-0.094 v -2.484" />
      <path
         style="fill:none;stroke:#000000;stroke-width:3;stroke-linecap:butt;stroke-opacity:1"
         id="path85"
         stroke-linejoin="mitter"
         d="m 152.313,335.951 -0.486,-0.823 -0.701,-1.186 -0.469,-0.795" />
      <path
         style="fill:none;stroke:#000000;stroke-width:3;stroke-linecap:butt;stroke-opacity:1"
         id="path87"
         stroke-linejoin="mitter"
         d="m 70.916,325.701 6.479,0.416 9.988,0.472 9.989,0.471 9.989,0.471 9.989,0.471 9.989,0.471 9.064,0.428 1.955,0.092 4.112,0.194 0.061,0.003 0.856,0.04 3.955,0.187 3.191,0.151 0.922,0.043 1.912,0.09 2.223,0.105 9.988,0.471 2.762,0.131 9.989,0.471 9.988,0.471 9.989,0.471 9.989,0.471 9.989,0.472 9.989,0.471 9.989,0.471 9.989,0.471 9.989,0.471 7.45,0.352 8.571,0.285" />
      <path
         style="fill:none;stroke:#000000;stroke-width:3;stroke-linecap:butt;stroke-opacity:1"
         id="path89"
         stroke-linejoin="mitter"
         d="m 348.489,144.87 -8.419,-0.83 -9.952,-0.982 -9.952,-0.981 -9.951,-0.981 -9.952,-0.982 -4.452,-0.439 -5.19,-0.512 -4.045,-0.134 -7.378,-0.006 -8.692,0.125 -9.998,0.213 -9.997,0.212 -9.998,0.212 -9.998,0.212 -9.998,0.212 -9.997,0.213 -9.998,0.212 -9.998,0.212 -9.997,0.212 -9.998,0.213 -5.796,0.123 -9.997,0.212 -9.998,0.212 -9.998,0.212 -2.239,0.048 -9.998,0.212 -6.708,0.142 -9.997,0.213 -0.22,0.004 -9.998,0.213 -9.997,0.212 -9.998,0.212 -9.097,0.193 -0.926,0.028 -5.476,0.163 -3.409,0.221" />
      <path
         style="fill:none;stroke:#000000;stroke-width:3;stroke-linecap:butt;stroke-opacity:1"
         id="path91"
         stroke-linejoin="mitter"
         d="m 42.529,143.637 3.888,-0.117 9.998,-0.213 9.147,-0.196 9.998,-0.214 9.997,-0.213 9.998,-0.214 10.071,-0.215 9.463,-0.202 9.998,-0.214 3.28,-0.07 9.997,-0.214 9.998,-0.214 9.998,-0.213 2.364,-0.051 9.998,-0.213 9.998,-0.214 9.997,-0.214 9.998,-0.213 9.998,-0.214 9.997,-0.214 9.998,-0.214 9.998,-0.213 9.998,-0.214 9.997,-0.214 9.998,-0.213 9.998,-0.214 4.67,-0.1 5.412,-0.078" />
      <path
         style="fill:none;stroke:#000000;stroke-width:3;stroke-linecap:butt;stroke-opacity:1"
         id="path93"
         stroke-linejoin="mitter"
         d="m 349.159,136.872 -9.936,-1.123 -9.937,-1.124 -9.937,-1.123 -9.936,-1.124 -9.937,-1.123 -1.622,-0.183 -2.499,-0.095 -4.576,-0.004 -5.412,0.088 -9.997,0.239 -9.997,0.24 -9.997,0.239 -9.997,0.239 -9.997,0.239 -9.997,0.239 -9.998,0.239 -9.997,0.24 -9.997,0.239 -9.997,0.239 -9.997,0.239 -9.997,0.239 -4.678,0.112 -9.997,0.239 -9.997,0.24 -9.997,0.239 -1.422,0.034 -9.997,0.239 -9.997,0.239 -6.534,0.156 -2.098,0.051 -9.997,0.239 -9.997,0.239 -9.997,0.239 -9.997,0.239 -9.998,0.239 -4.282,0.103 -3.888,0.131 -2.054,0.152 v 6.644" />
      <path
         style="fill:none;stroke:#000000;stroke-width:3;stroke-linecap:butt;stroke-opacity:1"
         id="path95"
         stroke-linejoin="mitter"
         d="m 40.475,143.773 2.054,-0.136 -2.054,0.068 -0.291,0.01 0.61,0.177 9.979,0.646 5.964,0.386" />
      <path
         style="fill:none;stroke:#000000;stroke-width:3;stroke-linecap:butt;stroke-opacity:1"
         id="path97"
         stroke-linejoin="mitter"
         d="m 56.677,143.891 0.06,1.033 0.587,9.983 0.586,9.983 0.586,9.983 0.587,9.982 0.586,9.983 0.586,9.983 0.586,9.983 0.587,9.983 0.586,9.982 0.586,9.983 0.587,9.983 0.586,9.983 0.586,9.983 0.586,9.982 0.587,9.983 0.586,9.983 0.586,9.983 0.623,10.597 4.748,3.003 1.005,0.636" />
      <path
         style="fill:none;stroke:#000000;stroke-width:3;stroke-linecap:butt;stroke-opacity:1"
         id="path99"
         stroke-linejoin="mitter"
         d="m 40.475,143.773 0.319,0.119" />
      <path
         style="fill:none;stroke:#000000;stroke-width:3;stroke-linecap:butt;stroke-opacity:1"
         id="path101"
         stroke-linejoin="mitter"
         d="m 333.202,326.18 0.694,-0.308 6.073,-2.695 0.55,-9.985 0.551,-9.985 0.55,-9.984 0.55,-9.985 0.55,-9.985 0.55,-9.985 0.551,-9.985 0.55,-9.985 0.55,-9.985 0.55,-9.984 0.55,-9.985 0.551,-9.985 0.473,-8.601" />
      <path
         style="fill:none;stroke:#000000;stroke-width:3;stroke-linecap:butt;stroke-opacity:1"
         id="path103"
         stroke-linejoin="mitter"
         d="m 339.969,323.177 -9.772,2.121 -1.597,0.347 -6.434,1.396 -3.272,0.71 -3.885,0.844 -9.772,2.121 -9.772,2.121 -9.773,2.121 -0.358,0.078 -3.868,0.262" />
      <path
         style="fill:none;stroke:#000000;stroke-width:3;stroke-linecap:butt;stroke-opacity:1"
         id="path105"
         stroke-linejoin="mitter"
         d="m 81.991,329.818 1.242,0.06 5.937,0.288 1.206,0.059 9.988,0.484 9.988,0.484 9.989,0.484 9.988,0.484 7.204,0.35 1.065,0.051 0.986,0.048 0.147,0.007 0.892,0.043 0.717,0.035 0.369,0.018 0.746,0.036 0.015,10e-4 1.297,0.063 5.748,0.278 0.268,0.013 0.874,0.043 0.392,0.019 0.762,0.037 0.417,0.02 0.627,0.03 0.512,0.025 0.535,0.026 2.034,0.099 9.988,0.484 5.272,0.255 9.989,0.485 9.988,0.484 9.988,0.484 9.988,0.484 9.989,0.484 9.988,0.484 9.988,0.485 9.989,0.484 10.534,0.51" />
      <path
         style="fill:none;stroke:#000000;stroke-width:3;stroke-linecap:butt;stroke-opacity:1"
         id="path107"
         stroke-linejoin="mitter"
         d="m 297.854,138.423 9.928,1.002 9.949,1.005 9.95,1.005 9.949,1.005 2.44,0.247 8.529,0.861" />
      <path
         style="fill:none;stroke:#000000;stroke-width:3;stroke-linecap:butt;stroke-opacity:1"
         id="path109"
         stroke-linejoin="mitter"
         d="m 294.215,138.291 -3.436,0.044 4.576,0.003 2.499,0.085 -3.639,-0.132" />
      <path
         style="fill:none;stroke:#000000;stroke-width:3;stroke-linecap:butt;stroke-opacity:1"
         id="path111"
         stroke-linejoin="mitter"
         d="m 349.497,132.842 -7.88,-6.156 -7.881,-6.156 -7.881,-6.156 -7.88,-6.155 -6.127,-4.786 0.889,-9.873 -9.993,0.365 -9.994,0.366 -9.993,0.365 -9.993,0.365 -9.994,0.365 -9.993,0.366 -9.993,0.365 -9.994,0.365 -9.993,0.366 -9.993,0.365 -9.994,0.365 -9.993,0.366 -9.993,0.365 -2.143,0.078 -9.993,0.366 -9.994,0.365 -9.993,0.365 -9.993,0.365 -9.994,0.366 -9.993,0.365 -9.993,0.365 -2.191,0.08 -9.993,0.366 -9.993,0.365 -9.994,0.365 -9.993,0.366 -8.469,0.309 -1.157,9.027 8.805,4.741 8.805,4.74 8.805,4.741 8.805,4.741 8.625,4.644" />
      <path
         style="fill:none;stroke:#000000;stroke-width:3;stroke-linecap:butt;stroke-opacity:1"
         id="path113"
         stroke-linejoin="mitter"
         d="m 45.32,95.957 2.196,-0.087 9.992,-0.393 9.993,-0.393 9.992,-0.393 9.992,-0.393 9.992,-0.394 9.993,-0.393 9.992,-0.393 9.992,-0.393 9.992,-0.393 9.993,-0.393 9.992,-0.394 9.992,-0.393 1.972,-0.077 9.992,-0.394 9.993,-0.393 9.992,-0.393 9.992,-0.393 9.992,-0.393 9.993,-0.393 9.992,-0.394 9.992,-0.393 9.992,-0.393 9.993,-0.393 9.992,-0.393 9.992,-0.393 9.992,-0.394 3.761,-0.148 2.646,-0.104" />
      <path
         style="fill:none;stroke:#000000;stroke-width:3;stroke-linecap:butt;stroke-opacity:1"
         id="path115"
         stroke-linejoin="mitter"
         d="m 372.08,150.471 2.399,-0.04 -1.834,-9.83 -0.175,-0.938 -2.702,-9.628 -2.703,-9.628 -0.105,-0.374 -3.728,-9.279 -3.173,-7.899 -4.998,-8.661 -3.119,-5.406 -6.613,-7.501 -2.494,-2.83 -8.519,-5.239 -1.298,-0.798 -9.921,-1.252 -0.264,-0.033 -2.587,0.114 -9.99,0.441 -9.99,0.441 -9.99,0.44 -9.991,0.441 -9.99,0.441 -9.99,0.44 -9.991,0.441 -9.99,0.441 -9.99,0.44 -9.99,0.441 -9.991,0.441 -9.99,0.44 -10.917,0.482 -9.99,0.441 -9.99,0.44 -9.99,0.441 -9.991,0.441 -9.99,0.44 -9.99,0.441 -9.991,0.441 -9.99,0.44 -9.99,0.441 -9.99,0.441 -9.991,0.44 -9.677,0.427 -2.158,0.095 -9.65,2.623 -3.653,0.993 -8.366,5.477 -0.159,0.104 -0.57,4.372 8.765,4.812 3.835,2.106 -1.159,9.019 8.811,4.731 8.81,4.731 8.81,4.73 8.81,4.731 8.683,4.663" />
      <path
         style="fill:none;stroke:#000000;stroke-width:3;stroke-linecap:butt;stroke-opacity:1"
         id="path117"
         stroke-linejoin="mitter"
         d="m 129.311,134.795 -3.366,-8.266 -5.041,-8.637 -4.116,-7.051 -6.434,-7.655 -1.817,-2.162" />
      <path
         style="fill:none;stroke:#000000;stroke-width:3;stroke-linecap:butt;stroke-opacity:1"
         id="path119"
         stroke-linejoin="mitter"
         d="m 45.89,91.585 2.196,-0.09 9.991,-0.41 9.992,-0.409 9.991,-0.41 9.992,-0.41 9.992,-0.409 9.991,-0.41 9.992,-0.409 9.992,-0.41 9.991,-0.41 9.992,-0.409 9.991,-0.41 9.992,-0.41 1.921,-0.078 9.992,-0.41 9.992,-0.409 9.991,-0.41 9.992,-0.41 9.991,-0.409 9.992,-0.41 9.992,-0.409 9.991,-0.41 9.992,-0.41 9.992,-0.409 9.991,-0.41 9.992,-0.409 9.991,-0.41 3.697,-0.152 2.645,-0.108" />
      <path
         style="fill:none;stroke:#000000;stroke-width:3;stroke-linecap:butt;stroke-opacity:1"
         id="path121"
         stroke-linejoin="mitter"
         d="m 58.938,111.822 -2.177,0.072" />
      <path
         style="fill:none;stroke:#000000;stroke-width:3;stroke-linecap:butt;stroke-opacity:1"
         id="path123"
         stroke-linejoin="mitter"
         d="m 57.92,102.875 2.175,-0.08" />
      <path
         style="fill:none;stroke:#000000;stroke-width:3;stroke-linecap:butt;stroke-opacity:1"
         id="path125"
         stroke-linejoin="mitter"
         d="m 335.822,204.367 4.248,-3.611 6.709,-5.702 0.266,-0.296 6.691,-7.432 6.691,-7.433 5.162,-5.734 0.993,-2.07 1.073,-9.943 0.281,-2.598 0.114,-1.423 0.613,-7.597 0.206,-2.564 0.147,-1.819 5.463,4.286" />
      <path
         style="fill:none;stroke:#000000;stroke-width:3;stroke-linecap:butt;stroke-opacity:1"
         id="path127"
         stroke-linejoin="mitter"
         d="m 368.663,150.528 3.417,-0.057 -3.211,-2.507" />
      <path
         style="fill:none;stroke:#000000;stroke-width:3;stroke-linecap:butt;stroke-opacity:1"
         id="path129"
         stroke-linejoin="mitter"
         d="m 315.349,93.464 -7.795,-6.264 -1.853,-1.489 0.438,-4.795 6.53,-6.009 9.375,-3.479 0.789,-0.293" />
      <path
         style="fill:none;stroke:#000000;stroke-width:3;stroke-linecap:butt;stroke-opacity:1"
         id="path131"
         stroke-linejoin="mitter"
         d="m 351.979,132.786 -7.867,-6.174 -7.867,-6.173 -7.867,-6.174 -7.866,-6.173 -6.049,-4.746" />
      <path
         style="fill:none;stroke:#000000;stroke-width:3;stroke-linecap:butt;stroke-opacity:1"
         id="path133"
         stroke-linejoin="mitter"
         d="m 311.848,103.433 2.615,-0.087 0.886,-9.882 -2.612,0.096" />
      <path
         style="fill:none;stroke:#000000;stroke-width:3;stroke-linecap:butt;stroke-opacity:1"
         id="path135"
         stroke-linejoin="mitter"
         d="m 332.191,173.292 7.741,-6.329 0.138,-0.113 7.742,-6.329 0.826,-0.676 0.368,-0.662 0.533,-0.961 0.524,-2.486 0.41,-4.905 0.432,-5.181 0.71,-8.5 0.208,-2.493 0.156,-1.871 -2.482,0.056 -0.338,4.03 -0.195,2.33 -0.365,4.346 -0.11,1.322 -0.03,0.351 -0.04,0.475 -0.434,5.176 -0.411,4.901 -0.526,2.485 -0.904,1.621 -6.074,4.945 -7.756,6.313 -2.676,2.179" />
      <path
         style="fill:none;stroke:#000000;stroke-width:3;stroke-linecap:butt;stroke-opacity:1"
         id="path137"
         stroke-linejoin="mitter"
         d="m 329.584,175.423 -2.155,0.018 -0.23,0.002 -0.177,0.002 0.109,-0.088 0.141,-0.116 0.711,-0.578" />
      <path
         style="fill:none;stroke:#000000;stroke-width:3;stroke-linecap:butt;stroke-opacity:1"
         id="path139"
         stroke-linejoin="mitter"
         d="m 319.744,192.114 -0.001,0.181 0.852,6.101 1.371,3.94 0.279,0.804 2.186,2.662 1.302,0.107 1.08,0.089 7.426,0.015 1.583,-1.646 0.608,-0.633 1.173,-3.027 0.525,-1.357 0.958,-5.822 0.079,-6.39 -0.812,-6.016 -1.584,-4.745 -2.127,-2.757 -2.354,-0.328 h -0.097 l -2.553,0.024 -4.796,0.043 -0.178,0.172 -2.068,2 -0.633,1.545 -1.132,2.765 -1.005,5.893 -0.005,0.278" />
      <path
         style="fill:none;stroke:#000000;stroke-width:3;stroke-linecap:butt;stroke-opacity:1"
         id="path141"
         stroke-linejoin="mitter"
         d="m 334.239,206.013 -0.322,-0.027 -2.035,-0.169 -0.662,-0.817 -1.502,-1.852 -1.633,-4.756 -0.843,-6.116 0.082,-6.578 0.626,-3.72 0.368,-2.189 1.747,-4.32 2.223,-2.177" />
      <path
         style="fill:none;stroke:#000000;stroke-width:3;stroke-linecap:butt;stroke-opacity:1"
         id="path143"
         stroke-linejoin="mitter"
         d="m 319.826,185.734 -0.003,0.266 -0.078,6.127 -0.002,0.168" />
      <path
         style="fill:none;stroke:#000000;stroke-width:3;stroke-linecap:butt;stroke-opacity:1"
         id="path145"
         stroke-linejoin="mitter"
         d="m 319.821,186.012 -0.077,6.102" />
      <path
         style="fill:none;stroke:#000000;stroke-width:3;stroke-linecap:butt;stroke-opacity:1"
         id="path147"
         stroke-linejoin="mitter"
         d="m 324.664,173.531 -0.956,-0.131 -6.502,0.059 -2.265,2.163" />
      <path
         style="fill:none;stroke:#000000;stroke-width:3;stroke-linecap:butt;stroke-opacity:1"
         id="path149"
         stroke-linejoin="mitter"
         d="m 312.064,192.311 0.86,6.073 1.664,4.722 2.205,2.651 2.402,0.195 6.484,0.013 0.054,-0.056" />
      <path
         style="fill:none;stroke:#000000;stroke-width:3;stroke-linecap:butt;stroke-opacity:1"
         id="path151"
         stroke-linejoin="mitter"
         d="m 333.276,198.201 -0.844,-0.034 -0.765,-0.863 -0.724,-1.989 -0.457,-3.251 0.082,-4.005 0.654,-3.549 1.001,-2.345 1.032,-1.003 0.842,0.06" />
      <path
         style="fill:none;stroke:#000000;stroke-width:3;stroke-linecap:butt;stroke-opacity:1"
         id="path153"
         stroke-linejoin="mitter"
         d="m 333.276,198.201 0.741,-0.49 0.952,-0.954 0.943,-2.27 0.613,-3.365 0.074,-3.669 -0.422,-3.043 -0.673,-1.878 -0.714,-0.83 -0.693,-0.48" />
      <path
         style="fill:none;stroke:#000000;stroke-width:3;stroke-linecap:butt;stroke-opacity:1"
         id="path155"
         stroke-linejoin="mitter"
         d="m 334.017,197.711 -0.241,-0.011 -0.554,-0.023 -0.72,-0.813 -0.681,-1.876 -0.43,-3.064 0.077,-3.775 0.615,-3.345 0.943,-2.211 0.971,-0.946 0.496,0.035 0.297,0.02" />
      <path
         style="fill:none;stroke:#000000;stroke-width:3;stroke-linecap:butt;stroke-opacity:1"
         id="path157"
         stroke-linejoin="mitter"
         d="m 325.679,205.965 -2.381,-0.195 -2.186,-2.657 -1.649,-4.733 -0.852,-6.086 0.083,-6.547 1.004,-5.88 1.765,-4.3 2.245,-2.167" />
      <path
         style="fill:none;stroke:#000000;stroke-width:3;stroke-linecap:butt;stroke-opacity:1"
         id="path159"
         stroke-linejoin="mitter"
         d="m 314.941,175.622 -1.78,4.29 -1.013,5.867 -0.084,6.532" />
      <path
         style="fill:none;stroke:#000000;stroke-width:3;stroke-linecap:butt;stroke-opacity:1"
         id="path161"
         stroke-linejoin="mitter"
         d="m 275.014,342.23 -1.024,-0.277 -2.353,1.691 -1.632,3.067 -0.377,0.71 -1.35,5.297 -0.349,4.416 -0.126,1.582 0.475,5.762 1.35,4.627 2.009,2.78 2.233,0.516 0.462,-0.336" />
      <path
         style="fill:none;stroke:#000000;stroke-width:3;stroke-linecap:butt;stroke-opacity:1"
         id="path163"
         stroke-linejoin="mitter"
         d="m 272.698,369.936 -0.551,-0.13 -1.721,-2.39 -1.155,-3.97 -0.407,-4.94 0.104,-1.315 0.303,-3.827 0.734,-2.889 0.421,-1.654 1.721,-3.245 1.797,-1.297" />
      <path
         style="fill:none;stroke:#000000;stroke-width:3;stroke-linecap:butt;stroke-opacity:1"
         id="path165"
         stroke-linejoin="mitter"
         d="m 273.99,341.953 -2.479,-0.123 -1.506,1.078 -0.854,0.611 -0.518,0.97 -1.497,2.804 -1.068,4.173 -0.286,1.119 -0.066,0.827 -0.41,5.165 0.476,5.757 1.354,4.624 2.015,2.778 2.24,0.516 2.479,0.149" />
      <path
         style="fill:none;stroke:#000000;stroke-width:3;stroke-linecap:butt;stroke-opacity:1"
         id="path167"
         stroke-linejoin="mitter"
         d="m 275.03,343.183 -0.448,0.323 -0.37,0.267 -0.268,0.506 -1.734,3.275 -1.345,5.302 -0.474,6.003 0.474,5.767 1.345,4.631 0.488,0.679 0.649,0.902 0.865,1.202 0.12,0.025 2.347,0.505 2.488,0.149 2.2,-1.802 1.955,-3.818 1.292,-5.307 0.455,-5.9 -0.448,-5.617 -1.299,-4.602 -0.072,-0.105" />
      <path
         style="fill:none;stroke:#000000;stroke-width:3;stroke-linecap:butt;stroke-opacity:1"
         id="path169"
         stroke-linejoin="mitter"
         d="m 275.262,346.637 -0.551,1.046 -1.341,5.306 -0.473,6.009 0.473,5.772 1.341,4.635 0.176,0.246 0.339,0.472 0.151,0.21 0.459,0.641 0.871,1.215 2.46,0.53" />
      <path
         style="fill:none;stroke:#000000;stroke-width:3;stroke-linecap:butt;stroke-opacity:1"
         id="path171"
         stroke-linejoin="mitter"
         d="m 276.372,338.683 -6.367,-0.307 -1.023,-0.05 -1.813,-0.087 -5.539,-0.268 0.007,0.555 0.098,7.062 3.981,7.824" />
      <path
         style="fill:none;stroke:#000000;stroke-width:3;stroke-linecap:butt;stroke-opacity:1"
         id="path173"
         stroke-linejoin="mitter"
         d="m 263.014,339.136 5.619,0.273 0.349,0.017 1.023,0.05 4.97,0.242 0.039,2.512 0.016,0.953 0.015,0.98 v 0.008 l 0.003,0.183 0.013,0.834 0.017,1.08 0.184,0.369 1.929,3.867 2.104,4.22 0.727,1.459 0.827,1.66 0.578,0.031 0.81,0.045 0.2,-0.051 0.813,-0.205 v -10 -2.095 -8.195 -0.201" />
      <path
         style="fill:none;stroke:#000000;stroke-width:3;stroke-linecap:butt;stroke-opacity:1"
         id="path175"
         stroke-linejoin="mitter"
         d="m 263.119,345.659 -0.105,-6.523" />
      <path
         style="fill:none;stroke:#000000;stroke-width:3;stroke-linecap:butt;stroke-opacity:1"
         id="path177"
         stroke-linejoin="mitter"
         d="m 261.735,345.588 1.384,0.071 2.949,5.807" />
      <path
         style="fill:none;stroke:#000000;stroke-width:3;stroke-linecap:butt;stroke-opacity:1"
         id="path179"
         stroke-linejoin="mitter"
         d="m 283.25,337.172 -6.878,1.511 0.003,0.203 0.044,3.294 0.008,0.549 0.031,2.337 0.017,1.273" />
      <path
         style="fill:none;stroke:#000000;stroke-width:3;stroke-linecap:butt;stroke-opacity:1"
         id="path181"
         stroke-linejoin="mitter"
         d="m 282.237,357.919 -2.377,-4.776 -0.837,-1.684 -2.548,-5.12 -1.397,-0.071" />
      <path
         style="fill:none;stroke:#000000;stroke-width:3;stroke-linecap:butt;stroke-opacity:1"
         id="path183"
         stroke-linejoin="mitter"
         d="m 80.827,333.143 -1.599,0.863 -0.385,0.553 -2.055,2.942 -1.639,4.92 -0.206,1.988 -0.371,3.598 0.577,5.381 1.639,4.337 2.44,2.628 2.756,0.521 0.402,-0.221" />
      <path
         style="fill:none;stroke:#000000;stroke-width:3;stroke-linecap:butt;stroke-opacity:1"
         id="path185"
         stroke-linejoin="mitter"
         d="m 78.872,357.429 -1.176,-1.269 -1.403,-3.722 -0.494,-4.613 0.188,-1.824 0.306,-2.965 1.403,-4.221 1.147,-1.645 0.945,-1.356 0.806,-0.437" />
      <path
         style="fill:none;stroke:#000000;stroke-width:3;stroke-linecap:butt;stroke-opacity:1"
         id="path187"
         stroke-linejoin="mitter"
         d="m 80.811,332.399 -0.881,-0.044 -1.087,0.586 -1.196,0.643 -0.582,0.314 -2.446,3.492 -1.052,3.15 -0.391,1.172 -0.198,0.593 -0.578,5.582 0.578,5.376 1.641,4.334 2.446,2.626 2.76,0.522 2.159,0.129" />
      <path
         style="fill:none;stroke:#000000;stroke-width:3;stroke-linecap:butt;stroke-opacity:1"
         id="path189"
         stroke-linejoin="mitter"
         d="m 80.865,334.987 -0.271,0.39 -1.56,2.24 -0.191,0.574 -1.196,3.6 -0.249,0.75 -0.343,3.328 -0.067,0.652 -0.014,0.136 -0.152,1.475 0.576,5.385 1.474,3.912 0.162,0.429 2.039,2.201 0.397,0.428 0.916,0.166 2.044,0.368 2.166,0.13 2.725,-1.641 2.384,-3.531 1.579,-4.933 0.556,-5.501 -0.549,-5.251 -1.586,-4.315 -1.329,-1.493" />
      <path
         style="fill:none;stroke:#000000;stroke-width:3;stroke-linecap:butt;stroke-opacity:1"
         id="path191"
         stroke-linejoin="mitter"
         d="m 81.499,337.311 -0.29,0.418 -1.633,4.928 -0.575,5.596 0.575,5.389 1.627,4.33 0.006,0.014 2.029,2.196 0.403,0.435 2.955,0.534" />
      <path
         style="fill:none;stroke:#000000;stroke-width:3;stroke-linecap:butt;stroke-opacity:1"
         id="path193"
         stroke-linejoin="mitter"
         d="m 82.108,336.437 -0.013,-0.728 -0.034,-1.911 -0.023,-1.339 -0.047,-2.641 -0.009,-0.52 -3.139,-0.152 -3.286,-0.158 -0.154,-0.008 -2.323,-0.112 -3.917,-0.189" />
      <path
         style="fill:none;stroke:#000000;stroke-width:3;stroke-linecap:butt;stroke-opacity:1"
         id="path195"
         stroke-linejoin="mitter"
         d="m 72.075,328.232 -2.912,0.447 0.128,7.105 3.885,5.928" />
      <path
         style="fill:none;stroke:#000000;stroke-width:3;stroke-linecap:butt;stroke-opacity:1"
         id="path197"
         stroke-linejoin="mitter"
         d="m 70.367,329.761 5.19,0.252 2.09,0.102 1.196,0.058 1.924,0.094 0.044,2.132 0.003,0.149 0.013,0.595 0.038,1.844 0.005,0.24 0.024,1.148 0.243,0.377 0.362,0.559 5.43,8.398 0.304,0.469 0.698,1.08 0.48,0.027 0.727,0.04 0.138,-0.025 1.071,-0.193 0.029,-0.005 v -0.279 -2.394 -6.315 -3.628 -4.261" />
      <path
         style="fill:none;stroke:#000000;stroke-width:3;stroke-linecap:butt;stroke-opacity:1"
         id="path199"
         stroke-linejoin="mitter"
         d="m 70.495,335.846 -0.128,-6.085" />
      <path
         style="fill:none;stroke:#000000;stroke-width:3;stroke-linecap:butt;stroke-opacity:1"
         id="path201"
         stroke-linejoin="mitter"
         d="m 69.291,335.784 1.204,0.062 3.072,4.694" />
      <path
         style="fill:none;stroke:#000000;stroke-width:3;stroke-linecap:butt;stroke-opacity:1"
         id="path203"
         stroke-linejoin="mitter"
         d="m 89.138,347.325 -0.631,-0.978 -5.425,-8.401 -0.974,-1.509 -0.726,-0.037 -0.488,-0.025" />
      <path
         style="fill:none;stroke:#000000;stroke-width:3;stroke-linecap:butt;stroke-opacity:1"
         id="path205"
         stroke-linejoin="mitter"
         d="m 78.843,332.941 v -2.768" />
      <path
         style="fill:none;stroke:#000000;stroke-width:3;stroke-linecap:butt;stroke-opacity:1"
         id="path207"
         stroke-linejoin="mitter"
         d="m 270.005,342.908 v -3.432" />
      <path
         style="fill:none;stroke:#000000;stroke-width:3;stroke-linecap:butt;stroke-opacity:1"
         id="path209"
         stroke-linejoin="mitter"
         d="m 322.166,331.321 v -2.512" />
      <path
         style="fill:none;stroke:#000000;stroke-width:3;stroke-linecap:butt;stroke-opacity:1"
         id="path211"
         stroke-linejoin="mitter"
         d="m 326.193,332.301 -0.078,-0.004" />
      <path
         style="fill:none;stroke:#000000;stroke-width:3;stroke-linecap:butt;stroke-opacity:1"
         id="path213"
         stroke-linejoin="mitter"
         d="m 283.25,337.373 9.766,-2.149 9.767,-2.15 9.766,-2.149 2.483,-0.546 1.282,-0.282 4.569,-1.006 1.283,-0.282 3.464,-0.762" />
    </g>
  </g>
</svg>
