<?xml version="1.0" encoding="UTF-8" standalone="no"?>
<svg
   xmlns:dc="http://purl.org/dc/elements/1.1/"
   xmlns:cc="http://creativecommons.org/ns#"
   xmlns:rdf="http://www.w3.org/1999/02/22-rdf-syntax-ns#"
   xmlns:svg="http://www.w3.org/2000/svg"
   xmlns="http://www.w3.org/2000/svg"
   id="svg181"
   width="400"
   version="1.1"
   height="400">
  <metadata
     id="metadata187">
    <rdf:RDF>
      <cc:Work
         rdf:about="">
        <dc:format>image/svg+xml</dc:format>
        <dc:type
           rdf:resource="http://purl.org/dc/dcmitype/StillImage" />
        <dc:title></dc:title>
      </cc:Work>
    </rdf:RDF>
  </metadata>
  <defs
     id="defs185" />
  <g
     id="RenderLayer_LineSet">
    <g
       id="fills">
      <path
         style="fill:#cccccc;fill-opacity:1;stroke:none"
         id="path2"
         fill_rule="evenodd"
         d="m 90.376,334.486 v -4.261 z" />
      <path
         style="fill:#cccccc;fill-opacity:1;stroke:none"
         id="path4"
         fill_rule="evenodd"
         d="m 80.811,332.399 -0.881,-0.044 -1.087,0.586 z" />
      <path
         style="fill:#cccccc;fill-opacity:1;stroke:none"
         id="path6"
         fill_rule="evenodd"
         d="m 314.941,175.622 -1.78,4.29 -1.013,5.867 -0.084,6.532 z" />
      <path
         style="fill:#cccccc;fill-opacity:1;stroke:none"
         id="path8"
         fill_rule="evenodd"
         d="m 372.08,150.471 -3.211,-2.507 z" />
      <path
         style="fill:#cccccc;fill-opacity:1;stroke:none"
         id="path10"
         fill_rule="evenodd"
         d="m 349.497,132.842 -37.649,-29.409 0.889,-9.873 -132.056,4.827 -72.144,2.637 -48.442,1.771 -1.157,9.027 43.845,23.607 z" />
      <path
         style="fill:#ff7f2a;fill-opacity:1;stroke:none"
         id="path12"
         fill_rule="evenodd"
         d="m 98.651,338.075 47.157,2.286 -0.374,3.907 0.492,4.968 1.397,4.02 2.082,2.456 2.342,0.522 2.04,0.11 0.457,-0.265 1.855,0.39 2.046,0.111 2.312,-1.475 2.032,-3.227 1.346,-4.535 0.474,-5.073 -0.098,-1.017 15.26,0.739 90.441,4.384 0.098,7.062 3.981,7.824 -0.41,5.165 0.476,5.757 1.354,4.624 2.015,2.778 2.24,0.516 2.479,0.149 0.462,-0.336 2.347,0.505 2.488,0.149 2.2,-1.802 1.955,-3.818 1.292,-5.307 0.455,-5.9 -0.448,-5.617 -1.299,-4.602 -0.072,-0.105 v -8.195 l 31.782,-6.994 0.041,3.184 3.631,7.852 -0.296,4.049 0.401,5.291 1.139,4.268 1.697,2.59 1.876,0.522 2.317,0.126 0.529,-0.404 0.008,0.012 2.089,0.534 2.324,0.126 1.844,-1.606 1.648,-3.466 1.089,-4.849 0.384,-5.41 -0.377,-5.168 -0.832,-3.226 v -8.904 l -0.648,-0.028 6.073,-2.695 7.076,-128.419 18.544,-20.599 0.993,-2.07 1.354,-12.541 0.114,-1.423 0.613,-7.597 3.417,-0.057 2.399,-0.04 -2.009,-10.768 -5.51,-19.63 -6.901,-17.178 -8.117,-14.067 -9.107,-10.331 -9.817,-6.037 -10.185,-1.285 -2.587,0.114 -130.8,5.77 -119.57,5.274 -2.158,0.095 -13.303,3.616 -8.525,5.581 -0.57,4.372 12.6,6.918 -1.159,9.019 43.924,23.586 -54.268,1.298 -3.888,0.131 -2.054,0.152 v 6.644 l -0.291,0.01 0.61,0.177 15.943,1.032 10.59,180.305 4.748,3.003 z m 233.258,-0.019 -1.468,1.115 v -2.512 l 3.464,-0.762 1.82,0.079 0.039,2.667 -1.538,-0.483 z m -52.123,11.624 -1.506,1.078 v -3.432 l 4.97,0.242 0.039,2.512 -1.024,-0.277 z m -198.335,-0.118 -0.198,0.593 -0.578,5.582 0.578,5.376 1.641,4.334 2.446,2.626 2.76,0.522 2.159,0.129 0.402,-0.221 2.044,0.368 2.166,0.13 2.725,-1.641 2.384,-3.531 1.579,-4.933 0.556,-5.501 -0.549,-5.251 -1.586,-4.315 -1.329,-1.493 z m -1.101,-13.48 -2.912,0.447 0.128,7.105 3.885,5.928 z m 6.768,4.709 v -2.768 l 1.924,0.094 0.044,2.132 z" />
      <g
         id="RenderLayer_LineSet-5"
         transform="translate(1.83349,2.889518)">
        <g
           id="strokes-8">
          <path
             id="path2-8"
             stroke-linejoin="mitter"
             d="m 214.235,222.362 -0.553,-0.019 -1.145,0.046 -1.07,0.156 -0.99,0.262 -0.905,0.364 -0.815,0.464 -0.722,0.56 -0.624,0.653 -0.52,0.743 -0.413,0.83 -0.301,0.913 -0.183,0.994 -0.063,1.071 0.216,1.664 0.597,1.479 0.902,1.316 1.132,1.177 1.285,1.061 1.363,0.967 1.364,0.896 1.289,0.848 1.137,0.822 0.907,0.819 0.601,0.838 0.218,0.88 -0.032,0.449 -0.094,0.413 -0.151,0.374 -0.203,0.337 -0.251,0.3 -0.295,0.263 -0.335,0.225 -0.369,0.188 -0.4,0.151 -0.427,0.114 -0.448,0.077 -0.465,0.04 -0.491,-0.031 -0.525,-0.079 -0.558,-0.125 -0.589,-0.174 -0.616,-0.222 -0.643,-0.271 -0.666,-0.32 -0.688,-0.369 -0.707,-0.418 -0.724,-0.469 -0.739,-0.518 -0.751,-0.57 v 5.601 l 0.741,0.427 0.715,0.383 0.692,0.339 0.674,0.298 0.662,0.258 0.654,0.219 0.65,0.184 0.653,0.148 0.66,0.116 0.671,0.084 0.688,0.054 0.71,0.026 1.091,-0.044 1.036,-0.17 0.974,-0.288 0.904,-0.404 0.826,-0.512 0.741,-0.616 0.647,-0.714 0.547,-0.808 0.439,-0.895 0.323,-0.977 0.199,-1.054 0.068,-1.125 -0.03,-0.657 -0.094,-0.629 -0.16,-0.607 -0.23,-0.591 -0.305,-0.582 -0.382,-0.58 -0.463,-0.585 -0.549,-0.596 -0.636,-0.614 -0.729,-0.638 -0.824,-0.67 -0.922,-0.709 -0.986,-0.659 -0.881,-0.607 -0.781,-0.56 -0.683,-0.515 -0.589,-0.475 -0.5,-0.439 -0.413,-0.406 -0.33,-0.377 -0.251,-0.351 -0.175,-0.33 -0.102,-0.313 -0.033,-0.298 0.025,-0.341 0.073,-0.322 0.12,-0.301 0.164,-0.276 0.208,-0.252 0.249,-0.223 0.288,-0.195 0.325,-0.162 0.362,-0.129 0.395,-0.093 0.428,-0.056 0.458,-0.016 0.448,0.021 0.478,0.057 0.503,0.094 0.529,0.131 0.552,0.169 0.572,0.209 0.592,0.249 0.608,0.291 0.623,0.334 0.636,0.377 0.647,0.422 0.656,0.468 v -5.161 l -0.615,-0.356 -0.608,-0.324 -0.599,-0.293 -0.592,-0.261 -0.585,-0.231 -0.578,-0.199 -0.573,-0.169 -0.568,-0.138 -0.563,-0.108 -0.56,-0.079 -0.555,-0.048"
             style="fill:none;stroke:#000000;stroke-width:3;stroke-linecap:butt;stroke-opacity:1" />
          <path
             id="path4-8"
             stroke-linejoin="mitter"
             d="m 193.601,222.253 -1.08,-0.079 -0.646,0.025 -0.642,0.084 -0.637,0.142 -0.628,0.197 -0.616,0.253 -0.602,0.306 -0.584,0.358 -0.563,0.408 -0.541,0.458 -0.515,0.505 -0.486,0.551 -0.454,0.597 -0.103,-0.001 v -3.417 l -4.573,-0.037 v 10 10 5.961 l 4.573,0.08 v -10 -8.649 l 0.529,-0.64 0.51,-0.573 0.492,-0.508 0.48,-0.445 0.469,-0.383 0.463,-0.325 0.46,-0.269 0.461,-0.213 0.464,-0.162 0.471,-0.111 0.482,-0.063 0.495,-0.018 0.676,0.058 0.631,0.157 0.583,0.253 0.532,0.344 0.479,0.433 0.424,0.515 0.365,0.595 0.305,0.671 0.242,0.741 0.175,0.809 0.108,0.872 0.036,0.931 v 10 6.161 l 4.622,0.081 v -10 -6.129 l -0.072,-1.713 -0.21,-1.558 -0.34,-1.404 -0.458,-1.251 -0.569,-1.1 -0.67,-0.95 -0.762,-0.802 -0.844,-0.654 -0.917,-0.508 -0.98,-0.363 -1.035,-0.221"
             style="fill:none;stroke:#000000;stroke-width:3;stroke-linecap:butt;stroke-opacity:1" />
          <path
             id="path6-1"
             stroke-linejoin="mitter"
             d="m 165.343,222.071 -1.744,-0.127 -1.662,0.104 -1.581,0.33 -1.489,0.541 -1.384,0.737 -1.268,0.92 -1.139,1.088 -0.997,1.243 -0.843,1.383 -0.678,1.51 -0.499,1.622 -0.309,1.722 -0.106,1.806 0.102,1.928 0.299,1.828 0.485,1.716 0.661,1.591 0.827,1.455 0.983,1.306 1.128,1.144 1.264,0.971 1.389,0.784 1.504,0.585 1.609,0.372 1.704,0.148 1.776,-0.082 1.673,-0.304 1.561,-0.517 1.439,-0.719 1.306,-0.914 1.164,-1.096 1.012,-1.271 0.851,-1.435 0.678,-1.589 0.496,-1.734 0.305,-1.866 0.104,-1.991 -0.107,-1.874 -0.312,-1.775 -0.508,-1.665 -0.691,-1.541 -0.862,-1.406 -1.023,-1.259 -1.172,-1.099 -1.309,-0.929 -1.435,-0.745 -1.55,-0.551 -1.652,-0.345"
             style="fill:none;stroke:#000000;stroke-width:3;stroke-linecap:butt;stroke-opacity:1" />
          <path
             id="path8-2"
             stroke-linejoin="mitter"
             d="m 162.51,226.605 1.038,-0.064 1.1,0.084 1.041,0.228 0.976,0.362 0.902,0.49 0.823,0.608 0.735,0.721 0.642,0.824 0.541,0.92 0.432,1.008 0.318,1.088 0.196,1.16 0.067,1.224 -0.062,1.352 -0.183,1.256 -0.3,1.156 -0.412,1.052 -0.52,0.943 -0.623,0.829 -0.723,0.711 -0.818,0.588 -0.908,0.461 -0.995,0.329 -1.076,0.193 -1.153,0.052 -1.059,-0.091 -0.996,-0.235 -0.927,-0.372 -0.853,-0.502 -0.773,-0.627 -0.688,-0.745 -0.597,-0.857 -0.501,-0.962 -0.399,-1.061 -0.292,-1.155 -0.18,-1.242 -0.061,-1.322 0.063,-1.203 0.185,-1.138 0.299,-1.066 0.407,-0.987 0.509,-0.899 0.605,-0.803 0.693,-0.7 0.775,-0.589 0.85,-0.47 0.92,-0.342 0.982,-0.207"
             style="fill:none;stroke:#000000;stroke-width:3;stroke-linecap:butt;stroke-opacity:1" />
          <path
             id="path10-5"
             stroke-linejoin="mitter"
             d="m 137.108,226.798 v 10 l -0.001,3.488 0.051,1.127 0.152,1.071 0.253,1.007 0.354,0.937 0.456,0.857 0.556,0.772 0.656,0.677 0.758,0.576 0.858,0.466 0.96,0.348 1.06,0.224 1.161,0.09 0.381,-0.008 0.414,-0.037 0.442,-0.064 0.462,-0.089 0.478,-0.113 0.485,-0.134 0.488,-0.155 0.485,-0.174 0.473,-0.19 0.458,-0.205 0.434,-0.219 0.406,-0.231 v -4.746 l -0.449,0.295 -0.442,0.268 -0.436,0.242 -0.431,0.216 -0.427,0.19 -0.421,0.163 -0.417,0.137 -0.413,0.112 -0.41,0.085 -0.406,0.059 -0.404,0.032 -0.401,0.007 -0.335,-0.024 -0.352,-0.064 -0.36,-0.11 -0.358,-0.158 -0.349,-0.212 -0.33,-0.271 -0.303,-0.333 -0.268,-0.399 -0.223,-0.471 -0.17,-0.547 -0.108,-0.627 -0.038,-0.711 v -10 -3.11 l 7.097,0.069 v -4.571 l -7.097,-0.058 v -5.301 l -6.694,7.429 -1.606,1.782 v 0.568"
             style="fill:none;stroke:#000000;stroke-width:3;stroke-linecap:butt;stroke-opacity:1" />
          <path
             id="path12-2"
             stroke-linejoin="mitter"
             d="m 128.437,221.685 -0.442,-0.024 -0.52,0.035 -0.521,0.116 -0.523,0.199 -0.526,0.284 -0.528,0.372 -0.532,0.463 -0.533,0.556 -0.537,0.651 -0.541,0.75 -0.543,0.85 -0.547,0.952 -0.551,1.059 -0.098,-0.001 v -5.828 l -4.365,-0.036 v 10 10 5.365 l 4.365,0.076 v -10 -3.297 l 0.048,-1.068 0.14,-1.021 0.227,-0.964 0.307,-0.899 0.382,-0.826 0.45,-0.743 0.513,-0.652 0.57,-0.552 0.62,-0.443 0.666,-0.326 0.704,-0.199 0.738,-0.063 0.273,0.024 0.297,0.064 0.319,0.103 0.337,0.14 0.351,0.175 0.36,0.208 0.367,0.239 0.369,0.267 0.368,0.294 0.363,0.319 0.354,0.342 0.342,0.363 2.327,-4.351 -0.456,-0.48 -0.45,-0.437 -0.445,-0.395 -0.441,-0.353 -0.439,-0.311 -0.436,-0.269 -0.436,-0.228 -0.435,-0.186 -0.436,-0.146 -0.437,-0.104 -0.439,-0.064"
             style="fill:none;stroke:#000000;stroke-width:3;stroke-linecap:butt;stroke-opacity:1" />
          <path
             id="path14"
             stroke-linejoin="mitter"
             d="m 103.019,221.517 -1.082,-0.063 -0.77,0.017 -0.738,0.065 -0.706,0.112 -0.675,0.159 -0.644,0.207 -0.612,0.255 -0.582,0.303 -0.553,0.352 -0.522,0.399 -0.493,0.448 -0.464,0.497 -0.436,0.546 v 5.435 l 0.525,-0.676 0.537,-0.612 0.549,-0.549 0.56,-0.486 0.568,-0.424 0.576,-0.364 0.583,-0.305 0.587,-0.246 0.591,-0.189 0.593,-0.131 0.594,-0.076 0.594,-0.022 0.626,0.034 0.572,0.088 0.518,0.146 0.464,0.205 0.409,0.267 0.355,0.329 0.3,0.395 0.245,0.461 0.192,0.531 0.136,0.602 0.082,0.675 0.027,0.749 v 1.35 l -3.83,1.528 -0.877,0.357 -0.88,0.371 -0.868,0.397 -0.84,0.435 -0.797,0.486 -0.739,0.547 -0.666,0.622 -0.579,0.709 -0.477,0.806 -0.358,0.917 -0.227,1.04 -0.078,1.175 0.043,0.804 0.128,0.783 0.209,0.753 0.287,0.713 0.36,0.664 0.43,0.607 0.496,0.541 0.56,0.465 0.618,0.381 0.675,0.287 0.726,0.185 0.774,0.073 0.496,-0.009 0.495,-0.044 0.495,-0.08 0.494,-0.115 0.493,-0.152 0.491,-0.187 0.49,-0.224 0.487,-0.26 0.485,-0.298 0.482,-0.334 0.479,-0.372 0.475,-0.409 0.11,0.431 0.138,0.39 0.165,0.35 0.195,0.31 0.224,0.272 0.254,0.235 0.287,0.197 0.318,0.161 0.352,0.126 0.385,0.092 0.421,0.057 0.456,0.025 0.331,-0.004 0.314,-0.025 0.304,-0.049 0.299,-0.073 0.301,-0.101 0.308,-0.131 0.321,-0.162 0.341,-0.196 0.365,-0.231 0.397,-0.269 0.434,-0.309 0.477,-0.35 v -3.046 l -0.242,0.2 -0.237,0.186 -0.23,0.171 -0.222,0.155 -0.214,0.138 -0.203,0.122 -0.192,0.104 -0.18,0.087 -0.167,0.067 -0.151,0.049 -0.136,0.029 -0.119,0.008 -0.129,-0.009 -0.118,-0.024 -0.108,-0.04 -0.098,-0.057 -0.086,-0.075 -0.076,-0.094 -0.064,-0.113 -0.053,-0.134 -0.042,-0.156 -0.03,-0.178 -0.018,-0.202 -0.006,-0.227 v -10 -3.015 l -0.071,-1.372 -0.209,-1.244 -0.337,-1.117 -0.456,-0.993 -0.566,-0.869 -0.666,-0.749 -0.759,-0.63 -0.841,-0.512 -0.915,-0.397 -0.979,-0.283 -1.035,-0.172"
             style="fill:none;stroke:#000000;stroke-width:3;stroke-linecap:butt;stroke-opacity:1" />
          <path
             id="path16"
             stroke-linejoin="mitter"
             d="m 104.615,235.112 0.91,-0.355 v 7.369 l -0.293,0.308 -0.297,0.286 -0.301,0.263 -0.306,0.239 -0.309,0.213 -0.313,0.188 -0.317,0.16 -0.321,0.132 -0.325,0.104 -0.329,0.073 -0.333,0.043 -0.337,0.011 -0.437,-0.038 -0.414,-0.094 -0.388,-0.149 -0.36,-0.201 -0.327,-0.249 -0.293,-0.295 -0.256,-0.337 -0.216,-0.377 -0.172,-0.414 -0.127,-0.448 -0.078,-0.478 -0.027,-0.506 0.065,-0.712 0.188,-0.652 0.302,-0.598 0.408,-0.549 0.502,-0.506 0.589,-0.468 0.666,-0.436 0.733,-0.409 0.792,-0.387 0.841,-0.371 0.88,-0.36"
             style="fill:none;stroke:#000000;stroke-width:3;stroke-linecap:butt;stroke-opacity:1" />
          <path
             id="path18"
             stroke-linejoin="mitter"
             d="m 85.271,221.335 -0.605,-0.019 -1.574,0.096 -1.466,0.307 -1.354,0.51 -1.235,0.705 -1.111,0.893 -0.982,1.073 -0.846,1.245 -0.705,1.41 -0.559,1.566 -0.406,1.716 -0.248,1.857 -0.084,1.992 0.091,1.789 0.268,1.691 0.437,1.583 0.596,1.464 0.746,1.334 0.889,1.196 1.021,1.045 1.147,0.884 1.263,0.713 1.37,0.531 1.469,0.338 1.56,0.133 0.571,-0.003 0.585,-0.029 0.592,-0.054 0.595,-0.075 0.59,-0.096 0.58,-0.114 0.562,-0.13 0.54,-0.146 0.511,-0.159 0.476,-0.169 0.434,-0.179 0.386,-0.187 v -4.924 l -0.532,0.26 -0.515,0.237 -0.501,0.213 -0.488,0.191 -0.477,0.167 -0.468,0.144 -0.461,0.121 -0.456,0.097 -0.453,0.075 -0.45,0.051 -0.451,0.027 -0.453,0.005 -1.067,-0.082 -0.998,-0.207 -0.924,-0.328 -0.847,-0.446 -0.763,-0.56 -0.677,-0.669 -0.584,-0.776 -0.489,-0.879 -0.388,-0.977 -0.283,-1.073 -0.173,-1.164 -0.059,-1.252 0.055,-1.23 0.161,-1.154 0.261,-1.071 0.357,-0.982 0.448,-0.888 0.534,-0.788 0.614,-0.682 0.69,-0.569 0.76,-0.452 0.826,-0.327 0.887,-0.197 0.942,-0.061 0.462,0.017 0.455,0.042 0.454,0.071 0.454,0.103 0.459,0.137 0.468,0.174 0.48,0.213 0.495,0.256 0.515,0.302 0.539,0.349 0.565,0.401 0.596,0.454 V 223.1 l -0.509,-0.261 -0.497,-0.245 -0.489,-0.226 -0.485,-0.206 -0.486,-0.186 -0.491,-0.165 -0.499,-0.144 -0.512,-0.119 -0.529,-0.096 -0.551,-0.072 -0.576,-0.045"
             style="fill:none;stroke:#000000;stroke-width:3;stroke-linecap:butt;stroke-opacity:1" />
          <path
             id="path20"
             stroke-linejoin="mitter"
             d="m 244.896,163.538 -1.548,-0.08 -1.617,0.132 -1.523,0.348 -1.418,0.553 -1.305,0.747 -1.184,0.932 -1.055,1.106 -0.915,1.271 -0.769,1.426 -0.613,1.571 -0.449,1.706 -0.276,1.831 -0.094,1.948 0.086,1.81 0.256,1.765 0.423,1.699 0.588,1.612 0.749,1.503 0.908,1.372 1.064,1.22 1.218,1.046 1.368,0.851 1.517,0.633 1.664,0.394 1.806,0.132 0.991,-0.024 0.937,-0.066 0.888,-0.109 0.847,-0.152 0.811,-0.196 0.78,-0.24 0.756,-0.284 0.738,-0.329 0.726,-0.374 0.719,-0.421 0.718,-0.466 0.725,-0.514 v -5.102 l -0.701,0.491 -0.699,0.454 -0.698,0.418 -0.698,0.379 -0.698,0.339 -0.699,0.299 -0.702,0.256 -0.703,0.213 -0.708,0.169 -0.711,0.123 -0.716,0.076 -0.722,0.028 -1.115,-0.051 -1.035,-0.164 -0.956,-0.276 -0.875,-0.388 -0.796,-0.499 -0.716,-0.61 -0.635,-0.718 -0.554,-0.828 -0.473,-0.936 -0.391,-1.044 -0.31,-1.151 -0.228,-1.258 9.999,-0.078 6.972,-0.053 -0.085,-2.357 -0.249,-2.146 -0.408,-1.936 -0.56,-1.725 -0.706,-1.517 -0.846,-1.309 -0.979,-1.101 -1.105,-0.894 -1.226,-0.69 -1.339,-0.485 -1.446,-0.282"
             style="fill:none;stroke:#000000;stroke-width:3;stroke-linecap:butt;stroke-opacity:1" />
          <path
             id="path22"
             stroke-linejoin="mitter"
             d="m 242.574,168.068 0.882,-0.059 0.817,0.043 0.763,0.146 0.704,0.246 0.645,0.341 0.582,0.433 0.517,0.522 0.45,0.606 0.381,0.688 0.309,0.765 0.235,0.839 0.159,0.908 0.08,0.975 -9.999,0.09 -2.118,0.019 0.192,-1.011 0.256,-0.933 0.321,-0.854 0.384,-0.773 0.447,-0.69 0.51,-0.606 0.573,-0.52 0.635,-0.431 0.696,-0.341 0.759,-0.248 0.82,-0.155"
             style="fill:none;stroke:#000000;stroke-width:3;stroke-linecap:butt;stroke-opacity:1" />
          <path
             id="path24"
             stroke-linejoin="mitter"
             d="m 229.632,164.164 -9.792,0.124 -1.543,0.091 -1.436,0.229 -1.322,0.362 -1.205,0.491 -1.082,0.615 -0.954,0.735 -0.822,0.849 -0.683,0.96 -0.541,1.065 -0.392,1.167 -0.24,1.264 -0.081,1.357 0.009,0.476 0.026,0.464 0.044,0.451 0.061,0.439 0.079,0.426 0.096,0.414 0.113,0.402 0.131,0.39 0.149,0.377 0.165,0.365 0.184,0.353 0.201,0.341 0.231,0.343 0.249,0.33 0.267,0.318 0.284,0.307 0.301,0.293 0.319,0.282 0.337,0.269 0.354,0.257 0.372,0.245 0.39,0.233 0.407,0.22 0.425,0.208 v 0.117 l -0.548,0.168 -0.513,0.202 -0.475,0.234 -0.435,0.263 -0.392,0.29 -0.348,0.315 -0.3,0.339 -0.252,0.358 -0.199,0.377 -0.146,0.393 -0.088,0.408 -0.031,0.418 0.016,0.29 0.046,0.285 0.078,0.282 0.111,0.278 0.143,0.276 0.176,0.274 0.211,0.273 0.245,0.272 0.28,0.271 0.315,0.273 0.352,0.273 0.388,0.275 -0.977,0.307 -0.883,0.355 -0.792,0.407 -0.702,0.459 -0.614,0.513 -0.527,0.569 -0.442,0.625 -0.358,0.683 -0.276,0.743 -0.195,0.804 -0.116,0.866 -0.038,0.931 0.092,1.125 0.27,1.064 0.439,0.997 0.599,0.922 0.75,0.841 0.892,0.752 1.024,0.656 1.148,0.554 1.263,0.444 1.369,0.327 1.465,0.202 1.553,0.071 1.693,-0.063 1.571,-0.192 1.446,-0.315 1.313,-0.437 1.178,-0.555 1.036,-0.667 0.89,-0.777 0.739,-0.883 0.583,-0.984 0.422,-1.083 0.257,-1.176 0.087,-1.265 -0.039,-0.828 -0.119,-0.803 -0.204,-0.775 -0.295,-0.741 -0.391,-0.703 -0.492,-0.661 -0.597,-0.613 -0.709,-0.562 -0.824,-0.506 -0.945,-0.444 -1.071,-0.38 -1.202,-0.31 -1.141,-0.256 -1.045,-0.252 -0.948,-0.249 -0.851,-0.251 -0.754,-0.254 -0.655,-0.261 -0.555,-0.269 -0.457,-0.281 -0.356,-0.295 -0.255,-0.312 -0.154,-0.332 -0.051,-0.353 0.128,-0.679 0.362,-0.51 0.562,-0.377 0.729,-0.281 0.863,-0.223 0.963,-0.199 1.029,-0.213 1.062,-0.264 1.062,-0.352 1.027,-0.475 0.959,-0.637 0.856,-0.834 0.278,-0.337 0.273,-0.384 0.266,-0.427 0.254,-0.464 0.239,-0.495 0.22,-0.52 0.196,-0.539 0.17,-0.553 0.138,-0.561 0.104,-0.563 0.065,-0.56 0.023,-0.551 -0.014,-0.543 -0.042,-0.516 -0.073,-0.492 -0.105,-0.475 -0.14,-0.462 -0.176,-0.453 -0.215,-0.448 -0.256,-0.449 -0.298,-0.454 -0.343,-0.464 -0.39,-0.479 -0.438,-0.497 4.878,-0.055 v -4.06"
             style="fill:none;stroke:#000000;stroke-width:3;stroke-linecap:butt;stroke-opacity:1" />
          <path
             id="path26"
             stroke-linejoin="mitter"
             d="m 217.782,168.87 0.634,-0.051 0.611,0.036 0.589,0.118 0.563,0.195 0.528,0.266 0.49,0.331 0.444,0.389 0.392,0.443 0.335,0.49 0.271,0.532 0.201,0.568 0.125,0.597 0.043,0.621 -0.039,0.701 -0.114,0.664 -0.185,0.622 -0.253,0.574 -0.316,0.524 -0.374,0.469 -0.43,0.409 -0.48,0.346 -0.527,0.277 -0.57,0.204 -0.608,0.128 -0.643,0.047 -0.691,-0.034 -0.648,-0.112 -0.601,-0.186 -0.552,-0.256 -0.499,-0.323 -0.443,-0.387 -0.384,-0.446 -0.321,-0.504 -0.256,-0.557 -0.186,-0.606 -0.115,-0.653 -0.038,-0.697 0.042,-0.634 0.125,-0.612 0.201,-0.584 0.272,-0.549 0.336,-0.508 0.396,-0.462 0.45,-0.409 0.498,-0.349 0.541,-0.284 0.577,-0.213 0.609,-0.135"
             style="fill:none;stroke:#000000;stroke-width:3;stroke-linecap:butt;stroke-opacity:1" />
          <path
             id="path28"
             stroke-linejoin="mitter"
             d="m 217.205,191.911 0.761,0.017 0.819,0.059 0.853,0.107 0.864,0.159 0.852,0.219 0.815,0.283 0.755,0.353 0.672,0.429 0.563,0.509 0.432,0.597 0.277,0.688 0.098,0.787 -0.051,0.581 -0.149,0.538 -0.245,0.494 -0.34,0.448 -0.43,0.4 -0.518,0.352 -0.604,0.301 -0.688,0.25 -0.767,0.196 -0.845,0.143 -0.92,0.086 -0.993,0.029 -1.025,-0.029 -0.943,-0.087 -0.858,-0.145 -0.774,-0.201 -0.686,-0.257 -0.599,-0.312 -0.51,-0.367 -0.42,-0.421 -0.329,-0.475 -0.236,-0.528 -0.143,-0.58 -0.048,-0.632 0.045,-0.569 0.133,-0.538 0.216,-0.501 0.294,-0.464 0.369,-0.421 0.439,-0.375 0.504,-0.328 0.567,-0.275 0.623,-0.221 0.676,-0.162 0.725,-0.101 0.769,-0.036"
             style="fill:none;stroke:#000000;stroke-width:3;stroke-linecap:butt;stroke-opacity:1" />
          <path
             id="path30"
             stroke-linejoin="mitter"
             d="m 195.956,164.124 -1.157,-0.041 -0.824,0.035 -0.79,0.083 -0.756,0.131 -0.722,0.18 -0.688,0.228 -0.656,0.278 -0.622,0.326 -0.591,0.375 -0.559,0.425 -0.528,0.475 -0.496,0.524 -0.466,0.574 v 5.621 l 0.561,-0.711 0.575,-0.644 0.588,-0.58 0.598,-0.515 0.608,-0.451 0.617,-0.39 0.623,-0.327 0.628,-0.268 0.632,-0.208 0.635,-0.149 0.635,-0.092 0.636,-0.035 0.67,0.021 0.612,0.079 0.554,0.14 0.497,0.202 0.437,0.266 0.38,0.333 0.321,0.402 0.263,0.472 0.205,0.545 0.146,0.62 0.087,0.696 0.03,0.774 v 1.397 l -4.099,1.664 -0.939,0.388 -0.942,0.404 -0.928,0.429 -0.898,0.469 -0.853,0.519 -0.791,0.583 -0.713,0.658 -0.619,0.745 -0.51,0.845 -0.384,0.956 -0.242,1.081 -0.084,1.216 0.047,0.832 0.137,0.806 0.223,0.774 0.307,0.731 0.385,0.68 0.46,0.618 0.531,0.549 0.599,0.469 0.661,0.38 0.722,0.283 0.777,0.175 0.828,0.059 0.531,-0.02 0.53,-0.056 0.529,-0.093 0.529,-0.13 0.527,-0.168 0.526,-0.204 0.524,-0.242 0.521,-0.28 0.519,-0.319 0.516,-0.356 0.512,-0.395 0.509,-0.433 0.118,0.443 0.147,0.4 0.177,0.359 0.208,0.317 0.24,0.276 0.273,0.237 0.306,0.198 0.341,0.16 0.376,0.123 0.413,0.086 0.45,0.05 0.488,0.016 0.354,-0.011 0.336,-0.033 0.325,-0.057 0.32,-0.082 0.322,-0.111 0.33,-0.142 0.344,-0.175 0.364,-0.21 0.392,-0.247 0.425,-0.287 0.464,-0.328 0.51,-0.374 v -3.151 l -0.259,0.213 -0.253,0.197 -0.246,0.182 -0.238,0.165 -0.229,0.148 -0.217,0.13 -0.206,0.113 -0.193,0.093 -0.178,0.073 -0.162,0.054 -0.145,0.032 -0.127,0.012 -0.138,-0.007 -0.127,-0.022 -0.116,-0.04 -0.104,-0.056 -0.093,-0.076 -0.081,-0.095 -0.069,-0.116 -0.056,-0.137 -0.045,-0.161 -0.032,-0.184 -0.019,-0.208 -0.007,-0.235 v -10 -3.464 l -0.076,-1.418 -0.224,-1.282 -0.36,-1.148 -0.488,-1.017 -0.606,-0.888 -0.713,-0.759 -0.812,-0.635 -0.9,-0.511 -0.979,-0.391 -1.048,-0.272 -1.108,-0.155"
             style="fill:none;stroke:#000000;stroke-width:3;stroke-linecap:butt;stroke-opacity:1" />
          <path
             id="path32"
             stroke-linejoin="mitter"
             d="m 197.664,178.153 0.975,-0.387 v 7.623 l -0.314,0.325 -0.318,0.302 -0.323,0.279 -0.326,0.253 -0.331,0.228 -0.335,0.201 -0.34,0.172 -0.343,0.144 -0.348,0.114 -0.352,0.083 -0.356,0.052 -0.361,0.018 -0.468,-0.029 -0.443,-0.089 -0.415,-0.145 -0.384,-0.2 -0.351,-0.251 -0.313,-0.299 -0.274,-0.343 -0.231,-0.385 -0.185,-0.424 -0.135,-0.461 -0.084,-0.493 -0.029,-0.522 0.07,-0.738 0.201,-0.679 0.324,-0.625 0.436,-0.577 0.538,-0.534 0.63,-0.497 0.712,-0.466 0.785,-0.439 0.847,-0.417 0.899,-0.402 0.942,-0.392"
             style="fill:none;stroke:#000000;stroke-width:3;stroke-linecap:butt;stroke-opacity:1" />
          <path
             id="path34"
             stroke-linejoin="mitter"
             d="m 180.314,164.29 -0.46,-0.015 -0.539,0.047 -0.541,0.13 -0.544,0.213 -0.546,0.301 -0.548,0.391 -0.552,0.483 -0.554,0.578 -0.558,0.675 -0.561,0.775 -0.564,0.878 -0.568,0.983 -0.572,1.09 -0.102,0.001 v -5.939 l -4.533,0.058 v 10 10 5.846 l 4.533,-0.016 v -10 -3.549 l 0.05,-1.09 0.145,-1.043 0.236,-0.987 0.319,-0.923 0.396,-0.85 0.468,-0.767 0.532,-0.675 0.592,-0.575 0.644,-0.465 0.691,-0.346 0.732,-0.217 0.766,-0.081 0.283,0.018 0.309,0.06 0.332,0.098 0.349,0.136 0.364,0.17 0.375,0.204 0.38,0.235 0.384,0.265 0.382,0.292 0.377,0.318 0.368,0.34 0.354,0.363 2.417,-4.484 -0.473,-0.479 -0.467,-0.436 -0.463,-0.393 -0.458,-0.351 -0.456,-0.307 -0.453,-0.265 -0.452,-0.223 -0.452,-0.18 -0.452,-0.139 -0.454,-0.097 -0.456,-0.056"
             style="fill:none;stroke:#000000;stroke-width:3;stroke-linecap:butt;stroke-opacity:1" />
          <path
             id="path36"
             stroke-linejoin="mitter"
             d="m 155.005,164.692 -1.451,-0.078 -1.517,0.128 -1.427,0.336 -1.33,0.534 -1.224,0.723 -1.111,0.902 -0.989,1.072 -0.859,1.23 -0.721,1.381 -0.575,1.521 -0.421,1.652 -0.258,1.774 -0.089,1.886 0.081,1.753 0.24,1.709 0.397,1.646 0.551,1.561 0.703,1.456 0.851,1.329 0.998,1.181 1.142,1.014 1.284,0.823 1.423,0.614 1.559,0.381 1.695,0.129 0.928,-0.024 0.879,-0.064 0.833,-0.105 0.794,-0.147 0.76,-0.19 0.732,-0.232 0.709,-0.275 0.692,-0.318 0.68,-0.363 0.674,-0.407 0.674,-0.451 0.679,-0.498 v -4.94 l -0.657,0.475 -0.656,0.441 -0.654,0.404 -0.654,0.367 -0.655,0.328 -0.655,0.289 -0.658,0.248 -0.66,0.206 -0.663,0.164 -0.667,0.119 -0.671,0.073 -0.677,0.027 -1.046,-0.049 -0.97,-0.16 -0.897,-0.267 -0.821,-0.376 -0.746,-0.484 -0.671,-0.59 -0.596,-0.696 -0.519,-0.801 -0.444,-0.907 -0.367,-1.011 -0.291,-1.115 -0.214,-1.218 10,-0.078 5.914,-0.045 -0.079,-2.282 -0.234,-2.078 -0.382,-1.874 -0.526,-1.672 -0.662,-1.468 -0.793,-1.268 -0.917,-1.066 -1.037,-0.867 -1.149,-0.668 -1.255,-0.47 -1.357,-0.274"
             style="fill:none;stroke:#000000;stroke-width:3;stroke-linecap:butt;stroke-opacity:1" />
          <path
             id="path38"
             stroke-linejoin="mitter"
             d="m 152.828,169.078 0.827,-0.057 0.767,0.042 0.715,0.142 0.66,0.238 0.604,0.33 0.546,0.42 0.485,0.505 0.422,0.588 0.357,0.666 0.29,0.741 0.221,0.812 0.149,0.88 0.075,0.944 -10,0.089 -1.363,0.012 0.18,-0.978 0.241,-0.904 0.3,-0.827 0.36,-0.748 0.42,-0.669 0.478,-0.586 0.537,-0.503 0.595,-0.417 0.654,-0.33 0.711,-0.241 0.769,-0.149"
             style="fill:none;stroke:#000000;stroke-width:3;stroke-linecap:butt;stroke-opacity:1" />
          <path
             id="path40"
             stroke-linejoin="mitter"
             d="m 124.249,165.501 -4.767,0.06 3.604,9.328 3.605,9.328 2.785,7.209 1.484,-0.005 3.521,-9.36 3.521,-9.359 2.788,-7.411 -4.726,0.06 -3.481,9.374 -2.365,6.367 -3.576,-9.339 -2.393,-6.252"
             style="fill:none;stroke:#000000;stroke-width:3;stroke-linecap:butt;stroke-opacity:1" />
          <path
             id="path42"
             stroke-linejoin="mitter"
             d="m 109.602,165.275 -1.404,-0.077 -1.467,0.125 -1.381,0.33 -1.286,0.526 -1.185,0.711 -1.074,0.887 -0.957,1.053 -0.831,1.21 -0.697,1.358 -0.556,1.496 -0.408,1.625 -0.25,1.744 -0.085,1.855 0.078,1.725 0.232,1.681 0.384,1.619 0.533,1.535 0.68,1.432 0.824,1.307 0.965,1.162 1.105,0.997 1.242,0.811 1.376,0.603 1.509,0.375 1.638,0.126 0.899,-0.022 0.849,-0.063 0.806,-0.104 0.768,-0.145 0.735,-0.186 0.708,-0.228 0.686,-0.27 0.669,-0.314 0.658,-0.356 0.652,-0.4 0.652,-0.445 0.657,-0.488 v -4.859 l -0.636,0.467 -0.634,0.433 -0.633,0.398 -0.633,0.36 -0.633,0.323 -0.634,0.285 -0.636,0.244 -0.638,0.202 -0.641,0.161 -0.646,0.117 -0.649,0.072 -0.655,0.026 -1.011,-0.048 -0.939,-0.157 -0.867,-0.263 -0.794,-0.37 -0.722,-0.476 -0.649,-0.58 -0.576,-0.685 -0.503,-0.788 -0.429,-0.892 -0.355,-0.995 -0.281,-1.096 -0.207,-1.198 10,-0.078 5.392,-0.041 -0.076,-2.245 -0.226,-2.043 -0.37,-1.843 -0.508,-1.644 -0.641,-1.444 -0.766,-1.247 -0.888,-1.049 -1.002,-0.853 -1.112,-0.657 -1.214,-0.463 -1.312,-0.269"
             style="fill:none;stroke:#000000;stroke-width:3;stroke-linecap:butt;stroke-opacity:1" />
          <path
             id="path44"
             stroke-linejoin="mitter"
             d="m 107.496,169.588 0.799,-0.056 0.742,0.042 0.692,0.139 0.639,0.234 0.584,0.326 0.528,0.413 0.469,0.497 0.408,0.577 0.346,0.655 0.28,0.729 0.213,0.799 0.144,0.865 0.073,0.929 -9.999,0.089 -0.992,0.009 0.174,-0.962 0.233,-0.889 0.291,-0.813 0.348,-0.737 0.406,-0.657 0.462,-0.577 0.52,-0.494 0.576,-0.41 0.632,-0.325 0.688,-0.236 0.744,-0.147"
             style="fill:none;stroke:#000000;stroke-width:3;stroke-linecap:butt;stroke-opacity:1" />
          <path
             id="path46"
             stroke-linejoin="mitter"
             d="m 79.18,153.094 -4.23,0.074 v 10 10 10 6.538 l 0.541,0.281 0.577,0.261 0.608,0.24 0.636,0.219 0.66,0.197 0.678,0.173 0.694,0.149 0.706,0.124 0.712,0.097 0.715,0.071 0.713,0.042 0.708,0.012 1.731,-0.11 1.609,-0.316 1.48,-0.516 1.348,-0.711 1.208,-0.9 1.065,-1.082 0.915,-1.261 0.761,-1.431 0.6,-1.598 0.436,-1.756 0.265,-1.91 0.089,-2.057 -0.081,-1.765 -0.236,-1.671 -0.384,-1.567 -0.522,-1.449 -0.651,-1.321 -0.772,-1.181 -0.883,-1.028 -0.986,-0.864 -1.08,-0.688 -1.165,-0.501 -1.241,-0.302 -1.308,-0.092 -0.533,0.022 -0.523,0.053 -0.515,0.083 -0.506,0.115 -0.499,0.146 -0.493,0.178 -0.486,0.211 -0.48,0.243 -0.476,0.277 -0.472,0.31 -0.468,0.344 -0.465,0.378 v -10 -4.761"
             style="fill:none;stroke:#000000;stroke-width:3;stroke-linecap:butt;stroke-opacity:1" />
          <path
             id="path48"
             stroke-linejoin="mitter"
             d="m 79.18,172.59 0.442,-0.453 0.424,-0.404 0.409,-0.356 0.398,-0.311 0.389,-0.268 0.386,-0.226 0.385,-0.187 0.387,-0.15 0.393,-0.114 0.403,-0.08 0.416,-0.049 0.433,-0.019 0.87,0.061 0.817,0.201 0.76,0.335 0.697,0.462 0.632,0.586 0.561,0.703 0.486,0.814 0.407,0.921 0.324,1.021 0.237,1.116 0.145,1.205 0.049,1.288 -0.056,1.16 -0.164,1.098 -0.267,1.027 -0.364,0.951 -0.455,0.866 -0.54,0.774 -0.62,0.676 -0.694,0.57 -0.762,0.457 -0.824,0.336 -0.881,0.209 -0.932,0.074 -0.321,-0.005 -0.342,-0.019 -0.357,-0.03 -0.369,-0.042 -0.377,-0.053 -0.381,-0.063 -0.381,-0.073 -0.376,-0.081 -0.369,-0.088 -0.357,-0.096 -0.34,-0.101 -0.321,-0.108 v -10 -3.535"
             style="fill:none;stroke:#000000;stroke-width:3;stroke-linecap:butt;stroke-opacity:1" />
        </g>
      </g>
    </g>
    <g
       style="display:inline"
       id="strokes">
      <path
         style="fill:none;stroke:#000000;stroke-width:3;stroke-linecap:butt;stroke-opacity:1"
         id="path15"
         stroke-linejoin="mitter"
         d="m 327.489,330.793 -1.538,-0.483 -1.983,1.512 -1.691,3.431 -0.111,0.471 -1.025,4.364 -0.306,4.199 -0.094,1.294 0.4,5.294 1.136,4.272 1.691,2.592 1.87,0.522 0.529,-0.404" />
      <path
         style="fill:none;stroke:#000000;stroke-width:3;stroke-linecap:butt;stroke-opacity:1"
         id="path17"
         stroke-linejoin="mitter"
         d="m 325.199,356.061 -0.785,-0.224 -1.449,-2.228 -0.973,-3.665 -0.342,-4.539 0.088,-1.203 0.254,-3.507 0.174,-0.74 0.799,-3.407 1.449,-2.948 1.701,-1.303" />
      <path
         style="fill:none;stroke:#000000;stroke-width:3;stroke-linecap:butt;stroke-opacity:1"
         id="path19"
         stroke-linejoin="mitter"
         d="m 325.951,330.31 -2.317,-0.104 -1.468,1.115 -0.521,0.396 -0.762,1.54 -0.935,1.888 -0.974,4.13 -0.165,0.701 -0.105,1.439 -0.296,4.049 0.401,5.291 1.139,4.268 1.697,2.59 1.876,0.522 2.317,0.126" />
      <path
         style="fill:none;stroke:#000000;stroke-width:3;stroke-linecap:butt;stroke-opacity:1"
         id="path21"
         stroke-linejoin="mitter"
         d="m 327.493,331.074 -1.118,0.856 -0.03,0.06 -0.152,0.311 -0.009,0.018 -1.495,3.046 -1.132,4.839 -0.399,5.498 0.399,5.298 1.132,4.275 0.51,0.786 0.348,0.534 0.82,1.262 0.008,0.012 2.089,0.534 2.324,0.126 1.844,-1.606 1.648,-3.466 1.089,-4.849 0.384,-5.41 -0.377,-5.168 -0.832,-3.226" />
      <path
         style="fill:none;stroke:#000000;stroke-width:3;stroke-linecap:butt;stroke-opacity:1"
         id="path23"
         stroke-linejoin="mitter"
         d="m 327.606,334.286 -0.581,1.187 -1.128,4.844 -0.397,5.501 0.397,5.303 1.128,4.278 0.052,0.08 0.481,0.743 0.101,0.156 0.213,0.329 0.833,1.288 2.083,0.534" />
      <path
         style="fill:none;stroke:#000000;stroke-width:3;stroke-linecap:butt;stroke-opacity:1"
         id="path25"
         stroke-linejoin="mitter"
         d="m 315.032,330.379 0.041,3.184 3.631,7.852" />
      <path
         style="fill:none;stroke:#000000;stroke-width:3;stroke-linecap:butt;stroke-opacity:1"
         id="path27"
         stroke-linejoin="mitter"
         d="m 316.366,333.622 -0.052,-3.525" />
      <path
         style="fill:none;stroke:#000000;stroke-width:3;stroke-linecap:butt;stroke-opacity:1"
         id="path29"
         stroke-linejoin="mitter"
         d="m 315.073,333.563 1.293,0.059 2.608,5.653" />
      <path
         style="fill:none;stroke:#000000;stroke-width:3;stroke-linecap:butt;stroke-opacity:1"
         id="path31"
         stroke-linejoin="mitter"
         d="m 325.63,328.047 1.82,0.079 0.039,2.667 0.004,0.281 0.019,1.287 0.005,0.373 0.002,0.17 0.018,1.231 0.069,0.151 2.688,5.937 0.688,1.517 1.412,3.119 0.056,0.003 0.865,0.043 0.375,0.018 0.854,-0.215 v -9.904 -8.904 l -0.648,-0.028" />
      <path
         style="fill:none;stroke:#000000;stroke-width:3;stroke-linecap:butt;stroke-opacity:1"
         id="path33"
         stroke-linejoin="mitter"
         d="m 334.544,325.9 -1.436,0.316 -4.353,0.956 0.002,0.186 0.038,3.079 0.024,1.921 0.023,1.837" />
      <path
         style="fill:none;stroke:#000000;stroke-width:3;stroke-linecap:butt;stroke-opacity:1"
         id="path35"
         stroke-linejoin="mitter"
         d="m 333.69,344.923 -2.966,-6.563 -1.882,-4.165 -0.177,-0.008 -1.128,-0.052" />
      <path
         style="fill:none;stroke:#000000;stroke-width:3;stroke-linecap:butt;stroke-opacity:1"
         id="path37"
         stroke-linejoin="mitter"
         d="m 143.701,346.2 -0.035,-0.008 -1.781,-2.112 -1.195,-3.452 -0.42,-4.262 0.096,-1.006 0.257,-2.7" />
      <path
         style="fill:none;stroke:#000000;stroke-width:3;stroke-linecap:butt;stroke-opacity:1"
         id="path39"
         stroke-linejoin="mitter"
         d="m 139.584,332.61 -0.131,1.377 -0.242,2.534 0.491,4.971 1.395,4.023 2.078,2.458 2.337,0.521 0.457,-0.265" />
      <path
         style="fill:none;stroke:#000000;stroke-width:3;stroke-linecap:butt;stroke-opacity:1"
         id="path41"
         stroke-linejoin="mitter"
         d="m 137.533,332.511 -0.374,3.907 0.492,4.968 1.397,4.02 2.082,2.456 2.342,0.522 2.04,0.11" />
      <path
         style="fill:none;stroke:#000000;stroke-width:3;stroke-linecap:butt;stroke-opacity:1"
         id="path43"
         stroke-linejoin="mitter"
         d="m 141.709,332.713 -0.234,2.461 -0.022,0.229 -0.116,1.224 0.49,4.975 1.392,4.026 0.482,0.572 1.163,1.379 0.428,0.508 0.677,0.142 1.855,0.39 2.046,0.111 2.312,-1.475 2.032,-3.227 1.346,-4.535 0.474,-5.073 -0.098,-1.017" />
      <path
         style="fill:none;stroke:#000000;stroke-width:3;stroke-linecap:butt;stroke-opacity:1"
         id="path45"
         stroke-linejoin="mitter"
         d="m 143.767,332.813 -0.372,3.917 0.489,4.978 1.39,4.029 0.517,0.616 0.122,0.144 0.141,0.168 0.856,1.018 0.433,0.515 2.527,0.532" />
      <path
         style="fill:none;stroke:#000000;stroke-width:3;stroke-linecap:butt;stroke-opacity:1"
         id="path47"
         stroke-linejoin="mitter"
         d="m 149.515,333.091 0.321,0.543 1.212,2.05 0.125,0.211 0.579,0.029 0.561,0.027 0.53,-0.095 0.524,-0.094 v -2.484" />
      <path
         style="fill:none;stroke:#000000;stroke-width:3;stroke-linecap:butt;stroke-opacity:1"
         id="path49"
         stroke-linejoin="mitter"
         d="m 152.313,335.951 -0.486,-0.823 -0.701,-1.186 -0.469,-0.795" />
      <path
         style="fill:none;stroke:#000000;stroke-width:3;stroke-linecap:butt;stroke-opacity:1"
         id="path51"
         stroke-linejoin="mitter"
         d="m 70.916,325.701 6.479,0.416 9.988,0.472 9.989,0.471 9.989,0.471 9.989,0.471 9.989,0.471 9.064,0.428 1.955,0.092 4.112,0.194 0.061,0.003 0.856,0.04 3.955,0.187 3.191,0.151 0.922,0.043 1.912,0.09 2.223,0.105 9.988,0.471 2.762,0.131 9.989,0.471 9.988,0.471 9.989,0.471 9.989,0.471 9.989,0.472 9.989,0.471 9.989,0.471 9.989,0.471 9.989,0.471 7.45,0.352 8.571,0.285" />
      <path
         style="fill:none;stroke:#000000;stroke-width:3;stroke-linecap:butt;stroke-opacity:1"
         id="path53"
         stroke-linejoin="mitter"
         d="m 348.489,144.87 -8.419,-0.83 -9.952,-0.982 -9.952,-0.981 -9.951,-0.981 -9.952,-0.982 -4.452,-0.439 -5.19,-0.512 -4.045,-0.134 -7.378,-0.006 -8.692,0.125 -9.998,0.213 -9.997,0.212 -9.998,0.212 -9.998,0.212 -9.998,0.212 -9.997,0.213 -9.998,0.212 -9.998,0.212 -9.997,0.212 -9.998,0.213 -5.796,0.123 -9.997,0.212 -9.998,0.212 -9.998,0.212 -2.239,0.048 -9.998,0.212 -6.708,0.142 -9.997,0.213 -0.22,0.004 -9.998,0.213 -9.997,0.212 -9.998,0.212 -9.097,0.193 -0.926,0.028 -5.476,0.163 -3.409,0.221" />
      <path
         style="fill:none;stroke:#000000;stroke-width:3;stroke-linecap:butt;stroke-opacity:1"
         id="path55"
         stroke-linejoin="mitter"
         d="m 42.529,143.637 3.888,-0.117 9.998,-0.213 9.147,-0.196 9.998,-0.214 9.997,-0.213 9.998,-0.214 10.071,-0.215 9.463,-0.202 9.998,-0.214 3.28,-0.07 9.997,-0.214 9.998,-0.214 9.998,-0.213 2.364,-0.051 9.998,-0.213 9.998,-0.214 9.997,-0.214 9.998,-0.213 9.998,-0.214 9.997,-0.214 9.998,-0.214 9.998,-0.213 9.998,-0.214 9.997,-0.214 9.998,-0.213 9.998,-0.214 4.67,-0.1 5.412,-0.078" />
      <path
         style="fill:none;stroke:#000000;stroke-width:3;stroke-linecap:butt;stroke-opacity:1"
         id="path57"
         stroke-linejoin="mitter"
         d="m 349.159,136.872 -9.936,-1.123 -9.937,-1.124 -9.937,-1.123 -9.936,-1.124 -9.937,-1.123 -1.622,-0.183 -2.499,-0.095 -4.576,-0.004 -5.412,0.088 -9.997,0.239 -9.997,0.24 -9.997,0.239 -9.997,0.239 -9.997,0.239 -9.997,0.239 -9.998,0.239 -9.997,0.24 -9.997,0.239 -9.997,0.239 -9.997,0.239 -9.997,0.239 -4.678,0.112 -9.997,0.239 -9.997,0.24 -9.997,0.239 -1.422,0.034 -9.997,0.239 -9.997,0.239 -6.534,0.156 -2.098,0.051 -9.997,0.239 -9.997,0.239 -9.997,0.239 -9.997,0.239 -9.998,0.239 -4.282,0.103 -3.888,0.131 -2.054,0.152 v 6.644" />
      <path
         style="fill:none;stroke:#000000;stroke-width:3;stroke-linecap:butt;stroke-opacity:1"
         id="path59"
         stroke-linejoin="mitter"
         d="m 40.475,143.773 2.054,-0.136 -2.054,0.068 -0.291,0.01 0.61,0.177 9.979,0.646 5.964,0.386" />
      <path
         style="fill:none;stroke:#000000;stroke-width:3;stroke-linecap:butt;stroke-opacity:1"
         id="path61"
         stroke-linejoin="mitter"
         d="m 56.677,143.891 0.06,1.033 0.587,9.983 0.586,9.983 0.586,9.983 0.587,9.982 0.586,9.983 0.586,9.983 0.586,9.983 0.587,9.983 0.586,9.982 0.586,9.983 0.587,9.983 0.586,9.983 0.586,9.983 0.586,9.982 0.587,9.983 0.586,9.983 0.586,9.983 0.623,10.597 4.748,3.003 1.005,0.636" />
      <path
         style="fill:none;stroke:#000000;stroke-width:3;stroke-linecap:butt;stroke-opacity:1"
         id="path63"
         stroke-linejoin="mitter"
         d="m 40.475,143.773 0.319,0.119" />
      <path
         style="fill:none;stroke:#000000;stroke-width:3;stroke-linecap:butt;stroke-opacity:1"
         id="path65"
         stroke-linejoin="mitter"
         d="m 333.202,326.18 0.694,-0.308 6.073,-2.695 0.55,-9.985 0.551,-9.985 0.55,-9.984 0.55,-9.985 0.55,-9.985 0.55,-9.985 0.551,-9.985 0.55,-9.985 0.55,-9.985 0.55,-9.984 0.55,-9.985 0.551,-9.985 0.473,-8.601" />
      <path
         style="fill:none;stroke:#000000;stroke-width:3;stroke-linecap:butt;stroke-opacity:1"
         id="path67"
         stroke-linejoin="mitter"
         d="m 339.969,323.177 -9.772,2.121 -1.597,0.347 -6.434,1.396 -3.272,0.71 -3.885,0.844 -9.772,2.121 -9.772,2.121 -9.773,2.121 -0.358,0.078 -3.868,0.262" />
      <path
         style="fill:none;stroke:#000000;stroke-width:3;stroke-linecap:butt;stroke-opacity:1"
         id="path69"
         stroke-linejoin="mitter"
         d="m 81.991,329.818 1.242,0.06 5.937,0.288 1.206,0.059 9.988,0.484 9.988,0.484 9.989,0.484 9.988,0.484 7.204,0.35 1.065,0.051 0.986,0.048 0.147,0.007 0.892,0.043 0.717,0.035 0.369,0.018 0.746,0.036 0.015,10e-4 1.297,0.063 5.748,0.278 0.268,0.013 0.874,0.043 0.392,0.019 0.762,0.037 0.417,0.02 0.627,0.03 0.512,0.025 0.535,0.026 2.034,0.099 9.988,0.484 5.272,0.255 9.989,0.485 9.988,0.484 9.988,0.484 9.988,0.484 9.989,0.484 9.988,0.484 9.988,0.485 9.989,0.484 10.534,0.51" />
      <path
         style="fill:none;stroke:#000000;stroke-width:3;stroke-linecap:butt;stroke-opacity:1"
         id="path71"
         stroke-linejoin="mitter"
         d="m 297.854,138.423 9.928,1.002 9.949,1.005 9.95,1.005 9.949,1.005 2.44,0.247 8.529,0.861" />
      <path
         style="fill:none;stroke:#000000;stroke-width:3;stroke-linecap:butt;stroke-opacity:1"
         id="path73"
         stroke-linejoin="mitter"
         d="m 294.215,138.291 -3.436,0.044 4.576,0.003 2.499,0.085 -3.639,-0.132" />
      <path
         style="fill:none;stroke:#000000;stroke-width:3;stroke-linecap:butt;stroke-opacity:1"
         id="path75"
         stroke-linejoin="mitter"
         d="m 349.497,132.842 -7.88,-6.156 -7.881,-6.156 -7.881,-6.156 -7.88,-6.155 -6.127,-4.786 0.889,-9.873 -9.993,0.365 -9.994,0.366 -9.993,0.365 -9.993,0.365 -9.994,0.365 -9.993,0.366 -9.993,0.365 -9.994,0.365 -9.993,0.366 -9.993,0.365 -9.994,0.365 -9.993,0.366 -9.993,0.365 -2.143,0.078 -9.993,0.366 -9.994,0.365 -9.993,0.365 -9.993,0.365 -9.994,0.366 -9.993,0.365 -9.993,0.365 -2.191,0.08 -9.993,0.366 -9.993,0.365 -9.994,0.365 -9.993,0.366 -8.469,0.309 -1.157,9.027 8.805,4.741 8.805,4.74 8.805,4.741 8.805,4.741 8.625,4.644" />
      <path
         style="fill:none;stroke:#000000;stroke-width:3;stroke-linecap:butt;stroke-opacity:1"
         id="path77"
         stroke-linejoin="mitter"
         d="m 45.32,95.957 2.196,-0.087 9.992,-0.393 9.993,-0.393 9.992,-0.393 9.992,-0.393 9.992,-0.394 9.993,-0.393 9.992,-0.393 9.992,-0.393 9.992,-0.393 9.993,-0.393 9.992,-0.394 9.992,-0.393 1.972,-0.077 9.992,-0.394 9.993,-0.393 9.992,-0.393 9.992,-0.393 9.992,-0.393 9.993,-0.393 9.992,-0.394 9.992,-0.393 9.992,-0.393 9.993,-0.393 9.992,-0.393 9.992,-0.393 9.992,-0.394 3.761,-0.148 2.646,-0.104" />
      <path
         style="fill:none;stroke:#000000;stroke-width:3;stroke-linecap:butt;stroke-opacity:1"
         id="path79"
         stroke-linejoin="mitter"
         d="m 372.08,150.471 2.399,-0.04 -1.834,-9.83 -0.175,-0.938 -2.702,-9.628 -2.703,-9.628 -0.105,-0.374 -3.728,-9.279 -3.173,-7.899 -4.998,-8.661 -3.119,-5.406 -6.613,-7.501 -2.494,-2.83 -8.519,-5.239 -1.298,-0.798 -9.921,-1.252 -0.264,-0.033 -2.587,0.114 -9.99,0.441 -9.99,0.441 -9.99,0.44 -9.991,0.441 -9.99,0.441 -9.99,0.44 -9.991,0.441 -9.99,0.441 -9.99,0.44 -9.99,0.441 -9.991,0.441 -9.99,0.44 -10.917,0.482 -9.99,0.441 -9.99,0.44 -9.99,0.441 -9.991,0.441 -9.99,0.44 -9.99,0.441 -9.991,0.441 -9.99,0.44 -9.99,0.441 -9.99,0.441 -9.991,0.44 -9.677,0.427 -2.158,0.095 -9.65,2.623 -3.653,0.993 -8.366,5.477 -0.159,0.104 -0.57,4.372 8.765,4.812 3.835,2.106 -1.159,9.019 8.811,4.731 8.81,4.731 8.81,4.73 8.81,4.731 8.683,4.663" />
      <path
         style="fill:none;stroke:#000000;stroke-width:3;stroke-linecap:butt;stroke-opacity:1"
         id="path81"
         stroke-linejoin="mitter"
         d="m 129.311,134.795 -3.366,-8.266 -5.041,-8.637 -4.116,-7.051 -6.434,-7.655 -1.817,-2.162" />
      <path
         style="fill:none;stroke:#000000;stroke-width:3;stroke-linecap:butt;stroke-opacity:1"
         id="path83"
         stroke-linejoin="mitter"
         d="m 45.89,91.585 2.196,-0.09 9.991,-0.41 9.992,-0.409 9.991,-0.41 9.992,-0.41 9.992,-0.409 9.991,-0.41 9.992,-0.409 9.992,-0.41 9.991,-0.41 9.992,-0.409 9.991,-0.41 9.992,-0.41 1.921,-0.078 9.992,-0.41 9.992,-0.409 9.991,-0.41 9.992,-0.41 9.991,-0.409 9.992,-0.41 9.992,-0.409 9.991,-0.41 9.992,-0.41 9.992,-0.409 9.991,-0.41 9.992,-0.409 9.991,-0.41 3.697,-0.152 2.645,-0.108" />
      <path
         style="fill:none;stroke:#000000;stroke-width:3;stroke-linecap:butt;stroke-opacity:1"
         id="path85"
         stroke-linejoin="mitter"
         d="m 58.938,111.822 -2.177,0.072" />
      <path
         style="fill:none;stroke:#000000;stroke-width:3;stroke-linecap:butt;stroke-opacity:1"
         id="path87"
         stroke-linejoin="mitter"
         d="m 57.92,102.875 2.175,-0.08" />
      <path
         style="fill:none;stroke:#000000;stroke-width:3;stroke-linecap:butt;stroke-opacity:1"
         id="path89"
         stroke-linejoin="mitter"
         d="m 335.822,204.367 4.248,-3.611 6.709,-5.702 0.266,-0.296 6.691,-7.432 6.691,-7.433 5.162,-5.734 0.993,-2.07 1.073,-9.943 0.281,-2.598 0.114,-1.423 0.613,-7.597 0.206,-2.564 0.147,-1.819 5.463,4.286" />
      <path
         style="fill:none;stroke:#000000;stroke-width:3;stroke-linecap:butt;stroke-opacity:1"
         id="path91"
         stroke-linejoin="mitter"
         d="m 368.663,150.528 3.417,-0.057 -3.211,-2.507" />
      <path
         style="fill:none;stroke:#000000;stroke-width:3;stroke-linecap:butt;stroke-opacity:1"
         id="path93"
         stroke-linejoin="mitter"
         d="m 315.349,93.464 -7.795,-6.264 -1.853,-1.489 0.438,-4.795 6.53,-6.009 9.375,-3.479 0.789,-0.293" />
      <path
         style="fill:none;stroke:#000000;stroke-width:3;stroke-linecap:butt;stroke-opacity:1"
         id="path95"
         stroke-linejoin="mitter"
         d="m 351.979,132.786 -7.867,-6.174 -7.867,-6.173 -7.867,-6.174 -7.866,-6.173 -6.049,-4.746" />
      <path
         style="fill:none;stroke:#000000;stroke-width:3;stroke-linecap:butt;stroke-opacity:1"
         id="path97"
         stroke-linejoin="mitter"
         d="m 311.848,103.433 2.615,-0.087 0.886,-9.882 -2.612,0.096" />
      <path
         style="fill:none;stroke:#000000;stroke-width:3;stroke-linecap:butt;stroke-opacity:1"
         id="path99"
         stroke-linejoin="mitter"
         d="m 332.191,173.292 7.741,-6.329 0.138,-0.113 7.742,-6.329 0.826,-0.676 0.368,-0.662 0.533,-0.961 0.524,-2.486 0.41,-4.905 0.432,-5.181 0.71,-8.5 0.208,-2.493 0.156,-1.871 -2.482,0.056 -0.338,4.03 -0.195,2.33 -0.365,4.346 -0.11,1.322 -0.03,0.351 -0.04,0.475 -0.434,5.176 -0.411,4.901 -0.526,2.485 -0.904,1.621 -6.074,4.945 -7.756,6.313 -2.676,2.179" />
      <path
         style="fill:none;stroke:#000000;stroke-width:3;stroke-linecap:butt;stroke-opacity:1"
         id="path101"
         stroke-linejoin="mitter"
         d="m 329.584,175.423 -2.155,0.018 -0.23,0.002 -0.177,0.002 0.109,-0.088 0.141,-0.116 0.711,-0.578" />
      <path
         style="fill:none;stroke:#000000;stroke-width:3;stroke-linecap:butt;stroke-opacity:1"
         id="path103"
         stroke-linejoin="mitter"
         d="m 319.744,192.114 -0.001,0.181 0.852,6.101 1.371,3.94 0.279,0.804 2.186,2.662 1.302,0.107 1.08,0.089 7.426,0.015 1.583,-1.646 0.608,-0.633 1.173,-3.027 0.525,-1.357 0.958,-5.822 0.079,-6.39 -0.812,-6.016 -1.584,-4.745 -2.127,-2.757 -2.354,-0.328 h -0.097 l -2.553,0.024 -4.796,0.043 -0.178,0.172 -2.068,2 -0.633,1.545 -1.132,2.765 -1.005,5.893 -0.005,0.278" />
      <path
         style="fill:none;stroke:#000000;stroke-width:3;stroke-linecap:butt;stroke-opacity:1"
         id="path105"
         stroke-linejoin="mitter"
         d="m 334.239,206.013 -0.322,-0.027 -2.035,-0.169 -0.662,-0.817 -1.502,-1.852 -1.633,-4.756 -0.843,-6.116 0.082,-6.578 0.626,-3.72 0.368,-2.189 1.747,-4.32 2.223,-2.177" />
      <path
         style="fill:none;stroke:#000000;stroke-width:3;stroke-linecap:butt;stroke-opacity:1"
         id="path107"
         stroke-linejoin="mitter"
         d="m 319.826,185.734 -0.003,0.266 -0.078,6.127 -0.002,0.168" />
      <path
         style="fill:none;stroke:#000000;stroke-width:3;stroke-linecap:butt;stroke-opacity:1"
         id="path109"
         stroke-linejoin="mitter"
         d="m 319.821,186.012 -0.077,6.102" />
      <path
         style="fill:none;stroke:#000000;stroke-width:3;stroke-linecap:butt;stroke-opacity:1"
         id="path111"
         stroke-linejoin="mitter"
         d="m 324.664,173.531 -0.956,-0.131 -6.502,0.059 -2.265,2.163" />
      <path
         style="fill:none;stroke:#000000;stroke-width:3;stroke-linecap:butt;stroke-opacity:1"
         id="path113"
         stroke-linejoin="mitter"
         d="m 312.064,192.311 0.86,6.073 1.664,4.722 2.205,2.651 2.402,0.195 6.484,0.013 0.054,-0.056" />
      <path
         style="fill:none;stroke:#000000;stroke-width:3;stroke-linecap:butt;stroke-opacity:1"
         id="path115"
         stroke-linejoin="mitter"
         d="m 333.276,198.201 -0.844,-0.034 -0.765,-0.863 -0.724,-1.989 -0.457,-3.251 0.082,-4.005 0.654,-3.549 1.001,-2.345 1.032,-1.003 0.842,0.06" />
      <path
         style="fill:none;stroke:#000000;stroke-width:3;stroke-linecap:butt;stroke-opacity:1"
         id="path117"
         stroke-linejoin="mitter"
         d="m 333.276,198.201 0.741,-0.49 0.952,-0.954 0.943,-2.27 0.613,-3.365 0.074,-3.669 -0.422,-3.043 -0.673,-1.878 -0.714,-0.83 -0.693,-0.48" />
      <path
         style="fill:none;stroke:#000000;stroke-width:3;stroke-linecap:butt;stroke-opacity:1"
         id="path119"
         stroke-linejoin="mitter"
         d="m 334.017,197.711 -0.241,-0.011 -0.554,-0.023 -0.72,-0.813 -0.681,-1.876 -0.43,-3.064 0.077,-3.775 0.615,-3.345 0.943,-2.211 0.971,-0.946 0.496,0.035 0.297,0.02" />
      <path
         style="fill:none;stroke:#000000;stroke-width:3;stroke-linecap:butt;stroke-opacity:1"
         id="path121"
         stroke-linejoin="mitter"
         d="m 325.679,205.965 -2.381,-0.195 -2.186,-2.657 -1.649,-4.733 -0.852,-6.086 0.083,-6.547 1.004,-5.88 1.765,-4.3 2.245,-2.167" />
      <path
         style="fill:none;stroke:#000000;stroke-width:3;stroke-linecap:butt;stroke-opacity:1"
         id="path123"
         stroke-linejoin="mitter"
         d="m 314.941,175.622 -1.78,4.29 -1.013,5.867 -0.084,6.532" />
      <path
         style="fill:none;stroke:#000000;stroke-width:3;stroke-linecap:butt;stroke-opacity:1"
         id="path125"
         stroke-linejoin="mitter"
         d="m 275.014,342.23 -1.024,-0.277 -2.353,1.691 -1.632,3.067 -0.377,0.71 -1.35,5.297 -0.349,4.416 -0.126,1.582 0.475,5.762 1.35,4.627 2.009,2.78 2.233,0.516 0.462,-0.336" />
      <path
         style="fill:none;stroke:#000000;stroke-width:3;stroke-linecap:butt;stroke-opacity:1"
         id="path127"
         stroke-linejoin="mitter"
         d="m 272.698,369.936 -0.551,-0.13 -1.721,-2.39 -1.155,-3.97 -0.407,-4.94 0.104,-1.315 0.303,-3.827 0.734,-2.889 0.421,-1.654 1.721,-3.245 1.797,-1.297" />
      <path
         style="fill:none;stroke:#000000;stroke-width:3;stroke-linecap:butt;stroke-opacity:1"
         id="path129"
         stroke-linejoin="mitter"
         d="m 273.99,341.953 -2.479,-0.123 -1.506,1.078 -0.854,0.611 -0.518,0.97 -1.497,2.804 -1.068,4.173 -0.286,1.119 -0.066,0.827 -0.41,5.165 0.476,5.757 1.354,4.624 2.015,2.778 2.24,0.516 2.479,0.149" />
      <path
         style="fill:none;stroke:#000000;stroke-width:3;stroke-linecap:butt;stroke-opacity:1"
         id="path131"
         stroke-linejoin="mitter"
         d="m 275.03,343.183 -0.448,0.323 -0.37,0.267 -0.268,0.506 -1.734,3.275 -1.345,5.302 -0.474,6.003 0.474,5.767 1.345,4.631 0.488,0.679 0.649,0.902 0.865,1.202 0.12,0.025 2.347,0.505 2.488,0.149 2.2,-1.802 1.955,-3.818 1.292,-5.307 0.455,-5.9 -0.448,-5.617 -1.299,-4.602 -0.072,-0.105" />
      <path
         style="fill:none;stroke:#000000;stroke-width:3;stroke-linecap:butt;stroke-opacity:1"
         id="path133"
         stroke-linejoin="mitter"
         d="m 275.262,346.637 -0.551,1.046 -1.341,5.306 -0.473,6.009 0.473,5.772 1.341,4.635 0.176,0.246 0.339,0.472 0.151,0.21 0.459,0.641 0.871,1.215 2.46,0.53" />
      <path
         style="fill:none;stroke:#000000;stroke-width:3;stroke-linecap:butt;stroke-opacity:1"
         id="path135"
         stroke-linejoin="mitter"
         d="m 276.372,338.683 -6.367,-0.307 -1.023,-0.05 -1.813,-0.087 -5.539,-0.268 0.007,0.555 0.098,7.062 3.981,7.824" />
      <path
         style="fill:none;stroke:#000000;stroke-width:3;stroke-linecap:butt;stroke-opacity:1"
         id="path137"
         stroke-linejoin="mitter"
         d="m 263.014,339.136 5.619,0.273 0.349,0.017 1.023,0.05 4.97,0.242 0.039,2.512 0.016,0.953 0.015,0.98 v 0.008 l 0.003,0.183 0.013,0.834 0.017,1.08 0.184,0.369 1.929,3.867 2.104,4.22 0.727,1.459 0.827,1.66 0.578,0.031 0.81,0.045 0.2,-0.051 0.813,-0.205 v -10 -2.095 -8.195 -0.201" />
      <path
         style="fill:none;stroke:#000000;stroke-width:3;stroke-linecap:butt;stroke-opacity:1"
         id="path139"
         stroke-linejoin="mitter"
         d="m 263.119,345.659 -0.105,-6.523" />
      <path
         style="fill:none;stroke:#000000;stroke-width:3;stroke-linecap:butt;stroke-opacity:1"
         id="path141"
         stroke-linejoin="mitter"
         d="m 261.735,345.588 1.384,0.071 2.949,5.807" />
      <path
         style="fill:none;stroke:#000000;stroke-width:3;stroke-linecap:butt;stroke-opacity:1"
         id="path143"
         stroke-linejoin="mitter"
         d="m 283.25,337.172 -6.878,1.511 0.003,0.203 0.044,3.294 0.008,0.549 0.031,2.337 0.017,1.273" />
      <path
         style="fill:none;stroke:#000000;stroke-width:3;stroke-linecap:butt;stroke-opacity:1"
         id="path145"
         stroke-linejoin="mitter"
         d="m 282.237,357.919 -2.377,-4.776 -0.837,-1.684 -2.548,-5.12 -1.397,-0.071" />
      <path
         style="fill:none;stroke:#000000;stroke-width:3;stroke-linecap:butt;stroke-opacity:1"
         id="path147"
         stroke-linejoin="mitter"
         d="m 80.827,333.143 -1.599,0.863 -0.385,0.553 -2.055,2.942 -1.639,4.92 -0.206,1.988 -0.371,3.598 0.577,5.381 1.639,4.337 2.44,2.628 2.756,0.521 0.402,-0.221" />
      <path
         style="fill:none;stroke:#000000;stroke-width:3;stroke-linecap:butt;stroke-opacity:1"
         id="path149"
         stroke-linejoin="mitter"
         d="m 78.872,357.429 -1.176,-1.269 -1.403,-3.722 -0.494,-4.613 0.188,-1.824 0.306,-2.965 1.403,-4.221 1.147,-1.645 0.945,-1.356 0.806,-0.437" />
      <path
         style="fill:none;stroke:#000000;stroke-width:3;stroke-linecap:butt;stroke-opacity:1"
         id="path151"
         stroke-linejoin="mitter"
         d="m 80.811,332.399 -0.881,-0.044 -1.087,0.586 -1.196,0.643 -0.582,0.314 -2.446,3.492 -1.052,3.15 -0.391,1.172 -0.198,0.593 -0.578,5.582 0.578,5.376 1.641,4.334 2.446,2.626 2.76,0.522 2.159,0.129" />
      <path
         style="fill:none;stroke:#000000;stroke-width:3;stroke-linecap:butt;stroke-opacity:1"
         id="path153"
         stroke-linejoin="mitter"
         d="m 80.865,334.987 -0.271,0.39 -1.56,2.24 -0.191,0.574 -1.196,3.6 -0.249,0.75 -0.343,3.328 -0.067,0.652 -0.014,0.136 -0.152,1.475 0.576,5.385 1.474,3.912 0.162,0.429 2.039,2.201 0.397,0.428 0.916,0.166 2.044,0.368 2.166,0.13 2.725,-1.641 2.384,-3.531 1.579,-4.933 0.556,-5.501 -0.549,-5.251 -1.586,-4.315 -1.329,-1.493" />
      <path
         style="fill:none;stroke:#000000;stroke-width:3;stroke-linecap:butt;stroke-opacity:1"
         id="path155"
         stroke-linejoin="mitter"
         d="m 81.499,337.311 -0.29,0.418 -1.633,4.928 -0.575,5.596 0.575,5.389 1.627,4.33 0.006,0.014 2.029,2.196 0.403,0.435 2.955,0.534" />
      <path
         style="fill:none;stroke:#000000;stroke-width:3;stroke-linecap:butt;stroke-opacity:1"
         id="path157"
         stroke-linejoin="mitter"
         d="m 82.108,336.437 -0.013,-0.728 -0.034,-1.911 -0.023,-1.339 -0.047,-2.641 -0.009,-0.52 -3.139,-0.152 -3.286,-0.158 -0.154,-0.008 -2.323,-0.112 -3.917,-0.189" />
      <path
         style="fill:none;stroke:#000000;stroke-width:3;stroke-linecap:butt;stroke-opacity:1"
         id="path159"
         stroke-linejoin="mitter"
         d="m 72.075,328.232 -2.912,0.447 0.128,7.105 3.885,5.928" />
      <path
         style="fill:none;stroke:#000000;stroke-width:3;stroke-linecap:butt;stroke-opacity:1"
         id="path161"
         stroke-linejoin="mitter"
         d="m 70.367,329.761 5.19,0.252 2.09,0.102 1.196,0.058 1.924,0.094 0.044,2.132 0.003,0.149 0.013,0.595 0.038,1.844 0.005,0.24 0.024,1.148 0.243,0.377 0.362,0.559 5.43,8.398 0.304,0.469 0.698,1.08 0.48,0.027 0.727,0.04 0.138,-0.025 1.071,-0.193 0.029,-0.005 v -0.279 -2.394 -6.315 -3.628 -4.261" />
      <path
         style="fill:none;stroke:#000000;stroke-width:3;stroke-linecap:butt;stroke-opacity:1"
         id="path163"
         stroke-linejoin="mitter"
         d="m 70.495,335.846 -0.128,-6.085" />
      <path
         style="fill:none;stroke:#000000;stroke-width:3;stroke-linecap:butt;stroke-opacity:1"
         id="path165"
         stroke-linejoin="mitter"
         d="m 69.291,335.784 1.204,0.062 3.072,4.694" />
      <path
         style="fill:none;stroke:#000000;stroke-width:3;stroke-linecap:butt;stroke-opacity:1"
         id="path167"
         stroke-linejoin="mitter"
         d="m 89.138,347.325 -0.631,-0.978 -5.425,-8.401 -0.974,-1.509 -0.726,-0.037 -0.488,-0.025" />
      <path
         style="fill:none;stroke:#000000;stroke-width:3;stroke-linecap:butt;stroke-opacity:1"
         id="path169"
         stroke-linejoin="mitter"
         d="m 78.843,332.941 v -2.768" />
      <path
         style="fill:none;stroke:#000000;stroke-width:3;stroke-linecap:butt;stroke-opacity:1"
         id="path171"
         stroke-linejoin="mitter"
         d="m 270.005,342.908 v -3.432" />
      <path
         style="fill:none;stroke:#000000;stroke-width:3;stroke-linecap:butt;stroke-opacity:1"
         id="path173"
         stroke-linejoin="mitter"
         d="m 322.166,331.321 v -2.512" />
      <path
         style="fill:none;stroke:#000000;stroke-width:3;stroke-linecap:butt;stroke-opacity:1"
         id="path175"
         stroke-linejoin="mitter"
         d="m 326.193,332.301 -0.078,-0.004" />
      <path
         style="fill:none;stroke:#000000;stroke-width:3;stroke-linecap:butt;stroke-opacity:1"
         id="path177"
         stroke-linejoin="mitter"
         d="m 283.25,337.373 9.766,-2.149 9.767,-2.15 9.766,-2.149 2.483,-0.546 1.282,-0.282 4.569,-1.006 1.283,-0.282 3.464,-0.762" />
    </g>
  </g>
</svg>
