<svg
   xmlns:dc="http://purl.org/dc/elements/1.1/"
   xmlns:cc="http://creativecommons.org/ns#"
   xmlns:rdf="http://www.w3.org/1999/02/22-rdf-syntax-ns#"
   xmlns:svg="http://www.w3.org/2000/svg"
   xmlns="http://www.w3.org/2000/svg"
   id="svg51"
   width="70"
   version="1.1"
   height="70">
  <metadata
     id="metadata57">
    <rdf:RDF>
      <cc:Work
         rdf:about="">
        <dc:format>image/svg+xml</dc:format>
        <dc:type
           rdf:resource="http://purl.org/dc/dcmitype/StillImage" />
        <dc:title></dc:title>
      </cc:Work>
    </rdf:RDF>
  </metadata>
  <defs
     id="defs55" />
  <g
     transform="translate(0,20)"
     id="RenderLayer_LineSet">
    <g
       style="display:inline"
       id="fills">
      <path
         style="fill:#ff0000;fill-opacity:1;stroke:none;stroke-width:1.60010481"
         id="path2"
         fill_rule="evenodd"
         d="m 26.261352,40.134614 7.690104,8.805377 3.485028,-7.037261 5.136337,-8.920585 4.997127,-7.661302 4.227477,-2.584169 3.632237,-7.251675 -1.552102,-7.0820647 -1.144074,-4.6611051 0.07201,-1.7409138 0.804852,-3.5554322 -3.123405,-5.8835858 -0.913661,-2.1537413 -6.978056,-3.7410451 -4.171473,-4.299482 -6.40042,-1.052869 -1.804918,0.161611 -3.885055,1.120073 -2.262548,4.798715 -5.720375,0.571237 -3.075402,4.8675196 -1.630505,2.8273848 -2.856189,2.5105643 2.345754,3.5906356 3.011397,9.6150287 -0.496032,1.108874 0.619241,2.14094 -0.0672,1.763315 1.939328,5.385954 4.104268,8.462953 0.830454,2.302551 z" />
      <path
         style="display:inline;fill:#ececec;fill-opacity:1;stroke:none;stroke-width:0.99129325"
         id="path2-4"
         fill_rule="evenodd"
         d="m 28.647425,21.705919 5.449933,4.768662 2.469821,-3.811116 3.640092,-4.831054 3.541436,-4.149071 2.99599,-1.39949 2.574147,-3.9272341 -1.099968,-3.8353806 -0.810798,-2.5242778 0.05103,-0.9428137 0.570393,-1.92548938 -2.213539,-3.18632902 -0.647508,-1.1663837 -4.945307,-2.0260099 -2.956302,-2.3284379 -4.53594,-0.5701939 -1.279135,0.08753 -2.753317,0.6065906 -1.603455,2.5988025 -4.053998,0.3093601 -2.179519,2.6360657 -1.155532,1.5312053 -2.024166,1.3596265 1.662425,1.94455353 2.13416,5.20713917 -0.351536,0.6005237 0.438854,1.1594529 -0.04763,0.9549442 1.37439,2.9168308 2.908673,4.583216 0.588537,1.246974 z" />
    </g>
    <g
       id="strokes">
      <path
         style="fill:none;stroke:#000000;stroke-width:1.44009423;stroke-linecap:butt;stroke-miterlimit:4;stroke-dasharray:none;stroke-opacity:1"
         id="path5"
         stroke-linejoin="mitter"
         d="M 33.951456,48.939991 34.33228,42.496368" />
      <path
         style="fill:none;stroke:#000000;stroke-width:1.44009423;stroke-linecap:butt;stroke-miterlimit:4;stroke-dasharray:none;stroke-opacity:1"
         id="path7"
         stroke-linejoin="mitter"
         d="m 43.220862,17.755547 0.0752,8.046927 0.0048,0.484833 -4.219477,4.289881" />
      <path
         style="fill:none;stroke:#000000;stroke-width:1.44009423;stroke-linecap:butt;stroke-miterlimit:4;stroke-dasharray:none;stroke-opacity:1"
         id="path9"
         stroke-linejoin="mitter"
         d="M 43.300868,26.287307 48.360399,16.126641" />
      <path
         style="fill:none;stroke:#000000;stroke-width:1.44009423;stroke-linecap:butt;stroke-miterlimit:4;stroke-dasharray:none;stroke-opacity:1"
         id="path11"
         stroke-linejoin="mitter"
         d="m 22.245088,30.239565 0.830454,2.302551 3.18581,7.592498 7.690104,8.805377 3.485028,-7.037261 5.136337,-8.920585 4.997127,-7.661302 4.227477,-2.584169 3.632237,-7.251675 L 53.87756,8.4029343 52.733486,3.7418292 52.679079,3.5178153" />
      <path
         style="fill:none;stroke:#000000;stroke-width:1.44009423;stroke-linecap:butt;stroke-miterlimit:4;stroke-dasharray:none;stroke-opacity:1"
         id="path13"
         stroke-linejoin="mitter"
         d="m 16.145488,11.377529 -0.496032,1.108874 0.619241,2.14094" />
      <path
         style="fill:none;stroke:#000000;stroke-width:1.44009423;stroke-linecap:butt;stroke-miterlimit:4;stroke-dasharray:none;stroke-opacity:1"
         id="path15"
         stroke-linejoin="mitter"
         d="m 16.684724,6.838033 0.09281,3.1250046 0.09921,3.2754144 0.01117,0.361624 0.427229,3.241812" />
      <path
         style="fill:none;stroke:#000000;stroke-width:1.44009423;stroke-linecap:butt;stroke-miterlimit:4;stroke-dasharray:none;stroke-opacity:1"
         id="path17"
         stroke-linejoin="mitter"
         d="m 31.592901,-12.422429 -0.851256,2.9505929" />
      <path
         style="fill:none;stroke:#000000;stroke-width:1.44009423;stroke-linecap:butt;stroke-miterlimit:4;stroke-dasharray:none;stroke-opacity:1"
         id="path19"
         stroke-linejoin="mitter"
         d="m 49.573278,-9.5918439 -6.978056,-3.7410451 -4.171473,-4.299482 -6.40042,-1.052869 -1.804918,0.161611 -3.885055,1.120073 -2.262548,4.798715 -5.720375,0.571237 -3.075402,4.8675196 -1.630505,2.8273848 -0.064,0.1136014" />
      <path
         style="fill:none;stroke:#000000;stroke-width:1.44009423;stroke-linecap:butt;stroke-miterlimit:4;stroke-dasharray:none;stroke-opacity:1"
         id="path21"
         stroke-linejoin="mitter"
         d="m 52.269455,11.631946 0.361625,-7.1524676 0.04801,-0.9616631 0.0624,-1.2336812 0.064,-0.2832187 0.804852,-3.5554322 -3.123404,-5.8835858 -0.91366,-2.1537413 -0.420827,0.3232212 -0.681645,2.2017444" />
      <path
         style="fill:none;stroke:#000000;stroke-width:1.44009423;stroke-linecap:butt;stroke-miterlimit:4;stroke-dasharray:none;stroke-opacity:1"
         id="path23"
         stroke-linejoin="mitter"
         d="m 24.070808,-12.604841 3.139406,-1.092872 4.813115,-4.987527" />
      <path
         style="fill:none;stroke:#000000;stroke-width:1.44009423;stroke-linecap:butt;stroke-miterlimit:4;stroke-dasharray:none;stroke-opacity:1"
         id="path25"
         stroke-linejoin="mitter"
         d="m 15.275031,-7.1660844 4.088268,-0.00479 3.795449,-2.1585415 2.158541,-1.2272801 5.424356,1.0848707 -2.187343,8.2405394" />
      <path
         style="fill:none;stroke:#000000;stroke-width:1.44009423;stroke-linecap:butt;stroke-miterlimit:4;stroke-dasharray:none;stroke-opacity:1"
         id="path27"
         stroke-linejoin="mitter"
         d="m 27.210214,-13.697713 -2.336153,1.5313 -2.019332,1.83052 -3.030599,2.747381 -0.460831,0.4176267" />
      <path
         style="fill:none;stroke:#000000;stroke-width:1.44009423;stroke-linecap:butt;stroke-miterlimit:4;stroke-dasharray:none;stroke-opacity:1"
         id="path29"
         stroke-linejoin="mitter"
         d="m 26.333356,-17.403556 5.689973,-1.281684 -0.894458,2.43216 -3.929857,2.568168 -2.324953,1.518499" />
      <path
         style="fill:none;stroke:#000000;stroke-width:1.44009423;stroke-linecap:butt;stroke-miterlimit:4;stroke-dasharray:none;stroke-opacity:1"
         id="path31"
         stroke-linejoin="mitter"
         d="M 15.831869,3.8698376 20.696187,2.8009684" />
      <path
         style="fill:none;stroke:#000000;stroke-width:1.44009423;stroke-linecap:butt;stroke-miterlimit:4;stroke-dasharray:none;stroke-opacity:1"
         id="path33"
         stroke-linejoin="mitter"
         d="m 20.949003,-2.7753972 3.221011,8.4453535" />
      <path
         style="fill:none;stroke:#000000;stroke-width:1.44009423;stroke-linecap:butt;stroke-miterlimit:4;stroke-dasharray:none;stroke-opacity:1"
         id="path35"
         stroke-linejoin="mitter"
         d="M 49.640483,2.8953737 50.586145,0.53361994 50.669355,0.32560597 50.946172,-0.36563924 49.24046,-8.8317941 49.15245,-9.2686227" />
      <path
         style="fill:none;stroke:#000000;stroke-width:1.44009423;stroke-linecap:butt;stroke-miterlimit:4;stroke-dasharray:none;stroke-opacity:1"
         id="path37"
         stroke-linejoin="mitter"
         d="m 13.644526,-4.3386996 -2.856189,2.5105643 2.345754,3.5906356 3.011397,9.6150287 0.220815,0.702446 -0.03201,0.825655 -0.06561,1.721713 -0.0672,1.763315 1.939327,5.385954 4.104268,8.462953 1.329687,2.74258" />
      <path
         style="fill:none;stroke:#000000;stroke-width:1.44009423;stroke-linecap:butt;stroke-miterlimit:4;stroke-dasharray:none;stroke-opacity:1"
         id="path39"
         stroke-linejoin="mitter"
         d="m 22.121881,8.0333103 2.048133,-2.363354 5.553965,-0.1264125 7.274076,-3.521832 4.832317,7.6197002" />
      <path
         style="fill:none;stroke:#000000;stroke-width:1.44009423;stroke-linecap:butt;stroke-miterlimit:4;stroke-dasharray:none;stroke-opacity:1"
         id="path41"
         stroke-linejoin="mitter"
         d="M 16.684724,6.838033 15.831869,3.8698376 13.134091,1.7625003" />
      <path
         style="fill:none;stroke:#000000;stroke-width:1.44009423;stroke-linecap:butt;stroke-miterlimit:4;stroke-dasharray:none;stroke-opacity:1"
         id="path43"
         stroke-linejoin="mitter"
         d="m 13.580522,-4.2250924 -2.792185,2.3969571" />
      <path
         style="fill:none;stroke:#000000;stroke-width:1.44009423;stroke-linecap:butt;stroke-miterlimit:4;stroke-dasharray:none;stroke-opacity:1"
         id="path45"
         stroke-linejoin="mitter"
         d="m 32.098534,-2.9690101 1.976129,-4.2850813" />
      <path
         style="fill:none;stroke:#000000;stroke-width:1.44009423;stroke-linecap:butt;stroke-miterlimit:4;stroke-dasharray:none;stroke-opacity:1"
         id="path47"
         stroke-linejoin="mitter"
         d="m 52.733486,3.7418292 0.07201,-1.7409138" />
    </g>
  </g>
</svg>
